<?xml version="1.0" standalone="no"?>
<!DOCTYPE svg PUBLIC "-//W3C//DTD SVG 1.1//EN" "http://www.w3.org/Graphics/SVG/1.1/DTD/svg11.dtd" >
<svg xmlns="http://www.w3.org/2000/svg">
<metadata></metadata>
<defs>
<font id="evelethclean_shadow" horiz-adv-x="1697" >
<font-face units-per-em="2048" ascent="1638" descent="-410" />
<missing-glyph horiz-adv-x="575" />
<glyph horiz-adv-x="2048" />
<glyph horiz-adv-x="2048" />
<glyph unicode="&#xd;" horiz-adv-x="2048" />
<glyph unicode=" "  horiz-adv-x="575" />
<glyph unicode="&#x09;" horiz-adv-x="575" />
<glyph unicode="&#xa0;" horiz-adv-x="575" />
<glyph unicode="!" horiz-adv-x="661" d="M285 -92q28 -4 45 -4q22 0 32 2q10 -2 29 -2q106 0 182 76t76 182q0 18 -2 28q2 10 2 33q0 17 -4 45q55 -68 55 -157q0 -106 -76 -182t-182 -76q-89 0 -157 55zM446 520h33q20 0 36 14.5t17 34.5l84 916h7q20 0 33.5 -14.5t11.5 -34.5l-84 -918q-1 -20 -16 -33.5 t-36 -15.5q-45 36 -86 51z" />
<glyph unicode="&#x22;" horiz-adv-x="1058" d="M264 821v2h2h176q20 0 36.5 14.5t17.5 34.5l39 443l26 -320l-14 -174q-1 -20 -17 -34.5t-36 -14.5h-177q-20 0 -36 14.5t-17 34.5zM741 821v2h2h177q20 0 36 14.5t17 34.5l53 613h6q20 0 33.5 -14.5t11.5 -34.5l-53 -615q-1 -20 -17 -34.5t-36 -14.5h-176 q-20 0 -36.5 14.5t-17.5 34.5z" />
<glyph unicode="#" horiz-adv-x="1609" d="M344 -61h229q22 0 38.5 13.5t19.5 35.5l43 241q3 18 16 29.5t31 11.5h35l-11 -59q-17 -14 -20 -33l-43 -241q-3 -22 -19 -36t-38 -14h-240q-19 0 -31.5 15t-9.5 35v2zM764 743l10 68q3 18 17 29.5t32 11.5h33l-10 -59q-18 -15 -21 -33l-2 -17h-59zM864 1327l29 158h10 q19 0 31.5 -14.5t9.5 -34.5l-18 -109h-62zM891 -61h229q22 0 38.5 13.5t19.5 35.5l43 241q3 18 16 29.5t31 11.5h174q20 0 34.5 14.5t14.5 34.5v250h2q20 0 34.5 -14.5t14.5 -34.5v-252q0 -20 -14.5 -34.5t-34.5 -14.5h-174q-18 0 -31 -11.5t-16 -29.5l-43 -241 q-3 -22 -19.5 -36t-38.5 -14h-239q-19 0 -31.5 15t-9.5 35v2zM1311 743l10 68q3 18 17 29.5t32 11.5h172q20 0 34.5 14.5t14.5 34.5v252h2q20 0 34.5 -14.5t14.5 -34.5v-254q0 -20 -14.5 -34.5t-34.5 -14.5h-172q-18 0 -32 -11.5t-17 -29.5l-2 -17h-59zM1411 1327l29 158h10 q19 0 31.5 -14.5t9.5 -34.5l-18 -109h-62z" />
<glyph unicode="$" horiz-adv-x="1230" d="M543 -113h264q20 0 34.5 15t14.5 35v98q0 44 39 53q141 40 229 135.5t88 231.5q0 20 -2 28q2 10 2 33q0 47 -8 80q60 -86 60 -193q0 -136 -88.5 -230.5t-229.5 -135.5q-39 -9 -39 -53v-99q0 -20 -14.5 -34.5t-34.5 -14.5h-266q-20 0 -34.5 14.5t-14.5 34.5v2zM856 1495 v41h2q20 0 34.5 -14.5t14.5 -34.5v-14q-23 11 -51 22zM879 961h270q18 0 32.5 18t12.5 37q0 12 -4 28q4 20 4 29v8v2q-2 24 -10 62q53 -81 61 -180q2 -19 -12.5 -37.5t-32.5 -18.5h-231q-10 6 -28.5 17.5t-33 20t-28.5 14.5z" />
<glyph unicode="%" horiz-adv-x="2234" d="M397 686q55 -14 123 -14h31h31q98 0 176 37l-60 -84q-40 -4 -65 -4q-125 0 -236 65zM463 -99.5q-7 13.5 2 25.5l8 13h307q48 0 78 38l350 488q-2 -18 -2 -55q0 -20 4 -66l-301 -418q-31 -39 -78 -39h-346q-15 0 -22 13.5zM1016 1300q45 -74 57 -153l-45 -64q2 12 2 35v31 v31q0 65 -14 120zM1503 872l441 613h38q15 0 22.5 -13.5t-1.5 -25.5l-385 -537q-59 -12 -115 -37zM1593 -84q55 -14 123 -14h31h31q185 0 316.5 130.5t131.5 315.5v31v31q0 65 -14 120q65 -108 65 -233q0 -122 -60.5 -225t-163.5 -162.5t-224 -59.5q-123 0 -236 66z" />
<glyph unicode="&#x26;" horiz-adv-x="1677" d="M379 -66q88 -26 203 -26h30h31q206 0 424 108l23 -24h2q13 -17 30 -25q-218 -110 -428 -110q-183 0 -315 77zM524 428q16 44 76 92l49 -53q-34 -25 -59 -61q-25 0 -37 6q-17 4 -29 16zM709 1157q18 44 67 60q8 -3 12 -7q3 -2 11 -10q2 -4 2 -10t-2 -10q-12 -18 -25 -31 q-11 -11 -39 -31q-19 26 -24 35zM1057 774q229 155 229 363q0 20 -2 28q2 12 2 33q0 43 -10 98q61 -99 61 -211q0 -118 -62.5 -205t-168.5 -159zM1231 -61h47h422q14 0 19.5 12.5t-3.5 23.5l-6 7l2 2l55 -60q9 -10 3.5 -23.5t-19.5 -13.5h-422q-47 0 -82 35zM1495 301 q84 66 176 158q12 11 14.5 27t-6.5 30v2l45 -43q14 -13 13.5 -34t-15.5 -33q-81 -81 -178 -160z" />
<glyph unicode="'" horiz-adv-x="581" d="M262 821v2h2h176q20 0 36.5 14.5t17.5 34.5l53 613h6q20 0 33.5 -14.5t11.5 -34.5l-53 -615q-1 -20 -17 -34.5t-36 -14.5h-177q-20 0 -36 14.5t-17 34.5z" />
<glyph unicode="(" horiz-adv-x="888" d="M526 768q6 291 107 519t258 368q30 27 10 61q1 2 2 5.5t2 4.5l43 -53q12 -17 10.5 -36.5t-16.5 -32.5q-160 -143 -262 -380.5t-102 -537.5q0 -252 73 -459q-3 5 -20 45q-99 226 -105 496zM643 -496h2q15 -7 33 -4t29 15l188 235q22 28 6 57v3q27 -27 41 -39 q15 -15 16 -35t-12 -37l-188 -236q-12 -14 -33 -15.5t-35 11.5q-33 28 -47 45z" />
<glyph unicode=")" horiz-adv-x="888" d="M326 -500q29 -7 47 11q108 96 199.5 218t167 275t118.5 342.5t43 392.5v31v31q0 324 -104 608q155 -338 155 -721q0 -203 -43 -392.5t-118.5 -343t-167 -275.5t-199.5 -218q-14 -13 -35 -11.5t-33 15.5z" />
<glyph unicode="*" horiz-adv-x="1103" d="M463 655q2 1 6 2t6 2q13 -11 33 -5.5t27 22.5l22 53l10 -20q12 -28 37 -43l-18 -41q-7 -17 -27 -22.5t-33 5.5zM723 649q11 0 20 6l244 176q10 7 13.5 22.5t-1.5 27.5l41 -39q13 -12 12.5 -31.5t-14.5 -30.5l-243 -176q-13 -11 -33 -5.5t-27 22.5zM944 1022l98 10 q19 1 29.5 16.5t5.5 34.5l-4 15q6 18 6 37q0 8 -4 24v2l-59 178q15 -8 18 -22l94 -285q5 -19 -5 -34.5t-29 -16.5l-103 -10q-12 20 -22 28z" />
<glyph unicode="+" horiz-adv-x="1122" d="M197 500v2h116v-51h-67q-20 0 -34.5 14.5t-14.5 34.5zM487 211v2h273q20 0 34.5 14.5t14.5 34.5v199q0 17 12 29t29 12h201q20 0 34.5 14.5t14.5 34.5v270h2q20 0 34.5 -14.5t14.5 -34.5v-272q0 -20 -14.5 -34.5t-34.5 -14.5h-201q-17 0 -29 -12t-12 -29v-199 q0 -20 -14.5 -34.5t-34.5 -14.5h-274q-20 0 -35 14.5t-15 34.5zM809 995v113h2q20 0 34.5 -14.5t14.5 -34.5v-64h-51z" />
<glyph unicode="," horiz-adv-x="661" d="M246 -399h4q14 -7 30 -5t27 13q168 161 254 290t86 242q0 21 -2 31q2 10 2 31q0 37 -6 67q57 -73 57 -180q0 -113 -86 -242t-254 -290q-13 -14 -34.5 -13.5t-34.5 15.5z" />
<glyph unicode="-" horiz-adv-x="854" d="M229 412v2h521q20 0 34.5 14.5t14.5 34.5v282h2q20 0 34.5 -14.5t14.5 -34.5v-284q0 -20 -14.5 -35t-34.5 -15h-522q-20 0 -35 15t-15 35z" />
<glyph unicode="." horiz-adv-x="655" d="M283 -92q28 -4 45 -4q22 0 32 2q10 -2 29 -2q106 0 182 76t76 182q0 18 -2 28q2 10 2 33q0 17 -4 45q55 -68 55 -157q0 -106 -76 -182t-182 -76q-89 0 -157 55z" />
<glyph unicode="/" horiz-adv-x="1718" d="M178 -434l4 8h312q47 0 71 43l1141 2232h29q17 0 25.5 -14t0.5 -29l-1145 -2240q-24 -43 -71 -43h-340q-17 0 -26 14t-1 29z" />
<glyph unicode="0" horiz-adv-x="1476" d="M532 768q6 170 69.5 275.5t162.5 123.5q24 -6 45 -18q19 -11 39 -31q-116 0 -190 -116.5t-74 -315.5q0 -104 20 -180q-32 43 -49 108q-20 72 -23 154zM543 -66q85 -26 192 -26h31h31q130 0 240.5 45t190 123.5t136 183.5t84 226.5t27.5 250.5v31v31q0 176 -45 327 q-6 11 -9 25q105 -203 105 -465q0 -129 -27.5 -250.5t-84 -226.5t-136 -183.5t-190 -123.5t-240.5 -45q-170 0 -305 77z" />
<glyph unicode="1" horiz-adv-x="804" d="M176 987v21l43 14v-70q-17 -3 -30 7.5t-13 27.5zM393 -61h307q20 0 35 14.5t15 34.5v61v1436h2q20 0 34.5 -14.5t14.5 -34.5v-1499q0 -20 -14.5 -35t-34.5 -15h-310q-20 0 -34.5 15t-14.5 35v2z" />
<glyph unicode="2" horiz-adv-x="1327" d="M186 -61h1057q20 0 34.5 14.5t14.5 34.5v307h2q20 0 34.5 -14.5t14.5 -34.5v-309q0 -20 -14.5 -35t-34.5 -15h-1058q-20 0 -35 15t-15 35v2zM207 938v4h186h66h61q19 0 27 10t8 37q0 76 39.5 122.5t107.5 55.5q3 -1 8.5 -2t8.5 -2q26 -9 35 -24q8 -12 10 -23 q-71 -6 -114.5 -52.5t-43.5 -125.5q0 -27 -8 -37t-27 -10h-327q-37 0 -37 47zM973 469q114 109 149 148q172 190 180 393q1 12 1 24v31v31q0 86 -21 159q72 -122 72 -272q0 -68 -17.5 -133t-42.5 -114t-65.5 -102t-73 -87t-78.5 -78h-104z" />
<glyph unicode="3" horiz-adv-x="1282" d="M188 1055v10h273q30 0 45 11.5t26 41.5q23 60 111 72q12 -4 19 -4q21 -11 32 -25q8 -11 11 -22q-95 -8 -121 -72q-3 -9 -9 -18q-54 -10 -118 -13q-38 0 -66 -22h-164q-39 0 -39 41zM233 -27q186 -65 375 -65h31h31q166 0 303.5 58t221 171t83.5 260v29v33q0 42 -10 94 q61 -88 61 -207q0 -147 -83.5 -260t-221 -171t-303.5 -58q-247 0 -488 116zM522 578q28 -2 86 -11q51 -11 70 -20q32 -11 47 -31h2q-58 11 -156 14q-20 0 -34.5 14.5t-14.5 33.5zM1102 813q131 128 131 309q0 21 -2 29q2 12 2 33q0 46 -10 98q61 -95 61 -211 q0 -181 -129 -307q-17 17 -53 49z" />
<glyph unicode="4" horiz-adv-x="1368" d="M145 211v2h555v-51h-505q-20 0 -35 14.5t-15 34.5zM647 719l53 92v-92h-53zM817 1020l264 465h31q17 0 25.5 -14t-0.5 -29l-238 -422h-82zM874 -61h295q20 0 35 14.5t15 34.5v184q0 17 12 29t29 12h65q20 0 34.5 14.5t14.5 34.5v283h2q20 0 34.5 -14.5t14.5 -34.5v-285 q0 -20 -14.5 -34.5t-34.5 -14.5h-65q-17 0 -29 -12t-12 -29v-184q0 -20 -14.5 -35t-34.5 -15h-297q-20 0 -35 15t-15 35v2zM1219 719v127h2q20 0 34.5 -14.5t14.5 -34.5v-78h-6h-45z" />
<glyph unicode="5" horiz-adv-x="1335" d="M428 -59q119 -33 227 -33h31h31q174 0 315.5 73t222 203t80.5 291v31v31q0 78 -20 163q71 -126 71 -276q0 -161 -80.5 -291t-222 -203t-315.5 -73q-179 0 -340 84zM449 537q10 0 30 4q39 -15 76 14q82 71 168 84q19 -4 25 -8q14 -7 22 -15q12 -16 16 -26 q-93 -10 -180 -86q-39 -32 -84 -10l-59 26q-2 2 -2 4q-2 2 -6 6.5t-6 6.5zM805 1124h371q20 0 34.5 15t14.5 35v311h2q20 0 34.5 -14.5t14.5 -34.5v-314q0 -20 -14.5 -34.5t-34.5 -14.5h-223q-88 42 -199 51z" />
<glyph unicode="6" horiz-adv-x="1331" d="M479 -66q96 -26 191 -26h30h31q165 0 303.5 80.5t219.5 221.5t81 310v31v31q0 88 -20 161q71 -120 71 -274q0 -169 -81 -310t-219.5 -221.5t-303.5 -80.5t-303 77zM516 559q6 46 41 86q61 71 135 82q46 -9 78 -41l8 -8h-2q-97 0 -168 -84q-43 -51 -43 -119v-8l-6 6 q-34 29 -43 86zM922 1143l249 342h39q15 0 22.5 -13.5t-1.5 -25.5l-240 -330q-35 15 -69 27z" />
<glyph unicode="7" horiz-adv-x="1191" d="M178 1124v2h412l-27 -51h-336q-20 0 -34.5 14.5t-14.5 34.5zM205 -70l4 9h336q22 0 41 12.5t30 32.5l580 1177q23 44 23 94v230h2q20 0 34.5 -14.5t14.5 -34.5v-232q0 -50 -23 -94l-579 -1178q-10 -20 -30 -32.5t-42 -12.5h-365q-17 0 -25.5 14t-0.5 29z" />
<glyph unicode="8" horiz-adv-x="1388" d="M440 -55q118 -37 256 -37h31h31q169 0 312 62t231 178.5t88 263.5v30v31q0 63 -15 121q66 -97 66 -234q0 -147 -88 -263.5t-231 -178t-312 -61.5q-208 0 -369 88zM545 481q11 56 58.5 96.5t121.5 47.5q50 -5 86 -37q2 -2 6 -6.5t6 -6.5h-14q-92 0 -149.5 -46t-65.5 -113 q-12 8 -16 14q-27 24 -33 51zM596 1112q10 41 43 70.5t86 38.5q3 -1 10 -3.5t10 -3.5q27 -12 41 -32q3 -3 7 -11q-60 -4 -98 -36t-48 -76q-26 10 -41 33q-7 10 -10 20zM1231 836q96 107 96 262v28v33q0 59 -12 111q63 -97 63 -223q0 -156 -96 -263q-36 40 -51 52z" />
<glyph unicode="9" horiz-adv-x="1331" d="M324 -99.5q-7 13.5 2 25.5l8 13h356q52 0 78 38l420 572q151 208 151 416v30v31q0 94 -24 176q76 -133 76 -289q0 -206 -152 -415l-420 -572q-27 -39 -78 -39h-395q-15 0 -22 13.5zM420 453q3 -1 8 -2t8 -2l-4 -3q-2 1 -6 3.5t-6 3.5zM520 989q11 68 59 117t115 59 q46 -9 78 -41l8 -8h-2q-88 0 -148.5 -61.5t-60.5 -149.5q-1 1 -4 3t-4 3q-32 32 -41 78z" />
<glyph unicode=":" horiz-adv-x="716" d="M313 -92q28 -4 45 -4q23 0 33 2q10 -2 29 -2q106 0 182 76t76 182q0 18 -2 28q2 10 2 33q0 17 -4 45q55 -68 55 -157q0 -106 -76 -182t-182 -76q-90 0 -158 55zM313 592q28 -4 45 -4q23 0 33 2q10 -2 29 -2q106 0 182 76t76 182q0 18 -2 28q2 10 2 33q0 17 -4 45 q55 -68 55 -157q0 -106 -76 -182t-182 -76q-90 0 -158 55z" />
<glyph unicode=";" horiz-adv-x="718" d="M276 -399h5q14 -7 30 -5t27 13q168 161 254 290t86 242q0 21 -2 31q2 10 2 31q0 37 -6 67q57 -73 57 -180q0 -113 -86 -242t-254 -290q-13 -14 -35 -13.5t-35 15.5zM311 592q28 -4 45 -4q23 0 33 2q10 -2 29 -2q106 0 182 76t76 182q0 18 -2 28q2 10 2 33q0 17 -4 45 q55 -68 55 -157q0 -106 -76 -182t-182 -76q-90 0 -158 55z" />
<glyph unicode="&#x3c;" horiz-adv-x="1198" d="M741 739l340 138q20 7 32.5 26t12.5 41v311l7 2q15 8 30 -1.5t15 -26.5v-336q0 -22 -12.5 -41.5t-32.5 -26.5l-302 -123zM1030 66l2 -3q21 3 39 9l10 -4q15 -8 30 1.5t15 26.5v334v19l7 -3q20 -7 32.5 -26t12.5 -41v-334q0 -17 -15 -27t-30 -2z" />
<glyph unicode="=" horiz-adv-x="1187" d="M229 270v2h854q20 0 35 15t15 35v270h2q20 0 34.5 -14.5t14.5 -34.5v-273q0 -20 -14.5 -34.5t-34.5 -14.5h-856q-20 0 -35 14.5t-15 34.5zM1098 735q35 11 35 47v273h2q20 0 34.5 -14.5t14.5 -34.5v-275q0 -20 -14.5 -34.5t-34.5 -14.5h-7q-6 29 -28 51z" />
<glyph unicode="&#x3e;" horiz-adv-x="1198" d="M246 45v25l893 422q20 9 32.5 28t12.5 41v256v21l6 -2q20 -9 32.5 -28.5t12.5 -41.5v-256q0 -22 -12.5 -41.5t-32.5 -28.5l-899 -424q-15 -8 -30 2t-15 27z" />
<glyph unicode="?" horiz-adv-x="1210" d="M186 985v19h293q24 0 39.5 16t20.5 41q16 98 96 119q3 -2 14 -13q4 -12 4 -18q0 -7 -4 -19q-3 -11 -20 -28q-5 -5 -49 -41q-75 -53 -131 -109h-232q-12 0 -21.5 10t-9.5 23zM510 -92q28 -4 45 -4q23 0 33 2q10 -2 28 -2q106 0 182 76t76 182q0 18 -2 28q2 10 2 33 q0 17 -4 45q56 -69 56 -157q0 -106 -76 -182t-182 -76q-90 0 -158 55zM702 506h56q26 0 33 26q5 22 15 41t29.5 36.5t33.5 28.5t45.5 32t46.5 32q45 31 80 63.5t71.5 80t57 112t20.5 138.5v30v31q0 65 -16 131q67 -106 67 -244q0 -74 -20.5 -138t-57 -112t-71.5 -80t-80 -63 q-15 -11 -46.5 -32t-45.5 -32t-33.5 -28.5t-29.5 -36.5t-15 -41q-6 -26 -33 -26h-35q-28 28 -72 51z" />
<glyph unicode="@" horiz-adv-x="1966" d="M627 -117q131 -41 276 -41h31h31q173 0 350 70q17 6 23 25t-3 34l-2 4q6 9 6 25l47 -80q9 -15 3 -34t-23 -25q-177 -70 -350 -70q-210 0 -389 92zM850 328q57 -11 96 -11q23 0 33 2q10 -2 29 -2q29 0 73 7l37 -37q-11 0 -31 -4q-39 -12 -69 -15q-92 9 -168 60zM1300 201 q60 -11 99 -11q16 0 31 3q15 -3 30 -3q94 0 182 42t156.5 117.5t110 191.5t41.5 254v30v31q0 152 -43 285q94 -190 94 -398q0 -138 -41.5 -253.5t-110 -191t-156.5 -117.5t-182 -42q-116 0 -211 62zM1436 618q26 73 26 146q0 21 -2 31q2 10 2 30q0 46 -10 101 q50 -80 59 -170q-12 -64 -36 -99q-14 -26 -35 -36q-1 0 -2 -1.5t-2 -1.5z" />
<glyph unicode="A" d="M131 -68l2 7h326q22 0 40 12.5t25 32.5l58 149q14 39 55 39h483l21 -51h-453q-41 0 -55 -39l-58 -150q-7 -20 -25 -32.5t-40 -12.5h-348q-18 0 -28 15q-6 9 -5 18q0 6 2 12zM780 666l78 206l37 -94l-43 -112h-72zM1346 -61h16h348q18 0 27.5 15t3.5 30l-4 12q6 18 6 37 q0 20 -6 35l55 -136q2 -6 2 -12q0 -9 -6 -18q-10 -15 -27 -15h-348q-22 0 -39.5 12.5t-25.5 32.5z" />
<glyph unicode="B" horiz-adv-x="1560" d="M236 -61h813q240 0 380 124.5t140 325.5v29v33q0 49 -10 104q61 -92 61 -217q0 -201 -140 -326t-380 -125h-815q-20 0 -34.5 15t-14.5 35v2zM594 432v117q0 17 12 29t29 12h307q33 0 51 -6q16 -8 19 -11q10 -10 14 -20q4 -8 4 -14h-344q-17 0 -29 -12t-12 -29v-66h-51z M594 1032v90q0 17 12 29t29 12h258q23 0 35 -6q6 -2 14 -6q10 -10 12 -18q1 -2 2.5 -6t2.5 -7.5t2 -7.5h-275q-17 0 -29 -12t-12 -29v-39h-51zM1382 815q115 109 115 281v30v31q0 70 -14 127q65 -103 65 -240q0 -169 -108 -274q-35 31 -58 45z" />
<glyph unicode="C" horiz-adv-x="1673" d="M524 770q10 161 125 274.5t275 124.5q80 -6 149 -41q25 -15 29 -18q-52 10 -94 10q-180 0 -307.5 -126.5t-127.5 -307.5q0 -39 11 -92q-54 79 -60 176zM618 -49q130 -43 277 -43h31h30q231 0 427.5 113t306.5 303q6 9 6 22l26 -12q18 -6 24 -26q2 -8 2 -15q0 -12 -7 -21 q-110 -190 -306 -302.5t-427 -112.5q-204 0 -390 94zM1346 963q22 -6 40 4l283 125q17 7 22.5 27.5t-3.5 35.5v2q1 3 2 8.5t2 8.5q40 -57 47 -70q6 -9 6 -21q-1 -7 -3 -15q-6 -21 -22 -28l-282 -125q-13 -7 -26 -7l-14 2q-20 6 -32 26q-1 1 -8 11t-12 16z" />
<glyph unicode="D" horiz-adv-x="1675" d="M236 -61h690q147 0 270.5 41t212 114t150.5 173.5t92 219t30 250.5v29v33q0 174 -47 311q99 -185 99 -424q0 -132 -30 -250.5t-92.5 -219t-151 -174t-212 -114.5t-270.5 -41h-692q-20 0 -34.5 15t-14.5 35v2zM594 457v641q0 17 12 29t29 12h199q79 0 137 -25 q32 -11 59 -35q-36 8 -84 8h-260q-17 0 -29 -11.5t-12 -28.5v-590h-51z" />
<glyph unicode="E" horiz-adv-x="1425" d="M236 -61h1126q20 0 34.5 14.5t14.5 34.5v295h2q20 0 34.5 -15t14.5 -35v-296q0 -20 -14.5 -35t-34.5 -15h-1128q-20 0 -34.5 15t-14.5 35v2zM594 457v41q0 17 12 29t29 12h582q20 0 34.5 14.5t14.5 34.5v270h2q20 0 34.5 -14.5t14.5 -34.5v-272q0 -20 -14.5 -35 t-34.5 -15h-582q-14 0 -25 -8.5t-14 -21.5h-53zM594 1032v66q0 17 12 29t29 12h727q20 0 34.5 14.5t14.5 34.5v297h2q20 0 34.5 -14.5t14.5 -34.5v-299q0 -20 -14.5 -35t-34.5 -15h-727q-17 0 -29 -11.5t-12 -28.5v-15h-51z" />
<glyph unicode="F" horiz-adv-x="1361" d="M236 -61h307q20 0 34.5 14.5t14.5 34.5v456q0 17 12 29t29 12h563q20 0 34.5 15t14.5 35v270h2q20 0 34.5 -14.5t14.5 -34.5v-273q0 -20 -14.5 -34.5t-34.5 -14.5h-563q-17 0 -29 -12t-12 -29v-456q0 -20 -14.5 -35t-34.5 -15h-309q-20 0 -34.5 15t-14.5 35v2zM592 979 v119q0 17 12 29t29 12h688q20 0 34.5 14.5t14.5 34.5v297h2q20 0 34.5 -14.5t14.5 -34.5v-299q0 -20 -14.5 -35t-34.5 -15h-688q-17 0 -29 -11.5t-12 -28.5v-68h-51z" />
<glyph unicode="G" horiz-adv-x="1703" d="M524 770q10 161 124.5 274.5t275.5 124.5q96 -6 178 -59q-52 10 -94 10q-182 0 -308.5 -126.5t-126.5 -307.5q0 -37 11 -94q-54 79 -60 178zM618 -49q128 -43 277 -43h29h32q175 0 299 80q8 -13 15 -17q18 -19 47 -28q-131 -86 -309 -86q-204 0 -390 94zM963 528v2h180 q-34 -34 -64 -51h-67q-20 0 -34.5 14.5t-14.5 34.5zM1276 1030q4 0 8 2q28 -15 57 4l252 170q14 9 18 28t-5 34v2q33 -33 47 -49q12 -15 9.5 -35t-17.5 -31l-240 -162h-88q-13 13 -41 37zM1411 -61h221q20 0 34.5 14.5t14.5 34.5v831h2q20 0 35 -14.5t15 -34.5v-833 q0 -20 -15 -35t-35 -15h-223q-20 0 -34.5 15t-14.5 35v2z" />
<glyph unicode="H" horiz-adv-x="1714" d="M236 -61h307q20 0 34.5 14.5t14.5 34.5v504q0 17 12 28.5t29 11.5h487v-51h-436q-17 0 -29 -12t-12 -29v-503q0 -20 -14.5 -35t-34.5 -15h-309q-20 0 -34.5 15t-14.5 35v2zM592 1038v447h2q20 0 34.5 -14.5t14.5 -34.5v-398h-51zM1294 -61h310q20 0 34.5 14.5t14.5 34.5 v1497h2q20 0 34.5 -14.5t14.5 -34.5v-1499q0 -20 -14.5 -35t-34.5 -15h-312q-20 0 -34.5 15t-14.5 35v2z" />
<glyph unicode="I" horiz-adv-x="655" d="M236 -61h309q20 0 34.5 14.5t14.5 34.5v1497h2q20 0 34.5 -14.5t14.5 -34.5v-1499q0 -20 -14.5 -35t-34.5 -15h-311q-20 0 -34.5 15t-14.5 35v2z" />
<glyph unicode="J" horiz-adv-x="1361" d="M430 -63q113 -29 215 -29h31h31q127 0 235.5 38t192.5 112t132 195t48 277v955h2q20 0 34.5 -14.5t14.5 -34.5v-957q0 -156 -48 -277t-132 -195t-192.5 -112t-235.5 -38q-183 0 -328 80zM504 598v20h2q20 0 34.5 -14.5t14.5 -34.5v-84q0 -27 2 -39l-2 3q-21 12 -35 45 q-16 37 -16 104z" />
<glyph unicode="K" horiz-adv-x="1572" d="M236 -61h309q20 0 34.5 14.5t14.5 34.5v391q0 42 27 72l30 32l43 -59l-22 -25q-27 -30 -27 -71v-391q0 -20 -14.5 -35t-34.5 -15h-311q-20 0 -34.5 15t-14.5 35v2zM594 1208v277h2q20 0 34.5 -14.5t14.5 -34.5v-172zM1020 887l553 598h47q14 0 19.5 -13.5t-3.5 -23.5 l-569 -619q0 -1 -1 -2t-1 -2zM1157 -61h35h410q15 0 22 13t-2 25l-6 7l6 12l51 -70q5 -7 5 -14q0 -6 -3 -12q-7 -14 -22 -13h-410q-51 0 -78 39z" />
<glyph unicode="L" horiz-adv-x="1323" d="M236 -61h1073q20 0 34.5 14.5t14.5 34.5v295h2q20 0 34.5 -15t14.5 -35v-296q0 -20 -14.5 -35t-34.5 -15h-1075q-20 0 -34.5 15t-14.5 35v2zM592 457v1028h2q20 0 34.5 -14.5t14.5 -34.5v-979h-51z" />
<glyph unicode="M" horiz-adv-x="1992" d="M236 -61h307q20 0 34.5 14.5t14.5 34.5v61v510l51 -104v-518q0 -20 -14.5 -35t-34.5 -15h-309q-20 0 -34.5 15t-14.5 35v2zM948 94h25h170q47 0 71 43l187 375v-156l-135 -270q-11 -19 -30.5 -31t-41.5 -12h-170q-22 0 -41.5 12t-30.5 31zM1575 -61h307q20 0 34.5 14.5 t14.5 34.5v1497h2q20 0 34.5 -14.5t14.5 -34.5v-1499q0 -20 -14.5 -35t-34.5 -15h-309q-20 0 -34.5 15t-14.5 35v2z" />
<glyph unicode="N" horiz-adv-x="1714" d="M236 -61h309q20 0 34.5 14.5t14.5 34.5v727l51 -66v-712q0 -20 -14.5 -35t-34.5 -15h-311q-20 0 -34.5 15t-14.5 35v2zM1317 -61h39h248q20 0 34.5 14.5t14.5 34.5v1497h2q20 0 34.5 -14.5t14.5 -34.5v-1499q0 -20 -14.5 -35t-34.5 -15h-248q-52 0 -80 39z" />
<glyph unicode="O" horiz-adv-x="1789" d="M524 770q10 161 125 274.5t277 124.5q101 -6 178 -59q-52 10 -96 10q-180 0 -307.5 -126.5t-127.5 -307.5q0 -39 11 -92q-54 79 -60 176zM618 -49q130 -43 277 -43h31h30q172 0 329 66t270.5 177t181 264.5t67.5 321.5v31v31q0 132 -39 260q90 -178 90 -373 q0 -168 -67 -321.5t-180.5 -264.5t-270.5 -177t-329 -66q-204 0 -390 94z" />
<glyph unicode="P" horiz-adv-x="1488" d="M236 -61h309q20 0 34.5 14.5t14.5 34.5v272q0 17 12 29t29 12h254q154 0 276 49.5t197.5 135.5t114.5 197.5t39 240.5v30v31q0 101 -29 211q80 -145 80 -324q0 -129 -39 -240t-114.5 -197t-197.5 -135.5t-276 -49.5h-254q-17 0 -29 -12t-12 -29v-272q0 -20 -14.5 -35 t-34.5 -15h-311q-20 0 -34.5 15t-14.5 35v2zM594 797v325q0 17 12 29t29 12h170q46 0 86 -14q24 -12 39 -27l10 -10h-22h-232q-17 0 -29 -12t-12 -29v-274h-51z" />
<glyph unicode="Q" horiz-adv-x="1755" d="M524 768q10 163 118.5 276.5t262.5 124.5q93 -6 166 -57q-36 8 -82 8q-173 0 -294.5 -126.5t-121.5 -307.5q0 -40 11 -100q-54 87 -60 182zM1337 -434q80 -25 166 -25h31h31q110 0 222 43.5t193 134.5q19 22 9 45l36 -28q15 -10 17 -32v-7q0 -18 -10 -29 q-81 -91 -193.5 -134.5t-222.5 -43.5q-137 0 -279 76zM1434 74q154 117 243.5 290t89.5 373v31v31q0 138 -41 266q93 -181 93 -379q0 -182 -74.5 -342.5t-206.5 -277.5q-1 0 -3.5 -1.5t-4.5 -1.5q-12 -4 -29 -4q-26 0 -63 13q-2 2 -4 2z" />
<glyph unicode="R" horiz-adv-x="1568" d="M236 -61h307q20 0 34.5 14.5t14.5 34.5v338q0 17 12 29t29 12h65q7 0 11 -2l4 -5h2l30 -45h-61q-17 0 -29 -12t-12 -29v-337q0 -20 -14.5 -35t-34.5 -15h-309q-20 0 -34.5 15t-14.5 35v2zM592 860v262q0 17 12 29t29 12h248q54 0 84 -12q21 -9 36 -21q15 -15 17 -18h-25 h-309q-17 0 -29 -12t-12 -29v-211h-51zM1118 -61h35h391q15 0 22.5 13.5t-1.5 27.5l-4 6q4 8 4 12l51 -70q5 -8 5 -15q1 -7 -3 -13q-8 -14 -23 -13h-391q-48 0 -78 41zM1290 444q135 75 204 210t69 298v31v31q0 108 -27 207q78 -141 78 -320q0 -165 -70.5 -301t-208.5 -211 l-4 -2z" />
<glyph unicode="S" horiz-adv-x="1431" d="M424 -49q142 -43 313 -43h31h31q185 0 326.5 53t225 161.5t83.5 260.5v29v32q0 55 -13 115q64 -103 64 -227q0 -152 -83.5 -260.5t-225 -161.5t-326.5 -53q-249 0 -426 94zM586 1149q36 55 147 61q56 -3 101 -28q10 -5 28 -23q-14 2 -45 2q-116 0 -166 -47q-4 2 -17.5 8 t-19.5 8q-18 9 -28 19zM1057 1028h301q22 0 38.5 17.5t14.5 39.5q0 11 -4 31q4 20 4 27v8q-2 34 -14 92q65 -107 65 -214q0 -19 -14 -35q-16 -18 -39 -17h-285q-50 0 -67 51z" />
<glyph unicode="T" horiz-adv-x="1454" d="M137 1137v2h324v-52h-275q-20 0 -34.5 15t-14.5 35zM635 -61h309q20 0 34.5 14.5t14.5 34.5v1110q0 17 12 29t29 12h408q20 0 34.5 14.5t14.5 34.5v297h2q20 0 34.5 -14.5t14.5 -34.5v-299q0 -20 -14.5 -35t-34.5 -15h-408q-17 0 -29 -11.5t-12 -28.5v-1110 q0 -20 -14.5 -35t-34.5 -15h-311q-20 0 -34.5 15t-14.5 35v2z" />
<glyph unicode="U" horiz-adv-x="1669" d="M557 -53q121 -39 277 -39h30h31q175 0 315.5 56t231.5 154.5t139.5 231t48.5 287.5v848h2q20 0 34.5 -14.5t14.5 -34.5v-850q0 -155 -48.5 -287.5t-139.5 -231t-231.5 -154.5t-315.5 -56q-222 0 -389 90zM571 723v762h2q20 0 35 -14.5t15 -34.5v-826q0 -63 8 -104 q-23 30 -37 67q-23 67 -23 150z" />
<glyph unicode="V" d="M737 -61h19h307q22 0 41 12.5t26 32.5l609 1501h22q17 0 27 -15q6 -9 6 -18q0 -6 -2 -12l-610 -1508q-7 -20 -26.5 -32.5t-41.5 -12.5h-307q-22 0 -41.5 12.5t-26.5 32.5z" />
<glyph unicode="W" horiz-adv-x="2349" d="M545 -61h12h326q22 0 39.5 13t23.5 34l236 719l35 -105l-220 -666q-6 -21 -23.5 -34t-39.5 -13h-326q-22 0 -39.5 13.5t-21.5 33.5zM1575 -61h14h326q22 0 39.5 13.5t21.5 33.5l422 1499h17q19 0 30 -15q8 -10 8 -22q0 -5 -2 -10l-423 -1504q-4 -20 -22 -33.5t-40 -13.5 h-326q-22 0 -39.5 13t-23.5 34z" />
<glyph unicode="X" horiz-adv-x="1572" d="M134 -100q-3 6 -4 13q0 7 5 15l6 11h363q50 0 76 41l221 325l43 -61l-213 -316q-26 -41 -76 -41h-399q-14 -1 -22 13zM1120 782l477 703h35q15 0 22.5 -14t0.5 -27l-488 -719l-4 -8zM1163 -61h31h399q15 0 22.5 13.5t-1.5 27.5l-4 6q1 3 3 8t3 8l49 -74q5 -8 5 -16 q0 -6 -3 -12q-7 -14 -22 -13h-400q-50 0 -76 41z" />
<glyph unicode="Y" horiz-adv-x="1671" d="M743 -61h308q20 0 34.5 14.5t14.5 34.5v495q0 45 22 76l578 926h35q17 0 24 -13q3 -6 3 -12q0 -8 -5 -16l-583 -936q-23 -33 -23 -76v-495q0 -20 -14.5 -35t-34.5 -15h-309q-20 0 -35 15t-15 35v2z" />
<glyph unicode="Z" horiz-adv-x="1492" d="M176 -61h1256q20 0 34.5 14.5t14.5 34.5v295h2q20 0 34.5 -15t14.5 -35v-296q0 -20 -14.5 -35t-34.5 -15h-1258q-20 0 -34.5 15t-14.5 35v2zM201 1137v2h475l-43 -52h-383q-20 0 -34.5 15t-14.5 35zM836 457l612 741q31 43 31 88v199h2q20 0 34.5 -14.5t14.5 -34.5v-201 q0 -45 -31 -88l-569 -690h-94z" />
<glyph unicode="[" horiz-adv-x="808" d="M231 -506h521q20 0 34.5 14.5t14.5 34.5v283h2q20 0 34.5 -14.5t14.5 -34.5v-285q0 -20 -14.5 -34.5t-34.5 -14.5h-522q-20 0 -35 14.5t-15 34.5v2zM588 0v1556q0 17 12 29t29 12h123q20 0 34.5 15t14.5 35v284h2q20 0 34.5 -14.5t14.5 -34.5v-287q0 -20 -14.5 -34.5 t-34.5 -14.5h-123q-17 0 -29 -12t-12 -29v-1505h-51z" />
<glyph unicode="\" horiz-adv-x="1716" d="M1317 -426h24h340q17 0 26 14t1 29l-4 10q4 11 8 33l47 -94q8 -15 -0.5 -29t-25.5 -14h-340q-22 0 -41.5 12t-30.5 31z" />
<glyph unicode="]" horiz-adv-x="808" d="M182 -508h520q20 0 35 14.5t15 34.5v62v2326h2q20 0 34.5 -14.5t14.5 -34.5v-2390q0 -20 -14.5 -34.5t-34.5 -14.5h-523q-20 0 -34.5 14.5t-14.5 34.5v2zM182 1595v2h39v-49q-17 3 -28 16.5t-11 30.5z" />
<glyph unicode="^" horiz-adv-x="1429" d="M209 582l2 6h307q22 0 41.5 12.5t28.5 32.5l137 305l37 -82l-123 -274q-9 -20 -28.5 -32.5t-41.5 -12.5h-333q-17 0 -25.5 14t-1.5 31zM1012 588h20h336q17 0 25.5 14t1.5 31l-4 8q8 24 8 39l47 -98q7 -17 -1.5 -31t-25.5 -14h-336q-22 0 -41 12.5t-28 32.5z" />
<glyph unicode="_" horiz-adv-x="1447" d="M211 -459h1151q20 0 34.5 14.5t14.5 34.5v252h2q20 0 34.5 -14.5t14.5 -34.5v-254q0 -20 -14.5 -34.5t-34.5 -14.5h-1153q-20 0 -34.5 14.5t-14.5 34.5v2z" />
<glyph unicode="`" horiz-adv-x="731" d="M559 1630q1 0 4.5 -1t5.5 -1q1 0 37 6h2q19 -9 39.5 -2.5t30.5 25.5l88 151q12 18 4 41l31 -20q17 -12 21.5 -32.5t-5.5 -39.5l-88 -151q-10 -19 -30.5 -25.5t-39.5 2.5z" />
<glyph unicode="a" d="M131 -68l2 7h326q22 0 40 12.5t25 32.5l58 149q14 39 55 39h483l21 -51h-453q-41 0 -55 -39l-58 -150q-7 -20 -25 -32.5t-40 -12.5h-348q-18 0 -28 15q-6 9 -5 18q0 6 2 12zM780 666l78 206l37 -94l-43 -112h-72zM1346 -61h16h348q18 0 27.5 15t3.5 30l-4 12q6 18 6 37 q0 20 -6 35l55 -136q2 -6 2 -12q0 -9 -6 -18q-10 -15 -27 -15h-348q-22 0 -39.5 12.5t-25.5 32.5z" />
<glyph unicode="b" horiz-adv-x="1560" d="M236 -61h813q240 0 380 124.5t140 325.5v29v33q0 49 -10 104q61 -92 61 -217q0 -201 -140 -326t-380 -125h-815q-20 0 -34.5 15t-14.5 35v2zM594 432v117q0 17 12 29t29 12h307q33 0 51 -6q16 -8 19 -11q10 -10 14 -20q4 -8 4 -14h-344q-17 0 -29 -12t-12 -29v-66h-51z M594 1032v90q0 17 12 29t29 12h258q23 0 35 -6q6 -2 14 -6q10 -10 12 -18q1 -2 2.5 -6t2.5 -7.5t2 -7.5h-275q-17 0 -29 -12t-12 -29v-39h-51zM1382 815q115 109 115 281v30v31q0 70 -14 127q65 -103 65 -240q0 -169 -108 -274q-35 31 -58 45z" />
<glyph unicode="c" horiz-adv-x="1673" d="M524 770q10 161 125 274.5t275 124.5q80 -6 149 -41q25 -15 29 -18q-52 10 -94 10q-180 0 -307.5 -126.5t-127.5 -307.5q0 -39 11 -92q-54 79 -60 176zM618 -49q130 -43 277 -43h31h30q231 0 427.5 113t306.5 303q6 9 6 22l26 -12q18 -6 24 -26q2 -8 2 -15q0 -12 -7 -21 q-110 -190 -306 -302.5t-427 -112.5q-204 0 -390 94zM1346 963q22 -6 40 4l283 125q17 7 22.5 27.5t-3.5 35.5v2q1 3 2 8.5t2 8.5q40 -57 47 -70q6 -9 6 -21q-1 -7 -3 -15q-6 -21 -22 -28l-282 -125q-13 -7 -26 -7l-14 2q-20 6 -32 26q-1 1 -8 11t-12 16z" />
<glyph unicode="d" horiz-adv-x="1675" d="M236 -61h690q147 0 270.5 41t212 114t150.5 173.5t92 219t30 250.5v29v33q0 174 -47 311q99 -185 99 -424q0 -132 -30 -250.5t-92.5 -219t-151 -174t-212 -114.5t-270.5 -41h-692q-20 0 -34.5 15t-14.5 35v2zM594 457v641q0 17 12 29t29 12h199q79 0 137 -25 q32 -11 59 -35q-36 8 -84 8h-260q-17 0 -29 -11.5t-12 -28.5v-590h-51z" />
<glyph unicode="e" horiz-adv-x="1425" d="M236 -61h1126q20 0 34.5 14.5t14.5 34.5v295h2q20 0 34.5 -15t14.5 -35v-296q0 -20 -14.5 -35t-34.5 -15h-1128q-20 0 -34.5 15t-14.5 35v2zM594 457v41q0 17 12 29t29 12h582q20 0 34.5 14.5t14.5 34.5v270h2q20 0 34.5 -14.5t14.5 -34.5v-272q0 -20 -14.5 -35 t-34.5 -15h-582q-14 0 -25 -8.5t-14 -21.5h-53zM594 1032v66q0 17 12 29t29 12h727q20 0 34.5 14.5t14.5 34.5v297h2q20 0 34.5 -14.5t14.5 -34.5v-299q0 -20 -14.5 -35t-34.5 -15h-727q-17 0 -29 -11.5t-12 -28.5v-15h-51z" />
<glyph unicode="f" horiz-adv-x="1361" d="M236 -61h307q20 0 34.5 14.5t14.5 34.5v456q0 17 12 29t29 12h563q20 0 34.5 15t14.5 35v270h2q20 0 34.5 -14.5t14.5 -34.5v-273q0 -20 -14.5 -34.5t-34.5 -14.5h-563q-17 0 -29 -12t-12 -29v-456q0 -20 -14.5 -35t-34.5 -15h-309q-20 0 -34.5 15t-14.5 35v2zM592 979 v119q0 17 12 29t29 12h688q20 0 34.5 14.5t14.5 34.5v297h2q20 0 34.5 -14.5t14.5 -34.5v-299q0 -20 -14.5 -35t-34.5 -15h-688q-17 0 -29 -11.5t-12 -28.5v-68h-51z" />
<glyph unicode="g" horiz-adv-x="1703" d="M524 770q10 161 124.5 274.5t275.5 124.5q96 -6 178 -59q-52 10 -94 10q-182 0 -308.5 -126.5t-126.5 -307.5q0 -37 11 -94q-54 79 -60 178zM618 -49q128 -43 277 -43h29h32q175 0 299 80q8 -13 15 -17q18 -19 47 -28q-131 -86 -309 -86q-204 0 -390 94zM963 528v2h180 q-34 -34 -64 -51h-67q-20 0 -34.5 14.5t-14.5 34.5zM1276 1030q4 0 8 2q28 -15 57 4l252 170q14 9 18 28t-5 34v2q33 -33 47 -49q12 -15 9.5 -35t-17.5 -31l-240 -162h-88q-13 13 -41 37zM1411 -61h221q20 0 34.5 14.5t14.5 34.5v831h2q20 0 35 -14.5t15 -34.5v-833 q0 -20 -15 -35t-35 -15h-223q-20 0 -34.5 15t-14.5 35v2z" />
<glyph unicode="h" horiz-adv-x="1714" d="M236 -61h307q20 0 34.5 14.5t14.5 34.5v504q0 17 12 28.5t29 11.5h487v-51h-436q-17 0 -29 -12t-12 -29v-503q0 -20 -14.5 -35t-34.5 -15h-309q-20 0 -34.5 15t-14.5 35v2zM592 1038v447h2q20 0 34.5 -14.5t14.5 -34.5v-398h-51zM1294 -61h310q20 0 34.5 14.5t14.5 34.5 v1497h2q20 0 34.5 -14.5t14.5 -34.5v-1499q0 -20 -14.5 -35t-34.5 -15h-312q-20 0 -34.5 15t-14.5 35v2z" />
<glyph unicode="i" horiz-adv-x="655" d="M236 -61h309q20 0 34.5 14.5t14.5 34.5v1497h2q20 0 34.5 -14.5t14.5 -34.5v-1499q0 -20 -14.5 -35t-34.5 -15h-311q-20 0 -34.5 15t-14.5 35v2z" />
<glyph unicode="j" horiz-adv-x="1361" d="M430 -63q113 -29 215 -29h31h31q127 0 235.5 38t192.5 112t132 195t48 277v955h2q20 0 34.5 -14.5t14.5 -34.5v-957q0 -156 -48 -277t-132 -195t-192.5 -112t-235.5 -38q-183 0 -328 80zM504 598v20h2q20 0 34.5 -14.5t14.5 -34.5v-84q0 -27 2 -39l-2 3q-21 12 -35 45 q-16 37 -16 104z" />
<glyph unicode="k" horiz-adv-x="1572" d="M236 -61h309q20 0 34.5 14.5t14.5 34.5v391q0 42 27 72l30 32l43 -59l-22 -25q-27 -30 -27 -71v-391q0 -20 -14.5 -35t-34.5 -15h-311q-20 0 -34.5 15t-14.5 35v2zM594 1208v277h2q20 0 34.5 -14.5t14.5 -34.5v-172zM1020 887l553 598h47q14 0 19.5 -13.5t-3.5 -23.5 l-569 -619q0 -1 -1 -2t-1 -2zM1157 -61h35h410q15 0 22 13t-2 25l-6 7l6 12l51 -70q5 -7 5 -14q0 -6 -3 -12q-7 -14 -22 -13h-410q-51 0 -78 39z" />
<glyph unicode="l" horiz-adv-x="1323" d="M236 -61h1073q20 0 34.5 14.5t14.5 34.5v295h2q20 0 34.5 -15t14.5 -35v-296q0 -20 -14.5 -35t-34.5 -15h-1075q-20 0 -34.5 15t-14.5 35v2zM592 457v1028h2q20 0 34.5 -14.5t14.5 -34.5v-979h-51z" />
<glyph unicode="m" horiz-adv-x="1992" d="M236 -61h307q20 0 34.5 14.5t14.5 34.5v61v510l51 -104v-518q0 -20 -14.5 -35t-34.5 -15h-309q-20 0 -34.5 15t-14.5 35v2zM948 94h25h170q47 0 71 43l187 375v-156l-135 -270q-11 -19 -30.5 -31t-41.5 -12h-170q-22 0 -41.5 12t-30.5 31zM1575 -61h307q20 0 34.5 14.5 t14.5 34.5v1497h2q20 0 34.5 -14.5t14.5 -34.5v-1499q0 -20 -14.5 -35t-34.5 -15h-309q-20 0 -34.5 15t-14.5 35v2z" />
<glyph unicode="n" horiz-adv-x="1712" d="M236 -61h307q20 0 34.5 14.5t14.5 34.5v727l51 -66v-712q0 -20 -14.5 -35t-34.5 -15h-309q-20 0 -34.5 15t-14.5 35v2zM1315 -61h39h248q20 0 34.5 14.5t14.5 34.5v1497h2q20 0 34.5 -14.5t14.5 -34.5v-1499q0 -20 -14.5 -35t-34.5 -15h-248q-52 0 -80 39z" />
<glyph unicode="o" horiz-adv-x="1789" d="M524 770q10 161 125 274.5t277 124.5q101 -6 178 -59q-52 10 -96 10q-180 0 -307.5 -126.5t-127.5 -307.5q0 -39 11 -92q-54 79 -60 176zM618 -49q130 -43 277 -43h31h30q172 0 329 66t270.5 177t181 264.5t67.5 321.5v31v31q0 132 -39 260q90 -178 90 -373 q0 -168 -67 -321.5t-180.5 -264.5t-270.5 -177t-329 -66q-204 0 -390 94z" />
<glyph unicode="p" horiz-adv-x="1488" d="M236 -61h309q20 0 34.5 14.5t14.5 34.5v272q0 17 12 29t29 12h254q154 0 276 49.5t197.5 135.5t114.5 197.5t39 240.5v30v31q0 101 -29 211q80 -145 80 -324q0 -129 -39 -240t-114.5 -197t-197.5 -135.5t-276 -49.5h-254q-17 0 -29 -12t-12 -29v-272q0 -20 -14.5 -35 t-34.5 -15h-311q-20 0 -34.5 15t-14.5 35v2zM594 797v325q0 17 12 29t29 12h170q46 0 86 -14q24 -12 39 -27l10 -10h-22h-232q-17 0 -29 -12t-12 -29v-274h-51z" />
<glyph unicode="q" horiz-adv-x="1755" d="M524 768q10 163 118.5 276.5t262.5 124.5q93 -6 166 -57q-36 8 -82 8q-173 0 -294.5 -126.5t-121.5 -307.5q0 -40 11 -100q-54 87 -60 182zM1337 -434q80 -25 166 -25h31h31q110 0 222 43.5t193 134.5q19 22 9 45l36 -28q15 -10 17 -32v-7q0 -18 -10 -29 q-81 -91 -193.5 -134.5t-222.5 -43.5q-137 0 -279 76zM1434 74q154 117 243.5 290t89.5 373v31v31q0 138 -41 266q93 -181 93 -379q0 -182 -74.5 -342.5t-206.5 -277.5q-1 0 -3.5 -1.5t-4.5 -1.5q-12 -4 -29 -4q-26 0 -63 13q-2 2 -4 2z" />
<glyph unicode="r" horiz-adv-x="1568" d="M236 -61h307q20 0 34.5 14.5t14.5 34.5v338q0 17 12 29t29 12h65q7 0 11 -2l4 -5h2l30 -45h-61q-17 0 -29 -12t-12 -29v-337q0 -20 -14.5 -35t-34.5 -15h-309q-20 0 -34.5 15t-14.5 35v2zM592 860v262q0 17 12 29t29 12h248q54 0 84 -12q21 -9 36 -21q15 -15 17 -18h-25 h-309q-17 0 -29 -12t-12 -29v-211h-51zM1118 -61h35h391q15 0 22.5 13.5t-1.5 27.5l-4 6q4 8 4 12l51 -70q5 -8 5 -15q1 -7 -3 -13q-8 -14 -23 -13h-391q-48 0 -78 41zM1290 444q135 75 204 210t69 298v31v31q0 108 -27 207q78 -141 78 -320q0 -165 -70.5 -301t-208.5 -211 l-4 -2z" />
<glyph unicode="s" horiz-adv-x="1431" d="M424 -49q142 -43 313 -43h31h31q185 0 326.5 53t225 161.5t83.5 260.5v29v32q0 55 -13 115q64 -103 64 -227q0 -152 -83.5 -260.5t-225 -161.5t-326.5 -53q-249 0 -426 94zM586 1149q36 55 147 61q56 -3 101 -28q10 -5 28 -23q-14 2 -45 2q-116 0 -166 -47q-4 2 -17.5 8 t-19.5 8q-18 9 -28 19zM1057 1028h301q22 0 38.5 17.5t14.5 39.5q0 11 -4 31q4 20 4 27v8q-2 34 -14 92q65 -107 65 -214q0 -19 -14 -35q-16 -18 -39 -17h-285q-50 0 -67 51z" />
<glyph unicode="t" horiz-adv-x="1454" d="M137 1137v2h324v-52h-275q-20 0 -34.5 15t-14.5 35zM635 -61h309q20 0 34.5 14.5t14.5 34.5v1110q0 17 12 29t29 12h408q20 0 34.5 14.5t14.5 34.5v297h2q20 0 34.5 -14.5t14.5 -34.5v-299q0 -20 -14.5 -35t-34.5 -15h-408q-17 0 -29 -11.5t-12 -28.5v-1110 q0 -20 -14.5 -35t-34.5 -15h-311q-20 0 -34.5 15t-14.5 35v2z" />
<glyph unicode="u" horiz-adv-x="1669" d="M557 -53q121 -39 277 -39h30h31q175 0 315.5 56t231.5 154.5t139.5 231t48.5 287.5v848h2q20 0 34.5 -14.5t14.5 -34.5v-850q0 -155 -48.5 -287.5t-139.5 -231t-231.5 -154.5t-315.5 -56q-222 0 -389 90zM571 723v762h2q20 0 35 -14.5t15 -34.5v-826q0 -63 8 -104 q-23 30 -37 67q-23 67 -23 150z" />
<glyph unicode="v" d="M737 -61h19h307q22 0 41 12.5t26 32.5l609 1501h22q17 0 27 -15q6 -9 6 -18q0 -6 -2 -12l-610 -1508q-7 -20 -26.5 -32.5t-41.5 -12.5h-307q-22 0 -41.5 12.5t-26.5 32.5z" />
<glyph unicode="w" horiz-adv-x="2349" d="M545 -61h12h326q22 0 39.5 13t23.5 34l236 719l35 -105l-220 -666q-6 -21 -23.5 -34t-39.5 -13h-326q-22 0 -39.5 13.5t-21.5 33.5zM1575 -61h14h326q22 0 39.5 13.5t21.5 33.5l422 1499h17q19 0 30 -15q8 -10 8 -22q0 -5 -2 -10l-423 -1504q-4 -20 -22 -33.5t-40 -13.5 h-326q-22 0 -39.5 13t-23.5 34z" />
<glyph unicode="x" horiz-adv-x="1572" d="M134 -100q-3 6 -4 13q0 7 5 15l6 11h363q50 0 76 41l221 325l43 -61l-213 -316q-26 -41 -76 -41h-399q-14 -1 -22 13zM1120 782l477 703h35q15 0 22.5 -14t0.5 -27l-488 -719l-4 -8zM1163 -61h31h399q15 0 22.5 13.5t-1.5 27.5l-4 6q1 3 3 8t3 8l49 -74q5 -8 5 -16 q0 -6 -3 -12q-7 -14 -22 -13h-400q-50 0 -76 41z" />
<glyph unicode="y" horiz-adv-x="1671" d="M743 -61h308q20 0 34.5 14.5t14.5 34.5v495q0 45 22 76l578 926h35q17 0 24 -13q3 -6 3 -12q0 -8 -5 -16l-583 -936q-23 -33 -23 -76v-495q0 -20 -14.5 -35t-34.5 -15h-309q-20 0 -35 15t-15 35v2z" />
<glyph unicode="z" horiz-adv-x="1492" d="M176 -61h1256q20 0 34.5 14.5t14.5 34.5v295h2q20 0 34.5 -15t14.5 -35v-296q0 -20 -14.5 -35t-34.5 -15h-1258q-20 0 -34.5 15t-14.5 35v2zM201 1137v2h475l-43 -52h-383q-20 0 -34.5 15t-14.5 35zM836 457l612 741q31 43 31 88v199h2q20 0 34.5 -14.5t14.5 -34.5v-201 q0 -45 -31 -88l-569 -690h-94z" />
<glyph unicode="{" horiz-adv-x="765" d="M420 -483q94 -23 184 -23h41h6h15h41q15 0 25.5 11t10.5 26v61v60v160h15q15 0 26 -11t11 -26v-295q0 -15 -11 -26t-26 -11h-41q-171 0 -297 74zM520 33q8 41 37 103t58.5 115.5t53 121t23.5 121.5q0 20 -2 30q2 10 2 31q0 37 -6 74q57 -82 57 -187q0 -53 -23 -119 t-52 -118.5t-58.5 -113.5t-38.5 -101q-6 0 -8 2q-5 1 -11.5 4t-8.5 4q-14 11 -19 20q-4 8 -4 13zM520 1511q10 50 49.5 76.5t96.5 26.5h41q15 0 25.5 11t10.5 26v61v60v159h15q15 0 26 -11t11 -26v-295q0 -15 -11 -25.5t-26 -10.5h-41q-66 0 -108 -36t-42 -102q0 -13 4 -41 q-1 2 -3 7.5t-3 7.5l-37 82q-4 10 -8 30zM621 780q71 86 71 203q0 19 -2 27q2 12 2 34q0 60 -18 115q69 -142 69 -227q0 -127 -84 -217q-12 28 -38 65z" />
<glyph unicode="|" horiz-adv-x="628" d="M229 -440h295q20 0 34.5 14.5t14.5 34.5v2257h2q20 0 35 -14.5t15 -34.5v-2259q0 -20 -15 -35t-35 -15h-296q-20 0 -35 15t-15 35v2z" />
<glyph unicode="}" horiz-adv-x="765" d="M197 -506h26q120 0 220 38t166 103.5t102.5 152.5t36.5 185v31v31q0 104 -41 225q27 -60 44 -103t32.5 -109t15.5 -126q0 -98 -36.5 -185t-102.5 -152.5t-166 -103.5t-220 -38h-41q-15 0 -25.5 11t-10.5 26v14zM197 1599v11q4 0 6 -2q4 -1 11 -4.5l9 -4.5q14 -11 19 -20 q1 -3 3 -8t3 -8h-15q-15 0 -25.5 10.5t-10.5 25.5zM598 520q16 51 82 51h20q7 0 13 5.5t6 11.5v266h12h21q8 0 13 -5t5 -13v-299q0 -6 -5.5 -11.5t-12.5 -5.5h-21q-44 0 -65 -23t-21 -61q0 -20 6 -41q-5 11 -19 40.5t-20 43.5q-3 8 -7.5 22t-6.5 19zM600 1030q9 32 35 91 t50 111.5t43.5 127t19.5 143.5v31v31q0 61 -17 137q68 -112 68 -250q0 -61 -16 -129t-33 -109.5t-46.5 -106t-37.5 -83.5q-16 4 -27 4h-21q-4 0 -7.5 0.5t-5.5 1t-3 0.5h-2z" />
<glyph unicode="~" horiz-adv-x="1060" d="M229 424v2h185q13 0 23 9.5t12 23.5v2q22 -15 55 -33q-4 -4 -4 -20q-2 -14 -12 -23.5t-23 -9.5h-191q-19 0 -33 15t-12 34zM604 393q34 -6 66 -6q22 0 32 2q8 -2 29 -2q62 0 110.5 24t77 59.5t47.5 84t26 89.5t9 85h7q19 0 33 -15t12 -34q-2 -44 -9 -85t-26 -90 t-47.5 -85t-77 -60t-111.5 -24q-92 0 -178 57z" />
<glyph unicode="&#xa1;" horiz-adv-x="661" d="M219 -61h352q20 0 33.5 14.5t11.5 34.5l-2 32q2 8 2 25v8l-77 850q18 -3 31 -17t14 -32l84 -917q2 -20 -11.5 -35t-33.5 -15h-359q-20 0 -33.5 15t-11.5 35v2zM467 1065q80 25 132 94t52 154q0 18 -2 28q2 10 2 33q0 17 -4 45q55 -68 55 -157q0 -85 -51.5 -153.5 t-130.5 -92.5q-18 29 -41 43z" />
<glyph unicode="&#xa2;" horiz-adv-x="1251" d="M571 655q9 48 45 83t86 44q23 -3 39 -16q26 -18 39 -23q23 -10 47 -10q15 0 35 4h2q28 -11 66 6l260 117q17 7 22 27t-4 35q0 2 -2 2q4 8 4 10q34 -38 50 -64q9 -15 3.5 -34.5t-22.5 -26.5l-260 -117q-27 -12 -46.5 -10t-43.5 20q-48 33 -105 33q-64 0 -110.5 -40.5 t-54.5 -102.5q-22 16 -23 18q-22 22 -27 45zM580 -113h282q20 0 34.5 15t14.5 35v112q0 41 39 57q162 72 260 218q7 10 7 22l26 -12q17 -7 22.5 -27t-3.5 -35q-97 -144 -261 -217q-38 -15 -38 -57v-113q0 -20 -15 -34.5t-35 -14.5h-284q-20 0 -34.5 14.5t-14.5 34.5v2z M911 1255v52h2q20 0 35 -15t15 -35v-26q-8 4 -25 12t-25 12h-2z" />
<glyph unicode="&#xa3;" horiz-adv-x="1255" d="M203 -61h958q20 0 34.5 14.5t14.5 34.5v307h2q20 0 35 -14.5t15 -34.5v-309q0 -20 -15 -35t-35 -15h-960q-20 0 -34.5 15t-14.5 35v2zM618 1092q12 60 74 73q2 0 2 -2q5 0 8 -6q4 -5 7 -12q7 -21 14 -35l2 -2q-59 -24 -59 -98q0 -34 12 -74h-10q-7 23 -20.5 60t-18.5 51 q-11 42 -11 45zM883 1047h334q6 0 11 5t5 11v20v31v10v21q0 79 -19 153q70 -117 70 -266v-20q0 -6 -5 -11.5t-11 -5.5h-322q-47 0 -63 52zM993 469q23 13 23 41v252h2q20 0 34.5 -14.5t14.5 -34.5v-244h-74z" />
<glyph unicode="&#xa5;" horiz-adv-x="1785" d="M444 193v2h183v-52h-133q-20 0 -35 15t-15 35zM801 -61h309q20 0 34.5 14.5t14.5 34.5v166q0 17 12 29t29 12h266q20 0 35 14.5t15 34.5v209h2q20 0 34.5 -15t14.5 -35v-210q0 -20 -14.5 -35t-34.5 -15h-267q-17 0 -29 -12t-12 -29v-165q0 -20 -14.5 -35t-34.5 -15h-311 q-20 0 -34.5 15t-14.5 35v2zM1452 991l305 494h35q17 0 24.5 -13.5t-1.5 -27.5l-312 -502q-11 18 -20 27q-5 7 -31 22zM1495 580q21 14 21 38v209h2q20 0 34.5 -14.5t14.5 -34.5v-211q0 -20 -14.5 -34.5t-34.5 -14.5h-2q0 30 -21 62z" />
<glyph unicode="&#xa6;" horiz-adv-x="653" d="M242 -440h295q20 0 34.5 14.5t14.5 34.5v936h2q20 0 34.5 -14.5t14.5 -34.5v-938q0 -20 -14.5 -35t-34.5 -15h-297q-20 0 -34.5 15t-14.5 35v2zM242 879v2h295q20 0 34.5 14.5t14.5 34.5v936h2q20 0 34.5 -14.5t14.5 -34.5v-938q0 -20 -14.5 -35t-34.5 -15h-297 q-20 0 -34.5 15t-14.5 35z" />
<glyph unicode="&#xa7;" horiz-adv-x="1181" d="M420 -72q79 -20 174 -20h31h30q120 0 216.5 36t157.5 113t61 183q0 16 -3 28q3 15 3 33q0 38 -9 76q6 -12 9 -15q51 -76 51 -174q0 -158 -124.5 -244.5t-309.5 -86.5q-168 0 -287 71zM864 1157h213q19 0 26 6.5t7 26.5q0 6 -1 17t-1 16v2q2 10 2 26v2q-4 53 -10 78 q58 -83 61 -192q0 -20 -7 -26.5t-26 -6.5h-176q-41 28 -88 51zM1051 471q112 89 112 229q0 21 -2 29q2 12 2 33q0 31 -6 61q57 -80 57 -174q0 -143 -114 -231q-22 -16 -19 -37q-8 45 -30 90z" />
<glyph unicode="&#xa8;" horiz-adv-x="911" d="M178 1638h21q22 0 32 2q10 -2 29 -2q82 0 139.5 59t57.5 142q0 19 -2 29v10q9 -77 49 -131q-14 -68 -68.5 -114t-124.5 -46q-75 0 -133 51zM694 1638h21q23 0 33 2q10 -2 28 -2q82 0 139.5 59t57.5 142q0 19 -2 29q2 10 2 33v20q51 -61 51 -133q0 -83 -57.5 -142 t-139.5 -59q-75 0 -133 51z" />
<glyph unicode="&#xa9;" horiz-adv-x="1818" d="M643 -51q128 -41 266 -41h31h31q167 0 320 66t264.5 177t178 264.5t66.5 321.5v31v31q0 134 -41 262q92 -176 92 -375q0 -168 -66.5 -321.5t-178 -264.5t-264.5 -177t-320 -66q-200 0 -379 92zM872 772q19 47 64 62q32 -16 35 -17q20 -10 45 -10q5 0 35 6h2 q20 -7 29.5 -5.5t33.5 11.5l182 86q17 7 22.5 28t-3.5 34q0 2 -2 2q2 2 2 6q19 -17 47 -53q4 -11 8 -37q-3 -22 -22 -31l-183 -86q-27 -13 -43.5 -11.5t-46.5 19.5q-26 15 -51 15q-33 0 -61 -19q-17 -7 -29 -14l-2 -2q-8 -4 -21 -4q-18 0 -32 14q-6 3 -9 6z" />
<glyph unicode="&#xaa;" horiz-adv-x="1079" d="M371 694q53 -12 108 -12h35h27q81 0 137 20h59h232q20 0 34.5 15t14.5 35v743h2q20 0 34.5 -14.5t14.5 -34.5v-746q0 -20 -14.5 -34.5t-34.5 -14.5h-232q-10 0 -10 11v2q0 10 -8 6q-68 -39 -178 -39q-120 0 -221 63zM416 1157q9 45 40 77.5t76 41.5q24 -6 41 -23 q17 -23 19 -26q-51 -7 -85 -42t-42 -85q-18 7 -29 18q-14 14 -20 39z" />
<glyph unicode="&#xab;" horiz-adv-x="1433" d="M578 733l79 70v-96l-26 -23zM692 53q2 0 4 2l6 -6q10 -9 23.5 -3t13.5 20v383v40l27 -22q25 -36 25 -70v-383q0 -14 -13.5 -19.5t-23.5 3.5zM739 1008v256l15 12q10 9 23.5 3.5t13.5 -19.5v-207zM1198 733l125 111q37 32 37 82v338l14 12q10 9 23.5 3.5t13.5 -19.5v-386 q0 -49 -37 -81l-123 -109zM1313 53q2 0 4 2l6 -6q11 -9 24 -3t13 20v383v43l14 -13q37 -32 37 -82v-383q0 -14 -13.5 -19.5t-23.5 3.5z" />
<glyph unicode="&#xad;" horiz-adv-x="854" d="M229 412v2h521q20 0 34.5 14.5t14.5 34.5v282h2q20 0 34.5 -14.5t14.5 -34.5v-284q0 -20 -14.5 -35t-34.5 -15h-522q-20 0 -35 15t-15 35z" />
<glyph unicode="&#xae;" horiz-adv-x="1150" d="M436 590q71 -19 139 -19h31h31q205 0 351.5 146.5t146.5 351.5v31v30q0 69 -19 140q70 -115 70 -252q0 -135 -67 -249.5t-181.5 -181.5t-249.5 -67q-137 0 -252 70z" />
<glyph unicode="&#xaf;" horiz-adv-x="733" d="M113 1636v2h632q20 0 35 15t15 35v202h2q20 0 34.5 -14.5t14.5 -34.5v-205q0 -20 -14.5 -34.5t-34.5 -14.5h-635q-20 0 -34.5 14.5t-14.5 34.5z" />
<glyph unicode="&#xb0;" horiz-adv-x="909" d="M352 782q52 -10 101 -10q20 0 32 2q8 -2 29 -2q166 0 282.5 115.5t116.5 279.5q0 21 -2 31q2 10 2 31q0 53 -12 102q64 -95 64 -215q0 -164 -117 -279.5t-283 -115.5q-118 0 -213 61zM393 1204q9 31 32.5 55t53.5 31q9 -2 21 -14q17 -14 20 -39q-49 -18 -69 -72 q-24 0 -43 19q-10 10 -15 20z" />
<glyph unicode="&#xb1;" horiz-adv-x="1159" d="M207 -29h852q20 0 34.5 14.5t14.5 34.5v271h2q20 0 34.5 -14.5t14.5 -34.5v-273q0 -20 -14.5 -34.5t-34.5 -14.5h-854q-20 0 -34.5 14.5t-14.5 34.5v2zM215 690v2h117v-51h-68q-20 0 -34.5 14.5t-14.5 34.5zM827 465v186q0 17 12 29t29 12h201q20 0 34.5 14.5t14.5 34.5 v271h2q20 0 34.5 -14.5t14.5 -34.5v-273q0 -20 -14.5 -34.5t-34.5 -14.5h-200q-17 0 -29 -12t-12 -29v-135h-52zM827 1186v112h2q20 0 35 -14.5t15 -34.5v-63h-52z" />
<glyph unicode="&#xb2;" horiz-adv-x="897" d="M158 496v2h688q20 0 34.5 14.5t14.5 34.5v182h2q20 0 34.5 -14.5t14.5 -34.5v-184q0 -20 -14.5 -35t-34.5 -15h-690q-20 0 -34.5 15t-14.5 35zM172 1126v19h199h8l-57 -51h-125q-13 0 -19 6.5t-6 25.5zM395 1159q2 4 2 19q0 39 22.5 65.5t61.5 34.5q11 -3 11 -6q2 0 2 -6 q0 -5 -2 -9q-1 -2 -9 -14q-9 -12 -34 -37q-1 -1 -20.5 -18.5t-33.5 -28.5zM750 903q151 147 151 301q0 21 -2 31q2 10 2 31q0 47 -8 86q59 -88 59 -199q0 -137 -114 -264q-22 14 -54 14h-34z" />
<glyph unicode="&#xb3;" horiz-adv-x="868" d="M168 514q124 -37 242 -37h30h31q175 0 295.5 88t120.5 234q0 18 -2 28q2 10 2 33q0 25 -2 37q53 -62 53 -149q0 -146 -120.5 -234t-295.5 -88q-173 0 -344 82q-2 1 -5 3t-5 3zM788 1083q66 78 66 181q0 18 -2 28q2 10 2 33q0 29 -2 43q53 -69 53 -156q0 -106 -69 -184 q-14 21 -48 55z" />
<glyph unicode="&#xb4;" horiz-adv-x="731" d="M213 1628q6 -2 23 2l520 240q14 6 18.5 21.5t-2.5 29.5l-4 6q4 7 8 25l47 -82q7 -14 2.5 -29.5t-18.5 -21.5l-520 -240q-15 -6 -32 -0.5t-26 18.5z" />
<glyph unicode="&#xb6;" horiz-adv-x="1718" d="M473 430q83 -22 164 -22h16v-43q-103 19 -180 65zM535 1006q7 58 38.5 97.5t79.5 53.5v-76q-69 -53 -69 -159v-2q-20 13 -33 34q-13 23 -16 52zM827 -61h295q31 0 45 28q19 -19 56 -26v-4q0 -20 -14.5 -35t-34.5 -15h-297q-20 0 -35 15t-15 35v2zM1305 -61h294 q20 0 35 14.5t15 34.5v1497h2q20 0 34.5 -14.5t14.5 -34.5v-1499q0 -20 -14.5 -35t-34.5 -15h-297q-20 0 -34.5 15t-14.5 35v2z" />
<glyph unicode="&#xb7;" horiz-adv-x="688" d="M299 432q28 -4 45 -4q23 0 33 2q10 -2 29 -2q106 0 182 76t76 182q0 19 -2 29q2 10 2 33q0 10 -5 45q56 -69 56 -158q0 -106 -76 -182t-182 -76q-90 0 -158 55z" />
<glyph unicode="&#xb8;" horiz-adv-x="661" d="M164 -635q1 0 4 -1t4 -1q85 -18 150 -18q20 0 30 2q10 -2 31 -2q133 0 207 75t74 189q0 21 -2 29q2 12 2 32q0 9 -5 54q56 -67 56 -166q0 -114 -74 -189.5t-207 -75.5q-104 0 -246 50q-18 7 -24 22z" />
<glyph unicode="&#xb9;" horiz-adv-x="542" d="M295 496v2h182q20 0 34.5 14.5t14.5 34.5v938h2q20 0 35 -14.5t15 -34.5v-940q0 -20 -15 -35t-35 -15h-184q-20 0 -34.5 15t-14.5 35z" />
<glyph unicode="&#xba;" horiz-adv-x="1005" d="M377 696q55 -14 123 -14h32h29q189 0 320 128t131 312v31v31q0 62 -15 121q66 -109 66 -234q0 -184 -131 -312t-320 -128q-127 0 -235 65zM412 1157q9 45 40.5 77.5t75.5 41.5q24 -6 43 -25q12 -12 17 -24q-49 -7 -83.5 -42t-43.5 -85q-19 8 -27 18q-16 16 -22 39z" />
<glyph unicode="&#xbb;" horiz-adv-x="1433" d="M248 14v47l446 396v-97l-409 -362q-11 -9 -24 -3.5t-13 19.5zM776 662v178l29 -27q22 -28 22 -65v-41zM868 14v47l492 437q37 32 37 82v219v43l14 -13q37 -32 37 -81v-220q0 -50 -37 -82l-506 -448q-11 -9 -24 -3.5t-13 19.5z" />
<glyph unicode="&#xbc;" horiz-adv-x="1990" d="M348 496v2h164l-31 -52h-84q-20 0 -34.5 15t-14.5 35zM426 -70l4 9h180q52 0 74 43l893 1503h31q17 0 24.5 -14t-0.5 -29l-897 -1512q-22 -43 -73 -43h-211q-17 0 -25 14t0 29zM580 612v873h2q20 0 34.5 -14.5t14.5 -34.5v-738zM1161 111v2h318v-52h-269q-20 0 -34.5 15 t-14.5 35zM1634 688l142 238h30q17 0 25 -14t0 -29l-115 -195h-82zM1653 -61h174q20 0 34.5 14.5t14.5 34.5v84q0 17 12 29t29 12h14q20 0 34.5 14.5t14.5 34.5v166h2q20 0 35 -14.5t15 -34.5v-168q0 -20 -15 -35t-35 -15h-14q-17 0 -29 -12t-12 -29v-83q0 -20 -14.5 -35 t-34.5 -15h-176q-20 0 -34.5 15t-14.5 35v2z" />
<glyph unicode="&#xbd;" horiz-adv-x="2072" d="M338 496v2h164l-31 -52h-84q-20 0 -34.5 15t-14.5 35zM415.5 -99q-7.5 14 0.5 29l4 9h180q52 0 74 43l493 831q-18 -61 -18 -133q0 -19 4 -31l-428 -719q-22 -43 -74 -43h-211q-17 0 -24.5 14zM569 612v873h2q20 0 35 -14.5t15 -34.5v-738zM1270 985l297 500h30 q17 0 25 -14t0 -29l-215 -365q-74 -29 -137 -92zM1309 -61h688q20 0 34.5 14.5t14.5 34.5v182h2q20 0 34.5 -14.5t14.5 -34.5v-184q0 -20 -14.5 -35t-34.5 -15h-690q-20 0 -34.5 15t-14.5 35v2zM1323 567v19h199h8l-57 -51h-125q-13 0 -19 6.5t-6 25.5zM1546 600q2 4 2 18 q0 39 22.5 66t61.5 35q10 -3 10 -6q3 0 3 -6q0 -3 -3 -9q-4 -8 -8 -14q-6 -8 -35 -37q-3 -2 -21 -19t-32 -28zM1901 344q151 147 151 301q0 21 -2 31q2 10 2 31q0 47 -8 86q59 -88 59 -199q0 -137 -114 -264q-22 14 -54 14h-34z" />
<glyph unicode="&#xbe;" horiz-adv-x="2228" d="M213 1200v23h82q-20 -20 -27 -52h-30q-25 0 -25 29zM221 514q124 -37 242 -37h31h30q136 0 246 58l-53 -93q-72 -16 -142 -16q-173 0 -344 82q-2 1 -5 3t-5 3zM663.5 -99q-7.5 14 0.5 29l4 9h180q52 0 74 43l893 1503h30q17 0 25 -14t0 -29l-897 -1512q-22 -43 -74 -43 h-211q-17 0 -24.5 14zM842 1083q65 77 65 181q0 18 -2 28q2 10 2 33q0 29 -2 43q53 -69 53 -156q0 -106 -69 -184q-16 24 -47 55zM1399 111v2h317v-52h-268q-20 0 -34.5 15t-14.5 35zM1872 688l141 238h31q17 0 24.5 -14t-0.5 -29l-114 -195h-82zM1890 -61h174q20 0 35 14.5 t15 34.5v84q0 17 11.5 29t28.5 12h15q20 0 34.5 14.5t14.5 34.5v166h2q20 0 34.5 -14.5t14.5 -34.5v-168q0 -20 -14.5 -35t-34.5 -15h-14q-17 0 -29 -12t-12 -29v-83q0 -20 -14.5 -35t-34.5 -15h-177q-20 0 -34.5 15t-14.5 35v2z" />
<glyph unicode="&#xbf;" horiz-adv-x="1210" d="M422 -72q85 -20 162 -20h32h29q78 0 155.5 19t149.5 59.5t127 97.5t88 139.5t33 179.5v17h21q12 0 21 -10t9 -23v-35q0 -97 -33 -179.5t-88 -139.5t-127 -97.5t-149.5 -59.5t-155.5 -19q-153 0 -274 71zM565 428q6 17 21 35t27.5 28.5t41.5 32.5q42 31 67 51t62 58 t58 73.5t37 87.5t16 109v15h6q19 0 32 -13.5t13 -32.5v-20q0 -146 -98 -258h-55q-25 0 -48 -10q-31 -14 -51 -43q-17 -27 -20 -54l-2 -2q-3 -20 -10 -39q-12 -18 -27 -24q-11 -8 -35 -8q-13 0 -25 4q-7 3 -10 10zM831 1081q64 33 104 95.5t40 136.5q0 18 -2 28q2 10 2 33 q0 17 -4 45q55 -68 55 -157q0 -74 -38.5 -135.5t-102.5 -94.5q-12 20 -21 29q-19 15 -33 20z" />
<glyph unicode="&#xc0;" d="M131 -68l2 7h326q22 0 40 12.5t25 32.5l58 149q14 39 55 39h483l21 -51h-453q-41 0 -55 -39l-58 -150q-7 -20 -25 -32.5t-40 -12.5h-348q-18 0 -27.5 15t-3.5 30zM780 666l78 206l37 -94l-43 -112h-72zM1046 1630q1 0 4.5 -1t5.5 -1q1 0 37 6h2q19 -9 39.5 -2.5 t30.5 25.5l88 151q12 18 4 41l31 -20q17 -12 21.5 -32.5t-5.5 -39.5l-88 -151q-10 -19 -30.5 -25.5t-39.5 2.5zM1346 -61h16h348q18 0 27.5 15t3.5 30l-4 12q6 18 6 37q0 20 -6 35l55 -136q6 -15 -3.5 -30t-27.5 -15h-348q-22 0 -39.5 12.5t-25.5 32.5z" />
<glyph unicode="&#xc1;" d="M131 -68l2 7h326q22 0 40 12.5t25 32.5l58 149q14 39 55 39h483l21 -51h-453q-41 0 -55 -39l-58 -150q-7 -20 -25 -32.5t-40 -12.5h-348q-18 0 -27.5 15t-3.5 30zM698 1628q6 -2 23 2l520 240q14 6 18.5 21.5t-2.5 29.5l-4 6q3 7 8 25l47 -82q7 -14 2.5 -29.5 t-18.5 -21.5l-520 -240q-15 -6 -32 -0.5t-26 18.5zM780 666l78 206l37 -94l-43 -112h-72zM1346 -61h16h348q18 0 27.5 15t3.5 30l-4 12q6 18 6 37q0 20 -6 35l55 -136q6 -15 -3.5 -30t-27.5 -15h-348q-22 0 -39.5 12.5t-25.5 32.5z" />
<glyph unicode="&#xc2;" d="M131 -68l2 7h326q22 0 40 12.5t25 32.5l58 149q14 39 55 39h483l21 -51h-453q-41 0 -55 -39l-58 -150q-7 -20 -25 -32.5t-40 -12.5h-348q-18 0 -27.5 15t-3.5 30zM612 1649q25 -6 47 6l211 137l66 -43q-4 0 -8 -4l-217 -141q-17 -11 -38.5 -8t-33.5 20zM780 666l78 206 l37 -94l-43 -112h-72zM1145 1649q6 0 18 4q17 -9 37.5 -5t30.5 19l114 141q16 19 9 47l34 -28q15 -12 18 -33.5t-9 -36.5l-115 -141q-12 -17 -33.5 -20t-38.5 8zM1346 -61h16h348q18 0 27.5 15t3.5 30l-4 12q6 18 6 37q0 20 -6 35l55 -136q6 -15 -3.5 -30t-27.5 -15h-348 q-22 0 -39.5 12.5t-25.5 32.5z" />
<glyph unicode="&#xc3;" d="M131 -68l2 7h326q22 0 40 12.5t25 32.5l58 149q14 39 55 39h483l21 -51h-453q-41 0 -55 -39l-58 -150q-7 -20 -25 -32.5t-40 -12.5h-348q-18 0 -27.5 15t-3.5 30zM551 1675v2h184q13 0 23 9.5t12 23.5v2q22 -15 55 -33q-4 -4 -4 -20q-2 -14 -12 -23.5t-23 -9.5h-190 q-19 0 -33 15t-12 34zM780 666l78 206l37 -94l-43 -112h-72zM926 1645q40 -7 65 -7q23 0 33 2q8 -2 29 -2q62 0 110.5 24t77 59.5t47.5 84t26 89.5t9 85h6q19 0 33 -15t12 -34q-2 -44 -9 -85t-26 -90t-47 -85t-76.5 -60t-111.5 -24q-90 0 -178 58zM1346 -61h16h348 q18 0 27.5 15t3.5 30l-4 12q6 18 6 37q0 20 -6 35l55 -136q6 -15 -3.5 -30t-27.5 -15h-348q-22 0 -39.5 12.5t-25.5 32.5z" />
<glyph unicode="&#xc4;" d="M131 -68l2 7h326q22 0 40 12.5t25 32.5l58 149q14 39 55 39h483l21 -51h-453q-41 0 -55 -39l-58 -150q-7 -20 -25 -32.5t-40 -12.5h-348q-18 0 -27.5 15t-3.5 30zM573 1638h21q23 0 33 2q10 -2 28 -2q82 0 139.5 59t57.5 142q0 19 -2 29v10q9 -77 49 -131 q-14 -68 -68 -114t-124 -46q-76 0 -134 51zM780 666l78 206l37 -94l-43 -112h-72zM1090 1638h20q23 0 33 2q10 -2 28 -2q82 0 139.5 59t57.5 142q0 19 -2 29q2 10 2 33v20q51 -61 51 -133q0 -83 -57 -142t-139 -59q-75 0 -133 51zM1346 -61h16h348q18 0 27.5 15t3.5 30 l-4 12q6 18 6 37q0 20 -6 35l55 -136q6 -15 -3.5 -30t-27.5 -15h-348q-22 0 -39.5 12.5t-25.5 32.5z" />
<glyph unicode="&#xc5;" d="M131 -68l2 7h326q22 0 40 12.5t25 32.5l58 149q14 39 55 39h483l21 -51h-453q-41 0 -55 -39l-58 -150q-7 -20 -25 -32.5t-40 -12.5h-348q-18 0 -27.5 15t-3.5 30zM770 1595q33 -8 78 -8q21 0 33 2q8 -2 28 -2q140 0 241 99.5t101 238.5q0 21 -2 29q2 12 2 33q0 41 -8 77 q60 -89 60 -190q0 -139 -101 -238.5t-241 -99.5q-103 0 -191 59zM780 666l78 206l37 -94l-43 -112h-72zM1346 -61h16h348q18 0 27.5 15t3.5 30l-4 12q6 18 6 37q0 20 -6 35l55 -136q6 -15 -3.5 -30t-27.5 -15h-348q-22 0 -39.5 12.5t-25.5 32.5z" />
<glyph unicode="&#xc6;" horiz-adv-x="2623" d="M120 -99.5q-6 13.5 3 25.5l10 13h385q53 0 80 38l129 162q23 33 66 33h467v-51h-416q-43 0 -66 -33l-129 -162q-28 -39 -80 -39h-428q-15 0 -21 13.5zM1139 666l121 151v-117l-29 -34h-92zM1434 -61h1126q20 0 34.5 14.5t14.5 34.5v295h2q20 0 34.5 -15t14.5 -35v-296 q0 -20 -14.5 -35t-34.5 -15h-1128q-20 0 -34.5 15t-14.5 35v2zM1790 457v41q0 17 12 29t29 12h584q20 0 34.5 14.5t14.5 34.5v270h2q20 0 34.5 -14.5t14.5 -34.5v-272q0 -20 -14.5 -35t-34.5 -15h-584q-14 0 -25 -8.5t-14 -21.5h-53zM1790 1032v66q0 17 12 29t29 12h668h61 q20 0 34.5 14.5t14.5 34.5v297h2q20 0 34.5 -14.5t14.5 -34.5v-299q0 -20 -14.5 -35t-34.5 -15h-729q-17 0 -29 -11.5t-12 -28.5v-15h-51z" />
<glyph unicode="&#xc7;" horiz-adv-x="1673" d="M524 770q10 161 125 274.5t275 124.5q80 -6 149 -41q25 -15 29 -18q-52 10 -94 10q-180 0 -307.5 -126.5t-127.5 -307.5q0 -39 11 -92q-54 79 -60 176zM666 -666q1 0 4 -1t4 -1q85 -18 149 -18q21 0 31 2q10 -2 31 -2q133 0 206.5 75t73.5 189q0 21 -2 29q2 12 2 33 q0 17 -4 53q56 -67 56 -166q0 -114 -74 -189t-207 -75q-106 0 -246 49q-18 7 -24 22zM1030 -98q11 8 29 12q200 25 367 134t264 276q6 9 6 22l26 -12q17 -6 23.5 -26.5t-4.5 -35.5q-97 -167 -264 -275.5t-367 -133.5q-18 -4 -23 -8q-17 19 -57 47zM1346 963q22 -6 40 4 l283 125q17 7 22.5 27.5t-3.5 35.5v2q1 3 2 8.5t2 8.5q40 -57 47 -70q9 -15 3.5 -36t-22.5 -28l-282 -125q-20 -11 -40 -5t-32 26q-1 1 -8 11t-12 16z" />
<glyph unicode="&#xc8;" horiz-adv-x="1425" d="M236 -61h1126q20 0 34.5 14.5t14.5 34.5v295h2q20 0 34.5 -15t14.5 -35v-296q0 -20 -14.5 -35t-34.5 -15h-1128q-20 0 -34.5 15t-14.5 35v2zM594 457v41q0 17 12 29t29 12h582q20 0 34.5 14.5t14.5 34.5v270h2q20 0 34.5 -14.5t14.5 -34.5v-272q0 -20 -14.5 -35 t-34.5 -15h-582q-14 0 -25 -8.5t-14 -21.5h-53zM594 1032v66q0 17 12 29t29 12h727q20 0 34.5 14.5t14.5 34.5v297h2q20 0 34.5 -14.5t14.5 -34.5v-299q0 -20 -14.5 -35t-34.5 -15h-727q-17 0 -29 -11.5t-12 -28.5v-15h-51zM932 1630q1 0 4.5 -1t5.5 -1q1 0 37 6h2 q19 -9 39.5 -2.5t30.5 25.5l88 151q12 18 4 41l31 -20q17 -12 21.5 -32.5t-5.5 -39.5l-88 -151q-10 -19 -30.5 -25.5t-39.5 2.5z" />
<glyph unicode="&#xc9;" horiz-adv-x="1425" d="M236 -61h1126q20 0 34.5 14.5t14.5 34.5v295h2q20 0 34.5 -15t14.5 -35v-296q0 -20 -14.5 -35t-34.5 -15h-1128q-20 0 -34.5 15t-14.5 35v2zM584 1628q6 -2 23 2l520 240q14 6 18.5 21.5t-2.5 29.5l-4 6q3 7 8 25l47 -82q7 -14 2.5 -29.5t-18.5 -21.5l-520 -240 q-15 -6 -32 -0.5t-26 18.5zM594 457v41q0 17 12 29t29 12h582q20 0 34.5 14.5t14.5 34.5v270h2q20 0 34.5 -14.5t14.5 -34.5v-272q0 -20 -14.5 -35t-34.5 -15h-582q-14 0 -25 -8.5t-14 -21.5h-53zM594 1032v66q0 17 12 29t29 12h727q20 0 34.5 14.5t14.5 34.5v297h2 q20 0 34.5 -14.5t14.5 -34.5v-299q0 -20 -14.5 -35t-34.5 -15h-727q-17 0 -29 -11.5t-12 -28.5v-15h-51z" />
<glyph unicode="&#xca;" horiz-adv-x="1425" d="M236 -61h1126q20 0 34.5 14.5t14.5 34.5v295h2q20 0 34.5 -15t14.5 -35v-296q0 -20 -14.5 -35t-34.5 -15h-1128q-20 0 -34.5 15t-14.5 35v2zM497 1649q25 -6 47 6l211 137l66 -43q-4 0 -8 -4l-217 -141q-17 -11 -38.5 -8t-33.5 20zM594 457v41q0 17 12 29t29 12h582 q20 0 34.5 14.5t14.5 34.5v270h2q20 0 34.5 -14.5t14.5 -34.5v-272q0 -20 -14.5 -35t-34.5 -15h-582q-14 0 -25 -8.5t-14 -21.5h-53zM594 1032v66q0 17 12 29t29 12h727q20 0 34.5 14.5t14.5 34.5v297h2q20 0 34.5 -14.5t14.5 -34.5v-299q0 -20 -14.5 -35t-34.5 -15h-727 q-17 0 -29 -11.5t-12 -28.5v-15h-51zM1030 1649q6 0 18 4q17 -9 37.5 -5t30.5 19l114 141q16 19 9 47l34 -28q15 -12 18 -33.5t-9 -36.5l-115 -141q-12 -17 -33.5 -20t-38.5 8z" />
<glyph unicode="&#xcb;" horiz-adv-x="1425" d="M236 -61h1126q20 0 34.5 14.5t14.5 34.5v295h2q20 0 34.5 -15t14.5 -35v-296q0 -20 -14.5 -35t-34.5 -15h-1128q-20 0 -34.5 15t-14.5 35v2zM459 1638h20q23 0 33 2q10 -2 29 -2q82 0 139 59t57 142q0 19 -2 29v10q9 -77 49 -131q-14 -68 -68 -114t-124 -46 q-75 0 -133 51zM594 457v41q0 17 12 29t29 12h582q20 0 34.5 14.5t14.5 34.5v270h2q20 0 34.5 -14.5t14.5 -34.5v-272q0 -20 -14.5 -35t-34.5 -15h-582q-14 0 -25 -8.5t-14 -21.5h-53zM594 1032v66q0 17 12 29t29 12h727q20 0 34.5 14.5t14.5 34.5v297h2q20 0 34.5 -14.5 t14.5 -34.5v-299q0 -20 -14.5 -35t-34.5 -15h-727q-17 0 -29 -11.5t-12 -28.5v-15h-51zM975 1638h20q23 0 33 2q10 -2 29 -2q82 0 139 59t57 142q0 19 -2 29q2 10 2 33v20q52 -62 52 -133q0 -83 -57.5 -142t-139.5 -59q-75 0 -133 51z" />
<glyph unicode="&#xcc;" horiz-adv-x="655" d="M236 -61h309q20 0 34.5 14.5t14.5 34.5v1497h2q20 0 34.5 -14.5t14.5 -34.5v-1499q0 -20 -14.5 -35t-34.5 -15h-311q-20 0 -34.5 15t-14.5 35v2zM520 1630q1 0 4.5 -1t5.5 -1q1 0 37 6h2q19 -9 39.5 -2.5t30.5 25.5l88 151q12 18 4 41l31 -20q17 -12 21.5 -32.5 t-5.5 -39.5l-88 -151q-11 -19 -30.5 -25.5t-38.5 2.5z" />
<glyph unicode="&#xcd;" horiz-adv-x="655" d="M174 1628q6 -2 23 2l520 240q14 6 18.5 21.5t-2.5 29.5l-4 6q3 7 8 25l47 -82q7 -14 2.5 -29.5t-18.5 -21.5l-520 -240q-15 -6 -32 -0.5t-26 18.5zM236 -61h309q20 0 34.5 14.5t14.5 34.5v1497h2q20 0 34.5 -14.5t14.5 -34.5v-1499q0 -20 -14.5 -35t-34.5 -15h-311 q-20 0 -34.5 15t-14.5 35v2z" />
<glyph unicode="&#xce;" horiz-adv-x="655" d="M88 1649q25 -6 47 6l211 137l66 -43q-4 0 -8 -4l-217 -141q-17 -11 -38.5 -8t-33.5 20zM236 -61h309q20 0 34.5 14.5t14.5 34.5v1497h2q20 0 34.5 -14.5t14.5 -34.5v-1499q0 -20 -14.5 -35t-34.5 -15h-311q-20 0 -34.5 15t-14.5 35v2zM621 1649q6 0 18 4q17 -9 37.5 -5 t30.5 19l114 141q16 19 9 47l34 -28q15 -12 18 -33.5t-9 -36.5l-115 -141q-12 -17 -33.5 -20t-38.5 8z" />
<glyph unicode="&#xcf;" horiz-adv-x="655" d="M49 1638h21q22 0 32 2q10 -2 29 -2q82 0 139.5 59t57.5 142q0 19 -2 29v10q9 -77 49 -131q-14 -68 -68.5 -114t-124.5 -46q-75 0 -133 51zM236 -61h309q20 0 34.5 14.5t14.5 34.5v1497h2q20 0 34.5 -14.5t14.5 -34.5v-1499q0 -20 -14.5 -35t-34.5 -15h-311 q-20 0 -34.5 15t-14.5 35v2zM565 1638h21q22 0 32 2q10 -2 29 -2q82 0 139.5 59t57.5 142q0 19 -2 29q2 10 2 33v20q51 -61 51 -133q0 -83 -57.5 -142t-139.5 -59q-75 0 -133 51z" />
<glyph unicode="&#xd0;" horiz-adv-x="1685" d="M246 -61h690q182 0 328 63t238.5 173t141 253.5t48.5 308.5v29v33q0 174 -47 311q98 -183 98 -424q0 -132 -30 -250.5t-92.5 -219t-151 -174t-212 -114.5t-270.5 -41h-692q-20 0 -34.5 15t-14.5 35v2zM604 457v49q0 17 12 29t29 12h248q20 0 34.5 14.5t14.5 34.5v252h2 q20 0 34.5 -14.5t14.5 -34.5v-254q0 -20 -14.5 -34.5t-34.5 -14.5h-248q-17 0 -28 -11t-13 -28h-51zM604 1022v76q0 17 12 29t29 12h199q79 0 137 -25q32 -11 59 -35q-36 8 -84 8h-260q-17 0 -29 -11.5t-12 -28.5v-25h-51z" />
<glyph unicode="&#xd1;" horiz-adv-x="1714" d="M236 -61h309q20 0 34.5 14.5t14.5 34.5v727l51 -66v-712q0 -20 -14.5 -35t-34.5 -15h-311q-20 0 -34.5 15t-14.5 35v2zM559 1675v2h184q13 0 23 9.5t12 23.5v2q17 -11 56 -33q-5 -5 -5 -20q-2 -14 -11.5 -23.5t-22.5 -9.5h-191q-19 0 -33 15t-12 34zM934 1645 q40 -7 65 -7q23 0 33 2q8 -2 29 -2q62 0 110.5 24t77 59.5t47.5 84t26 89.5t9 85h6q19 0 33 -15t12 -34q-2 -44 -9 -85t-26 -90t-47 -85t-76.5 -60t-111.5 -24q-90 0 -178 58zM1317 -61h39h248q20 0 34.5 14.5t14.5 34.5v1497h2q20 0 34.5 -14.5t14.5 -34.5v-1499 q0 -20 -14.5 -35t-34.5 -15h-248q-52 0 -80 39z" />
<glyph unicode="&#xd2;" horiz-adv-x="1789" d="M524 770q10 161 125 274.5t277 124.5q101 -6 178 -59q-52 10 -96 10q-180 0 -307.5 -126.5t-127.5 -307.5q0 -39 11 -92q-54 79 -60 176zM618 -49q130 -43 277 -43h31h30q172 0 329 66t270.5 177t181 264.5t67.5 321.5v31v31q0 132 -39 260q90 -178 90 -373 q0 -168 -67 -321.5t-180.5 -264.5t-270.5 -177t-329 -66q-204 0 -390 94zM1091 1630q1 0 4.5 -1t5.5 -1q1 0 37 6h2q19 -9 39.5 -2.5t30.5 25.5l88 151q12 18 4 41l31 -20q17 -12 21.5 -32.5t-5.5 -39.5l-88 -151q-10 -19 -30.5 -25.5t-39.5 2.5z" />
<glyph unicode="&#xd3;" horiz-adv-x="1789" d="M524 770q10 161 125 274.5t277 124.5q101 -6 178 -59q-52 10 -96 10q-180 0 -307.5 -126.5t-127.5 -307.5q0 -39 11 -92q-54 79 -60 176zM618 -49q130 -43 277 -43h31h30q172 0 329 66t270.5 177t181 264.5t67.5 321.5v31v31q0 132 -39 260q90 -178 90 -373 q0 -168 -67 -321.5t-180.5 -264.5t-270.5 -177t-329 -66q-204 0 -390 94zM743 1628q6 -2 23 2l520 240q14 6 18.5 21.5t-2.5 29.5l-4 6q4 7 8 25l47 -82q7 -14 2.5 -29.5t-18.5 -21.5l-520 -240q-15 -6 -32 -0.5t-26 18.5z" />
<glyph unicode="&#xd4;" horiz-adv-x="1789" d="M524 770q10 161 125 274.5t277 124.5q101 -6 178 -59q-52 10 -96 10q-180 0 -307.5 -126.5t-127.5 -307.5q0 -39 11 -92q-54 79 -60 176zM618 -49q130 -43 277 -43h31h30q172 0 329 66t270.5 177t181 264.5t67.5 321.5v31v31q0 132 -39 260q90 -178 90 -373 q0 -168 -67 -321.5t-180.5 -264.5t-270.5 -177t-329 -66q-204 0 -390 94zM659 1649q25 -6 47 6l211 137l66 -43q-4 0 -8 -4l-217 -141q-17 -11 -38.5 -8t-33.5 20zM1192 1649q6 0 18 4q17 -9 37.5 -5t30.5 19l114 141q16 19 9 47l34 -28q15 -12 18 -33.5t-9 -36.5l-115 -141 q-12 -17 -33.5 -20t-38.5 8z" />
<glyph unicode="&#xd5;" horiz-adv-x="1789" d="M524 770q10 161 125 274.5t277 124.5q101 -6 178 -59q-52 10 -96 10q-180 0 -307.5 -126.5t-127.5 -307.5q0 -39 11 -92q-54 79 -60 176zM598 1675v2h184q13 0 23 9.5t12 23.5v2q22 -15 55 -33q-4 -4 -4 -20q-2 -14 -11.5 -23.5t-22.5 -9.5h-191q-19 0 -33 15t-12 34z M618 -49q130 -43 277 -43h31h30q172 0 329 66t270.5 177t181 264.5t67.5 321.5v31v31q0 132 -39 260q90 -178 90 -373q0 -168 -67 -321.5t-180.5 -264.5t-270.5 -177t-329 -66q-204 0 -390 94zM973 1645q40 -7 65 -7q23 0 33 2q8 -2 29 -2q62 0 110.5 24t77 59.5t47.5 84 t26 89.5t9 85h6q19 0 33 -15t12 -34q-2 -44 -9 -85t-26 -90t-47 -85t-76.5 -60t-111.5 -24q-90 0 -178 58z" />
<glyph unicode="&#xd6;" horiz-adv-x="1789" d="M524 770q10 161 125 274.5t277 124.5q101 -6 178 -59q-52 10 -96 10q-180 0 -307.5 -126.5t-127.5 -307.5q0 -39 11 -92q-54 79 -60 176zM618 -49q130 -43 277 -43h31h30q172 0 329 66t270.5 177t181 264.5t67.5 321.5v31v31q0 132 -39 260q90 -178 90 -373 q0 -168 -67 -321.5t-180.5 -264.5t-270.5 -177t-329 -66q-204 0 -390 94zM618 1638h21q23 0 33 2q10 -2 28 -2q82 0 139.5 59t57.5 142q0 19 -2 29v10q9 -77 49 -131q-14 -68 -68 -114t-124 -46q-76 0 -134 51zM1135 1638h20q23 0 33 2q10 -2 29 -2q82 0 139 59t57 142 q0 19 -2 29q2 10 2 33v20q51 -61 51 -133q0 -83 -57 -142t-139 -59q-75 0 -133 51z" />
<glyph unicode="&#xd7;" horiz-adv-x="1210" d="M381 195h2q14 -7 31 -5t28 13l181 180l51 -51l-180 -180q-14 -14 -35 -14t-35 14zM899 195h2q14 -7 31.5 -5t28.5 13l194 192q11 11 13 28.5t-5 31.5v2l43 -43q14 -14 14 -35t-14 -35l-194 -192q-14 -14 -35 -14t-35 14zM973 733l182 182q11 11 13 28.5t-5 31.5v2l43 -43 q14 -14 14 -35t-14 -35l-182 -182z" />
<glyph unicode="&#xd8;" horiz-adv-x="1787" d="M220.5 -99.5q-6.5 13.5 2.5 25.5l10 13h209q43 0 74 34l4 7l6 6q180 -78 369 -78h31h30q171 0 328 66t271 177t181.5 264.5t67.5 321.5v29v33q0 128 -39 256q90 -175 90 -369q0 -168 -67.5 -321.5t-181 -264.5t-270.5 -177t-328 -66q-196 0 -373 86q-37 16 -64 -15l-4 -6 q-31 -35 -73 -35h-252q-15 0 -21.5 13.5zM524 768q11 163 124 277t276 124q10 0 16 -2l-51 -63q-132 -37 -219.5 -144t-96.5 -247l-30 -39q-16 51 -19 94zM879 426l376 467q13 -47 13 -94v-4l-289 -361q-54 -8 -84 -8h-16zM1614 1339l117 146h43q15 0 21 -13.5t-3 -25.5 l-135 -168q-5 10 -12.5 20.5t-16.5 22t-14 18.5z" />
<glyph unicode="&#xd9;" horiz-adv-x="1669" d="M557 -53q121 -39 277 -39h30h31q175 0 315.5 56t231.5 154.5t139.5 231t48.5 287.5v848h2q20 0 34.5 -14.5t14.5 -34.5v-850q0 -155 -48.5 -287.5t-139.5 -231t-231.5 -154.5t-315.5 -56q-222 0 -389 90zM571 723v762h2q20 0 35 -14.5t15 -34.5v-826q0 -63 8 -104 q-23 30 -37 67q-23 67 -23 150zM1030 1630q1 0 4.5 -1t5.5 -1q1 0 37 6h2q19 -9 39.5 -2.5t30.5 25.5l88 151q12 18 4 41l31 -20q17 -12 21.5 -32.5t-5.5 -39.5l-88 -151q-10 -19 -30.5 -25.5t-39.5 2.5z" />
<glyph unicode="&#xda;" horiz-adv-x="1669" d="M557 -53q121 -39 277 -39h30h31q175 0 315.5 56t231.5 154.5t139.5 231t48.5 287.5v848h2q20 0 34.5 -14.5t14.5 -34.5v-850q0 -155 -48.5 -287.5t-139.5 -231t-231.5 -154.5t-315.5 -56q-222 0 -389 90zM571 723v762h2q20 0 35 -14.5t15 -34.5v-826q0 -63 8 -104 q-23 30 -37 67q-23 67 -23 150zM682 1628q6 -2 23 2l520 240q14 6 18.5 21.5t-2.5 29.5l-4 6q3 7 8 25l47 -82q7 -14 2.5 -29.5t-18.5 -21.5l-520 -240q-15 -6 -32 -0.5t-26 18.5z" />
<glyph unicode="&#xdb;" horiz-adv-x="1669" d="M557 -53q121 -39 277 -39h30h31q175 0 315.5 56t231.5 154.5t139.5 231t48.5 287.5v848h2q20 0 34.5 -14.5t14.5 -34.5v-850q0 -155 -48.5 -287.5t-139.5 -231t-231.5 -154.5t-315.5 -56q-222 0 -389 90zM571 723v762h2q20 0 35 -14.5t15 -34.5v-826q0 -63 8 -104 q-23 30 -37 67q-23 67 -23 150zM596 1649q25 -6 47 6l211 137l66 -43q-4 0 -8 -4l-217 -141q-17 -11 -38.5 -8t-33.5 20zM1129 1649q6 0 18 4q17 -9 37.5 -5t30.5 19l114 141q16 19 9 47l34 -28q15 -12 18 -33.5t-9 -36.5l-115 -141q-12 -17 -33.5 -20t-38.5 8z" />
<glyph unicode="&#xdc;" horiz-adv-x="1669" d="M557 -53q121 -39 277 -39h30h31q175 0 315.5 56t231.5 154.5t139.5 231t48.5 287.5v848h2q20 0 34.5 -14.5t14.5 -34.5v-850q0 -155 -48.5 -287.5t-139.5 -231t-231.5 -154.5t-315.5 -56q-222 0 -389 90zM557 1638h21q22 0 32 2q10 -2 29 -2q82 0 139.5 59t57.5 142 q0 19 -2 29v10q9 -77 49 -131q-14 -68 -68.5 -114t-124.5 -46q-75 0 -133 51zM571 723v762h2q20 0 35 -14.5t15 -34.5v-826q0 -63 8 -104q-23 30 -37 67q-23 67 -23 150zM1073 1638h21q22 0 32 2q10 -2 29 -2q82 0 139.5 59t57.5 142q0 19 -2 29q2 10 2 33v20 q51 -61 51 -133q0 -83 -57.5 -142t-139.5 -59q-75 0 -133 51z" />
<glyph unicode="&#xdd;" horiz-adv-x="1671" d="M682 1628q6 -2 23 2l520 240q14 6 18.5 21.5t-2.5 29.5l-4 6q3 7 8 25l47 -82q7 -14 2.5 -29.5t-18.5 -21.5l-520 -240q-15 -6 -32 -0.5t-26 18.5zM743 -61h308q20 0 34.5 14.5t14.5 34.5v495q0 45 22 76l578 926h35q17 0 24 -13.5t-2 -27.5l-583 -936q-23 -33 -23 -76 v-495q0 -20 -14.5 -35t-34.5 -15h-309q-20 0 -35 15t-15 35v2z" />
<glyph unicode="&#xde;" horiz-adv-x="1507" d="M236 -61h309q20 0 34.5 14.5t14.5 34.5v88q0 17 12 29t29 12h254q154 0 276 49.5t197.5 135.5t114.5 197t39 240v31v31q0 101 -29 211q80 -145 80 -324q0 -129 -39 -240t-114.5 -197t-197.5 -135.5t-276 -49.5h-254q-17 0 -29 -12t-12 -29v-88q0 -20 -14.5 -35t-34.5 -15 h-311q-20 0 -34.5 15t-14.5 35v2zM594 612v326q0 17 12 29t29 12h170q46 0 86 -14q24 -12 39 -27l10 -10h-22h-232q-17 0 -29 -12t-12 -29v-275h-51z" />
<glyph unicode="&#xdf;" horiz-adv-x="1810" d="M217 -61h285q20 0 34.5 14.5t14.5 34.5v213q7 -14 12 -19q12 -16 39 -43v-202q0 -20 -14.5 -35t-34.5 -15h-287q-20 0 -34.5 15t-14.5 35v2zM551 297v590q0 138 84 228t244 97q70 -3 137 -12l-51 -39h-11q-171 0 -261.5 -90.5t-90.5 -234.5v-490l-12 -8q-24 -14 -39 -39 v-2zM926 -53q121 -39 258 -39h30h31q124 0 232 41.5t184 112.5t120 168t44 206v29v33q0 62 -15 120q66 -101 66 -233q0 -109 -44 -206t-120 -168t-184 -112.5t-232 -41.5q-200 0 -370 90zM1020 590h2q16 -6 41 -2q51 9 90 12q38 -3 57 -8q53 -14 76 -41q0 -2 2 -4 q-72 9 -174 -10q-50 -10 -78 30zM1491 979l182 139q39 28 39 80v193v14q2 -2 4 -2q20 -6 33.5 -24t13.5 -40v-192q0 -52 -39 -80l-161 -125q-30 17 -72 37z" />
<glyph unicode="&#xe0;" d="M131 -68l2 7h326q22 0 40 12.5t25 32.5l58 149q14 39 55 39h483l21 -51h-453q-41 0 -55 -39l-58 -150q-7 -20 -25 -32.5t-40 -12.5h-348q-18 0 -27.5 15t-3.5 30zM780 666l78 206l37 -94l-43 -112h-72zM1046 1630q1 0 4.5 -1t5.5 -1q1 0 37 6h2q19 -9 39.5 -2.5 t30.5 25.5l88 151q12 18 4 41l31 -20q17 -12 21.5 -32.5t-5.5 -39.5l-88 -151q-10 -19 -30.5 -25.5t-39.5 2.5zM1346 -61h16h348q18 0 27.5 15t3.5 30l-4 12q6 18 6 37q0 20 -6 35l55 -136q6 -15 -3.5 -30t-27.5 -15h-348q-22 0 -39.5 12.5t-25.5 32.5z" />
<glyph unicode="&#xe1;" d="M131 -68l2 7h326q22 0 40 12.5t25 32.5l58 149q14 39 55 39h483l21 -51h-453q-41 0 -55 -39l-58 -150q-7 -20 -25 -32.5t-40 -12.5h-348q-18 0 -27.5 15t-3.5 30zM698 1628q6 -2 23 2l520 240q14 6 18.5 21.5t-2.5 29.5l-4 6q3 7 8 25l47 -82q7 -14 2.5 -29.5 t-18.5 -21.5l-520 -240q-15 -6 -32 -0.5t-26 18.5zM780 666l78 206l37 -94l-43 -112h-72zM1346 -61h16h348q18 0 27.5 15t3.5 30l-4 12q6 18 6 37q0 20 -6 35l55 -136q6 -15 -3.5 -30t-27.5 -15h-348q-22 0 -39.5 12.5t-25.5 32.5z" />
<glyph unicode="&#xe2;" d="M131 -68l2 7h326q22 0 40 12.5t25 32.5l58 149q14 39 55 39h483l21 -51h-453q-41 0 -55 -39l-58 -150q-7 -20 -25 -32.5t-40 -12.5h-348q-18 0 -27.5 15t-3.5 30zM612 1649q25 -6 47 6l211 137l66 -43q-4 0 -8 -4l-217 -141q-17 -11 -38.5 -8t-33.5 20zM780 666l78 206 l37 -94l-43 -112h-72zM1145 1649q6 0 18 4q17 -9 37.5 -5t30.5 19l114 141q16 19 9 47l34 -28q15 -12 18 -33.5t-9 -36.5l-115 -141q-12 -17 -33.5 -20t-38.5 8zM1346 -61h16h348q18 0 27.5 15t3.5 30l-4 12q6 18 6 37q0 20 -6 35l55 -136q6 -15 -3.5 -30t-27.5 -15h-348 q-22 0 -39.5 12.5t-25.5 32.5z" />
<glyph unicode="&#xe3;" d="M131 -68l2 7h326q22 0 40 12.5t25 32.5l58 149q14 39 55 39h483l21 -51h-453q-41 0 -55 -39l-58 -150q-7 -20 -25 -32.5t-40 -12.5h-348q-18 0 -27.5 15t-3.5 30zM551 1675v2h184q13 0 23 9.5t12 23.5v2q22 -15 55 -33q-4 -4 -4 -20q-2 -14 -12 -23.5t-23 -9.5h-190 q-19 0 -33 15t-12 34zM780 666l78 206l37 -94l-43 -112h-72zM926 1645q40 -7 65 -7q23 0 33 2q8 -2 29 -2q62 0 110.5 24t77 59.5t47.5 84t26 89.5t9 85h6q19 0 33 -15t12 -34q-2 -44 -9 -85t-26 -90t-47 -85t-76.5 -60t-111.5 -24q-90 0 -178 58zM1346 -61h16h348 q18 0 27.5 15t3.5 30l-4 12q6 18 6 37q0 20 -6 35l55 -136q6 -15 -3.5 -30t-27.5 -15h-348q-22 0 -39.5 12.5t-25.5 32.5z" />
<glyph unicode="&#xe4;" d="M131 -68l2 7h326q22 0 40 12.5t25 32.5l58 149q14 39 55 39h483l21 -51h-453q-41 0 -55 -39l-58 -150q-7 -20 -25 -32.5t-40 -12.5h-348q-18 0 -27.5 15t-3.5 30zM573 1638h21q23 0 33 2q10 -2 28 -2q82 0 139.5 59t57.5 142q0 19 -2 29v10q9 -77 49 -131 q-14 -68 -68 -114t-124 -46q-76 0 -134 51zM780 666l78 206l37 -94l-43 -112h-72zM1090 1638h20q23 0 33 2q10 -2 28 -2q82 0 139.5 59t57.5 142q0 19 -2 29q2 10 2 33v20q51 -61 51 -133q0 -83 -57 -142t-139 -59q-75 0 -133 51zM1346 -61h16h348q18 0 27.5 15t3.5 30 l-4 12q6 18 6 37q0 20 -6 35l55 -136q6 -15 -3.5 -30t-27.5 -15h-348q-22 0 -39.5 12.5t-25.5 32.5z" />
<glyph unicode="&#xe5;" d="M131 -68l2 7h326q22 0 40 12.5t25 32.5l58 149q14 39 55 39h483l21 -51h-453q-41 0 -55 -39l-58 -150q-7 -20 -25 -32.5t-40 -12.5h-348q-18 0 -27.5 15t-3.5 30zM770 1595q33 -8 78 -8q21 0 33 2q8 -2 28 -2q140 0 241 99.5t101 238.5q0 21 -2 29q2 12 2 33q0 41 -8 77 q60 -89 60 -190q0 -139 -101 -238.5t-241 -99.5q-103 0 -191 59zM780 666l78 206l37 -94l-43 -112h-72zM1346 -61h16h348q18 0 27.5 15t3.5 30l-4 12q6 18 6 37q0 20 -6 35l55 -136q6 -15 -3.5 -30t-27.5 -15h-348q-22 0 -39.5 12.5t-25.5 32.5z" />
<glyph unicode="&#xe6;" horiz-adv-x="2623" d="M120 -99.5q-6 13.5 3 25.5l10 13h385q53 0 80 38l129 162q23 33 66 33h467v-51h-416q-43 0 -66 -33l-129 -162q-28 -39 -80 -39h-428q-15 0 -21 13.5zM1139 666l121 151v-117l-29 -34h-92zM1434 -61h1126q20 0 34.5 14.5t14.5 34.5v295h2q20 0 34.5 -15t14.5 -35v-296 q0 -20 -14.5 -35t-34.5 -15h-1128q-20 0 -34.5 15t-14.5 35v2zM1790 457v41q0 17 12 29t29 12h584q20 0 34.5 14.5t14.5 34.5v270h2q20 0 34.5 -14.5t14.5 -34.5v-272q0 -20 -14.5 -35t-34.5 -15h-584q-14 0 -25 -8.5t-14 -21.5h-53zM1790 1032v66q0 17 12 29t29 12h668h61 q20 0 34.5 14.5t14.5 34.5v297h2q20 0 34.5 -14.5t14.5 -34.5v-299q0 -20 -14.5 -35t-34.5 -15h-729q-17 0 -29 -11.5t-12 -28.5v-15h-51z" />
<glyph unicode="&#xe7;" horiz-adv-x="1673" d="M524 770q10 161 125 274.5t275 124.5q80 -6 149 -41q25 -15 29 -18q-52 10 -94 10q-180 0 -307.5 -126.5t-127.5 -307.5q0 -39 11 -92q-54 79 -60 176zM666 -666q1 0 4 -1t4 -1q85 -18 149 -18q21 0 31 2q10 -2 31 -2q133 0 206.5 75t73.5 189q0 21 -2 29q2 12 2 33 q0 17 -4 53q56 -67 56 -166q0 -114 -74 -189t-207 -75q-106 0 -246 49q-18 7 -24 22zM1030 -98q11 8 29 12q200 25 367 134t264 276q6 9 6 22l26 -12q17 -6 23.5 -26.5t-4.5 -35.5q-97 -167 -264 -275.5t-367 -133.5q-18 -4 -23 -8q-17 19 -57 47zM1346 963q22 -6 40 4 l283 125q17 7 22.5 27.5t-3.5 35.5v2q1 3 2 8.5t2 8.5q40 -57 47 -70q9 -15 3.5 -36t-22.5 -28l-282 -125q-20 -11 -40 -5t-32 26q-1 1 -8 11t-12 16z" />
<glyph unicode="&#xe8;" horiz-adv-x="1425" d="M236 -61h1126q20 0 34.5 14.5t14.5 34.5v295h2q20 0 34.5 -15t14.5 -35v-296q0 -20 -14.5 -35t-34.5 -15h-1128q-20 0 -34.5 15t-14.5 35v2zM594 457v41q0 17 12 29t29 12h582q20 0 34.5 14.5t14.5 34.5v270h2q20 0 34.5 -14.5t14.5 -34.5v-272q0 -20 -14.5 -35 t-34.5 -15h-582q-14 0 -25 -8.5t-14 -21.5h-53zM594 1032v66q0 17 12 29t29 12h727q20 0 34.5 14.5t14.5 34.5v297h2q20 0 34.5 -14.5t14.5 -34.5v-299q0 -20 -14.5 -35t-34.5 -15h-727q-17 0 -29 -11.5t-12 -28.5v-15h-51zM932 1630q1 0 4.5 -1t5.5 -1q1 0 37 6h2 q19 -9 39.5 -2.5t30.5 25.5l88 151q12 18 4 41l31 -20q17 -12 21.5 -32.5t-5.5 -39.5l-88 -151q-10 -19 -30.5 -25.5t-39.5 2.5z" />
<glyph unicode="&#xe9;" horiz-adv-x="1425" d="M236 -61h1126q20 0 34.5 14.5t14.5 34.5v295h2q20 0 34.5 -15t14.5 -35v-296q0 -20 -14.5 -35t-34.5 -15h-1128q-20 0 -34.5 15t-14.5 35v2zM584 1628q6 -2 23 2l520 240q14 6 18.5 21.5t-2.5 29.5l-4 6q3 7 8 25l47 -82q7 -14 2.5 -29.5t-18.5 -21.5l-520 -240 q-15 -6 -32 -0.5t-26 18.5zM594 457v41q0 17 12 29t29 12h582q20 0 34.5 14.5t14.5 34.5v270h2q20 0 34.5 -14.5t14.5 -34.5v-272q0 -20 -14.5 -35t-34.5 -15h-582q-14 0 -25 -8.5t-14 -21.5h-53zM594 1032v66q0 17 12 29t29 12h727q20 0 34.5 14.5t14.5 34.5v297h2 q20 0 34.5 -14.5t14.5 -34.5v-299q0 -20 -14.5 -35t-34.5 -15h-727q-17 0 -29 -11.5t-12 -28.5v-15h-51z" />
<glyph unicode="&#xea;" horiz-adv-x="1425" d="M236 -61h1126q20 0 34.5 14.5t14.5 34.5v295h2q20 0 34.5 -15t14.5 -35v-296q0 -20 -14.5 -35t-34.5 -15h-1128q-20 0 -34.5 15t-14.5 35v2zM497 1649q25 -6 47 6l211 137l66 -43q-4 0 -8 -4l-217 -141q-17 -11 -38.5 -8t-33.5 20zM594 457v41q0 17 12 29t29 12h582 q20 0 34.5 14.5t14.5 34.5v270h2q20 0 34.5 -14.5t14.5 -34.5v-272q0 -20 -14.5 -35t-34.5 -15h-582q-14 0 -25 -8.5t-14 -21.5h-53zM594 1032v66q0 17 12 29t29 12h727q20 0 34.5 14.5t14.5 34.5v297h2q20 0 34.5 -14.5t14.5 -34.5v-299q0 -20 -14.5 -35t-34.5 -15h-727 q-17 0 -29 -11.5t-12 -28.5v-15h-51zM1030 1649q6 0 18 4q17 -9 37.5 -5t30.5 19l114 141q16 19 9 47l34 -28q15 -12 18 -33.5t-9 -36.5l-115 -141q-12 -17 -33.5 -20t-38.5 8z" />
<glyph unicode="&#xeb;" horiz-adv-x="1425" d="M236 -61h1126q20 0 34.5 14.5t14.5 34.5v295h2q20 0 34.5 -15t14.5 -35v-296q0 -20 -14.5 -35t-34.5 -15h-1128q-20 0 -34.5 15t-14.5 35v2zM459 1638h20q23 0 33 2q10 -2 29 -2q82 0 139 59t57 142q0 19 -2 29v10q9 -77 49 -131q-14 -68 -68 -114t-124 -46 q-75 0 -133 51zM594 457v41q0 17 12 29t29 12h582q20 0 34.5 14.5t14.5 34.5v270h2q20 0 34.5 -14.5t14.5 -34.5v-272q0 -20 -14.5 -35t-34.5 -15h-582q-14 0 -25 -8.5t-14 -21.5h-53zM594 1032v66q0 17 12 29t29 12h727q20 0 34.5 14.5t14.5 34.5v297h2q20 0 34.5 -14.5 t14.5 -34.5v-299q0 -20 -14.5 -35t-34.5 -15h-727q-17 0 -29 -11.5t-12 -28.5v-15h-51zM975 1638h20q23 0 33 2q10 -2 29 -2q82 0 139 59t57 142q0 19 -2 29q2 10 2 33v20q52 -62 52 -133q0 -83 -57.5 -142t-139.5 -59q-75 0 -133 51z" />
<glyph unicode="&#xec;" horiz-adv-x="655" d="M236 -61h309q20 0 34.5 14.5t14.5 34.5v1497h2q20 0 34.5 -14.5t14.5 -34.5v-1499q0 -20 -14.5 -35t-34.5 -15h-311q-20 0 -34.5 15t-14.5 35v2zM520 1630q1 0 4.5 -1t5.5 -1q1 0 37 6h2q19 -9 39.5 -2.5t30.5 25.5l88 151q12 18 4 41l31 -20q17 -12 21.5 -32.5 t-5.5 -39.5l-88 -151q-10 -19 -30.5 -25.5t-39.5 2.5z" />
<glyph unicode="&#xed;" horiz-adv-x="655" d="M174 1628q6 -2 23 2l520 240q14 6 18.5 21.5t-2.5 29.5l-4 6q3 7 8 25l47 -82q7 -14 2.5 -29.5t-18.5 -21.5l-520 -240q-15 -6 -32 -0.5t-26 18.5zM236 -61h309q20 0 34.5 14.5t14.5 34.5v1497h2q20 0 34.5 -14.5t14.5 -34.5v-1499q0 -20 -14.5 -35t-34.5 -15h-311 q-20 0 -34.5 15t-14.5 35v2z" />
<glyph unicode="&#xee;" horiz-adv-x="655" d="M88 1649q25 -6 47 6l211 137l66 -43q-4 0 -8 -4l-217 -141q-17 -11 -38.5 -8t-33.5 20zM236 -61h309q20 0 34.5 14.5t14.5 34.5v1497h2q20 0 34.5 -14.5t14.5 -34.5v-1499q0 -20 -14.5 -35t-34.5 -15h-311q-20 0 -34.5 15t-14.5 35v2zM621 1649q6 0 18 4q17 -9 37.5 -5 t30.5 19l114 141q16 19 9 47l34 -28q15 -12 18 -33.5t-9 -36.5l-115 -141q-12 -17 -33.5 -20t-38.5 8z" />
<glyph unicode="&#xef;" horiz-adv-x="655" d="M49 1638h21q22 0 32 2q10 -2 29 -2q82 0 139.5 59t57.5 142q0 19 -2 29v10q9 -77 49 -131q-14 -68 -68.5 -114t-124.5 -46q-75 0 -133 51zM236 -61h309q20 0 34.5 14.5t14.5 34.5v1497h2q20 0 34.5 -14.5t14.5 -34.5v-1499q0 -20 -14.5 -35t-34.5 -15h-311 q-20 0 -34.5 15t-14.5 35v2zM565 1638h21q22 0 32 2q10 -2 29 -2q82 0 139.5 59t57.5 142q0 19 -2 29q2 10 2 33v20q51 -61 51 -133q0 -83 -57.5 -142t-139.5 -59q-75 0 -133 51z" />
<glyph unicode="&#xf0;" horiz-adv-x="1685" d="M246 -61h690q182 0 328 63t238.5 173t141 253.5t48.5 308.5v29v33q0 174 -47 311q98 -183 98 -424q0 -132 -30 -250.5t-92.5 -219t-151 -174t-212 -114.5t-270.5 -41h-692q-20 0 -34.5 15t-14.5 35v2zM604 457v49q0 17 12 29t29 12h248q20 0 34.5 14.5t14.5 34.5v252h2 q20 0 34.5 -14.5t14.5 -34.5v-254q0 -20 -14.5 -34.5t-34.5 -14.5h-248q-17 0 -28 -11t-13 -28h-51zM604 1022v76q0 17 12 29t29 12h199q79 0 137 -25q32 -11 59 -35q-36 8 -84 8h-260q-17 0 -29 -11.5t-12 -28.5v-25h-51z" />
<glyph unicode="&#xf1;" horiz-adv-x="1712" d="M236 -61h307q20 0 34.5 14.5t14.5 34.5v727l51 -66v-712q0 -20 -14.5 -35t-34.5 -15h-309q-20 0 -34.5 15t-14.5 35v2zM557 1675v2h184q13 0 23 9.5t12 23.5v2q22 -15 55 -33q-4 -4 -4 -20q-2 -14 -11.5 -23.5t-22.5 -9.5h-191q-19 0 -33 15t-12 34zM932 1645 q40 -7 65 -7q23 0 33 2q8 -2 29 -2q62 0 110.5 24t77 59.5t47.5 84t26 89.5t9 85h6q19 0 33 -15t12 -34q-2 -44 -9 -85t-26 -90t-47 -85t-76.5 -60t-111.5 -24q-90 0 -178 58zM1315 -61h39h248q20 0 34.5 14.5t14.5 34.5v1497h2q20 0 34.5 -14.5t14.5 -34.5v-1499 q0 -20 -14.5 -35t-34.5 -15h-248q-52 0 -80 39z" />
<glyph unicode="&#xf2;" horiz-adv-x="1789" d="M524 770q10 161 125 274.5t277 124.5q101 -6 178 -59q-52 10 -96 10q-180 0 -307.5 -126.5t-127.5 -307.5q0 -39 11 -92q-54 79 -60 176zM618 -49q130 -43 277 -43h31h30q172 0 329 66t270.5 177t181 264.5t67.5 321.5v31v31q0 132 -39 260q90 -178 90 -373 q0 -168 -67 -321.5t-180.5 -264.5t-270.5 -177t-329 -66q-204 0 -390 94zM1091 1630q1 0 4.5 -1t5.5 -1q1 0 37 6h2q19 -9 39.5 -2.5t30.5 25.5l88 151q12 18 4 41l31 -20q17 -12 21.5 -32.5t-5.5 -39.5l-88 -151q-10 -19 -30.5 -25.5t-39.5 2.5z" />
<glyph unicode="&#xf3;" horiz-adv-x="1789" d="M524 770q10 161 125 274.5t277 124.5q101 -6 178 -59q-52 10 -96 10q-180 0 -307.5 -126.5t-127.5 -307.5q0 -39 11 -92q-54 79 -60 176zM618 -49q130 -43 277 -43h31h30q172 0 329 66t270.5 177t181 264.5t67.5 321.5v31v31q0 132 -39 260q90 -178 90 -373 q0 -168 -67 -321.5t-180.5 -264.5t-270.5 -177t-329 -66q-204 0 -390 94zM743 1628q6 -2 23 2l520 240q14 6 18.5 21.5t-2.5 29.5l-4 6q4 7 8 25l47 -82q7 -14 2.5 -29.5t-18.5 -21.5l-520 -240q-15 -6 -32 -0.5t-26 18.5z" />
<glyph unicode="&#xf4;" horiz-adv-x="1789" d="M524 770q10 161 125 274.5t277 124.5q101 -6 178 -59q-52 10 -96 10q-180 0 -307.5 -126.5t-127.5 -307.5q0 -39 11 -92q-54 79 -60 176zM618 -49q130 -43 277 -43h31h30q172 0 329 66t270.5 177t181 264.5t67.5 321.5v31v31q0 132 -39 260q90 -178 90 -373 q0 -168 -67 -321.5t-180.5 -264.5t-270.5 -177t-329 -66q-204 0 -390 94zM657 1649q25 -6 47 6l211 137l66 -43q-4 0 -8 -4l-217 -141q-17 -11 -38.5 -8t-33.5 20zM1190 1649q6 0 18 4q17 -9 37.5 -5t30.5 19l114 141q16 19 9 47l34 -28q15 -12 18 -33.5t-9 -36.5l-115 -141 q-12 -17 -33.5 -20t-38.5 8z" />
<glyph unicode="&#xf5;" horiz-adv-x="1789" d="M524 770q10 161 125 274.5t277 124.5q101 -6 178 -59q-52 10 -96 10q-180 0 -307.5 -126.5t-127.5 -307.5q0 -39 11 -92q-54 79 -60 176zM598 1675v2h184q13 0 23 9.5t12 23.5v2q22 -15 55 -33q-4 -4 -4 -20q-2 -14 -11.5 -23.5t-22.5 -9.5h-191q-19 0 -33 15t-12 34z M618 -49q130 -43 277 -43h31h30q172 0 329 66t270.5 177t181 264.5t67.5 321.5v31v31q0 132 -39 260q90 -178 90 -373q0 -168 -67 -321.5t-180.5 -264.5t-270.5 -177t-329 -66q-204 0 -390 94zM973 1645q40 -7 65 -7q23 0 33 2q8 -2 29 -2q62 0 110.5 24t77 59.5t47.5 84 t26 89.5t9 85h6q19 0 33 -15t12 -34q-2 -44 -9 -85t-26 -90t-47 -85t-76.5 -60t-111.5 -24q-90 0 -178 58z" />
<glyph unicode="&#xf6;" horiz-adv-x="1789" d="M524 770q10 161 125 274.5t277 124.5q101 -6 178 -59q-52 10 -96 10q-180 0 -307.5 -126.5t-127.5 -307.5q0 -39 11 -92q-54 79 -60 176zM618 -49q130 -43 277 -43h31h30q172 0 329 66t270.5 177t181 264.5t67.5 321.5v31v31q0 132 -39 260q90 -178 90 -373 q0 -168 -67 -321.5t-180.5 -264.5t-270.5 -177t-329 -66q-204 0 -390 94zM618 1638h21q23 0 33 2q10 -2 28 -2q82 0 139.5 59t57.5 142q0 19 -2 29v10q9 -77 49 -131q-14 -68 -68 -114t-124 -46q-76 0 -134 51zM1135 1638h20q23 0 33 2q10 -2 29 -2q82 0 139 59t57 142 q0 19 -2 29q2 10 2 33v20q51 -61 51 -133q0 -83 -57 -142t-139 -59q-75 0 -133 51z" />
<glyph unicode="&#xf7;" horiz-adv-x="1112" d="M193 500v2h151q-2 -2 -7 -7.5t-7 -7.5q-18 -18 -33 -36h-55q-20 0 -34.5 14.5t-14.5 34.5zM510 -53q28 -4 45 -4q23 0 33 2q10 -2 28 -2q106 0 182 76t76 182q0 18 -2 28q2 10 2 33q0 17 -4 45q56 -69 56 -157q0 -106 -76 -182.5t-182 -76.5q-89 0 -158 56zM766 502h278 q20 0 35 14.5t15 34.5v270h2q20 0 34.5 -14.5t14.5 -34.5v-272q0 -20 -14.5 -34.5t-34.5 -14.5h-283q-15 18 -33 36q-2 2 -7 7.5t-7 7.5zM803 995q71 74 71 179q0 18 -2 28q2 10 2 33q0 17 -4 45q56 -69 56 -158q0 -71 -35 -127h-88z" />
<glyph unicode="&#xf8;" horiz-adv-x="1787" d="M220.5 -99.5q-6.5 13.5 2.5 25.5l10 13h209q43 0 74 34l4 7l6 6q180 -78 369 -78h31h30q171 0 328 66t271 177t181.5 264.5t67.5 321.5v29v33q0 128 -39 256q90 -175 90 -369q0 -168 -67.5 -321.5t-181 -264.5t-270.5 -177t-328 -66q-196 0 -373 86q-37 16 -64 -15l-4 -6 q-31 -35 -73 -35h-252q-15 0 -21.5 13.5zM524 768q11 163 124 277t276 124q10 0 16 -2l-51 -63q-132 -37 -219.5 -144t-96.5 -247l-30 -39q-16 51 -19 94zM879 426l376 467q13 -47 13 -94v-4l-289 -361q-54 -8 -84 -8h-16zM1614 1339l117 146h43q15 0 21 -13.5t-3 -25.5 l-135 -168q-5 10 -12.5 20.5t-16.5 22t-14 18.5z" />
<glyph unicode="&#xf9;" horiz-adv-x="1669" d="M557 -53q121 -39 277 -39h30h31q175 0 315.5 56t231.5 154.5t139.5 231t48.5 287.5v848h2q20 0 34.5 -14.5t14.5 -34.5v-850q0 -155 -48.5 -287.5t-139.5 -231t-231.5 -154.5t-315.5 -56q-222 0 -389 90zM571 723v762h2q20 0 35 -14.5t15 -34.5v-826q0 -63 8 -104 q-23 30 -37 67q-23 67 -23 150zM1030 1630q1 0 4.5 -1t5.5 -1q1 0 37 6h2q19 -9 39.5 -2.5t30.5 25.5l88 151q12 18 4 41l31 -20q17 -12 21.5 -32.5t-5.5 -39.5l-88 -151q-10 -19 -30.5 -25.5t-39.5 2.5z" />
<glyph unicode="&#xfa;" horiz-adv-x="1669" d="M557 -53q121 -39 277 -39h30h31q175 0 315.5 56t231.5 154.5t139.5 231t48.5 287.5v848h2q20 0 34.5 -14.5t14.5 -34.5v-850q0 -155 -48.5 -287.5t-139.5 -231t-231.5 -154.5t-315.5 -56q-222 0 -389 90zM571 723v762h2q20 0 35 -14.5t15 -34.5v-826q0 -63 8 -104 q-23 30 -37 67q-23 67 -23 150zM682 1628q6 -2 23 2l520 240q14 6 18.5 21.5t-2.5 29.5l-4 6q3 7 8 25l47 -82q7 -14 2.5 -29.5t-18.5 -21.5l-520 -240q-15 -6 -32 -0.5t-26 18.5z" />
<glyph unicode="&#xfb;" horiz-adv-x="1669" d="M557 -53q121 -39 277 -39h30h31q175 0 315.5 56t231.5 154.5t139.5 231t48.5 287.5v848h2q20 0 34.5 -14.5t14.5 -34.5v-850q0 -155 -48.5 -287.5t-139.5 -231t-231.5 -154.5t-315.5 -56q-222 0 -389 90zM571 723v762h2q20 0 35 -14.5t15 -34.5v-826q0 -63 8 -104 q-23 30 -37 67q-23 67 -23 150zM596 1649q25 -6 47 6l211 137l66 -43q-4 0 -8 -4l-217 -141q-17 -11 -38.5 -8t-33.5 20zM1129 1649q6 0 18 4q17 -9 37.5 -5t30.5 19l114 141q16 19 9 47l34 -28q15 -12 18 -33.5t-9 -36.5l-115 -141q-12 -17 -33.5 -20t-38.5 8z" />
<glyph unicode="&#xfc;" horiz-adv-x="1669" d="M557 -53q121 -39 277 -39h30h31q175 0 315.5 56t231.5 154.5t139.5 231t48.5 287.5v848h2q20 0 34.5 -14.5t14.5 -34.5v-850q0 -155 -48.5 -287.5t-139.5 -231t-231.5 -154.5t-315.5 -56q-222 0 -389 90zM557 1638h21q22 0 32 2q10 -2 29 -2q82 0 139.5 59t57.5 142 q0 19 -2 29v10q9 -77 49 -131q-14 -68 -68.5 -114t-124.5 -46q-75 0 -133 51zM571 723v762h2q20 0 35 -14.5t15 -34.5v-826q0 -63 8 -104q-23 30 -37 67q-23 67 -23 150zM1073 1638h21q22 0 32 2q10 -2 29 -2q82 0 139.5 59t57.5 142q0 19 -2 29q2 10 2 33v20 q51 -61 51 -133q0 -83 -57.5 -142t-139.5 -59q-75 0 -133 51z" />
<glyph unicode="&#xfd;" horiz-adv-x="1671" d="M684 1628q6 -2 23 2l520 240q14 6 18.5 21.5t-2.5 29.5l-4 6q3 7 8 25l47 -82q7 -14 2.5 -29.5t-18.5 -21.5l-520 -240q-15 -6 -32 -0.5t-26 18.5zM743 -61h308q20 0 34.5 14.5t14.5 34.5v495q0 45 22 76l578 926h35q17 0 24 -13.5t-2 -27.5l-583 -936q-23 -33 -23 -76 v-495q0 -20 -14.5 -35t-34.5 -15h-309q-20 0 -35 15t-15 35v2z" />
<glyph unicode="&#xfe;" horiz-adv-x="1507" d="M236 -61h309q20 0 34.5 14.5t14.5 34.5v88q0 17 12 29t29 12h254q154 0 276 49.5t197.5 135.5t114.5 197t39 240v31v31q0 101 -29 211q80 -145 80 -324q0 -129 -39 -240t-114.5 -197t-197.5 -135.5t-276 -49.5h-254q-17 0 -29 -12t-12 -29v-88q0 -20 -14.5 -35t-34.5 -15 h-311q-20 0 -34.5 15t-14.5 35v2zM594 612v326q0 17 12 29t29 12h170q46 0 86 -14q24 -12 39 -27l10 -10h-22h-232q-17 0 -29 -12t-12 -29v-275h-51z" />
<glyph unicode="&#xff;" horiz-adv-x="1671" d="M557 1638h21q22 0 32 2q10 -2 29 -2q82 0 139.5 59t57.5 142q0 19 -2 29v10q9 -77 49 -131q-14 -68 -68.5 -114t-124.5 -46q-75 0 -133 51zM743 -61h308q20 0 34.5 14.5t14.5 34.5v495q0 45 22 76l578 926h35q17 0 24 -13.5t-2 -27.5l-583 -936q-23 -33 -23 -76v-495 q0 -20 -14.5 -35t-34.5 -15h-309q-20 0 -35 15t-15 35v2zM1073 1638h21q22 0 32 2q10 -2 29 -2q82 0 139.5 59t57.5 142q0 19 -2 29q2 10 2 33v20q51 -61 51 -133q0 -83 -57.5 -142t-139.5 -59q-75 0 -133 51z" />
<glyph unicode="&#x152;" horiz-adv-x="2404" d="M526 770q11 167 135 268t349 101h32v-52q-227 -4 -347 -114.5t-120 -286.5q0 -44 9 -84q-2 2 -2 4q-50 68 -56 164zM588 -8q165 -53 360 -53h1395q20 0 34.5 14.5t14.5 34.5v295h2q20 0 34.5 -15t14.5 -35v-296q0 -20 -14.5 -35t-34.5 -15h-1333q-265 0 -473 105z M1575 457v41q0 17 12 29t29 12h582q20 0 34.5 14.5t14.5 34.5v270h2q20 0 34.5 -14.5t14.5 -34.5v-272q0 -20 -14.5 -35t-34.5 -15h-582q-14 0 -25 -8.5t-14 -21.5h-53zM1575 1032v66q0 17 12 29t29 12h727q20 0 34.5 14.5t14.5 34.5v297h2q20 0 34.5 -14.5t14.5 -34.5v-299 q0 -20 -14.5 -35t-34.5 -15h-727q-17 0 -29 -11.5t-12 -28.5v-15h-51z" />
<glyph unicode="&#x153;" horiz-adv-x="2406" d="M526 770q11 167 135 268t349 101h32v-52q-227 -4 -347 -114.5t-120 -286.5q0 -44 9 -84q-2 2 -2 4q-50 68 -56 164zM588 -8q165 -53 360 -53h1395q20 0 34.5 14.5t14.5 34.5v295h2q20 0 34.5 -15t14.5 -35v-296q0 -20 -14.5 -35t-34.5 -15h-1333q-265 0 -473 105z M1575 457v41q0 17 12 29t29 12h582q20 0 34.5 14.5t14.5 34.5v270h2q20 0 34.5 -14.5t14.5 -34.5v-272q0 -20 -14.5 -35t-34.5 -15h-582q-14 0 -25 -8.5t-14 -21.5h-53zM1575 1032v66q0 17 12 29t29 12h727q20 0 34.5 14.5t14.5 34.5v297h2q20 0 34.5 -14.5t14.5 -34.5v-299 q0 -20 -14.5 -35t-34.5 -15h-727q-17 0 -29 -11.5t-12 -28.5v-15h-51z" />
<glyph unicode="&#x178;" horiz-adv-x="1671" d="M557 1638h21q22 0 32 2q10 -2 29 -2q82 0 139.5 59t57.5 142q0 19 -2 29v10q9 -77 49 -131q-14 -68 -68.5 -114t-124.5 -46q-75 0 -133 51zM743 -61h308q20 0 34.5 14.5t14.5 34.5v495q0 45 22 76l578 926h35q17 0 24 -13.5t-2 -27.5l-583 -936q-23 -33 -23 -76v-495 q0 -20 -14.5 -35t-34.5 -15h-309q-20 0 -35 15t-15 35v2zM1073 1638h21q23 0 33 2q10 -2 28 -2q82 0 139.5 59t57.5 142q0 19 -2 29q2 10 2 33v20q51 -61 51 -133q0 -83 -57.5 -142t-139.5 -59q-75 0 -133 51z" />
<glyph unicode="&#x2c6;" horiz-adv-x="1009" d="M268 1649q25 -6 47 6l211 137l66 -43q-4 0 -8 -4l-217 -141q-17 -11 -38.5 -8t-33.5 20zM801 1649q6 0 18 4q17 -9 37.5 -5t30.5 19l114 141q16 19 9 47l34 -28q15 -12 18 -33.5t-9 -36.5l-115 -141q-12 -17 -33.5 -20t-38.5 8z" />
<glyph unicode="&#x2dc;" horiz-adv-x="962" d="M182 1675v2h185q13 0 22.5 9.5t11.5 23.5v2q17 -11 56 -33q-4 -4 -4 -20q-2 -14 -12 -23.5t-23 -9.5h-191q-19 0 -33 15t-12 34zM557 1645q40 -7 66 -7q22 0 32 2q8 -2 29 -2q62 0 110.5 24t77 59.5t47.5 84t26 89.5t9 85h7q19 0 33 -15t12 -34q-2 -44 -9 -85t-26 -90 t-47.5 -85t-77 -60t-111.5 -24q-90 0 -178 58z" />
<glyph unicode="&#x2000;" horiz-adv-x="1032" />
<glyph unicode="&#x2001;" horiz-adv-x="2064" />
<glyph unicode="&#x2002;" horiz-adv-x="1032" />
<glyph unicode="&#x2003;" horiz-adv-x="2064" />
<glyph unicode="&#x2004;" horiz-adv-x="688" />
<glyph unicode="&#x2005;" horiz-adv-x="516" />
<glyph unicode="&#x2006;" horiz-adv-x="344" />
<glyph unicode="&#x2007;" horiz-adv-x="344" />
<glyph unicode="&#x2008;" horiz-adv-x="258" />
<glyph unicode="&#x2009;" horiz-adv-x="412" />
<glyph unicode="&#x200a;" horiz-adv-x="114" />
<glyph unicode="&#x2010;" horiz-adv-x="854" d="M229 412v2h521q20 0 34.5 14.5t14.5 34.5v282h2q20 0 34.5 -14.5t14.5 -34.5v-284q0 -20 -14.5 -35t-34.5 -15h-522q-20 0 -35 15t-15 35z" />
<glyph unicode="&#x2011;" horiz-adv-x="854" d="M229 412v2h521q20 0 34.5 14.5t14.5 34.5v282h2q20 0 34.5 -14.5t14.5 -34.5v-284q0 -20 -14.5 -35t-34.5 -15h-522q-20 0 -35 15t-15 35z" />
<glyph unicode="&#x2012;" horiz-adv-x="854" d="M229 412v2h521q20 0 34.5 14.5t14.5 34.5v282h2q20 0 34.5 -14.5t14.5 -34.5v-284q0 -20 -14.5 -35t-34.5 -15h-522q-20 0 -35 15t-15 35z" />
<glyph unicode="&#x2013;" horiz-adv-x="1296" d="M229 412v2h965q20 0 34.5 14.5t14.5 34.5v282h2q20 0 34.5 -14.5t14.5 -34.5v-284q0 -20 -14.5 -35t-34.5 -15h-966q-20 0 -35 15t-15 35z" />
<glyph unicode="&#x2014;" horiz-adv-x="1622" d="M229 412v2h1291q20 0 34.5 14.5t14.5 34.5v282h2q20 0 34.5 -14.5t14.5 -34.5v-284q0 -20 -14.5 -35t-34.5 -15h-1292q-20 0 -35 15t-15 35z" />
<glyph unicode="&#x2018;" horiz-adv-x="659" d="M264 748q8 0 23 -1.5t22 -1.5q18 0 33 3q12 -3 29 -3q106 0 182 76.5t76 182.5q0 20 -2 28q2 12 2 33q0 7 -1 22.5t-1 22.5q53 -77 53 -158q0 -106 -76 -182t-182 -76q-89 0 -158 54zM532 1292q53 70 84 105q24 27 7 57v2l41 -39q15 -14 16 -35t-12 -36q-44 -49 -88 -111 q-20 32 -48 57z" />
<glyph unicode="&#x2019;" horiz-adv-x="651" d="M270 745h4q14 -7 30.5 -4.5t27.5 13.5q168 161 254 290t86 242q0 21 -2 31q2 10 2 31q0 37 -6 67q57 -73 57 -180q0 -113 -86.5 -242.5t-253.5 -290.5q-13 -14 -35 -13t-35 16z" />
<glyph unicode="&#x201a;" horiz-adv-x="661" d="M246 -399h4q14 -7 30 -5t27 13q168 161 254 290t86 242q0 21 -2 31q2 10 2 31q0 37 -6 67q57 -73 57 -180q0 -113 -86 -242t-254 -290q-13 -14 -34.5 -13.5t-34.5 15.5z" />
<glyph unicode="&#x201c;" horiz-adv-x="1208" d="M266 748q8 0 23 -1.5t22 -1.5q18 0 33 3q12 -3 29 -3q72 0 133 38t94 100q11 -15 37 -45q10 -10 12 -11q-34 -61 -94 -97t-131 -36q-89 0 -158 54zM535 1292q59 78 83 105t7 57v2l41 -39q4 -4 6 -8q-4 -6 -13.5 -19.5t-13.5 -19.5q-41 -61 -70 -127q-18 27 -40 49z M815 748q8 0 23 -1.5t22 -1.5q18 0 33 3q12 -3 29 -3q106 0 182 76.5t76 182.5q0 20 -2 28q2 12 2 33q0 7 -1 22.5t-1 22.5q53 -77 53 -158q0 -106 -76 -182t-182 -76q-89 0 -158 54zM1083 1292q53 70 84 105q24 27 7 57v2l40 -39q15 -14 16.5 -35t-11.5 -36 q-49 -55 -89 -111q-21 34 -47 57z" />
<glyph unicode="&#x201d;" horiz-adv-x="1202" d="M270 745h4q14 -7 30.5 -4.5t27.5 13.5q263 253 319 422q16 -23 47 -54q-51 -69 -84 -106q-28 -28 -28 -74q0 -12 2 -18q-74 -95 -205 -222q-13 -14 -35 -13t-35 16zM821 745h4q14 -7 30.5 -4.5t27.5 13.5q168 161 254 290t86 242q0 21 -2 31q2 10 2 31q0 37 -6 67 q57 -73 57 -180q0 -113 -86.5 -242.5t-253.5 -290.5q-13 -14 -35 -13t-35 16z" />
<glyph unicode="&#x201e;" horiz-adv-x="1212" d="M246 -399h4q14 -7 30 -5t27 13q168 161 254 290t86 242q0 21 -2 31q2 10 2 31q0 37 -6 67q57 -73 57 -180q0 -113 -86 -242t-254 -290q-13 -14 -34.5 -13.5t-34.5 15.5zM797 -399h4q14 -7 30 -5t27 13q168 161 254 290t86 242q0 21 -2 31q2 10 2 31q0 37 -6 67 q57 -73 57 -180q0 -113 -86 -242t-254 -290q-13 -14 -34.5 -13.5t-34.5 15.5z" />
<glyph unicode="&#x2022;" horiz-adv-x="925" d="M393 281q40 -7 70 -7q23 0 33 2q8 -2 28 -2q134 0 231 97.5t97 232.5q0 19 -2 29q2 10 2 33q0 32 -6 67q57 -82 57 -180q0 -135 -97 -232.5t-231 -97.5q-99 0 -182 58z" />
<glyph unicode="&#x2026;" horiz-adv-x="1826" d="M283 -92q28 -4 45 -4q22 0 32 2q10 -2 29 -2q83 0 150 49t94 125q15 -28 45 -66q-30 -71 -94.5 -115t-143.5 -44q-89 0 -157 55zM872 -92q28 -4 46 -4q22 0 32 2q10 -2 29 -2q80 0 146 46.5t96 119.5q21 -40 45 -64q-31 -69 -95 -111t-141 -42q-90 0 -158 55zM1454 -92 q28 -4 45 -4q23 0 33 2q10 -2 29 -2q106 0 182 76t76 182q0 18 -2 28q2 10 2 33q0 17 -4 45q55 -68 55 -157q0 -106 -76 -182t-182 -76q-90 0 -158 55z" />
<glyph unicode="&#x202f;" horiz-adv-x="412" />
<glyph unicode="&#x2039;" horiz-adv-x="813" d="M578 733l124 111q37 32 37 82v338l15 12q10 9 23.5 3.5t13.5 -19.5v-386q0 -49 -37 -81l-123 -109zM692 53q2 0 4 2l6 -6q10 -9 23.5 -3t13.5 20v383v43l15 -13q37 -32 37 -82v-383q0 -14 -13.5 -19.5t-23.5 3.5z" />
<glyph unicode="&#x203a;" horiz-adv-x="813" d="M248 14v47l491 437q37 32 37 82v262l15 -13q36 -31 36 -81v-220q0 -51 -36 -82l-506 -448q-11 -9 -24 -3.5t-13 19.5z" />
<glyph unicode="&#x205f;" horiz-adv-x="516" />
<glyph unicode="&#x20ac;" horiz-adv-x="1863" d="M754 -49q130 -43 276 -43h31h31q230 0 426.5 113t306.5 303q6 9 6 22l27 -12q17 -6 23 -26.5t-5 -35.5q-110 -190 -306 -302.5t-427 -112.5q-203 0 -389 94zM991 428h80q-14 -2 -41 -2t-39 2zM1114 434q25 18 25 43v166h2q20 0 34.5 -14.5t14.5 -34.5v-133 q-57 -23 -76 -27zM1122 764h54q20 0 34.5 14.5t14.5 34.5v166h2q20 0 34.5 -14.5t14.5 -34.5v-168q0 -20 -14.5 -34.5t-34.5 -14.5h-88q-4 32 -17 51zM1481 963q23 -6 41 4l282 125q17 7 22.5 27.5t-3.5 35.5v2q1 3 2 8.5t2 8.5q40 -57 47 -70q9 -15 3.5 -36t-22.5 -28 l-282 -125q-20 -11 -40 -5t-32 26q-1 1 -8 11t-12 16z" />
<glyph unicode="&#x2122;" horiz-adv-x="1779" d="M385 854v2h186q20 0 35 14.5t15 34.5v307q0 17 12 29t29 12h79v-51h-28q-17 0 -29 -12t-12 -29v-307q0 -20 -14.5 -34.5t-34.5 -14.5h-189q-20 0 -34.5 14.5t-14.5 34.5zM915 854v2h187q20 0 34.5 14.5t14.5 34.5v45q1 -1 3 -2t3 -2q23 -13 45 -16v-76q0 -20 -14.5 -34.5 t-34.5 -14.5h-188q-20 0 -35 14.5t-15 34.5zM1264 932q16 -4 24 -4h4q9 0 21 4q10 -27 26 -43q2 -2 6.5 -6t6.5 -6h-9h-4q-46 0 -67 38zM1481 854v2h184q20 0 34.5 14.5t14.5 34.5v580h2q20 0 34.5 -14.5t14.5 -34.5v-582q0 -20 -14.5 -34.5t-34.5 -14.5h-186 q-20 0 -34.5 14.5t-14.5 34.5z" />
<glyph unicode="&#x25fc;" horiz-adv-x="1484" d="M0 0v1485h1485v-1485h-1485z" />
</font>
</defs>
</svg>
