<?xml version="1.0" standalone="no"?>
<!DOCTYPE svg PUBLIC "-//W3C//DTD SVG 1.1//EN" "http://www.w3.org/Graphics/SVG/1.1/DTD/svg11.dtd" >
<svg xmlns="http://www.w3.org/2000/svg">
<metadata></metadata>
<defs>
<font id="evelethclean_thin" horiz-adv-x="1654" >
<font-face units-per-em="2048" ascent="1638" descent="-410" />
<missing-glyph horiz-adv-x="708" />
<glyph horiz-adv-x="2048" />
<glyph horiz-adv-x="2048" />
<glyph unicode="&#xd;" horiz-adv-x="2048" />
<glyph unicode=" "  horiz-adv-x="708" />
<glyph unicode="&#x09;" horiz-adv-x="708" />
<glyph unicode="&#xa0;" horiz-adv-x="708" />
<glyph unicode="!" horiz-adv-x="528" d="M158 80q0 43 31.5 73.5t74.5 30.5t75 -31t32 -73q0 -44 -32 -74.5t-75 -30.5t-74.5 30.5t-31.5 74.5zM199 1561q0 15 11 25.5t26 10.5h57q15 0 26 -10.5t11 -25.5l-19 -1112q0 -15 -11 -26t-26 -11h-20q-15 0 -26 11t-11 26z" />
<glyph unicode="&#x22;" horiz-adv-x="917" d="M176 1561q0 15 11 25.5t26 10.5h45q15 0 26 -10.5t11 -25.5l-12 -576q0 -15 -11 -26t-26 -11h-21q-15 0 -26 11t-11 26zM618 1561q0 15 11 25.5t26 10.5h45q15 0 26 -10.5t11 -25.5l-12 -576q0 -15 -11 -26t-26 -11h-20q-15 0 -26 11t-11 26z" />
<glyph unicode="#" horiz-adv-x="1529" d="M104 489v41q0 15 11 26t26 11h219q12 0 22 8.5t11 20.5l72 403q1 10 -6.5 19.5t-18.5 9.5h-198q-15 0 -26 11t-11 26v43q0 15 11 26t26 11h219q12 0 22 8.5t11 20.5l69 387q3 15 15.5 25.5t27.5 10.5h53q13 0 23 -11t8 -25l-69 -387q-2 -11 6 -20t18 -9h361q12 0 21 8.5 t11 20.5l70 387q3 15 15.5 25.5t27.5 10.5h51q13 0 23 -11t8 -25l-70 -387q-1 -10 6.5 -19.5t18.5 -9.5h201q15 0 25.5 -11t10.5 -26v-43q0 -15 -10.5 -26t-25.5 -11h-222q-12 0 -21 -8.5t-11 -20.5l-72 -403q-2 -11 6 -20t18 -9h201q15 0 26 -11t11 -26v-41 q0 -15 -11 -25.5t-26 -10.5h-221q-12 0 -22 -8.5t-11 -20.5l-67 -387q-3 -15 -15.5 -26t-27.5 -11h-52q-14 0 -23.5 12t-6.5 25l67 387q2 11 -6 20t-18 9h-361q-12 0 -21 -8.5t-11 -20.5l-68 -387q-3 -15 -15.5 -26t-27.5 -11h-53q-14 0 -24 12t-7 25l68 387q1 10 -6.5 19.5 t-18.5 9.5h-199q-15 0 -26 10.5t-11 25.5zM520 596q-1 -10 6.5 -19.5t18.5 -9.5h360q12 0 22 8.5t11 20.5l72 403q1 10 -6.5 19.5t-18.5 9.5h-360q-12 0 -22 -8.5t-11 -20.5z" />
<glyph unicode="$" horiz-adv-x="1234" d="M129 438q-3 20 10 33.5t31 13.5h35q34 -3 43 -41q18 -93 122 -153t263 -60q166 0 259 65t93 167q0 27 -7.5 51.5t-17 43.5t-31.5 38t-37 31.5t-49.5 28.5t-52.5 24t-61.5 22.5t-61.5 20t-67 20.5q-68 22 -112 38.5t-104.5 43t-98.5 54.5t-74.5 65.5t-54 85t-17.5 103.5 q0 139 106 230.5t287 106.5q12 2 20.5 10.5t8.5 20.5v111q0 15 11 26t26 11h43q15 0 26 -11t11 -26v-113q0 -12 8.5 -21t20.5 -12q161 -20 265.5 -104t117.5 -209q2 -12 -10 -24.5t-25 -12.5h-43q-37 0 -43 37q-15 96 -114 154.5t-251 58.5q-161 0 -249.5 -63.5 t-88.5 -165.5q0 -46 19.5 -83.5t48.5 -64t80.5 -51.5t98.5 -41.5t120 -38.5q186 -55 265 -95q209 -112 214 -294q0 -141 -109.5 -234t-295.5 -110q-12 -2 -20.5 -10.5t-8.5 -20.5v-108q0 -15 -11 -26t-26 -11h-43q-15 0 -26 11t-11 26v110q0 12 -8.5 20.5t-20.5 10.5 q-170 22 -279 105t-124 206z" />
<glyph unicode="%" horiz-adv-x="2039" d="M90 1251q0 157 108.5 266t266.5 109t266.5 -109t108.5 -266q0 -156 -109 -266.5t-266 -110.5t-266 110.5t-109 266.5zM199 1251q0 -108 79 -187t187 -79q109 0 186.5 78.5t77.5 187.5q0 108 -78 187.5t-186 79.5q-107 0 -186.5 -80t-79.5 -187zM391 10q-5 10 2 21 l1106 1536q23 30 60 30h67q12 0 16.5 -9.5t-2.5 -20.5l-1105 -1536q-24 -31 -60 -31h-67q-12 0 -17 10zM1200 354q0 158 108.5 266.5t266.5 108.5t267.5 -108.5t109.5 -266.5t-109.5 -267.5t-267.5 -109.5t-266.5 109.5t-108.5 267.5zM1309 354q0 -108 79 -186t187 -78 q109 0 187.5 77.5t78.5 186.5q0 108 -79 187.5t-187 79.5q-107 0 -186.5 -80t-79.5 -187z" />
<glyph unicode="&#x26;" horiz-adv-x="1576" d="M100 326q0 85 31 155t105 134t120 95t153 93q5 3 8 5t7 4.5t8 4.5q9 5 10.5 16t-5.5 19q-106 109 -158.5 200t-52.5 203q0 159 113.5 266t279.5 107q161 0 273 -106t112 -256q0 -50 -12 -94.5t-38 -83.5t-53.5 -70.5t-72.5 -66t-79.5 -58t-88.5 -57.5q-9 -4 -10.5 -16 t6.5 -19l344 -369q8 -8 20 -8t19 8q118 126 221 275q8 12 23 14t26 -8l35 -29q12 -9 14 -25t-6 -28q-124 -172 -231 -287q-9 -9 -9 -21.5t9 -19.5l256 -276q6 -7 1.5 -17t-14.5 -10h-92q-37 0 -61 27l-178 192q-9 8 -21 8.5t-20 -6.5q-288 -252 -562 -252q-102 0 -185 30 t-135.5 80.5t-81 114t-28.5 132.5zM223 334q0 -101 83 -174.5t224 -73.5q224 0 478 223q9 8 10 19.5t-6 19.5l-363 389q-20 20 -45 6q-51 -29 -85 -49.5t-78 -49.5t-72 -53t-58.5 -55.5t-48 -61.5t-28.5 -66t-11 -74zM442 1255q0 -59 27 -117t64 -102.5t108 -117.5 q22 -22 45 -5q55 36 86 57t71.5 52t62.5 55t43.5 55t30.5 64t9 70q0 105 -79 179.5t-191 74.5q-118 0 -197.5 -75.5t-79.5 -189.5z" />
<glyph unicode="'" horiz-adv-x="477" d="M178 1561q0 15 11 25.5t26 10.5h45q15 0 26 -10.5t11 -25.5l-12 -576q0 -15 -11 -26t-26 -11h-21q-15 0 -26 11t-11 26z" />
<glyph unicode="(" horiz-adv-x="759" d="M119 799q0 194 40 376.5t109 329.5t154 263.5t184 203.5q11 10 26.5 9t24.5 -13l29 -37q10 -12 9 -27t-13 -26q-92 -80 -169.5 -186.5t-139.5 -241t-97.5 -302.5t-35.5 -349t35.5 -348.5t97.5 -302t139.5 -241t169.5 -186.5q12 -11 13 -26t-9 -27l-29 -37 q-9 -12 -24.5 -13t-26.5 9q-99 87 -184 204t-154 263.5t-109 328.5t-40 376z" />
<glyph unicode=")" horiz-adv-x="761" d="M65 -305q1 15 13 26q92 80 169.5 186.5t139.5 241.5t97.5 303t35.5 349t-35.5 348.5t-97.5 301.5t-139.5 240.5t-169.5 186.5q-12 11 -13 26t9 27l28 37q9 12 25.5 13t26.5 -9q99 -87 184 -203.5t154 -263t109 -328.5t40 -376t-40 -377t-109 -329.5t-154 -263.5 t-184 -204q-10 -11 -26.5 -9.5t-25.5 13.5l-28 37q-10 12 -9 27z" />
<glyph unicode="*" horiz-adv-x="1079" d="M143 1292l15 43q4 13 18.5 20.5t28.5 2.5l266 -101q9 -3 17.5 3t7.5 16l-11 285q-1 15 9.5 25.5t25.5 10.5h45q15 0 25.5 -10.5t9.5 -25.5l-12 -289q-1 -10 7 -16t17 -3l269 101q14 5 28.5 -2.5t18.5 -20.5l12 -43q5 -14 -2 -27.5t-20 -17.5l-281 -76q-9 -3 -11.5 -13 t3.5 -17l178 -224q9 -11 6.5 -26.5t-14.5 -24.5l-35 -24q-12 -9 -27.5 -6.5t-23.5 14.5l-158 241q-6 9 -16.5 9t-16.5 -9l-155 -237q-7 -12 -23.5 -14.5t-28.5 6.5l-34 24q-12 9 -15 25t6 27l179 225q6 7 2.5 17.5t-13.5 13.5l-274 73q-14 5 -20.5 18.5t-2.5 26.5z" />
<glyph unicode="+" horiz-adv-x="1163" d="M135 727v41q0 15 11 26t26 11h324q12 0 20 8.5t8 20.5v323q0 15 11 26t26 11h41q15 0 26 -11t11 -26v-323q0 -12 8.5 -20.5t20.5 -8.5h323q15 0 26 -11t11 -26v-41q0 -15 -11 -26t-26 -11h-323q-12 0 -20.5 -8t-8.5 -20v-322q0 -15 -11 -26t-26 -11h-41q-15 0 -26 11 t-11 26v322q0 12 -8 20t-20 8h-324q-15 0 -26 11t-11 26z" />
<glyph unicode="," horiz-adv-x="499" d="M70.5 -277.5q0.5 14.5 11.5 25.5q111 111 145 203q10 26 -18 35q-29 6 -49.5 33t-20.5 61q0 42 32 73t75 31q45 0 77.5 -33t32.5 -88q0 -52 -20.5 -106.5t-55 -103t-70.5 -87.5t-77 -75q-11 -10 -25.5 -9.5t-25.5 11.5l-2 4q-10 11 -9.5 25.5z" />
<glyph unicode="-" horiz-adv-x="907" d="M176 645v41q0 15 11 26t26 11h483q15 0 26 -11t11 -26v-41q0 -15 -11 -26t-26 -11h-483q-15 0 -26 11t-11 26z" />
<glyph unicode="." horiz-adv-x="495" d="M141 80q0 42 32 73t75 31t73.5 -30.5t30.5 -73.5q0 -44 -30.5 -74.5t-73.5 -30.5t-75 30.5t-32 74.5z" />
<glyph unicode="/" horiz-adv-x="1380" d="M80 -270l1089 2138q17 33 54 33h59q12 0 19.5 -11.5t1.5 -21.5l-1090 -2138q-17 -33 -53 -33h-60q-12 0 -19 11.5t-1 21.5z" />
<glyph unicode="0" horiz-adv-x="1490" d="M137 799q0 135 25 258.5t75.5 227.5t122 180.5t170 119.5t213.5 43q116 0 215 -43t171 -119.5t123 -180.5t76.5 -227.5t25.5 -258.5q0 -170 -40.5 -319.5t-116 -263.5t-193 -180.5t-261.5 -66.5q-143 0 -259.5 66.5t-191.5 180.5t-115 263.5t-40 319.5zM258 799 q0 -200 57 -360t168.5 -255.5t259.5 -95.5q149 0 261.5 95.5t170.5 255.5t58 360q0 199 -58 359.5t-170.5 255.5t-261.5 95q-148 0 -259.5 -95t-168.5 -255t-57 -360z" />
<glyph unicode="1" horiz-adv-x="704" d="M84 1386v54q0 35 35 49l280 96q30 12 72 12h10q15 0 26 -10.5t11 -25.5v-1524q0 -15 -11 -26t-26 -11h-47q-15 0 -26 11t-11 26v1390q0 11 -8.5 17t-17.5 2l-252 -84q-12 -5 -23.5 3t-11.5 21z" />
<glyph unicode="2" horiz-adv-x="1314" d="M123 37v18q0 37 27 64l606 588q134 131 178 185q110 134 110 265q0 160 -107 256t-267 96q-81 0 -152.5 -23t-129.5 -69t-92 -123t-34 -176q0 -26 -20 -26h-76q-23 0 -23 26q0 103 30.5 189t81.5 144.5t119.5 99t143 59t152.5 18.5q133 0 245 -55.5t181 -164.5t69 -251 q0 -64 -18.5 -125.5t-46.5 -111t-72 -103t-83.5 -94t-91.5 -91.5q-4 -3 -6 -5l-5 -5l-6 -6l-492 -475q-6 -6 -3 -13t11 -7h791q15 0 26 -11t11 -26v-47q0 -15 -11 -26t-26 -11h-983q-15 0 -26 11t-11 26z" />
<glyph unicode="3" horiz-adv-x="1290" d="M138 124q-4 16 5 28l23 38q9 12 24 16t27 -3q201 -115 397 -115q183 0 301.5 96.5t118.5 239.5q0 154 -143.5 250.5t-390.5 103.5q-15 0 -26 11t-11 26v33q0 15 11 26t26 11q122 4 218 37t152 83t84.5 106.5t28.5 115.5q0 128 -101 207t-251 79q-132 0 -228.5 -63.5 t-113.5 -163.5q-3 -18 -15 -29t-30 -10h-41q-13 1 -24 16t-9 29q17 141 148.5 238.5t312.5 97.5q126 0 232 -46t172.5 -136.5t66.5 -208.5q0 -116 -78 -223t-227 -168q-6 -3 -6 -10.5t6 -8.5q170 -55 265 -160.5t95 -248.5q0 -127 -72 -230t-196 -161t-273 -58 q-233 0 -462 133q-12 6 -16 22z" />
<glyph unicode="4" horiz-adv-x="1388" d="M78 375v16q0 34 18 70l617 1104q19 32 55 32h63q12 0 18.5 -11t0.5 -21l-608 -1086q-5 -8 0 -16t14 -8h670q12 0 20 8t8 20v375q0 15 11 26t26 11h45q15 0 26 -11t11 -26v-375q0 -12 8.5 -20t20.5 -8h166q15 0 26 -11t11 -26v-43q0 -15 -11 -26t-26 -11h-166 q-12 0 -20.5 -8.5t-8.5 -20.5v-272q0 -15 -11 -26t-26 -11h-45q-15 0 -26 11t-11 26v272q0 12 -8 20.5t-20 8.5h-811q-15 0 -26 11t-11 26z" />
<glyph unicode="5" horiz-adv-x="1355" d="M113 300.5q4 16.5 16 23.5l41 22q14 7 29 3.5t24 -15.5q76 -114 192.5 -180t258.5 -66q194 0 322 116.5t128 289.5q0 77 -28.5 146t-80.5 122.5t-132 85t-176 31.5q-210 0 -385 -162q-27 -27 -62 -10l-37 16q-32 14 -26 51l135 787q3 15 15.5 25.5t27.5 10.5h723 q15 0 26 -10.5t11 -25.5v-48q0 -15 -11 -25.5t-26 -10.5h-637q-12 0 -22 -8.5t-11 -20.5l-94 -571q-1 -7 5.5 -11.5t12.5 0.5q62 48 156.5 85.5t210.5 37.5q117 0 216.5 -39.5t166.5 -107.5t105 -158.5t38 -191.5q0 -146 -74 -265.5t-205 -188.5t-290 -69q-176 0 -323 83.5 t-236 221.5q-8 10 -4 26.5z" />
<glyph unicode="6" horiz-adv-x="1337" d="M123 520q0 191 110 344l517 703q23 30 59 30h76q12 0 16.5 -9.5t-2.5 -20.5l-375 -512q-3 -5 1 -10.5t10 -2.5q81 23 153 23q112 0 213 -42t174.5 -114t116.5 -173t43 -214q0 -112 -44 -214.5t-119 -176.5t-178.5 -118t-217.5 -44q-113 0 -215.5 44t-176.5 118 t-117.5 175.5t-43.5 213.5zM242 524q0 -183 126 -309.5t308 -126.5q184 0 312 126t128 308q0 185 -128 313t-312 128q-107 0 -198 -47.5t-152 -131.5q-84 -116 -84 -260z" />
<glyph unicode="7" horiz-adv-x="1222" d="M96 1513v48q0 15 11 25.5t26 10.5h1004q15 0 26 -10.5t11 -25.5v-23q0 -39 -17 -70l-708 -1435q-17 -33 -54 -33h-63q-12 0 -19.5 11.5t-1.5 21.5l709 1417q5 9 -0.5 18t-15.5 9h-871q-15 0 -26 10.5t-11 25.5z" />
<glyph unicode="8" horiz-adv-x="1392" d="M131 432q0 139 82.5 246.5t220.5 163.5q8 3 8 10.5t-8 11.5q-110 51 -174.5 141.5t-64.5 206.5q0 117 68.5 213t183 149.5t247.5 53.5q134 0 249.5 -53.5t185 -149.5t69.5 -213q0 -116 -66 -206.5t-178 -141.5q-8 -4 -8 -11.5t8 -10.5q138 -56 222 -164t84 -246 q0 -98 -45.5 -185t-122.5 -147.5t-181 -95.5t-217 -35q-152 0 -280.5 59t-205.5 166t-77 238zM254 438q0 -152 127 -255t313 -103q187 0 315 103t128 255q0 153 -128 257t-315 104q-186 0 -313 -104t-127 -257zM315 1210q0 -132 109.5 -221.5t269.5 -89.5q162 0 272.5 89.5 t110.5 221.5q0 129 -111 219.5t-272 90.5q-159 0 -269 -90.5t-110 -219.5z" />
<glyph unicode="9" horiz-adv-x="1337" d="M102 1075q0 150 75 277.5t204 201.5t281 74q151 0 278 -74t200.5 -201t73.5 -276q0 -191 -110 -344l-516 -702q-24 -31 -60 -31h-75q-12 0 -17 10t2 21l375 512q3 5 -0.5 10t-9.5 2q-80 -23 -154 -23q-112 0 -213 42t-174.5 114t-116.5 173t-43 214zM221 1075 q0 -184 128 -312t313 -128q107 0 198 47.5t152 130.5q84 116 84 260q0 183 -126 309.5t-308 126.5q-184 0 -312.5 -126t-128.5 -308z" />
<glyph unicode=":" horiz-adv-x="573" d="M180 80q0 42 32 73t75 31t73.5 -30.5t30.5 -73.5q0 -44 -30.5 -74.5t-73.5 -30.5t-75 30.5t-32 74.5zM180 811q0 42 32 73t75 31t73.5 -30.5t30.5 -73.5q0 -44 -30.5 -74t-73.5 -30t-75 30t-32 74z" />
<glyph unicode=";" horiz-adv-x="698" d="M189.5 -277.5q0.5 14.5 11.5 25.5q111 111 145 203q10 26 -18 35q-29 6 -49.5 33t-20.5 61q0 42 32 73t75 31q45 0 77.5 -33t32.5 -88q0 -52 -20.5 -106.5t-55 -103t-70.5 -87.5t-77 -75q-11 -10 -25.5 -9.5t-25.5 11.5l-2 4q-10 11 -9.5 25.5zM264 811q0 42 32 73t75 31 t73.5 -30.5t30.5 -73.5q0 -44 -30.5 -74t-73.5 -30t-75 30t-32 74z" />
<glyph unicode="&#x3c;" horiz-adv-x="1230" d="M111 735v29q0 37 32 53l858 420q10 6 21.5 -1t11.5 -19v-58q0 -37 -33 -53l-714 -344q-9 -3 -9 -12.5t9 -12.5l714 -344q33 -17 33 -53v-57q0 -12 -11.5 -19.5t-21.5 -1.5l-858 420q-32 16 -32 53z" />
<glyph unicode="=" horiz-adv-x="1265" d="M186 469v39q0 15 11 26t26 11h817q15 0 26 -11t11 -26v-39q0 -15 -11 -26t-26 -11h-817q-15 0 -26 11t-11 26zM186 991v41q0 15 11 26t26 11h817q15 0 26 -11t11 -26v-41q0 -15 -11 -26t-26 -11h-817q-15 0 -26 11t-11 26z" />
<glyph unicode="&#x3e;" horiz-adv-x="1230" d="M197 283v57q0 37 32 53l715 344q9 3 9 12.5t-9 12.5l-715 344q-32 16 -32 53v58q0 12 11 19t21 1l858 -420q33 -17 33 -53v-29q0 -37 -33 -53l-858 -420q-10 -6 -21 1.5t-11 19.5z" />
<glyph unicode="?" horiz-adv-x="1089" d="M109 1217v26q0 91 39.5 165.5t104.5 121t143 71.5t159 25q180 0 303 -107t123 -284q0 -70 -20 -128t-60 -104.5t-75.5 -76.5t-90.5 -68q-101 -72 -130 -101q-73 -71 -73 -157v-33q0 -12 -8 -20t-20 -8h-45q-14 0 -24.5 10.5t-10.5 23.5v39q0 47 14.5 90t33.5 72.5 t55.5 63t60.5 51.5t69 49q40 28 64.5 47t54 48t45.5 56t27.5 64.5t11.5 79.5q0 124 -85.5 201t-221.5 77q-84 0 -156.5 -30.5t-121 -95t-48.5 -150.5v-23q0 -20 -18 -20h-76q-10 0 -17 7t-7 18zM373 80q0 43 31.5 73.5t74.5 30.5t74 -30.5t31 -73.5q0 -44 -31 -74.5 t-74 -30.5t-74.5 30.5t-31.5 74.5z" />
<glyph unicode="@" horiz-adv-x="2035" d="M127 729q0 131 36 256.5t100.5 232t156 196.5t199 153t233.5 98t256 35q174 0 328.5 -66t264 -178.5t173 -267.5t63.5 -328q0 -109 -24.5 -199t-63.5 -148.5t-90.5 -98.5t-103.5 -57t-105 -17q-78 0 -142 33.5t-103 91.5q-6 10 -17 12t-20 -6q-126 -92 -273 -92 q-162 0 -271.5 112t-109.5 273q0 119 63 222.5t168 163.5t224 60q162 0 271.5 -112t109.5 -273q0 -127 -74 -237q-16 -23 -2 -47q24 -46 70 -74.5t104 -28.5q47 0 94.5 22t92 68t72.5 130t28 194q0 206 -95.5 376.5t-264.5 269.5t-375 99q-116 0 -227.5 -31t-207.5 -86.5 t-177.5 -135.5t-138.5 -174.5t-89.5 -206t-32.5 -228.5q0 -203 95 -372.5t264 -269t375 -99.5q181 0 354 78q14 7 28.5 2t22.5 -19l12 -18q7 -12 2.5 -26.5t-16.5 -20.5q-198 -92 -412 -92q-174 0 -328 65t-262.5 176.5t-171.5 265t-63 324.5zM715 772q0 -124 82.5 -208.5 t206.5 -84.5q139 0 242.5 100.5t103.5 237.5q0 124 -83.5 208.5t-207.5 84.5q-139 0 -241.5 -100.5t-102.5 -237.5z" />
<glyph unicode="A" d="M45 33l700 1532q18 32 54 32h57q35 0 53 -32l701 -1532q3 -5 3 -10q0 -6 -4 -12q-7 -11 -20 -11h-59q-36 0 -51 33l-138 301q-13 26 -41 26h-946q-28 0 -41 -26l-135 -301q-15 -33 -51 -33h-61q-13 0 -20 11q-4 6 -4 12q0 5 3 10zM391 502q-2 -4 -2 -8q0 -5 3 -10 q6 -9 16 -9h839q10 0 16 9q3 5 3 10q0 4 -2 8l-424 938q-4 8 -12 8t-13 -8z" />
<glyph unicode="B" horiz-adv-x="1613" d="M229 37v1524q0 15 11 25.5t26 10.5h684q112 0 203 -33t148 -90.5t87.5 -131t30.5 -156.5q0 -116 -58 -210.5t-157 -146.5q-8 -5 -8 -12t8 -8q130 -47 205.5 -149.5t75.5 -233.5q0 -115 -56.5 -211.5t-164 -155.5t-244.5 -59h-754q-15 0 -26 11t-11 26zM350 141 q0 -12 8.5 -20t20.5 -8h631q158 0 255 96t97 229q0 132 -97 226t-255 94h-631q-12 0 -20.5 -8.5t-8.5 -20.5v-588zM350 889q0 -12 8.5 -20.5t20.5 -8.5h598q141 0 230 93t89 221q0 129 -92.5 219t-259.5 90h-565q-12 0 -20.5 -8.5t-8.5 -20.5v-565z" />
<glyph unicode="C" horiz-adv-x="1759" d="M115 799q0 168 66 321.5t177.5 264.5t265.5 177t324 66q213 0 396.5 -101.5t295.5 -273.5q8 -10 4.5 -25.5t-16.5 -21.5l-41 -22q-13 -8 -28.5 -4.5t-24.5 16.5q-99 144 -252.5 227.5t-333.5 83.5q-144 0 -275.5 -56.5t-226.5 -151.5t-151.5 -226t-56.5 -274 q0 -144 56.5 -275.5t151.5 -226.5t226.5 -151t275.5 -56q180 0 334.5 84t251.5 229q9 12 24 16t29 -3l43 -25q12 -5 16 -21q1 -5 2 -9q0 -10 -6 -17q-112 -172 -296 -273.5t-398 -101.5q-170 0 -324 65.5t-265.5 176.5t-177.5 265t-66 323z" />
<glyph unicode="D" horiz-adv-x="1722" d="M229 37v1524q0 15 11 25.5t26 10.5h588q177 0 319.5 -62t234.5 -170t140.5 -252.5t48.5 -313.5q0 -170 -48.5 -314.5t-140.5 -253t-234 -170t-320 -61.5h-588q-15 0 -26 11t-11 26zM350 147q0 -12 8.5 -20t20.5 -8h469q196 0 340.5 90t216.5 242.5t72 347.5t-72 347.5 t-216.5 242.5t-340.5 90h-469q-12 0 -20.5 -8.5t-8.5 -20.5v-1303z" />
<glyph unicode="E" horiz-adv-x="1454" d="M229 37v1524q0 15 11 25.5t26 10.5h1024q15 0 26 -10.5t11 -25.5v-45q0 -15 -11 -26t-26 -11h-911q-12 0 -20.5 -8.5t-8.5 -20.5v-580q0 -12 8.5 -20t20.5 -8h766q15 0 26 -11t11 -26v-41q0 -15 -11 -26t-26 -11h-766q-12 0 -20.5 -8.5t-8.5 -20.5v-551q0 -12 8.5 -20 t20.5 -8h911q15 0 26 -11t11 -26v-45q0 -15 -11 -26t-26 -11h-1024q-15 0 -26 11t-11 26z" />
<glyph unicode="F" horiz-adv-x="1402" d="M229 37v1524q0 15 11 25.5t26 10.5h983q15 0 26 -10.5t11 -25.5v-45q0 -15 -11 -26t-26 -11h-870q-12 0 -20.5 -8.5t-8.5 -20.5v-633q0 -12 8.5 -20.5t20.5 -8.5h745q15 0 26 -10.5t11 -25.5v-41q0 -15 -11 -26t-26 -11h-745q-12 0 -20.5 -8.5t-8.5 -20.5v-608 q0 -15 -11 -26t-26 -11h-47q-15 0 -26 11t-11 26z" />
<glyph unicode="G" horiz-adv-x="1810" d="M115 799q0 168 66 321.5t177.5 264.5t265.5 177t324 66q191 0 359 -82.5t286 -226.5q9 -10 6.5 -26t-14.5 -23l-39 -27q-12 -9 -27.5 -7.5t-25.5 13.5q-100 121 -242.5 189.5t-302.5 68.5q-144 0 -275.5 -56.5t-226.5 -151.5t-151.5 -226t-56.5 -274q0 -144 56.5 -275.5 t151.5 -226.5t226.5 -151t275.5 -56q180 0 335 85.5t253 232.5q14 24 14 51v227q0 12 -8 20.5t-20 8.5h-518q-15 0 -26 11t-11 26v32q0 15 11 26t26 11h624q15 0 26 -11t11 -26v-747q0 -15 -11 -26t-26 -11h-29q-15 0 -25.5 11t-10.5 26v160q0 6 -1 24.5t-1 24.5l-2 4 q0 6 -6.5 8t-10.5 -4q-101 -133 -257.5 -209t-336.5 -76q-170 0 -324 65.5t-265.5 176.5t-177.5 265t-66 323z" />
<glyph unicode="H" horiz-adv-x="1798" d="M229 37v1524q0 15 11 25.5t26 10.5h47q15 0 26 -10.5t11 -25.5v-691q0 -12 8.5 -20t20.5 -8h1040q12 0 20.5 8t8.5 20v691q0 15 11 25.5t26 10.5h47q15 0 26 -10.5t11 -25.5v-1524q0 -15 -11 -26t-26 -11h-47q-15 0 -26 11t-11 26v661q0 12 -8.5 20.5t-20.5 8.5h-1040 q-12 0 -20.5 -8.5t-8.5 -20.5v-661q0 -15 -11 -26t-26 -11h-47q-15 0 -26 11t-11 26z" />
<glyph unicode="I" horiz-adv-x="577" d="M229 37v1524q0 15 11 25.5t26 10.5h47q15 0 26 -10.5t11 -25.5v-1524q0 -15 -11 -26t-26 -11h-47q-15 0 -26 11t-11 26z" />
<glyph unicode="J" horiz-adv-x="1394" d="M90 532v99q0 15 11 26t26 11h49q15 0 26 -11t11 -26v-99q0 -109 34.5 -195.5t94 -140t135 -81t162.5 -27.5q85 0 160.5 27.5t135 81t94 140t34.5 195.5v1029q0 15 11 25.5t26 10.5h47q15 0 26 -10.5t11 -25.5v-1029q0 -108 -28.5 -200t-79 -158t-119 -112.5t-149.5 -69.5 t-169 -23q-111 0 -209.5 37t-174.5 105.5t-120.5 177.5t-44.5 243z" />
<glyph unicode="K" horiz-adv-x="1593" d="M229 37v1524q0 15 11 25.5t26 10.5h47q15 0 26 -10.5t11 -25.5v-910q0 -8 7.5 -11t13.5 3l983 930q27 24 63 24h90q10 0 14.5 -9t-3.5 -15l-648 -615q-19 -23 -2 -43l682 -886q4 -5 4 -11q0 -4 -2 -8q-5 -10 -16 -10h-80q-34 0 -59 29l-619 800q-7 9 -19.5 9.5 t-19.5 -7.5l-368 -348q-21 -21 -21 -49v-397q0 -15 -11 -26t-26 -11h-47q-15 0 -26 11t-11 26z" />
<glyph unicode="L" horiz-adv-x="1341" d="M229 37v1524q0 15 11 25.5t26 10.5h47q15 0 26 -10.5t11 -25.5v-1414q0 -12 8.5 -20t20.5 -8h858q15 0 26 -11t11 -26v-45q0 -15 -11 -26t-26 -11h-971q-15 0 -26 11t-11 26z" />
<glyph unicode="M" horiz-adv-x="2078" d="M229 37v1524q0 15 11 25.5t26 10.5h41q39 0 55 -32l664 -1125q4 -8 14 -8t15 8l663 1125q16 32 56 32h41q15 0 25.5 -10.5t10.5 -25.5v-1524q0 -15 -10.5 -26t-25.5 -11h-48q-15 0 -25.5 11t-10.5 26v1300q0 6 -6 7.5t-9 -3.5l-616 -1042q-17 -31 -56 -31h-10 q-38 0 -55 31l-614 1038q-3 5 -9 3.5t-6 -7.5v-1296q0 -15 -11 -26t-26 -11h-47q-15 0 -26 11t-11 26z" />
<glyph unicode="N" horiz-adv-x="1792" d="M229 37v1524q0 15 11 25.5t26 10.5h35q35 0 59 -28l1065 -1340q5 -6 12 -3.5t7 10.5v1325q0 15 11 25.5t26 10.5h47q15 0 26 -10.5t11 -25.5v-1524q0 -15 -11 -26t-26 -11h-35q-36 0 -59 29l-1065 1337q-5 6 -12 3.5t-7 -9.5v-1323q0 -15 -11 -26t-26 -11h-47 q-15 0 -26 11t-11 26z" />
<glyph unicode="O" horiz-adv-x="1894" d="M115 799q0 168 66 321.5t177.5 264.5t265.5 177t324 66q169 0 323 -66t265.5 -177t177.5 -264.5t66 -321.5q0 -169 -66 -323t-177.5 -265t-265.5 -176.5t-323 -65.5q-170 0 -324 65.5t-265.5 176.5t-177.5 265t-66 323zM238 799q0 -144 56.5 -275.5t151.5 -226.5 t226.5 -151t275.5 -56q191 0 354.5 95t259 258.5t95.5 355.5q0 143 -56.5 274t-151.5 226t-226.5 151.5t-274.5 56.5q-144 0 -275.5 -56.5t-226.5 -151.5t-151.5 -226t-56.5 -274z" />
<glyph unicode="P" horiz-adv-x="1519" d="M229 37v1524q0 15 11 25.5t26 10.5h580q136 0 248 -44t185.5 -119.5t113 -175t39.5 -211.5q0 -110 -40 -208.5t-112.5 -175t-185 -121t-248.5 -44.5h-467q-12 0 -20.5 -8.5t-8.5 -20.5v-432q0 -15 -11 -26t-26 -11h-47q-15 0 -26 11t-11 26zM350 641q0 -12 8.5 -20.5 t20.5 -8.5h463q108 0 197.5 36t147.5 97t90 139t32 163q0 89 -31.5 168t-90 138.5t-148 94.5t-197.5 35h-463q-12 0 -20.5 -8.5t-8.5 -20.5v-813z" />
<glyph unicode="Q" horiz-adv-x="1888" d="M115 799q0 168 65.5 321.5t176.5 264.5t264.5 177t322.5 66q168 0 322 -66t265 -177t177 -264.5t66 -321.5q0 -278 -165 -497t-423 -296q-7 -3 -7.5 -10t5.5 -10q45 -23 147 -79.5t158 -84.5t133.5 -54t136.5 -26q125 0 201 82q24 27 53 4l37 -31q12 -10 12 -28 q0 -13 -8 -23q-113 -123 -293 -123q-87 0 -188.5 34.5t-194 85t-182.5 101.5t-183 89t-167 42q-152 17 -287.5 89t-233 180.5t-154 253t-56.5 301.5zM238 799q0 -115 35.5 -223.5t101 -195.5t152.5 -152.5t194.5 -101.5t222.5 -36q190 0 352.5 95t257.5 258.5t95 355.5 q0 143 -56 274t-151 226t-225 151.5t-273 56.5t-274 -56.5t-225.5 -151.5t-150.5 -226t-56 -274z" />
<glyph unicode="R" horiz-adv-x="1626" d="M229 37v1524q0 15 11 25.5t26 10.5h668q167 0 293 -71.5t189 -187t63 -255.5q0 -166 -89 -296.5t-249 -188.5q-9 -3 -13 -13.5t2 -19.5l383 -534q3 -6 3 -12q0 -5 -2 -9q-5 -10 -17 -10h-74q-36 0 -57 31l-369 518q-16 16 -36 16h-27h-555q-12 0 -20.5 -8t-8.5 -20v-500 q0 -15 -11 -26t-26 -11h-47q-15 0 -26 11t-11 26zM350 709q0 -12 8.5 -20.5t20.5 -8.5h551q102 0 184.5 32.5t135.5 88t81.5 127.5t28.5 153q0 167 -115 284.5t-315 117.5h-551q-12 0 -20.5 -8.5t-8.5 -20.5v-745z" />
<glyph unicode="S" horiz-adv-x="1441" d="M123 359q0 15 11 27q13 14 30 13h35q19 -1 30 -12.5t13 -28.5q19 -124 152.5 -200t346.5 -76q217 0 337 82t120 215q0 34 -9 65t-22 55.5t-38 48.5t-48 41.5t-61.5 37t-68 32t-78.5 29.5t-82.5 27.5t-88.5 27.5q-56 17 -88.5 27.5t-87 30t-88 35t-80 40t-75 47.5t-60 55 t-49.5 66t-29.5 76.5t-11.5 89.5q0 188 154.5 303t412.5 115q251 0 417.5 -108t178.5 -279q2 -14 -8.5 -29.5t-23.5 -15.5h-45q-17 0 -28 11.5t-13 29.5q-18 125 -146 202t-332 77q-208 0 -324 -82t-116 -215q0 -43 14 -80.5t34 -65.5t59 -55.5t72 -46t91 -41t97.5 -35.5 t109.5 -35q220 -67 317 -114q238 -116 268 -302q5 -29 5 -59q0 -189 -160 -302.5t-426 -113.5q-261 0 -433 107q-186 116 -185 283z" />
<glyph unicode="T" horiz-adv-x="1384" d="M55 1516v45q0 15 11 25.5t26 10.5h1200q15 0 26 -10.5t11 -25.5v-45q0 -15 -11 -26t-26 -11h-512q-12 0 -20 -8.5t-8 -20.5v-1413q0 -15 -11 -26t-26 -11h-47q-15 0 -26 11t-11 26v1413q0 12 -8.5 20.5t-20.5 8.5h-510q-15 0 -26 11t-11 26z" />
<glyph unicode="U" horiz-adv-x="1753" d="M207 604v957q0 15 11 25.5t26 10.5h47q15 0 26 -10.5t11 -25.5v-953q0 -232 144.5 -376t404.5 -144q261 0 404.5 143.5t143.5 376.5v953q0 15 11 25.5t26 10.5h47q15 0 26 -10.5t11 -25.5v-957q0 -135 -44 -250.5t-126.5 -201.5t-210.5 -134.5t-288 -48.5t-288 48.5 t-211 134.5t-127 201.5t-44 250.5z" />
<glyph unicode="V" d="M45 1565q-3 5 -3 10t4 11q7 10 20 11h61q37 0 51 -32l637 -1409q5 -8 13 -8t12 8l639 1409q14 32 51 32h59q13 -1 20 -11q4 -6 4 -11t-3 -10l-701 -1532q-18 -33 -53 -33h-55q-35 0 -53 33z" />
<glyph unicode="W" horiz-adv-x="2320" d="M61 1563q-2 4 -2 9q-1 7 5 14q8 11 22 11h57q37 0 47 -34l433 -1356q1 -6 8 -6t8 6l448 1356q14 34 50 34h45q35 0 49 -34l448 -1356q1 -6 8 -6t9 6l434 1356q10 34 47 34h57q14 0 22 -11q5 -7 5 -14q0 -4 -2 -9l-490 -1528q-14 -35 -49 -35h-59q-35 0 -49 35l-445 1341 q-1 6 -8 6t-8 -6l-442 -1341q-14 -35 -50 -35h-59q-35 0 -49 35z" />
<glyph unicode="X" horiz-adv-x="1538" d="M56 10q-2 5 -2 9q0 5 3 10l619 753q8 9 8 22.5t-8 22.5l-606 742q-6 9 -1 18.5t15 9.5h74q37 0 59 -28l533 -651q8 -9 18 -9t18 9l535 651q22 28 59 28h74q10 0 15 -9.5t-1 -18.5l-606 -742q-8 -9 -8 -22.5t8 -22.5l619 -753q3 -5 3 -10q0 -4 -2 -9q-5 -10 -16 -10h-75 q-37 0 -60 29l-543 663q-8 9 -18 9t-18 -9l-543 -663q-23 -29 -59 -29h-78q-11 0 -16 10z" />
<glyph unicode="Y" horiz-adv-x="1624" d="M48 1588q6 9 18 9h71q38 0 58 -30l600 -838q6 -7 16 -7t16 7l603 838q20 30 57 30h72q12 0 17 -9q2 -5 2 -9q0 -6 -3 -12l-686 -959q-17 -24 -17 -51v-520q0 -15 -10.5 -26t-25.5 -11h-48q-15 0 -25.5 11t-10.5 26v518q0 27 -17 51l-686 961q-3 6 -3 11t2 10z" />
<glyph unicode="Z" horiz-adv-x="1392" d="M68 37v18q0 41 22 66l1028 1335q6 8 2.5 15.5t-12.5 7.5h-969q-15 0 -26 11t-11 26v45q0 15 11 25.5t26 10.5h1135q15 0 26 -10.5t11 -25.5v-19q0 -39 -23 -65l-1030 -1336q-6 -7 -2.5 -14.5t12.5 -7.5h1002q15 0 26 -11t11 -26v-45q0 -15 -11 -26t-26 -11h-1166 q-15 0 -25.5 11t-10.5 26z" />
<glyph unicode="[" horiz-adv-x="749" d="M184 -344v2288q0 15 11 25.5t26 10.5h420q15 0 26 -10.5t11 -25.5v-43q0 -15 -11 -26t-26 -11h-307q-12 0 -20.5 -8.5t-8.5 -20.5v-2071q0 -12 8.5 -20t20.5 -8h307q15 0 26 -11t11 -26v-43q0 -15 -11 -26t-26 -11h-420q-15 0 -26 11t-11 26z" />
<glyph unicode="\" horiz-adv-x="1380" d="M80 1866q-6 10 1 21t19 11h60q37 0 53 -32l1090 -2138q6 -10 -1.5 -21.5t-19.5 -11.5h-59q-37 0 -54 33z" />
<glyph unicode="]" horiz-adv-x="749" d="M72 -301q0 15 11 26t26 11h307q12 0 20 8t8 20v2071q0 12 -8 20.5t-20 8.5h-307q-15 0 -26 11t-11 26v43q0 15 11 25.5t26 10.5h419q15 0 26 -10.5t11 -25.5v-2288q0 -15 -11 -26t-26 -11h-419q-15 0 -26 11t-11 26v43z" />
<glyph unicode="^" horiz-adv-x="1249" d="M137 745l418 820q16 32 53 32h31q37 0 53 -32l420 -820q6 -10 -1 -21t-19 -11h-58q-37 0 -53 32l-344 676q-3 7 -12.5 7t-12.5 -7l-344 -676q-16 -32 -53 -32h-57q-12 0 -19.5 11t-1.5 21z" />
<glyph unicode="_" horiz-adv-x="1284" d="M80 -201q0 15 11 26t26 11h1050q15 0 26 -11t11 -26v-37q0 -15 -11 -25.5t-26 -10.5h-1050q-15 0 -26 10.5t-11 25.5v37z" />
<glyph unicode="`" horiz-adv-x="563" d="M15 2015.5q-4 14.5 3 28.5l23 39q7 13 22 17.5t27 -3.5l442 -268q12 -8 16 -22.5t-3 -28.5l-10 -17q-7 -13 -23 -17.5t-29 3.5l-450 246q-14 8 -18 22.5z" />
<glyph unicode="a" d="M45 33l700 1532q18 32 54 32h57q35 0 53 -32l701 -1532q3 -5 3 -10q0 -6 -4 -12q-7 -11 -20 -11h-59q-36 0 -51 33l-138 301q-13 26 -41 26h-946q-28 0 -41 -26l-135 -301q-15 -33 -51 -33h-61q-13 0 -20 11q-4 6 -4 12q0 5 3 10zM391 502q-2 -4 -2 -8q0 -5 3 -10 q6 -9 16 -9h839q10 0 16 9q3 5 3 10q0 4 -2 8l-424 938q-4 8 -12 8t-13 -8z" />
<glyph unicode="b" horiz-adv-x="1613" d="M229 37v1524q0 15 11 25.5t26 10.5h684q112 0 203 -33t148 -90.5t87.5 -131t30.5 -156.5q0 -116 -58 -210.5t-157 -146.5q-8 -5 -8 -12t8 -8q130 -47 205.5 -149.5t75.5 -233.5q0 -115 -56.5 -211.5t-164 -155.5t-244.5 -59h-754q-15 0 -26 11t-11 26zM350 141 q0 -12 8.5 -20t20.5 -8h631q158 0 255 96t97 229q0 132 -97 226t-255 94h-631q-12 0 -20.5 -8.5t-8.5 -20.5v-588zM350 889q0 -12 8.5 -20.5t20.5 -8.5h598q141 0 230 93t89 221q0 129 -92.5 219t-259.5 90h-565q-12 0 -20.5 -8.5t-8.5 -20.5v-565z" />
<glyph unicode="c" horiz-adv-x="1759" d="M115 799q0 168 66 321.5t177.5 264.5t265.5 177t324 66q213 0 396.5 -101.5t295.5 -273.5q8 -10 4.5 -25.5t-16.5 -21.5l-41 -22q-13 -8 -28.5 -4.5t-24.5 16.5q-99 144 -252.5 227.5t-333.5 83.5q-144 0 -275.5 -56.5t-226.5 -151.5t-151.5 -226t-56.5 -274 q0 -144 56.5 -275.5t151.5 -226.5t226.5 -151t275.5 -56q180 0 334.5 84t251.5 229q9 12 24 16t29 -3l43 -25q12 -5 16 -21q1 -5 2 -9q0 -10 -6 -17q-112 -172 -296 -273.5t-398 -101.5q-170 0 -324 65.5t-265.5 176.5t-177.5 265t-66 323z" />
<glyph unicode="d" horiz-adv-x="1722" d="M229 37v1524q0 15 11 25.5t26 10.5h588q177 0 319.5 -62t234.5 -170t140.5 -252.5t48.5 -313.5q0 -170 -48.5 -314.5t-140.5 -253t-234 -170t-320 -61.5h-588q-15 0 -26 11t-11 26zM350 147q0 -12 8.5 -20t20.5 -8h469q196 0 340.5 90t216.5 242.5t72 347.5t-72 347.5 t-216.5 242.5t-340.5 90h-469q-12 0 -20.5 -8.5t-8.5 -20.5v-1303z" />
<glyph unicode="e" horiz-adv-x="1454" d="M229 37v1524q0 15 11 25.5t26 10.5h1024q15 0 26 -10.5t11 -25.5v-45q0 -15 -11 -26t-26 -11h-911q-12 0 -20.5 -8.5t-8.5 -20.5v-580q0 -12 8.5 -20t20.5 -8h766q15 0 26 -11t11 -26v-41q0 -15 -11 -26t-26 -11h-766q-12 0 -20.5 -8.5t-8.5 -20.5v-551q0 -12 8.5 -20 t20.5 -8h911q15 0 26 -11t11 -26v-45q0 -15 -11 -26t-26 -11h-1024q-15 0 -26 11t-11 26z" />
<glyph unicode="f" horiz-adv-x="1402" d="M229 37v1524q0 15 11 25.5t26 10.5h983q15 0 26 -10.5t11 -25.5v-45q0 -15 -11 -26t-26 -11h-870q-12 0 -20.5 -8.5t-8.5 -20.5v-633q0 -12 8.5 -20.5t20.5 -8.5h745q15 0 26 -10.5t11 -25.5v-41q0 -15 -11 -26t-26 -11h-745q-12 0 -20.5 -8.5t-8.5 -20.5v-608 q0 -15 -11 -26t-26 -11h-47q-15 0 -26 11t-11 26z" />
<glyph unicode="g" horiz-adv-x="1810" d="M115 799q0 168 66 321.5t177.5 264.5t265.5 177t324 66q191 0 359 -82.5t286 -226.5q9 -10 6.5 -26t-14.5 -23l-39 -27q-12 -9 -27.5 -7.5t-25.5 13.5q-100 121 -242.5 189.5t-302.5 68.5q-144 0 -275.5 -56.5t-226.5 -151.5t-151.5 -226t-56.5 -274q0 -144 56.5 -275.5 t151.5 -226.5t226.5 -151t275.5 -56q180 0 335 85.5t253 232.5q14 24 14 51v227q0 12 -8 20.5t-20 8.5h-518q-15 0 -26 11t-11 26v32q0 15 11 26t26 11h624q15 0 26 -11t11 -26v-747q0 -15 -11 -26t-26 -11h-29q-15 0 -25.5 11t-10.5 26v160q0 6 -1 24.5t-1 24.5l-2 4 q0 6 -6.5 8t-10.5 -4q-101 -133 -257.5 -209t-336.5 -76q-170 0 -324 65.5t-265.5 176.5t-177.5 265t-66 323z" />
<glyph unicode="h" horiz-adv-x="1798" d="M229 37v1524q0 15 11 25.5t26 10.5h47q15 0 26 -10.5t11 -25.5v-691q0 -12 8.5 -20t20.5 -8h1040q12 0 20.5 8t8.5 20v691q0 15 11 25.5t26 10.5h47q15 0 26 -10.5t11 -25.5v-1524q0 -15 -11 -26t-26 -11h-47q-15 0 -26 11t-11 26v661q0 12 -8.5 20.5t-20.5 8.5h-1040 q-12 0 -20.5 -8.5t-8.5 -20.5v-661q0 -15 -11 -26t-26 -11h-47q-15 0 -26 11t-11 26z" />
<glyph unicode="i" horiz-adv-x="577" d="M229 37v1524q0 15 11 25.5t26 10.5h47q15 0 26 -10.5t11 -25.5v-1524q0 -15 -11 -26t-26 -11h-47q-15 0 -26 11t-11 26z" />
<glyph unicode="j" horiz-adv-x="1394" d="M90 532v99q0 15 11 26t26 11h49q15 0 26 -11t11 -26v-99q0 -109 34.5 -195.5t94 -140t135 -81t162.5 -27.5q85 0 160.5 27.5t135 81t94 140t34.5 195.5v1029q0 15 11 25.5t26 10.5h47q15 0 26 -10.5t11 -25.5v-1029q0 -108 -28.5 -200t-79 -158t-119 -112.5t-149.5 -69.5 t-169 -23q-111 0 -209.5 37t-174.5 105.5t-120.5 177.5t-44.5 243z" />
<glyph unicode="k" horiz-adv-x="1593" d="M229 37v1524q0 15 11 25.5t26 10.5h47q15 0 26 -10.5t11 -25.5v-910q0 -8 7.5 -11t13.5 3l983 930q27 24 63 24h90q10 0 14.5 -9t-3.5 -15l-648 -615q-19 -23 -2 -43l682 -886q4 -5 4 -11q0 -4 -2 -8q-5 -10 -16 -10h-80q-34 0 -59 29l-619 800q-7 9 -19.5 9.5 t-19.5 -7.5l-368 -348q-21 -21 -21 -49v-397q0 -15 -11 -26t-26 -11h-47q-15 0 -26 11t-11 26z" />
<glyph unicode="l" horiz-adv-x="1341" d="M229 37v1524q0 15 11 25.5t26 10.5h47q15 0 26 -10.5t11 -25.5v-1414q0 -12 8.5 -20t20.5 -8h858q15 0 26 -11t11 -26v-45q0 -15 -11 -26t-26 -11h-971q-15 0 -26 11t-11 26z" />
<glyph unicode="m" horiz-adv-x="2078" d="M229 37v1524q0 15 11 25.5t26 10.5h41q39 0 55 -32l664 -1125q4 -8 14 -8t15 8l663 1125q16 32 56 32h41q15 0 25.5 -10.5t10.5 -25.5v-1524q0 -15 -10.5 -26t-25.5 -11h-48q-15 0 -25.5 11t-10.5 26v1300q0 6 -6 7.5t-9 -3.5l-616 -1042q-17 -31 -56 -31h-10 q-38 0 -55 31l-614 1038q-3 5 -9 3.5t-6 -7.5v-1296q0 -15 -11 -26t-26 -11h-47q-15 0 -26 11t-11 26z" />
<glyph unicode="n" horiz-adv-x="1796" d="M229 37v1524q0 15 11 25.5t26 10.5h35q37 0 59 -28l1065 -1338q5 -6 12 -3.5t7 10.5v1323q0 15 11 25.5t26 10.5h49q15 0 26 -10.5t11 -25.5v-1524q0 -15 -11 -26t-26 -11h-37q-34 0 -59 29l-1065 1339q-5 6 -12 3.5t-7 -9.5v-1325q0 -15 -11 -26t-26 -11h-47 q-15 0 -26 11t-11 26z" />
<glyph unicode="o" horiz-adv-x="1894" d="M115 799q0 168 66 321.5t177.5 264.5t265.5 177t324 66q169 0 323 -66t265.5 -177t177.5 -264.5t66 -321.5q0 -169 -66 -323t-177.5 -265t-265.5 -176.5t-323 -65.5q-170 0 -324 65.5t-265.5 176.5t-177.5 265t-66 323zM238 799q0 -144 56.5 -275.5t151.5 -226.5 t226.5 -151t275.5 -56q191 0 354.5 95t259 258.5t95.5 355.5q0 143 -56.5 274t-151.5 226t-226.5 151.5t-274.5 56.5q-144 0 -275.5 -56.5t-226.5 -151.5t-151.5 -226t-56.5 -274z" />
<glyph unicode="p" horiz-adv-x="1519" d="M229 37v1524q0 15 11 25.5t26 10.5h580q136 0 248 -44t185.5 -119.5t113 -175t39.5 -211.5q0 -110 -40 -208.5t-112.5 -175t-185 -121t-248.5 -44.5h-467q-12 0 -20.5 -8.5t-8.5 -20.5v-432q0 -15 -11 -26t-26 -11h-47q-15 0 -26 11t-11 26zM350 641q0 -12 8.5 -20.5 t20.5 -8.5h463q108 0 197.5 36t147.5 97t90 139t32 163q0 89 -31.5 168t-90 138.5t-148 94.5t-197.5 35h-463q-12 0 -20.5 -8.5t-8.5 -20.5v-813z" />
<glyph unicode="q" horiz-adv-x="1888" d="M115 799q0 168 65.5 321.5t176.5 264.5t264.5 177t322.5 66q168 0 322 -66t265 -177t177 -264.5t66 -321.5q0 -278 -165 -497t-423 -296q-7 -3 -7.5 -10t5.5 -10q45 -23 147 -79.5t158 -84.5t133.5 -54t136.5 -26q125 0 201 82q24 27 53 4l37 -31q12 -10 12 -28 q0 -13 -8 -23q-113 -123 -293 -123q-87 0 -188.5 34.5t-194 85t-182.5 101.5t-183 89t-167 42q-152 17 -287.5 89t-233 180.5t-154 253t-56.5 301.5zM238 799q0 -115 35.5 -223.5t101 -195.5t152.5 -152.5t194.5 -101.5t222.5 -36q190 0 352.5 95t257.5 258.5t95 355.5 q0 143 -56 274t-151 226t-225 151.5t-273 56.5t-274 -56.5t-225.5 -151.5t-150.5 -226t-56 -274z" />
<glyph unicode="r" horiz-adv-x="1626" d="M229 37v1524q0 15 11 25.5t26 10.5h668q167 0 293 -71.5t189 -187t63 -255.5q0 -166 -89 -296.5t-249 -188.5q-9 -3 -13 -13.5t2 -19.5l383 -534q3 -6 3 -12q0 -5 -2 -9q-5 -10 -17 -10h-74q-36 0 -57 31l-369 518q-16 16 -36 16h-27h-555q-12 0 -20.5 -8t-8.5 -20v-500 q0 -15 -11 -26t-26 -11h-47q-15 0 -26 11t-11 26zM350 709q0 -12 8.5 -20.5t20.5 -8.5h551q102 0 184.5 32.5t135.5 88t81.5 127.5t28.5 153q0 167 -115 284.5t-315 117.5h-551q-12 0 -20.5 -8.5t-8.5 -20.5v-745z" />
<glyph unicode="s" horiz-adv-x="1441" d="M123 359q0 15 11 27q13 14 30 13h35q19 -1 30 -12.5t13 -28.5q19 -124 152.5 -200t346.5 -76q217 0 337 82t120 215q0 34 -9 65t-22 55.5t-38 48.5t-48 41.5t-61.5 37t-68 32t-78.5 29.5t-82.5 27.5t-88.5 27.5q-56 17 -88.5 27.5t-87 30t-88 35t-80 40t-75 47.5t-60 55 t-49.5 66t-29.5 76.5t-11.5 89.5q0 188 154.5 303t412.5 115q251 0 417.5 -108t178.5 -279q2 -14 -8.5 -29.5t-23.5 -15.5h-45q-17 0 -28 11.5t-13 29.5q-18 125 -146 202t-332 77q-208 0 -324 -82t-116 -215q0 -43 14 -80.5t34 -65.5t59 -55.5t72 -46t91 -41t97.5 -35.5 t109.5 -35q220 -67 317 -114q238 -116 268 -302q5 -29 5 -59q0 -189 -160 -302.5t-426 -113.5q-261 0 -433 107q-186 116 -185 283z" />
<glyph unicode="t" horiz-adv-x="1384" d="M55 1516v45q0 15 11 25.5t26 10.5h1200q15 0 26 -10.5t11 -25.5v-45q0 -15 -11 -26t-26 -11h-512q-12 0 -20 -8.5t-8 -20.5v-1413q0 -15 -11 -26t-26 -11h-47q-15 0 -26 11t-11 26v1413q0 12 -8.5 20.5t-20.5 8.5h-510q-15 0 -26 11t-11 26z" />
<glyph unicode="u" horiz-adv-x="1753" d="M207 604v957q0 15 11 25.5t26 10.5h47q15 0 26 -10.5t11 -25.5v-953q0 -232 144.5 -376t404.5 -144q261 0 404.5 143.5t143.5 376.5v953q0 15 11 25.5t26 10.5h47q15 0 26 -10.5t11 -25.5v-957q0 -135 -44 -250.5t-126.5 -201.5t-210.5 -134.5t-288 -48.5t-288 48.5 t-211 134.5t-127 201.5t-44 250.5z" />
<glyph unicode="v" d="M45 1565q-3 5 -3 10t4 11q7 10 20 11h61q37 0 51 -32l637 -1409q5 -8 13 -8t12 8l639 1409q14 32 51 32h59q13 -1 20 -11q4 -6 4 -11t-3 -10l-701 -1532q-18 -33 -53 -33h-55q-35 0 -53 33z" />
<glyph unicode="w" horiz-adv-x="2320" d="M61 1563q-2 4 -2 9q-1 7 5 14q8 11 22 11h57q37 0 47 -34l433 -1356q1 -6 8 -6t8 6l448 1356q14 34 50 34h45q35 0 49 -34l448 -1356q1 -6 8 -6t9 6l434 1356q10 34 47 34h57q14 0 22 -11q5 -7 5 -14q0 -4 -2 -9l-490 -1528q-14 -35 -49 -35h-59q-35 0 -49 35l-445 1341 q-1 6 -8 6t-8 -6l-442 -1341q-14 -35 -50 -35h-59q-35 0 -49 35z" />
<glyph unicode="x" horiz-adv-x="1538" d="M56 10q-2 5 -2 9q0 5 3 10l619 753q8 9 8 22.5t-8 22.5l-606 742q-6 9 -1 18.5t15 9.5h74q37 0 59 -28l533 -651q8 -9 18 -9t18 9l535 651q22 28 59 28h74q10 0 15 -9.5t-1 -18.5l-606 -742q-8 -9 -8 -22.5t8 -22.5l619 -753q3 -5 3 -10q0 -4 -2 -9q-5 -10 -16 -10h-75 q-37 0 -60 29l-543 663q-8 9 -18 9t-18 -9l-543 -663q-23 -29 -59 -29h-78q-11 0 -16 10z" />
<glyph unicode="y" horiz-adv-x="1624" d="M48 1588q6 9 18 9h71q38 0 58 -30l600 -838q6 -7 16 -7t16 7l603 838q20 30 57 30h72q12 0 17 -9q2 -5 2 -9q0 -6 -3 -12l-686 -959q-17 -24 -17 -51v-520q0 -15 -10.5 -26t-25.5 -11h-48q-15 0 -25.5 11t-10.5 26v518q0 27 -17 51l-686 961q-3 6 -3 11t2 10z" />
<glyph unicode="z" horiz-adv-x="1392" d="M68 37v18q0 41 22 66l1028 1335q6 8 2.5 15.5t-12.5 7.5h-969q-15 0 -26 11t-11 26v45q0 15 11 25.5t26 10.5h1135q15 0 26 -10.5t11 -25.5v-19q0 -39 -23 -65l-1030 -1336q-6 -7 -2.5 -14.5t12.5 -7.5h1002q15 0 26 -11t11 -26v-45q0 -15 -11 -26t-26 -11h-1166 q-15 0 -25.5 11t-10.5 26z" />
<glyph unicode="{" horiz-adv-x="690" d="M102 793v20q1 17 13.5 28t29.5 13q92 9 143.5 70t51.5 139q0 55 -24 130t-53 139.5t-53 150t-24 159.5q0 53 12.5 101.5t40 92t68.5 75.5t102 50.5t136 18.5h24q8 0 13.5 -5.5t5.5 -12.5v-74q0 -9 -5.5 -14.5t-13.5 -5.5h-24q-70 0 -120.5 -21t-76 -56.5t-36.5 -73.5 t-11 -81q0 -63 24.5 -143.5t54.5 -145t54.5 -144t24.5 -140.5q0 -75 -34.5 -141.5t-98.5 -108.5q-8 -6 -8.5 -14.5t8.5 -14.5q64 -42 98.5 -108.5t34.5 -140.5q0 -61 -24.5 -140t-54.5 -144t-54.5 -145t-24.5 -143q0 -44 11 -81.5t36.5 -73t76 -56t120.5 -20.5h24 q8 0 13.5 -6t5.5 -15v-73q0 -8 -6 -13.5t-13 -5.5h-24q-93 0 -164 28t-112.5 76t-62 107t-20.5 127q0 74 24 159.5t53 149.5t53 139t24 130q0 78 -51.5 138.5t-143.5 69.5q-19 2 -31.5 16t-11.5 34z" />
<glyph unicode="|" horiz-adv-x="485" d="M184 -342v2284q0 15 11 25.5t26 10.5h45q15 0 26 -10.5t11 -25.5v-2284q0 -15 -11 -26t-26 -11h-45q-15 0 -26 11t-11 26z" />
<glyph unicode="}" horiz-adv-x="690" d="M102 -291q0 9 5.5 15t13.5 6h24q70 0 120.5 21t76 56.5t36.5 73t11 80.5q0 63 -24.5 144t-54.5 145.5t-54.5 144t-24.5 140.5q0 75 34.5 141t99.5 108q8 6 8.5 14.5t-8.5 14.5q-64 42 -99 109t-35 141q0 61 24.5 140t54.5 143.5t54.5 144.5t24.5 143q0 34 -6 65t-23 62.5 t-43.5 54t-70.5 36.5t-101 14h-24q-8 0 -13.5 5.5t-5.5 14.5v74q0 7 5.5 12.5t13.5 5.5h24q93 0 164 -28t112.5 -76t62 -107t20.5 -127q0 -74 -24 -159t-53 -149.5t-53 -139t-24 -129.5q0 -78 51.5 -139t143.5 -70q19 -2 31.5 -15.5t11.5 -33.5v-21q-1 -17 -13.5 -28 t-29.5 -13q-92 -9 -143.5 -69.5t-51.5 -138.5q0 -55 24 -130t53 -140t53 -150.5t24 -159.5q0 -53 -12.5 -101.5t-40 -92t-68.5 -75.5t-102 -50.5t-136 -18.5h-24q-8 0 -13.5 5.5t-5.5 12.5v74z" />
<glyph unicode="~" horiz-adv-x="1157" d="M190 567q4 47 18 89.5t38.5 80t65.5 60t94 22.5q52 0 96 -23.5t112 -88.5q31 -31 49.5 -47t45 -30t51.5 -14q48 0 77.5 41.5t34.5 106.5q1 17 12.5 27t28.5 10h21q14 0 24 -12t9 -25q-3 -46 -15.5 -88.5t-36 -80.5t-63.5 -60.5t-92 -22.5q-51 0 -90.5 23.5t-112.5 89.5 q-39 35 -55 48t-43.5 27.5t-52.5 14.5q-51 0 -83 -41t-40 -107q-1 -17 -12.5 -27t-28.5 -10h-19q-14 0 -24 12t-9 25z" />
<glyph unicode="&#xa1;" horiz-adv-x="528" d="M158 1518q0 44 31.5 74t74.5 30t75 -30t32 -74q0 -43 -32 -74t-75 -31t-74.5 31t-31.5 74zM199 37l18 1112q0 15 11 26t26 11h20q15 0 26 -11t11 -26l19 -1112q0 -15 -11 -26t-26 -11h-57q-15 0 -26 11t-11 26z" />
<glyph unicode="&#xa2;" horiz-adv-x="1318" d="M129 684q0 201 131.5 356.5t329.5 194.5q12 1 20 11t8 22v114q0 15 11 26t26 11h43q15 0 26 -11t11 -26v-110q0 -12 8.5 -20.5t20.5 -10.5q118 -15 220.5 -75t172.5 -152q8 -10 5 -26t-15 -23l-41 -23q-13 -8 -28.5 -4.5t-24.5 16.5q-63 80 -156.5 126t-198.5 46 q-186 0 -317 -129.5t-131 -312.5t131 -312.5t317 -129.5q107 0 199.5 46t155.5 126q9 13 24.5 16.5t28.5 -4.5l43 -23q12 -7 15 -23t-5 -26q-72 -94 -174.5 -154t-220.5 -75q-12 -2 -20.5 -10.5t-8.5 -20.5v-108q0 -15 -11 -26t-26 -11h-43q-15 0 -26 11t-11 26v112 q0 12 -8 22t-20 11q-130 25 -235 104.5t-165.5 197.5t-60.5 251z" />
<glyph unicode="&#xa3;" horiz-adv-x="1228" d="M137 37v16q0 38 31 60q100 70 136 155t36 199q0 65 -14 147q-1 12 -11 20.5t-22 8.5h-113q-15 0 -26 11t-11 26v39q0 15 11 26t26 11h88q10 0 17 8.5t4 17.5q-4 14 -22.5 75.5t-24.5 84.5t-17.5 71t-15.5 86t-4 77q0 142 61.5 246t161.5 155t223 51q180 0 304.5 -108.5 t134.5 -280.5q1 -15 -10 -29t-25 -14h-45q-17 -1 -28 11t-13 30q-12 125 -99.5 198.5t-214.5 73.5q-140 0 -235.5 -88.5t-95.5 -244.5q0 -44 9.5 -96.5t20.5 -90.5t30.5 -103t29.5 -102q3 -12 13 -20t22 -8h387q15 0 25.5 -11t10.5 -26v-39q0 -15 -10.5 -26t-25.5 -11h-363 q-10 0 -18 -9t-6 -20q10 -75 10 -143q0 -199 -97 -328q-6 -7 -2 -14.5t13 -7.5h663q15 0 26 -11t11 -26v-47q0 -15 -11 -26t-26 -11h-862q-15 0 -26 11t-11 26z" />
<glyph unicode="&#xa5;" horiz-adv-x="1718" d="M95.5 1587.5q5.5 9.5 17.5 9.5h71q38 0 58 -30l600 -838q6 -7 16 -7t16 7l603 838q20 30 57 30h72q12 0 17 -9.5t-1 -20.5l-500 -697q-5 -6 -0.5 -14t13.5 -8h208q15 0 26 -11t11 -26v-33q0 -15 -11 -26t-26 -11h-284q-29 0 -45 -22l-78 -111q-16 -19 -16 -51v-55 q0 -12 8 -20.5t20 -8.5h395q15 0 26 -11t11 -26v-33q0 -15 -11 -25.5t-26 -10.5h-395q-12 0 -20 -8.5t-8 -20.5v-301q0 -15 -11 -26t-26 -11h-47q-15 0 -26 11t-11 26v301q0 12 -8.5 20.5t-20.5 8.5h-393q-15 0 -26 10.5t-11 25.5v33q0 15 11 26t26 11h393q12 0 20.5 8.5 t8.5 20.5v55q0 31 -17 51l-77 111q-16 22 -46 22h-282q-15 0 -26 11t-11 26v33q0 15 11 26t26 11h207q9 0 13 8t-1 14l-500 697q-6 11 -0.5 20.5z" />
<glyph unicode="&#xa6;" horiz-adv-x="509" d="M197 -342v963q0 15 10.5 25.5t25.5 10.5h46q15 0 25.5 -10.5t10.5 -25.5v-963q0 -15 -10.5 -26t-25.5 -11h-46q-15 0 -25.5 11t-10.5 26zM197 979v963q0 15 10.5 25.5t25.5 10.5h46q15 0 25.5 -10.5t10.5 -25.5v-963q0 -15 -10.5 -26t-25.5 -11h-46q-15 0 -25.5 11 t-10.5 26z" />
<glyph unicode="&#xa7;" horiz-adv-x="1122" d="M141 821q0 85 54 153.5t153 104.5q8 3 8.5 10.5t-6.5 12.5q-82 45 -126 103t-44 141q0 127 102 204.5t275 77.5q168 0 278 -80.5t117 -230.5q0 -14 -9.5 -25.5t-22.5 -11.5h-43q-17 0 -28.5 10t-12.5 27q-10 108 -86.5 159.5t-190.5 51.5q-125 0 -193.5 -53t-68.5 -134 q0 -27 9 -50.5t22 -41.5t39.5 -36.5t47 -30.5t60.5 -29t65 -26t74 -27q45 -16 68 -25t68 -28.5t71 -36t60.5 -43t53.5 -53t32.5 -63.5t13.5 -77q0 -85 -54 -152t-153 -104q-7 -3 -7.5 -10.5t5.5 -11.5q168 -91 168 -244q0 -127 -102 -205t-275 -78q-168 0 -276 79t-117 228 q-2 14 9 26.5t24 12.5h41q38 0 41 -36q11 -108 86.5 -158.5t191.5 -50.5q124 0 193 53t69 135q0 23 -5 42.5t-19.5 37.5t-26.5 31.5t-40 29.5t-45 25.5t-56 25t-58.5 23t-66.5 25.5q-44 16 -68.5 25t-69 28.5t-71 35.5t-60.5 42t-52.5 53t-32 63t-13.5 76zM260 819 q0 -35 15.5 -65t37.5 -51t65 -43t79 -36t98 -36q32 -9 53 -6q115 9 184.5 62t69.5 134q0 30 -9 55t-31 46.5t-44 37.5t-62.5 34t-72.5 30t-86 31q-15 6 -37 6q-112 -6 -186 -60.5t-74 -138.5z" />
<glyph unicode="&#xa8;" horiz-adv-x="634" d="M0 1890q0 38 28 66.5t66 28.5t65 -28t27 -67q0 -38 -27 -65t-65 -27t-66 27t-28 65zM446 1890q0 38 28.5 66.5t66.5 28.5t66 -28.5t28 -66.5t-28 -65t-66 -27q-39 0 -67 27t-28 65z" />
<glyph unicode="&#xa9;" horiz-adv-x="1914" d="M129 799q0 227 110 417.5t300 301t417 110.5q171 0 324.5 -65t264.5 -176t176 -264.5t65 -323.5q0 -171 -65 -324.5t-176 -264.5t-264.5 -176t-324.5 -65q-170 0 -323 65t-263.5 176t-175.5 264.5t-65 324.5zM227 799q0 -198 98 -366t266 -265.5t365 -97.5 q148 0 283.5 58t234 155.5t156.5 232.5t58 283t-58 283t-156 233t-234 156.5t-284 58.5q-197 0 -365 -98.5t-266 -267t-98 -365.5zM543 801q0 169 121.5 291t291.5 122q99 0 187 -45t145 -122q8 -10 5 -26.5t-15 -23.5l-23 -14q-30 -20 -53 10q-44 55 -108 87t-138 32 q-129 0 -221 -91t-92 -220q0 -130 92 -222t221 -92q74 0 138 32t108 87q23 30 53 10l23 -12q12 -7 15 -23t-5 -26q-57 -77 -145 -122.5t-187 -45.5q-170 0 -291.5 122t-121.5 292z" />
<glyph unicode="&#xaa;" horiz-adv-x="1019" d="M129 1278q0 145 101 247.5t245 102.5q147 0 242 -106q5 -6 11.5 -4t6.5 10v43q0 15 11 26t26 11h23q15 0 25.5 -11t10.5 -26v-586q0 -15 -10.5 -26t-25.5 -11h-23q-15 0 -26 11t-11 26v41q0 8 -6.5 10t-11.5 -4q-97 -104 -242 -104t-245.5 102t-100.5 248zM227 1278 q0 -106 73 -179t179 -73t180 73t74 179q0 105 -74.5 179.5t-179.5 74.5t-178.5 -74.5t-73.5 -179.5z" />
<glyph unicode="&#xab;" horiz-adv-x="1380" d="M123 737v23q0 37 27 61l462 414q8 7 17.5 3t9.5 -15v-78q0 -38 -27 -62l-352 -315q-8 -8 -8 -19t8 -18l352 -315q27 -24 27 -62v-78q0 -11 -9.5 -15t-17.5 3l-462 412q-27 24 -27 61zM666 737v23q0 38 26 61l463 414q7 7 17 3t10 -15v-78q0 -38 -27 -62l-352 -315 q-7 -8 -7 -19t7 -18l352 -315q27 -24 27 -62v-78q0 -11 -10 -15t-17 3l-463 412q-26 23 -26 61z" />
<glyph unicode="&#xad;" horiz-adv-x="907" d="M176 645v41q0 15 11 26t26 11h483q15 0 26 -11t11 -26v-41q0 -15 -11 -26t-26 -11h-483q-15 0 -26 11t-11 26z" />
<glyph unicode="&#xae;" horiz-adv-x="1245" d="M125 1130q0 135 67 249.5t181.5 181.5t249.5 67t249.5 -67t181 -181.5t66.5 -249.5q0 -101 -39.5 -193t-106 -158.5t-158.5 -106t-193 -39.5q-135 0 -249.5 66.5t-181.5 181t-67 249.5zM190 1130q0 -180 126.5 -306t306.5 -126t306 126t126 306t-126 306.5t-306 126.5 t-306.5 -126.5t-126.5 -306.5zM444 930v416q0 15 11 25.5t26 10.5h185q75 0 119 -44.5t44 -110.5q0 -41 -18 -76t-51 -55q-12 -6 -15 -17.5t5 -21.5l73 -127q6 -9 0.5 -19t-16.5 -10h-4q-33 0 -49 29l-70 117q-17 24 -43 24h-106q-12 0 -20.5 -8.5t-8.5 -20.5v-112 q0 -12 -8.5 -20.5t-20.5 -8.5h-4q-12 0 -20.5 8.5t-8.5 20.5zM506 1161q0 -12 8.5 -20t20.5 -8h129q47 0 75.5 28t28.5 66t-28.5 66t-75.5 28h-129q-12 0 -20.5 -8.5t-8.5 -20.5v-131z" />
<glyph unicode="&#xaf;" horiz-adv-x="669" d="M0 1835v27q0 15 11 25.5t26 10.5h596q15 0 26 -10.5t11 -25.5v-27q0 -15 -11 -26t-26 -11h-596q-15 0 -26 11t-11 26z" />
<glyph unicode="&#xb0;" horiz-adv-x="983" d="M127 1264q0 151 105.5 257.5t256.5 106.5q152 0 259.5 -106.5t107.5 -257.5t-107.5 -257t-259.5 -106q-151 0 -256.5 106t-105.5 257zM221 1264q0 -113 78 -192t190 -79q114 0 193.5 79t79.5 192t-79.5 191.5t-193.5 78.5q-112 0 -190 -78.5t-78 -191.5z" />
<glyph unicode="&#xb1;" horiz-adv-x="1261" d="M184 133v41q0 15 11 26t26 11h819q15 0 26 -11t11 -26v-41q0 -15 -11 -26t-26 -11h-819q-15 0 -26 11t-11 26zM184 745v41q0 15 11 26t26 11h324q12 0 20 8.5t8 20.5v324q0 15 11 25.5t26 10.5h41q15 0 26 -10.5t11 -25.5v-324q0 -12 8.5 -20.5t20.5 -8.5h323 q15 0 26 -11t11 -26v-41q0 -15 -11 -25.5t-26 -10.5h-323q-12 0 -20.5 -8.5t-8.5 -20.5v-322q0 -15 -11 -25.5t-26 -10.5h-41q-15 0 -26 10.5t-11 25.5v322q0 12 -8 20.5t-20 8.5h-324q-15 0 -26 10.5t-11 25.5z" />
<glyph unicode="&#xb2;" horiz-adv-x="931" d="M98 594v4q0 32 27 59l401 369q53 48 77 71.5t56 62t45 74t13 75.5q0 97 -70 156t-174 59q-68 0 -123.5 -21.5t-95.5 -74t-45 -130.5q-2 -15 -13 -24.5t-28 -9.5h-23q-13 0 -22.5 10t-9.5 24q4 82 37 146t85 100.5t112.5 55t125.5 18.5q142 0 241 -84.5t99 -224.5 q0 -32 -8 -64t-16.5 -55.5t-31 -55t-34 -47.5t-44 -48t-43 -41.5t-46.5 -43.5l-305 -280q-5 -4 -2 -11.5t10 -7.5h491q15 0 26 -11t11 -26v-22q0 -15 -11 -26t-26 -11h-651q-13 0 -24 10.5t-11 24.5z" />
<glyph unicode="&#xb3;" horiz-adv-x="917" d="M110.5 642.5q-3.5 15.5 4.5 27.5l10 16q9 12 24 15.5t29 -3.5q127 -65 252 -65q122 0 199.5 59t77.5 148q0 92 -91 151t-251 66q-15 0 -26 11t-11 26v8q0 15 11 26t26 11q152 8 229.5 70.5t77.5 140.5t-65.5 128t-162.5 50q-83 0 -144.5 -35t-78.5 -92q-9 -42 -47 -39 h-14q-14 2 -25 16t-8 27q19 94 107.5 153.5t209.5 59.5q85 0 158 -30.5t119.5 -90.5t46.5 -137q0 -73 -47.5 -141t-138.5 -109q-7 -3 -6.5 -9.5t6.5 -8.5q106 -37 164.5 -103.5t58.5 -154.5q0 -126 -108 -210.5t-263 -84.5t-307 82q-13 6 -16.5 21.5z" />
<glyph unicode="&#xb4;" horiz-adv-x="563" d="M11.5 1807q3.5 12 13.5 18l454 276q9 6 21 2.5t18 -12.5l31 -55q6 -9 2.5 -21t-12.5 -18l-467 -254q-9 -6 -21 -2.5t-18 12.5l-19 33q-6 9 -2.5 21z" />
<glyph unicode="&#xb6;" horiz-adv-x="1456" d="M94 1087q0 212 148 361t360 149h631q15 0 26 -10.5t11 -25.5v-1524q0 -15 -11 -26t-26 -11h-47q-15 0 -26 11t-11 26v1417q0 12 -8.5 20.5t-20.5 8.5h-250q-12 0 -20 -8.5t-8 -20.5v-1417q0 -15 -11 -26t-26 -11h-45q-15 0 -26 11t-11 26v514q0 12 -8.5 20.5t-20.5 8.5 h-92q-212 0 -360 147.5t-148 359.5zM213 1087q0 -161 114.5 -277t274.5 -116h92q12 0 20.5 8.5t8.5 20.5v731q0 12 -8.5 20.5t-20.5 8.5h-92q-160 0 -274.5 -116.5t-114.5 -279.5z" />
<glyph unicode="&#xb7;" horiz-adv-x="567" d="M178 750q0 42 32 73t75 31t73.5 -30.5t30.5 -73.5q0 -44 -30.5 -74.5t-73.5 -30.5t-75 30.5t-32 74.5z" />
<glyph unicode="&#xb8;" horiz-adv-x="557" d="M36 -474q-5 16 1 28l8 16q6 15 21 19.5t28 -1.5q98 -41 178 -41t123 37.5t43 89.5q0 55 -49.5 94.5t-152.5 36.5q-28 -3 -46 19l-2 2q-18 22 -8 45l39 106q5 15 18.5 25t30.5 10h4q13 0 21.5 -11.5t3.5 -23.5l-25 -73q-4 -10 2 -19.5t17 -11.5q113 -13 172 -73.5 t59 -135.5q0 -84 -67 -146.5t-179 -62.5q-103 0 -223 51q-12 4 -17 20z" />
<glyph unicode="&#xb9;" horiz-adv-x="522" d="M74 1454v29q0 35 35 49l174 55q27 10 59 10h4q12 0 21.5 -9t9.5 -21v-971q0 -15 -11 -26t-26 -11h-23q-15 0 -25.5 11t-10.5 26v860q0 10 -9 17t-18 4l-145 -47q-12 -5 -23.5 3t-11.5 21z" />
<glyph unicode="&#xba;" horiz-adv-x="960" d="M129 1278q0 145 102 247.5t248 102.5t249 -102.5t103 -247.5q0 -146 -103 -248t-249 -102t-248 102t-102 248zM227 1278q0 -106 73 -179t179 -73t180 73t74 179q0 105 -74.5 179.5t-179.5 74.5t-178.5 -74.5t-73.5 -179.5z" />
<glyph unicode="&#xbb;" horiz-adv-x="1382" d="M199 276v78q0 39 26 62l353 315q8 7 8 18t-8 19l-353 315q-26 23 -26 62v78q0 11 9.5 15t16.5 -3l463 -412q27 -24 27 -61v-23q0 -37 -27 -61l-463 -414q-7 -7 -16.5 -3t-9.5 15zM743 276v78q0 38 27 62l352 315q8 7 8 18t-8 19l-352 315q-27 24 -27 62v78q0 11 9.5 15 t17.5 -3l463 -412q27 -24 27 -61v-23q0 -37 -27 -61l-463 -414q-8 -7 -17.5 -3t-9.5 15z" />
<glyph unicode="&#xbc;" horiz-adv-x="1937" d="M88 1454v29q0 35 35 49l174 55q27 10 59 10h4q12 0 21.5 -9t9.5 -21v-971q0 -15 -11 -26t-26 -11h-22q-15 0 -26 11t-11 26v860q0 10 -9 17t-18 4l-145 -47q-12 -5 -23.5 3t-11.5 21zM375 11q-6 11 0 20l909 1536q17 30 55 30h35q12 0 18.5 -10.5t0.5 -19.5l-910 -1536 q-17 -31 -55 -31h-35q-12 0 -18 11zM1016 252v4q0 35 16 61l408 689q16 32 55 32h33q12 0 18 -10.5t0 -21.5l-397 -674q-5 -8 0 -16.5t14 -8.5h414q12 0 20.5 8.5t8.5 20.5v213q0 15 10.5 26t25.5 11h21q15 0 26 -11t11 -26v-213q0 -12 8.5 -20.5t20.5 -8.5h88 q15 0 25.5 -11t10.5 -26v-16q0 -15 -10.5 -26t-25.5 -11h-88q-12 0 -20.5 -8.5t-8.5 -20.5v-151q0 -15 -11 -26t-26 -11h-21q-15 0 -25.5 11t-10.5 26v151q0 12 -8.5 20.5t-20.5 8.5h-526q-13 0 -24 10.5t-11 24.5z" />
<glyph unicode="&#xbd;" horiz-adv-x="2078" d="M86 1454v29q0 35 35 49l174 55q27 10 59 10h4q12 0 21.5 -9t9.5 -21v-971q0 -15 -11 -26t-26 -11h-22q-15 0 -26 11t-11 26v860q0 10 -9 17t-18 4l-145 -47q-12 -5 -23.5 3t-11.5 21zM373 11q-6 11 0 20l909 1536q17 30 55 30h35q12 0 18.5 -10.5t0.5 -19.5l-910 -1536 q-17 -31 -55 -31h-35q-12 0 -18 11zM1235 35v4q0 32 27 59l401 369q52 47 76.5 71.5t56 62.5t44.5 73.5t13 75.5q0 97 -69.5 156t-173.5 59q-68 0 -123.5 -21.5t-95.5 -74t-45 -130.5q-2 -15 -13 -24.5t-28 -9.5h-23q-13 0 -23 10t-10 24q4 82 37 146t85.5 100.5t113 55 t125.5 18.5q142 0 241 -84.5t99 -224.5q0 -44 -15 -88.5t-31 -73t-55.5 -72t-56.5 -60t-66 -61.5l-305 -280q-5 -5 -1.5 -12t10.5 -7h491q15 0 26 -11t11 -26v-22q0 -15 -11 -26t-26 -11h-651q-14 0 -24.5 11t-10.5 24z" />
<glyph unicode="&#xbe;" horiz-adv-x="2187" d="M143 642.5q-4 15.5 4 27.5l11 16q9 12 24 15.5t29 -3.5q127 -65 252 -65q122 0 199 59t77 148q0 92 -91 151t-251 66q-15 0 -26 11t-11 26v8q0 15 11 26t26 11q152 8 230 70.5t78 140.5t-65.5 128t-162.5 50q-83 0 -144.5 -35t-78.5 -92q-9 -42 -47 -39h-14q-14 2 -25 16 t-8 27q19 94 107.5 153.5t209.5 59.5q85 0 158 -30.5t119.5 -90.5t46.5 -137q0 -73 -48 -141t-139 -109q-7 -3 -6.5 -9.5t6.5 -8.5q106 -37 165 -103.5t59 -154.5q0 -126 -108 -210.5t-263 -84.5t-307 82q-13 6 -17 21.5zM625 11q-6 11 0 20l909 1536q17 30 55 30h35 q12 0 18 -10.5t0 -19.5l-909 -1536q-17 -31 -55 -31h-35q-12 0 -18 11zM1266 252v4q0 35 16 61l408 689q16 32 55 32h33q12 0 18 -10.5t0 -21.5l-397 -674q-5 -8 0 -16.5t14 -8.5h414q12 0 20 8.5t8 20.5v213q0 15 11 26t26 11h21q15 0 26 -11t11 -26v-213q0 -12 8 -20.5 t20 -8.5h88q15 0 26 -11t11 -26v-16q0 -15 -11 -26t-26 -11h-88q-12 0 -20 -8.5t-8 -20.5v-151q0 -15 -11 -26t-26 -11h-21q-15 0 -26 11t-11 26v151q0 12 -8 20.5t-20 8.5h-527q-13 0 -23.5 10.5t-10.5 24.5z" />
<glyph unicode="&#xbf;" horiz-adv-x="1089" d="M109 360q0 70 20 128t59.5 104.5t75.5 76.5t90 68q101 72 130 101q73 71 73 157v33q0 12 8.5 20.5t20.5 8.5h45q13 0 24 -10.5t11 -24.5v-39q0 -47 -15 -90t-33.5 -72.5t-55.5 -63t-61 -51.5t-69 -49q-40 -28 -64.5 -47t-54 -48t-45.5 -56t-27.5 -64.5t-11.5 -79.5 q0 -124 86 -201t222 -77q84 0 156.5 30.5t120.5 95t48 150.5v23q0 9 5.5 14.5t13.5 5.5h75q11 0 18 -7t7 -17v-27q0 -91 -39.5 -165.5t-104.5 -121t-143 -71.5t-159 -25q-180 0 -303 107t-123 284zM506 1516q0 44 30.5 74t73.5 30t75 -30t32 -74q0 -43 -32 -74t-75 -31 t-73.5 31t-30.5 74z" />
<glyph unicode="&#xc0;" d="M45 33l700 1532q18 32 54 32h57q35 0 53 -32l701 -1532q6 -11 -1 -22t-20 -11h-59q-36 0 -51 33l-138 301q-13 26 -41 26h-946q-28 0 -41 -26l-135 -301q-15 -33 -51 -33h-61q-13 0 -20 11t-1 22zM391 502q-5 -9 1 -18t16 -9h839q10 0 16 9t1 18l-424 938q-4 8 -12 8 t-13 -8zM562 2015.5q-4 14.5 3 28.5l23 39q7 13 22 17.5t27 -3.5l442 -268q12 -8 16 -22.5t-3 -28.5l-10 -17q-7 -13 -23 -17.5t-29 3.5l-450 246q-14 8 -18 22.5z" />
<glyph unicode="&#xc1;" d="M45 33l700 1532q18 32 54 32h57q35 0 53 -32l701 -1532q6 -11 -1 -22t-20 -11h-59q-36 0 -51 33l-138 301q-13 26 -41 26h-946q-28 0 -41 -26l-135 -301q-15 -33 -51 -33h-61q-13 0 -20 11t-1 22zM391 502q-5 -9 1 -18t16 -9h839q10 0 16 9t1 18l-424 938q-4 8 -12 8 t-13 -8zM558.5 1807q3.5 12 13.5 18l454 276q9 6 21 2.5t18 -12.5l31 -55q6 -9 2.5 -21t-12.5 -18l-467 -254q-9 -6 -21 -2.5t-18 12.5l-19 33q-6 9 -2.5 21z" />
<glyph unicode="&#xc2;" d="M45 33l700 1532q18 32 54 32h57q35 0 53 -32l701 -1532q6 -11 -1 -22t-20 -11h-59q-36 0 -51 33l-138 301q-13 26 -41 26h-946q-28 0 -41 -26l-135 -301q-15 -33 -51 -33h-61q-13 0 -20 11t-1 22zM391 502q-5 -9 1 -18t16 -9h839q10 0 16 9t1 18l-424 938q-4 8 -12 8 t-13 -8zM487 1837.5q2 15.5 13 24.5l297 219q12 11 28.5 11t28.5 -11l301 -219q11 -9 13 -24.5t-7 -27.5l-16 -18q-9 -12 -25 -14t-28 6l-244 176q-9 8 -22.5 8t-22.5 -8l-240 -174q-12 -9 -28 -7.5t-25 13.5l-16 18q-9 12 -7 27.5z" />
<glyph unicode="&#xc3;" d="M45 33l700 1532q18 32 54 32h57q35 0 53 -32l701 -1532q6 -11 -1 -22t-20 -11h-59q-36 0 -51 33l-138 301q-13 26 -41 26h-946q-28 0 -41 -26l-135 -301q-15 -33 -51 -33h-61q-13 0 -20 11t-1 22zM391 502q-5 -9 1 -18t16 -9h839q10 0 16 9t1 18l-424 938q-4 8 -12 8 t-13 -8zM438 1804q4 47 17.5 89.5t38 80t65.5 60t94 22.5t97.5 -24t111.5 -88q31 -31 49.5 -47t45 -30t51.5 -14q48 0 77.5 41.5t34.5 106.5q1 17 12.5 27t28.5 10h21q13 0 23.5 -11.5t8.5 -25.5q-3 -46 -15.5 -88t-35.5 -80.5t-63 -61t-92 -22.5q-51 0 -90.5 23.5 t-112.5 89.5q-38 34 -55 48t-44.5 28t-52.5 14q-51 0 -83 -41t-40 -107q-1 -17 -12.5 -27t-28.5 -10h-18q-14 0 -24 12t-9 25z" />
<glyph unicode="&#xc4;" d="M45 33l700 1532q18 32 54 32h57q35 0 53 -32l701 -1532q6 -11 -1 -22t-20 -11h-59q-36 0 -51 33l-138 301q-13 26 -41 26h-946q-28 0 -41 -26l-135 -301q-15 -33 -51 -33h-61q-13 0 -20 11t-1 22zM391 502q-5 -9 1 -18t16 -9h839q10 0 16 9t1 18l-424 938q-4 8 -12 8 t-13 -8zM510 1890q0 38 28 66.5t66 28.5t65 -28t27 -67q0 -38 -27 -65t-65 -27t-66 27t-28 65zM956 1890q0 38 28.5 66.5t66.5 28.5t66 -28.5t28 -66.5t-28 -65t-66 -27q-39 0 -67 27t-28 65z" />
<glyph unicode="&#xc5;" d="M45 33l700 1532q18 32 54 32h57q35 0 53 -32l701 -1532q6 -11 -1 -22t-20 -11h-59q-36 0 -51 33l-138 301q-13 26 -41 26h-946q-28 0 -41 -26l-135 -301q-15 -33 -51 -33h-61q-13 0 -20 11t-1 22zM391 502q-5 -9 1 -18t16 -9h839q10 0 16 9t1 18l-424 938q-4 8 -12 8 t-13 -8zM594 1958q0 97 68.5 165t167.5 68q97 0 165 -67.5t68 -165.5q0 -99 -68 -167.5t-165 -68.5q-100 0 -168 68t-68 168zM682 1958q0 -62 43 -105t105 -43q59 0 102 43.5t43 104.5q0 58 -43.5 101.5t-101.5 43.5q-61 0 -104.5 -43t-43.5 -102z" />
<glyph unicode="&#xc6;" horiz-adv-x="2557" d="M38 10q-5 10 1 19l1249 1540q22 28 60 28h1044q15 0 26 -10.5t11 -25.5v-45q0 -15 -11 -26t-26 -11h-911q-12 0 -20.5 -8.5t-8.5 -20.5v-580q0 -12 8.5 -20t20.5 -8h766q15 0 26 -11t11 -26v-41q0 -15 -11 -26t-26 -11h-766q-12 0 -20.5 -8.5t-8.5 -20.5v-551 q0 -12 8.5 -20t20.5 -8h911q15 0 26 -11t11 -26v-45q0 -15 -11 -26t-26 -11h-1024q-15 0 -26 11t-11 26v295q0 12 -8 20t-20 8h-809q-29 0 -48 -22l-249 -309q-23 -29 -60 -29h-84q-10 0 -15 10zM573 482.5q4 -7.5 13 -7.5h717q12 0 20 8.5t8 20.5v899q0 7 -6.5 9.5 t-11.5 -3.5l-738 -911q-6 -8 -2 -15.5z" />
<glyph unicode="&#xc7;" horiz-adv-x="1759" d="M115 799q0 168 66 321.5t177.5 264.5t265.5 177t324 66q213 0 396.5 -101.5t295.5 -273.5q8 -10 4.5 -25.5t-16.5 -21.5l-41 -22q-13 -8 -28.5 -4.5t-24.5 16.5q-99 144 -252.5 227.5t-333.5 83.5q-144 0 -275.5 -56.5t-226.5 -151.5t-151.5 -226t-56.5 -274 q0 -144 56.5 -275.5t151.5 -226.5t226.5 -151t275.5 -56q180 0 334.5 84t251.5 229q9 12 24 16t29 -3l45 -25q12 -6 15.5 -20.5t-5.5 -26.5q-109 -166 -284.5 -267t-382.5 -108q-28 0 -37 -28l-23 -64q-4 -10 2 -19.5t17 -11.5q114 -13 172.5 -73t58.5 -135 q0 -84 -66.5 -146.5t-178.5 -62.5q-104 0 -224 51q-12 4 -17 19.5t1 27.5l8 16q6 15 21 20t28 -1q98 -41 178 -41t123 37.5t43 89.5q0 55 -49.5 94.5t-152.5 36.5q-27 -3 -45 18l-3 2q-18 22 -8 45l37 103q4 9 -1.5 18.5t-16.5 11.5q-203 25 -369 139.5t-262 294.5t-96 388z " />
<glyph unicode="&#xc8;" horiz-adv-x="1454" d="M229 37v1524q0 15 11 25.5t26 10.5h1024q15 0 26 -10.5t11 -25.5v-45q0 -15 -11 -26t-26 -11h-911q-12 0 -20.5 -8.5t-8.5 -20.5v-580q0 -12 8.5 -20t20.5 -8h766q15 0 26 -11t11 -26v-41q0 -15 -11 -26t-26 -11h-766q-12 0 -20.5 -8.5t-8.5 -20.5v-551q0 -12 8.5 -20 t20.5 -8h911q15 0 26 -11t11 -26v-45q0 -15 -11 -26t-26 -11h-1024q-15 0 -26 11t-11 26zM510.5 2015.5q-4.5 15.5 3.5 28.5l23 39q7 13 22 17.5t27 -3.5l442 -268q12 -8 15.5 -22.5t-3.5 -28.5l-10 -17q-7 -13 -22.5 -17.5t-28.5 3.5l-451 246q-13 7 -17.5 22.5z" />
<glyph unicode="&#xc9;" horiz-adv-x="1454" d="M229 37v1524q0 15 11 25.5t26 10.5h1024q15 0 26 -10.5t11 -25.5v-45q0 -15 -11 -26t-26 -11h-911q-12 0 -20.5 -8.5t-8.5 -20.5v-580q0 -12 8.5 -20t20.5 -8h766q15 0 26 -11t11 -26v-41q0 -15 -11 -26t-26 -11h-766q-12 0 -20.5 -8.5t-8.5 -20.5v-551q0 -12 8.5 -20 t20.5 -8h911q15 0 26 -11t11 -26v-45q0 -15 -11 -26t-26 -11h-1024q-15 0 -26 11t-11 26zM507.5 1807q3.5 12 13.5 18l454 276q9 6 21 2.5t18 -12.5l31 -55q6 -9 2.5 -21t-12.5 -18l-467 -254q-9 -6 -21 -2.5t-18 12.5l-19 33q-6 9 -2.5 21z" />
<glyph unicode="&#xca;" horiz-adv-x="1454" d="M229 37v1524q0 15 11 25.5t26 10.5h1024q15 0 26 -10.5t11 -25.5v-45q0 -15 -11 -26t-26 -11h-911q-12 0 -20.5 -8.5t-8.5 -20.5v-580q0 -12 8.5 -20t20.5 -8h766q15 0 26 -11t11 -26v-41q0 -15 -11 -26t-26 -11h-766q-12 0 -20.5 -8.5t-8.5 -20.5v-551q0 -12 8.5 -20 t20.5 -8h911q15 0 26 -11t11 -26v-45q0 -15 -11 -26t-26 -11h-1024q-15 0 -26 11t-11 26zM438 1837.5q2 15.5 13 24.5l297 219q12 11 28.5 11t28.5 -11l301 -219q11 -9 13 -24.5t-7 -27.5l-16 -18q-9 -12 -25 -14t-28 6l-244 176q-9 8 -22.5 8t-22.5 -8l-240 -174 q-12 -9 -28 -7.5t-25 13.5l-16 18q-9 12 -7 27.5z" />
<glyph unicode="&#xcb;" horiz-adv-x="1454" d="M229 37v1524q0 15 11 25.5t26 10.5h1024q15 0 26 -10.5t11 -25.5v-45q0 -15 -11 -26t-26 -11h-911q-12 0 -20.5 -8.5t-8.5 -20.5v-580q0 -12 8.5 -20t20.5 -8h766q15 0 26 -11t11 -26v-41q0 -15 -11 -26t-26 -11h-766q-12 0 -20.5 -8.5t-8.5 -20.5v-551q0 -12 8.5 -20 t20.5 -8h911q15 0 26 -11t11 -26v-45q0 -15 -11 -26t-26 -11h-1024q-15 0 -26 11t-11 26zM461 1890q0 38 28 66.5t66 28.5t65 -28t27 -67q0 -38 -27 -65t-65 -27t-66 27t-28 65zM907 1890q0 38 28 66.5t66 28.5t66.5 -28.5t28.5 -66.5t-28 -65t-67 -27q-38 0 -66 27t-28 65z " />
<glyph unicode="&#xcc;" horiz-adv-x="577" d="M23.5 2015.5q-4.5 15.5 3.5 28.5l22 39q7 13 22 17.5t27 -3.5l443 -268q12 -8 15.5 -22.5t-3.5 -28.5l-10 -17q-7 -13 -22.5 -17.5t-28.5 3.5l-451 246q-13 7 -17.5 22.5zM229 37v1524q0 15 11 25.5t26 10.5h47q15 0 26 -10.5t11 -25.5v-1524q0 -15 -11 -26t-26 -11h-47 q-15 0 -26 11t-11 26z" />
<glyph unicode="&#xcd;" horiz-adv-x="577" d="M19.5 1807q3.5 12 13.5 18l454 276q9 6 21 2.5t18 -12.5l31 -55q6 -9 2.5 -21t-12.5 -18l-467 -254q-9 -6 -21 -2.5t-18 12.5l-19 33q-6 9 -2.5 21zM229 37v1524q0 15 11 25.5t26 10.5h47q15 0 26 -10.5t11 -25.5v-1524q0 -15 -11 -26t-26 -11h-47q-15 0 -26 11t-11 26z " />
<glyph unicode="&#xce;" horiz-adv-x="577" d="M-50 1837.5q2 15.5 13 24.5l297 219q12 11 28.5 11t28.5 -11l301 -219q11 -9 13 -24.5t-7 -27.5l-16 -18q-9 -12 -25 -14t-28 6l-244 176q-9 8 -22.5 8t-22.5 -8l-240 -174q-12 -9 -28 -7.5t-25 13.5l-16 18q-9 12 -7 27.5zM229 37v1524q0 15 11 25.5t26 10.5h47 q15 0 26 -10.5t11 -25.5v-1524q0 -15 -11 -26t-26 -11h-47q-15 0 -26 11t-11 26z" />
<glyph unicode="&#xcf;" horiz-adv-x="577" d="M-29 1890q0 38 28.5 66.5t66.5 28.5t65 -28t27 -67q0 -38 -27 -65t-65 -27q-39 0 -67 27t-28 65zM229 37v1524q0 15 11 25.5t26 10.5h47q15 0 26 -10.5t11 -25.5v-1524q0 -15 -11 -26t-26 -11h-47q-15 0 -26 11t-11 26zM418 1890q0 38 28 66.5t66 28.5t66 -28.5t28 -66.5 t-28 -65t-66 -27t-66 27t-28 65z" />
<glyph unicode="&#xd0;" horiz-adv-x="1724" d="M51 778v35q0 15 11 26t26 11h115q12 0 20 8.5t8 20.5v682q0 15 11 25.5t26 10.5h588q177 0 319.5 -62t234.5 -170t140.5 -252.5t48.5 -313.5q0 -170 -48.5 -314.5t-140.5 -253t-234 -170t-320 -61.5h-588q-15 0 -26 11t-11 26v676q0 12 -8 20t-20 8h-115q-15 0 -26 11 t-11 26zM352 147q0 -12 8.5 -20t20.5 -8h469q196 0 340.5 90t216.5 242.5t72 347.5t-72 347.5t-216.5 242.5t-340.5 90h-469q-12 0 -20.5 -8.5t-8.5 -20.5v-571q0 -12 8.5 -20.5t20.5 -8.5h508q15 0 26 -11t11 -26v-35q0 -15 -11 -26t-26 -11h-508q-12 0 -20.5 -8t-8.5 -20 v-566z" />
<glyph unicode="&#xd1;" horiz-adv-x="1792" d="M229 37v1524q0 15 11 25.5t26 10.5h35q35 0 59 -28l1065 -1340q5 -6 12 -3.5t7 10.5v1325q0 15 11 25.5t26 10.5h47q15 0 26 -10.5t11 -25.5v-1524q0 -15 -11 -26t-26 -11h-35q-36 0 -59 29l-1065 1337q-5 6 -12 3.5t-7 -9.5v-1323q0 -15 -11 -26t-26 -11h-47 q-15 0 -26 11t-11 26zM508 1804q4 47 17.5 89.5t38 80t65.5 60t94 22.5t97.5 -24t111.5 -88q31 -31 49 -47t44.5 -30t51.5 -14q48 0 78 41.5t35 106.5q1 17 12.5 27t28.5 10h20q14 0 24 -12t9 -25q-3 -46 -15.5 -88.5t-36 -80.5t-63.5 -60.5t-92 -22.5q-51 0 -90.5 23.5 t-112.5 89.5q-39 35 -55 48t-43.5 27.5t-52.5 14.5q-51 0 -83 -41t-40 -107q-1 -17 -12.5 -27t-28.5 -10h-18q-14 0 -24 12t-9 25z" />
<glyph unicode="&#xd2;" horiz-adv-x="1894" d="M115 799q0 168 66 321.5t177.5 264.5t265.5 177t324 66q169 0 323 -66t265.5 -177t177.5 -264.5t66 -321.5q0 -169 -66 -323t-177.5 -265t-265.5 -176.5t-323 -65.5q-170 0 -324 65.5t-265.5 176.5t-177.5 265t-66 323zM238 799q0 -144 56.5 -275.5t151.5 -226.5 t226.5 -151t275.5 -56q191 0 354.5 95t259 258.5t95.5 355.5q0 143 -56.5 274t-151.5 226t-226.5 151.5t-274.5 56.5q-144 0 -275.5 -56.5t-226.5 -151.5t-151.5 -226t-56.5 -274zM681 2015.5q-4 14.5 3 28.5l23 39q7 13 22 17.5t27 -3.5l442 -268q12 -8 16 -22.5t-3 -28.5 l-10 -17q-7 -13 -23 -17.5t-29 3.5l-450 246q-14 8 -18 22.5z" />
<glyph unicode="&#xd3;" horiz-adv-x="1894" d="M115 799q0 168 66 321.5t177.5 264.5t265.5 177t324 66q169 0 323 -66t265.5 -177t177.5 -264.5t66 -321.5q0 -169 -66 -323t-177.5 -265t-265.5 -176.5t-323 -65.5q-170 0 -324 65.5t-265.5 176.5t-177.5 265t-66 323zM238 799q0 -144 56.5 -275.5t151.5 -226.5 t226.5 -151t275.5 -56q191 0 354.5 95t259 258.5t95.5 355.5q0 143 -56.5 274t-151.5 226t-226.5 151.5t-274.5 56.5q-144 0 -275.5 -56.5t-226.5 -151.5t-151.5 -226t-56.5 -274zM677.5 1807q3.5 12 13.5 18l454 276q9 6 21 2.5t18 -12.5l31 -55q6 -9 2.5 -21t-12.5 -18 l-467 -254q-9 -6 -21 -2.5t-18 12.5l-19 33q-6 9 -2.5 21z" />
<glyph unicode="&#xd4;" horiz-adv-x="1894" d="M115 799q0 168 66 321.5t177.5 264.5t265.5 177t324 66q169 0 323 -66t265.5 -177t177.5 -264.5t66 -321.5q0 -169 -66 -323t-177.5 -265t-265.5 -176.5t-323 -65.5q-170 0 -324 65.5t-265.5 176.5t-177.5 265t-66 323zM238 799q0 -144 56.5 -275.5t151.5 -226.5 t226.5 -151t275.5 -56q191 0 354.5 95t259 258.5t95.5 355.5q0 143 -56.5 274t-151.5 226t-226.5 151.5t-274.5 56.5q-144 0 -275.5 -56.5t-226.5 -151.5t-151.5 -226t-56.5 -274zM608 1837.5q2 15.5 13 24.5l297 219q12 11 28.5 11t28.5 -11l301 -219q11 -9 13 -24.5 t-7 -27.5l-16 -18q-9 -12 -25 -14t-28 6l-244 176q-9 8 -22.5 8t-22.5 -8l-240 -174q-12 -9 -28 -7.5t-25 13.5l-16 18q-9 12 -7 27.5z" />
<glyph unicode="&#xd5;" horiz-adv-x="1894" d="M115 799q0 168 66 321.5t177.5 264.5t265.5 177t324 66q169 0 323 -66t265.5 -177t177.5 -264.5t66 -321.5q0 -169 -66 -323t-177.5 -265t-265.5 -176.5t-323 -65.5q-170 0 -324 65.5t-265.5 176.5t-177.5 265t-66 323zM238 799q0 -144 56.5 -275.5t151.5 -226.5 t226.5 -151t275.5 -56q191 0 354.5 95t259 258.5t95.5 355.5q0 143 -56.5 274t-151.5 226t-226.5 151.5t-274.5 56.5q-144 0 -275.5 -56.5t-226.5 -151.5t-151.5 -226t-56.5 -274zM559 1804q4 47 17.5 89.5t38 80t65.5 60t94 22.5t97.5 -24t111.5 -88q31 -31 49 -47 t44.5 -30t51.5 -14q48 0 78 41.5t35 106.5q1 17 12.5 27t28.5 10h21q13 0 23.5 -11.5t8.5 -25.5q-3 -46 -15.5 -88.5t-36 -80.5t-63.5 -60.5t-92 -22.5q-51 0 -90 23t-112 90q-38 34 -55 48t-44.5 28t-52.5 14q-51 0 -83 -41t-40 -107q-1 -17 -12.5 -27t-28.5 -10h-18 q-14 0 -24 12t-9 25z" />
<glyph unicode="&#xd6;" horiz-adv-x="1894" d="M115 799q0 168 66 321.5t177.5 264.5t265.5 177t324 66q169 0 323 -66t265.5 -177t177.5 -264.5t66 -321.5q0 -169 -66 -323t-177.5 -265t-265.5 -176.5t-323 -65.5q-170 0 -324 65.5t-265.5 176.5t-177.5 265t-66 323zM238 799q0 -144 56.5 -275.5t151.5 -226.5 t226.5 -151t275.5 -56q191 0 354.5 95t259 258.5t95.5 355.5q0 143 -56.5 274t-151.5 226t-226.5 151.5t-274.5 56.5q-144 0 -275.5 -56.5t-226.5 -151.5t-151.5 -226t-56.5 -274zM631 1890q0 38 28 66.5t66 28.5t65 -28t27 -67q0 -38 -27 -65t-65 -27t-66 27t-28 65z M1077 1890q0 38 28 66.5t66 28.5t66.5 -28.5t28.5 -66.5t-28 -65t-67 -27q-38 0 -66 27t-28 65z" />
<glyph unicode="&#xd7;" horiz-adv-x="1218" d="M194 398q0 16 11 26l303 303q8 7 8 20t-8 21l-303 305q-11 11 -11 27t11 26l26 27q11 11 27 11t27 -11l303 -305q8 -8 21 -8t20 8l305 305q10 11 26 11t27 -11l27 -27q10 -10 10 -26t-10 -27l-305 -305q-7 -8 -7 -21t7 -20l305 -303q10 -10 10 -26t-10 -27l-27 -27 q-11 -10 -27 -10t-26 10l-305 303q-7 7 -20 7t-21 -7l-303 -303q-11 -10 -27 -10t-27 10l-26 27q-11 11 -11 27z" />
<glyph unicode="&#xd8;" horiz-adv-x="1894" d="M115 799q0 168 66 321.5t177.5 264.5t265.5 177t324 66q278 0 504 -172q20 -17 43 2l102 113q23 26 62 26h51q11 0 15 -9.5t-3 -16.5l-159 -174q-9 -7 -9 -19.5t9 -21.5q103 -112 160 -256t57 -301q0 -135 -42 -262t-119.5 -229t-180 -178.5t-229 -118.5t-261.5 -42 q-282 0 -508 170q-20 17 -43 -2l-100 -110q-24 -27 -61 -27h-52q-11 0 -15 10t3 17l158 172q9 7 9 19.5t-9 21.5q-102 112 -158.5 256.5t-56.5 302.5zM238 799q0 -271 176 -469q8 -8 20 -8t19 8l921 999q7 8 6 19.5t-10 19.5q-192 139 -422 139q-144 0 -275.5 -56.5 t-226.5 -151.5t-151.5 -226t-56.5 -274zM514 248.5q1 -11.5 10 -19.5q189 -139 424 -139q191 0 354.5 95t259 258.5t95.5 355.5q0 131 -46.5 251.5t-131.5 215.5q-6 8 -17.5 8t-19.5 -8l-922 -998q-7 -8 -6 -19.5z" />
<glyph unicode="&#xd9;" horiz-adv-x="1753" d="M207 604v957q0 15 11 25.5t26 10.5h47q15 0 26 -10.5t11 -25.5v-953q0 -232 144.5 -376t404.5 -144q261 0 404.5 143.5t143.5 376.5v953q0 15 11 25.5t26 10.5h47q15 0 26 -10.5t11 -25.5v-957q0 -135 -44 -250.5t-126.5 -201.5t-210.5 -134.5t-288 -48.5t-288 48.5 t-211 134.5t-127 201.5t-44 250.5zM609 2015.5q-4 14.5 3 28.5l23 39q7 13 22 17.5t27 -3.5l442 -268q12 -8 16 -22.5t-3 -28.5l-11 -17q-7 -13 -22.5 -17.5t-28.5 3.5l-450 246q-14 8 -18 22.5z" />
<glyph unicode="&#xda;" horiz-adv-x="1753" d="M207 604v957q0 15 11 25.5t26 10.5h47q15 0 26 -10.5t11 -25.5v-953q0 -232 144.5 -376t404.5 -144q261 0 404.5 143.5t143.5 376.5v953q0 15 11 25.5t26 10.5h47q15 0 26 -10.5t11 -25.5v-957q0 -135 -44 -250.5t-126.5 -201.5t-210.5 -134.5t-288 -48.5t-288 48.5 t-211 134.5t-127 201.5t-44 250.5zM605.5 1807q3.5 12 13.5 18l454 276q9 6 21 2.5t18 -12.5l31 -55q6 -9 2.5 -21t-12.5 -18l-467 -254q-9 -6 -21 -2.5t-18 12.5l-19 33q-6 9 -2.5 21z" />
<glyph unicode="&#xdb;" horiz-adv-x="1746" d="M203 604v957q0 15 11 25.5t26 10.5h47q15 0 26 -10.5t11 -25.5v-953q0 -233 144 -376.5t404 -143.5q261 0 405 143.5t144 376.5v953q0 15 11 25.5t26 10.5h47q15 0 26 -10.5t11 -25.5v-957q0 -135 -44 -250.5t-127 -201.5t-211 -134.5t-288 -48.5t-288 48.5t-210.5 134.5 t-126.5 201.5t-44 250.5zM532 1837.5q2 15.5 13 24.5l297 219q12 11 28.5 11t28.5 -11l301 -219q11 -9 13 -24.5t-7 -27.5l-16 -18q-9 -12 -25 -14t-28 6l-244 176q-9 8 -22.5 8t-22.5 -8l-240 -174q-12 -9 -28 -7.5t-25 13.5l-16 18q-9 12 -7 27.5z" />
<glyph unicode="&#xdc;" horiz-adv-x="1753" d="M207 604v957q0 15 11 25.5t26 10.5h47q15 0 26 -10.5t11 -25.5v-953q0 -232 144.5 -376t404.5 -144q261 0 404.5 143.5t143.5 376.5v953q0 15 11 25.5t26 10.5h47q15 0 26 -10.5t11 -25.5v-957q0 -135 -44 -250.5t-126.5 -201.5t-210.5 -134.5t-288 -48.5t-288 48.5 t-211 134.5t-127 201.5t-44 250.5zM559 1890q0 38 28 66.5t66 28.5t65 -28t27 -67q0 -38 -27 -65t-65 -27t-66 27t-28 65zM1005 1890q0 38 28.5 66.5t66.5 28.5t66 -28.5t28 -66.5t-28 -65t-66 -27q-39 0 -67 27t-28 65z" />
<glyph unicode="&#xdd;" horiz-adv-x="1624" d="M48.5 1587.5q5.5 9.5 17.5 9.5h71q38 0 58 -30l600 -838q6 -7 16 -7t16 7l603 838q20 30 57 30h72q12 0 17 -9.5t-1 -20.5l-686 -959q-17 -24 -17 -51v-520q0 -15 -10.5 -26t-25.5 -11h-48q-15 0 -25.5 11t-10.5 26v518q0 27 -17 51l-686 961q-6 11 -0.5 20.5z M541.5 1807q3.5 12 13.5 18l454 276q9 6 21 2.5t18 -12.5l31 -55q6 -9 2.5 -21t-12.5 -18l-467 -254q-9 -6 -21 -2.5t-18 12.5l-19 33q-6 9 -2.5 21z" />
<glyph unicode="&#xde;" horiz-adv-x="1521" d="M229 37v1524q0 15 11 25.5t26 10.5h47q15 0 26 -10.5t11 -25.5v-183q0 -12 8.5 -20t20.5 -8h467q181 0 316 -76.5t202.5 -200t67.5 -274.5q0 -110 -40 -208.5t-112.5 -175t-185 -121t-248.5 -44.5h-467q-12 0 -20.5 -8.5t-8.5 -20.5v-184q0 -15 -11 -26t-26 -11h-47 q-15 0 -26 11t-11 26zM350 393q0 -12 8.5 -20t20.5 -8h463q108 0 197.5 36t147.5 96t90 138t32 164q0 89 -31.5 168t-90 138.5t-148 94.5t-197.5 35h-463q-12 0 -20.5 -8.5t-8.5 -20.5v-813z" />
<glyph unicode="&#xdf;" horiz-adv-x="1863" d="M207 37v932q0 104 24 196t77.5 174t133.5 141t199.5 93.5t267.5 34.5q181 0 370 -46.5t333 -109.5q33 -15 33 -51v-27q0 -37 -27 -61l-432 -398q-5 -6 -2 -12t10 -6q241 21 402 -110t161 -338q0 -208 -148 -345t-386 -137q-311 0 -527 244q-9 10 -7.5 26t13.5 23l37 25 q12 9 28.5 6t27.5 -15q177 -196 422 -196q188 0 304.5 105t116.5 264q0 83 -39.5 155.5t-113 123t-177.5 69.5t-233 -6q-37 -6 -59 22l-17 25q-19 29 7 55l485 446q7 6 5 16t-11 13q-304 125 -580 125q-124 0 -223 -28t-165 -76.5t-110 -116t-63.5 -144.5t-19.5 -165v-926 q0 -15 -11 -26t-26 -11h-43q-15 0 -26 11t-11 26z" />
<glyph unicode="&#xe0;" d="M45 33l700 1532q18 32 54 32h57q35 0 53 -32l701 -1532q6 -11 -1 -22t-20 -11h-59q-36 0 -51 33l-138 301q-13 26 -41 26h-946q-28 0 -41 -26l-135 -301q-15 -33 -51 -33h-61q-13 0 -20 11t-1 22zM391 502q-5 -9 1 -18t16 -9h839q10 0 16 9t1 18l-424 938q-4 8 -12 8 t-13 -8zM562 2015.5q-4 14.5 3 28.5l23 39q7 13 22 17.5t27 -3.5l442 -268q12 -8 16 -22.5t-3 -28.5l-10 -17q-7 -13 -23 -17.5t-29 3.5l-450 246q-14 8 -18 22.5z" />
<glyph unicode="&#xe1;" d="M45 33l700 1532q18 32 54 32h57q35 0 53 -32l701 -1532q6 -11 -1 -22t-20 -11h-59q-36 0 -51 33l-138 301q-13 26 -41 26h-946q-28 0 -41 -26l-135 -301q-15 -33 -51 -33h-61q-13 0 -20 11t-1 22zM391 502q-5 -9 1 -18t16 -9h839q10 0 16 9t1 18l-424 938q-4 8 -12 8 t-13 -8zM558.5 1807q3.5 12 13.5 18l454 276q9 6 21 2.5t18 -12.5l31 -55q6 -9 2.5 -21t-12.5 -18l-467 -254q-9 -6 -21 -2.5t-18 12.5l-19 33q-6 9 -2.5 21z" />
<glyph unicode="&#xe2;" d="M45 33l700 1532q18 32 54 32h57q35 0 53 -32l701 -1532q6 -11 -1 -22t-20 -11h-59q-36 0 -51 33l-138 301q-13 26 -41 26h-946q-28 0 -41 -26l-135 -301q-15 -33 -51 -33h-61q-13 0 -20 11t-1 22zM391 502q-5 -9 1 -18t16 -9h839q10 0 16 9t1 18l-424 938q-4 8 -12 8 t-13 -8zM487 1837.5q2 15.5 13 24.5l297 219q12 11 28.5 11t28.5 -11l301 -219q11 -9 13 -24.5t-7 -27.5l-16 -18q-9 -12 -25 -14t-28 6l-244 176q-9 8 -22.5 8t-22.5 -8l-240 -174q-12 -9 -28 -7.5t-25 13.5l-16 18q-9 12 -7 27.5z" />
<glyph unicode="&#xe3;" d="M45 33l700 1532q18 32 54 32h57q35 0 53 -32l701 -1532q6 -11 -1 -22t-20 -11h-59q-36 0 -51 33l-138 301q-13 26 -41 26h-946q-28 0 -41 -26l-135 -301q-15 -33 -51 -33h-61q-13 0 -20 11t-1 22zM391 502q-5 -9 1 -18t16 -9h839q10 0 16 9t1 18l-424 938q-4 8 -12 8 t-13 -8zM438 1804q4 47 17.5 89.5t38 80t65.5 60t94 22.5t97.5 -24t111.5 -88q31 -31 49.5 -47t45 -30t51.5 -14q48 0 77.5 41.5t34.5 106.5q1 17 12.5 27t28.5 10h21q13 0 23.5 -11.5t8.5 -25.5q-3 -46 -15.5 -88t-35.5 -80.5t-63 -61t-92 -22.5q-51 0 -90.5 23.5 t-112.5 89.5q-38 34 -55 48t-44.5 28t-52.5 14q-51 0 -83 -41t-40 -107q-1 -17 -12.5 -27t-28.5 -10h-18q-14 0 -24 12t-9 25z" />
<glyph unicode="&#xe4;" d="M45 33l700 1532q18 32 54 32h57q35 0 53 -32l701 -1532q6 -11 -1 -22t-20 -11h-59q-36 0 -51 33l-138 301q-13 26 -41 26h-946q-28 0 -41 -26l-135 -301q-15 -33 -51 -33h-61q-13 0 -20 11t-1 22zM391 502q-5 -9 1 -18t16 -9h839q10 0 16 9t1 18l-424 938q-4 8 -12 8 t-13 -8zM510 1890q0 38 28 66.5t66 28.5t65 -28t27 -67q0 -38 -27 -65t-65 -27t-66 27t-28 65zM956 1890q0 38 28.5 66.5t66.5 28.5t66 -28.5t28 -66.5t-28 -65t-66 -27q-39 0 -67 27t-28 65z" />
<glyph unicode="&#xe5;" d="M45 33l700 1532q18 32 54 32h57q35 0 53 -32l701 -1532q6 -11 -1 -22t-20 -11h-59q-36 0 -51 33l-138 301q-13 26 -41 26h-946q-28 0 -41 -26l-135 -301q-15 -33 -51 -33h-61q-13 0 -20 11t-1 22zM391 502q-5 -9 1 -18t16 -9h839q10 0 16 9t1 18l-424 938q-4 8 -12 8 t-13 -8zM594 1958q0 97 68.5 165t167.5 68q97 0 165 -67.5t68 -165.5q0 -99 -68 -167.5t-165 -68.5q-100 0 -168 68t-68 168zM682 1958q0 -62 43 -105t105 -43q59 0 102 43.5t43 104.5q0 58 -43.5 101.5t-101.5 43.5q-61 0 -104.5 -43t-43.5 -102z" />
<glyph unicode="&#xe6;" horiz-adv-x="2555" d="M38 10q-5 10 1 19l1249 1540q22 28 60 28h1044q15 0 26 -10.5t11 -25.5v-45q0 -15 -11 -26t-26 -11h-911q-12 0 -20.5 -8.5t-8.5 -20.5v-580q0 -12 8.5 -20t20.5 -8h766q15 0 26 -11t11 -26v-41q0 -15 -11 -26t-26 -11h-766q-12 0 -20.5 -8.5t-8.5 -20.5v-551 q0 -12 8.5 -20t20.5 -8h911q15 0 26 -11t11 -26v-45q0 -15 -11 -26t-26 -11h-1024q-15 0 -26 11t-11 26v295q0 12 -8 20t-20 8h-809q-29 0 -48 -22l-249 -309q-23 -29 -60 -29h-84q-10 0 -15 10zM573 482.5q4 -7.5 13 -7.5h717q12 0 20 8.5t8 20.5v899q0 7 -6.5 9.5 t-11.5 -3.5l-738 -911q-6 -8 -2 -15.5z" />
<glyph unicode="&#xe7;" horiz-adv-x="1759" d="M115 799q0 168 66 321.5t177.5 264.5t265.5 177t324 66q213 0 396.5 -101.5t295.5 -273.5q8 -10 4.5 -25.5t-16.5 -21.5l-41 -22q-13 -8 -28.5 -4.5t-24.5 16.5q-99 144 -252.5 227.5t-333.5 83.5q-144 0 -275.5 -56.5t-226.5 -151.5t-151.5 -226t-56.5 -274 q0 -144 56.5 -275.5t151.5 -226.5t226.5 -151t275.5 -56q180 0 334.5 84t251.5 229q9 12 24 16t29 -3l45 -25q12 -6 15.5 -20.5t-5.5 -26.5q-109 -166 -284.5 -267t-382.5 -108q-28 0 -37 -28l-23 -64q-4 -10 2 -19.5t17 -11.5q114 -13 172.5 -73t58.5 -135 q0 -84 -66.5 -146.5t-178.5 -62.5q-104 0 -224 51q-12 4 -17 19.5t1 27.5l8 16q6 15 21 20t28 -1q98 -41 178 -41t123 37.5t43 89.5q0 55 -49.5 94.5t-152.5 36.5q-27 -3 -45 18l-3 2q-18 22 -8 45l37 103q4 9 -1.5 18.5t-16.5 11.5q-203 25 -369 139.5t-262 294.5t-96 388z " />
<glyph unicode="&#xe8;" horiz-adv-x="1454" d="M229 37v1524q0 15 11 25.5t26 10.5h1024q15 0 26 -10.5t11 -25.5v-45q0 -15 -11 -26t-26 -11h-911q-12 0 -20.5 -8.5t-8.5 -20.5v-580q0 -12 8.5 -20t20.5 -8h766q15 0 26 -11t11 -26v-41q0 -15 -11 -26t-26 -11h-766q-12 0 -20.5 -8.5t-8.5 -20.5v-551q0 -12 8.5 -20 t20.5 -8h911q15 0 26 -11t11 -26v-45q0 -15 -11 -26t-26 -11h-1024q-15 0 -26 11t-11 26zM510.5 2015.5q-4.5 15.5 3.5 28.5l23 39q7 13 22 17.5t27 -3.5l442 -268q12 -8 15.5 -22.5t-3.5 -28.5l-10 -17q-7 -13 -22.5 -17.5t-28.5 3.5l-451 246q-13 7 -17.5 22.5z" />
<glyph unicode="&#xe9;" horiz-adv-x="1454" d="M229 37v1524q0 15 11 25.5t26 10.5h1024q15 0 26 -10.5t11 -25.5v-45q0 -15 -11 -26t-26 -11h-911q-12 0 -20.5 -8.5t-8.5 -20.5v-580q0 -12 8.5 -20t20.5 -8h766q15 0 26 -11t11 -26v-41q0 -15 -11 -26t-26 -11h-766q-12 0 -20.5 -8.5t-8.5 -20.5v-551q0 -12 8.5 -20 t20.5 -8h911q15 0 26 -11t11 -26v-45q0 -15 -11 -26t-26 -11h-1024q-15 0 -26 11t-11 26zM507.5 1807q3.5 12 13.5 18l454 276q9 6 21 2.5t18 -12.5l31 -55q6 -9 2.5 -21t-12.5 -18l-467 -254q-9 -6 -21 -2.5t-18 12.5l-19 33q-6 9 -2.5 21z" />
<glyph unicode="&#xea;" horiz-adv-x="1454" d="M229 37v1524q0 15 11 25.5t26 10.5h1024q15 0 26 -10.5t11 -25.5v-45q0 -15 -11 -26t-26 -11h-911q-12 0 -20.5 -8.5t-8.5 -20.5v-580q0 -12 8.5 -20t20.5 -8h766q15 0 26 -11t11 -26v-41q0 -15 -11 -26t-26 -11h-766q-12 0 -20.5 -8.5t-8.5 -20.5v-551q0 -12 8.5 -20 t20.5 -8h911q15 0 26 -11t11 -26v-45q0 -15 -11 -26t-26 -11h-1024q-15 0 -26 11t-11 26zM438 1837.5q2 15.5 13 24.5l297 219q12 11 28.5 11t28.5 -11l301 -219q11 -9 13 -24.5t-7 -27.5l-16 -18q-9 -12 -25 -14t-28 6l-244 176q-9 8 -22.5 8t-22.5 -8l-240 -174 q-12 -9 -28 -7.5t-25 13.5l-16 18q-9 12 -7 27.5z" />
<glyph unicode="&#xeb;" horiz-adv-x="1454" d="M229 37v1524q0 15 11 25.5t26 10.5h1024q15 0 26 -10.5t11 -25.5v-45q0 -15 -11 -26t-26 -11h-911q-12 0 -20.5 -8.5t-8.5 -20.5v-580q0 -12 8.5 -20t20.5 -8h766q15 0 26 -11t11 -26v-41q0 -15 -11 -26t-26 -11h-766q-12 0 -20.5 -8.5t-8.5 -20.5v-551q0 -12 8.5 -20 t20.5 -8h911q15 0 26 -11t11 -26v-45q0 -15 -11 -26t-26 -11h-1024q-15 0 -26 11t-11 26zM461 1890q0 38 28 66.5t66 28.5t65 -28t27 -67q0 -38 -27 -65t-65 -27t-66 27t-28 65zM907 1890q0 38 28 66.5t66 28.5t66.5 -28.5t28.5 -66.5t-28 -65t-67 -27q-38 0 -66 27t-28 65z " />
<glyph unicode="&#xec;" horiz-adv-x="577" d="M23 2015.5q-4 14.5 3 28.5l23 39q7 13 22 17.5t27 -3.5l442 -268q12 -8 16 -22.5t-3 -28.5l-10 -17q-7 -13 -23 -17.5t-29 3.5l-450 246q-14 8 -18 22.5zM229 37v1524q0 15 11 25.5t26 10.5h47q15 0 26 -10.5t11 -25.5v-1524q0 -15 -11 -26t-26 -11h-47q-15 0 -26 11 t-11 26z" />
<glyph unicode="&#xed;" horiz-adv-x="577" d="M19.5 1807q3.5 12 13.5 18l454 276q9 6 21 2.5t18 -12.5l31 -55q6 -9 2.5 -21t-12.5 -18l-467 -254q-9 -6 -21 -2.5t-18 12.5l-19 33q-6 9 -2.5 21zM229 37v1524q0 15 11 25.5t26 10.5h47q15 0 26 -10.5t11 -25.5v-1524q0 -15 -11 -26t-26 -11h-47q-15 0 -26 11t-11 26z " />
<glyph unicode="&#xee;" horiz-adv-x="577" d="M-50 1837.5q2 15.5 13 24.5l297 219q12 11 28.5 11t28.5 -11l301 -219q11 -9 13 -24.5t-7 -27.5l-16 -18q-9 -12 -25 -14t-28 6l-244 176q-9 8 -22.5 8t-22.5 -8l-240 -174q-12 -9 -28 -7.5t-25 13.5l-16 18q-9 12 -7 27.5zM229 37v1524q0 15 11 25.5t26 10.5h47 q15 0 26 -10.5t11 -25.5v-1524q0 -15 -11 -26t-26 -11h-47q-15 0 -26 11t-11 26z" />
<glyph unicode="&#xef;" horiz-adv-x="577" d="M-29 1890q0 38 28.5 66.5t66.5 28.5t65 -28t27 -67q0 -38 -27 -65t-65 -27q-39 0 -67 27t-28 65zM229 37v1524q0 15 11 25.5t26 10.5h47q15 0 26 -10.5t11 -25.5v-1524q0 -15 -11 -26t-26 -11h-47q-15 0 -26 11t-11 26zM418 1890q0 38 28 66.5t66 28.5t66 -28.5t28 -66.5 t-28 -65t-66 -27t-66 27t-28 65z" />
<glyph unicode="&#xf0;" horiz-adv-x="1724" d="M51 778v35q0 15 11 26t26 11h115q12 0 20 8.5t8 20.5v682q0 15 11 25.5t26 10.5h588q177 0 319.5 -62t234.5 -170t140.5 -252.5t48.5 -313.5q0 -170 -48.5 -314.5t-140.5 -253t-234 -170t-320 -61.5h-588q-15 0 -26 11t-11 26v676q0 12 -8 20t-20 8h-115q-15 0 -26 11 t-11 26zM352 147q0 -12 8.5 -20t20.5 -8h469q196 0 340.5 90t216.5 242.5t72 347.5t-72 347.5t-216.5 242.5t-340.5 90h-469q-12 0 -20.5 -8.5t-8.5 -20.5v-571q0 -12 8.5 -20.5t20.5 -8.5h508q15 0 26 -11t11 -26v-35q0 -15 -11 -26t-26 -11h-508q-12 0 -20.5 -8t-8.5 -20 v-566z" />
<glyph unicode="&#xf1;" horiz-adv-x="1796" d="M229 37v1524q0 15 11 25.5t26 10.5h35q37 0 59 -28l1065 -1338q5 -6 12 -3.5t7 10.5v1323q0 15 11 25.5t26 10.5h49q15 0 26 -10.5t11 -25.5v-1524q0 -15 -11 -26t-26 -11h-37q-34 0 -59 29l-1065 1339q-5 6 -12 3.5t-7 -9.5v-1325q0 -15 -11 -26t-26 -11h-47 q-15 0 -26 11t-11 26zM510 1804q4 47 17.5 89.5t38 80t65.5 60t94 22.5t97.5 -24t111.5 -88q31 -31 49 -47t44.5 -30t51.5 -14q48 0 78 41.5t35 106.5q1 17 12.5 27t28.5 10h20q14 0 24 -12t9 -25q-3 -46 -15.5 -88.5t-36 -80.5t-63.5 -60.5t-92 -22.5q-51 0 -90 23t-112 90 q-38 34 -55 48t-44.5 28t-52.5 14q-51 0 -83 -41t-40 -107q-1 -17 -12.5 -27t-28.5 -10h-18q-14 0 -24 12t-9 25z" />
<glyph unicode="&#xf2;" horiz-adv-x="1894" d="M115 799q0 168 66 321.5t177.5 264.5t265.5 177t324 66q169 0 323 -66t265.5 -177t177.5 -264.5t66 -321.5q0 -169 -66 -323t-177.5 -265t-265.5 -176.5t-323 -65.5q-170 0 -324 65.5t-265.5 176.5t-177.5 265t-66 323zM238 799q0 -144 56.5 -275.5t151.5 -226.5 t226.5 -151t275.5 -56q191 0 354.5 95t259 258.5t95.5 355.5q0 143 -56.5 274t-151.5 226t-226.5 151.5t-274.5 56.5q-144 0 -275.5 -56.5t-226.5 -151.5t-151.5 -226t-56.5 -274zM681 2015.5q-4 14.5 3 28.5l23 39q7 13 22 17.5t27 -3.5l442 -268q12 -8 16 -22.5t-3 -28.5 l-10 -17q-7 -13 -23 -17.5t-29 3.5l-450 246q-14 8 -18 22.5z" />
<glyph unicode="&#xf3;" horiz-adv-x="1894" d="M115 799q0 168 66 321.5t177.5 264.5t265.5 177t324 66q169 0 323 -66t265.5 -177t177.5 -264.5t66 -321.5q0 -169 -66 -323t-177.5 -265t-265.5 -176.5t-323 -65.5q-170 0 -324 65.5t-265.5 176.5t-177.5 265t-66 323zM238 799q0 -144 56.5 -275.5t151.5 -226.5 t226.5 -151t275.5 -56q191 0 354.5 95t259 258.5t95.5 355.5q0 143 -56.5 274t-151.5 226t-226.5 151.5t-274.5 56.5q-144 0 -275.5 -56.5t-226.5 -151.5t-151.5 -226t-56.5 -274zM677.5 1807q3.5 12 13.5 18l454 276q9 6 21 2.5t18 -12.5l31 -55q6 -9 2.5 -21t-12.5 -18 l-467 -254q-9 -6 -21 -2.5t-18 12.5l-19 33q-6 9 -2.5 21z" />
<glyph unicode="&#xf4;" horiz-adv-x="1894" d="M115 799q0 168 66 321.5t177.5 264.5t265.5 177t324 66q169 0 323 -66t265.5 -177t177.5 -264.5t66 -321.5q0 -169 -66 -323t-177.5 -265t-265.5 -176.5t-323 -65.5q-170 0 -324 65.5t-265.5 176.5t-177.5 265t-66 323zM238 799q0 -144 56.5 -275.5t151.5 -226.5 t226.5 -151t275.5 -56q191 0 354.5 95t259 258.5t95.5 355.5q0 143 -56.5 274t-151.5 226t-226.5 151.5t-274.5 56.5q-144 0 -275.5 -56.5t-226.5 -151.5t-151.5 -226t-56.5 -274zM608 1837.5q2 15.5 13 24.5l297 219q12 11 28.5 11t28.5 -11l301 -219q11 -9 13 -24.5 t-7 -27.5l-16 -18q-9 -12 -25 -14t-28 6l-244 176q-9 8 -22.5 8t-22.5 -8l-240 -174q-12 -9 -28 -7.5t-25 13.5l-16 18q-9 12 -7 27.5z" />
<glyph unicode="&#xf5;" horiz-adv-x="1894" d="M115 799q0 168 66 321.5t177.5 264.5t265.5 177t324 66q169 0 323 -66t265.5 -177t177.5 -264.5t66 -321.5q0 -169 -66 -323t-177.5 -265t-265.5 -176.5t-323 -65.5q-170 0 -324 65.5t-265.5 176.5t-177.5 265t-66 323zM238 799q0 -144 56.5 -275.5t151.5 -226.5 t226.5 -151t275.5 -56q191 0 354.5 95t259 258.5t95.5 355.5q0 143 -56.5 274t-151.5 226t-226.5 151.5t-274.5 56.5q-144 0 -275.5 -56.5t-226.5 -151.5t-151.5 -226t-56.5 -274zM559 1804q4 47 17.5 89.5t38 80t65.5 60t94 22.5t97.5 -24t111.5 -88q31 -31 49 -47 t44.5 -30t51.5 -14q48 0 78 41.5t35 106.5q1 17 12.5 27t28.5 10h21q13 0 23.5 -11.5t8.5 -25.5q-3 -46 -15.5 -88.5t-36 -80.5t-63.5 -60.5t-92 -22.5q-51 0 -90 23t-112 90q-38 34 -55 48t-44.5 28t-52.5 14q-51 0 -83 -41t-40 -107q-1 -17 -12.5 -27t-28.5 -10h-18 q-14 0 -24 12t-9 25z" />
<glyph unicode="&#xf6;" horiz-adv-x="1894" d="M115 799q0 168 66 321.5t177.5 264.5t265.5 177t324 66q169 0 323 -66t265.5 -177t177.5 -264.5t66 -321.5q0 -169 -66 -323t-177.5 -265t-265.5 -176.5t-323 -65.5q-170 0 -324 65.5t-265.5 176.5t-177.5 265t-66 323zM238 799q0 -144 56.5 -275.5t151.5 -226.5 t226.5 -151t275.5 -56q191 0 354.5 95t259 258.5t95.5 355.5q0 143 -56.5 274t-151.5 226t-226.5 151.5t-274.5 56.5q-144 0 -275.5 -56.5t-226.5 -151.5t-151.5 -226t-56.5 -274zM631 1890q0 38 28 66.5t66 28.5t65 -28t27 -67q0 -38 -27 -65t-65 -27t-66 27t-28 65z M1077 1890q0 38 28 66.5t66 28.5t66.5 -28.5t28.5 -66.5t-28 -65t-67 -27q-38 0 -66 27t-28 65z" />
<glyph unicode="&#xf7;" horiz-adv-x="1245" d="M176 727v41q0 15 11 26t26 11h819q15 0 26 -11t11 -26v-41q0 -15 -11 -26t-26 -11h-819q-15 0 -26 11t-11 26zM516 348q0 43 32 74t75 31t73.5 -31t30.5 -74q0 -44 -30.5 -74t-73.5 -30t-75 30t-32 74zM516 1145q0 42 32 73t75 31t73.5 -30.5t30.5 -73.5 q0 -44 -30.5 -74.5t-73.5 -30.5t-75 30.5t-32 74.5z" />
<glyph unicode="&#xf8;" horiz-adv-x="1894" d="M115 799q0 168 66 321.5t177.5 264.5t265.5 177t324 66q278 0 504 -172q20 -17 43 2l102 113q23 26 62 26h51q11 0 15 -9.5t-3 -16.5l-159 -174q-9 -7 -9 -19.5t9 -21.5q103 -112 160 -256t57 -301q0 -135 -42 -262t-119.5 -229t-180 -178.5t-229 -118.5t-261.5 -42 q-282 0 -508 170q-20 17 -43 -2l-100 -110q-24 -27 -61 -27h-52q-11 0 -15 10t3 17l158 172q9 7 9 19.5t-9 21.5q-102 112 -158.5 256.5t-56.5 302.5zM238 799q0 -271 176 -469q8 -8 20 -8t19 8l921 999q7 8 6 19.5t-10 19.5q-192 139 -422 139q-144 0 -275.5 -56.5 t-226.5 -151.5t-151.5 -226t-56.5 -274zM514 248.5q1 -11.5 10 -19.5q189 -139 424 -139q191 0 354.5 95t259 258.5t95.5 355.5q0 131 -46.5 251.5t-131.5 215.5q-6 8 -17.5 8t-19.5 -8l-922 -998q-7 -8 -6 -19.5z" />
<glyph unicode="&#xf9;" horiz-adv-x="1753" d="M207 604v957q0 15 11 25.5t26 10.5h47q15 0 26 -10.5t11 -25.5v-953q0 -232 144.5 -376t404.5 -144q261 0 404.5 143.5t143.5 376.5v953q0 15 11 25.5t26 10.5h47q15 0 26 -10.5t11 -25.5v-957q0 -135 -44 -250.5t-126.5 -201.5t-210.5 -134.5t-288 -48.5t-288 48.5 t-211 134.5t-127 201.5t-44 250.5zM609 2015.5q-4 14.5 3 28.5l23 39q7 13 22 17.5t27 -3.5l442 -268q12 -8 16 -22.5t-3 -28.5l-11 -17q-7 -13 -22.5 -17.5t-28.5 3.5l-450 246q-14 8 -18 22.5z" />
<glyph unicode="&#xfa;" horiz-adv-x="1753" d="M207 604v957q0 15 11 25.5t26 10.5h47q15 0 26 -10.5t11 -25.5v-953q0 -232 144.5 -376t404.5 -144q261 0 404.5 143.5t143.5 376.5v953q0 15 11 25.5t26 10.5h47q15 0 26 -10.5t11 -25.5v-957q0 -135 -44 -250.5t-126.5 -201.5t-210.5 -134.5t-288 -48.5t-288 48.5 t-211 134.5t-127 201.5t-44 250.5zM605.5 1807q3.5 12 13.5 18l454 276q9 6 21 2.5t18 -12.5l31 -55q6 -9 2.5 -21t-12.5 -18l-467 -254q-9 -6 -21 -2.5t-18 12.5l-19 33q-6 9 -2.5 21z" />
<glyph unicode="&#xfb;" horiz-adv-x="1746" d="M203 604v957q0 15 11 25.5t26 10.5h47q15 0 26 -10.5t11 -25.5v-953q0 -233 144 -376.5t404 -143.5q261 0 405 143.5t144 376.5v953q0 15 11 25.5t26 10.5h47q15 0 26 -10.5t11 -25.5v-957q0 -135 -44 -250.5t-127 -201.5t-211 -134.5t-288 -48.5t-288 48.5t-210.5 134.5 t-126.5 201.5t-44 250.5zM532 1837.5q2 15.5 13 24.5l297 219q12 11 28.5 11t28.5 -11l301 -219q11 -9 13 -24.5t-7 -27.5l-16 -18q-9 -12 -25 -14t-28 6l-244 176q-9 8 -22.5 8t-22.5 -8l-240 -174q-12 -9 -28 -7.5t-25 13.5l-16 18q-9 12 -7 27.5z" />
<glyph unicode="&#xfc;" horiz-adv-x="1753" d="M207 604v957q0 15 11 25.5t26 10.5h47q15 0 26 -10.5t11 -25.5v-953q0 -232 144.5 -376t404.5 -144q261 0 404.5 143.5t143.5 376.5v953q0 15 11 25.5t26 10.5h47q15 0 26 -10.5t11 -25.5v-957q0 -135 -44 -250.5t-126.5 -201.5t-210.5 -134.5t-288 -48.5t-288 48.5 t-211 134.5t-127 201.5t-44 250.5zM559 1890q0 38 28 66.5t66 28.5t65 -28t27 -67q0 -38 -27 -65t-65 -27t-66 27t-28 65zM1005 1890q0 38 28.5 66.5t66.5 28.5t66 -28.5t28 -66.5t-28 -65t-66 -27q-39 0 -67 27t-28 65z" />
<glyph unicode="&#xfd;" horiz-adv-x="1624" d="M48.5 1587.5q5.5 9.5 17.5 9.5h71q38 0 58 -30l600 -838q6 -7 16 -7t16 7l603 838q20 30 57 30h72q12 0 17 -9.5t-1 -20.5l-686 -959q-17 -24 -17 -51v-520q0 -15 -10.5 -26t-25.5 -11h-48q-15 0 -25.5 11t-10.5 26v518q0 27 -17 51l-686 961q-6 11 -0.5 20.5z M541.5 1807q3.5 12 13.5 18l454 276q9 6 21 2.5t18 -12.5l31 -55q6 -9 2.5 -21t-12.5 -18l-467 -254q-9 -6 -21 -2.5t-18 12.5l-19 33q-6 9 -2.5 21z" />
<glyph unicode="&#xfe;" horiz-adv-x="1521" d="M229 37v1524q0 15 11 25.5t26 10.5h47q15 0 26 -10.5t11 -25.5v-183q0 -12 8.5 -20t20.5 -8h467q181 0 316 -76.5t202.5 -200t67.5 -274.5q0 -110 -40 -208.5t-112.5 -175t-185 -121t-248.5 -44.5h-467q-12 0 -20.5 -8.5t-8.5 -20.5v-184q0 -15 -11 -26t-26 -11h-47 q-15 0 -26 11t-11 26zM350 393q0 -12 8.5 -20t20.5 -8h463q108 0 197.5 36t147.5 96t90 138t32 164q0 89 -31.5 168t-90 138.5t-148 94.5t-197.5 35h-463q-12 0 -20.5 -8.5t-8.5 -20.5v-813z" />
<glyph unicode="&#xff;" horiz-adv-x="1624" d="M48.5 1587.5q5.5 9.5 17.5 9.5h71q38 0 58 -30l600 -838q6 -7 16 -7t16 7l603 838q20 30 57 30h72q12 0 17 -9.5t-1 -20.5l-686 -959q-17 -24 -17 -51v-520q0 -15 -10.5 -26t-25.5 -11h-48q-15 0 -25.5 11t-10.5 26v518q0 27 -17 51l-686 961q-6 11 -0.5 20.5zM494 1890 q0 38 28 66.5t66 28.5t65 -28t27 -67q0 -38 -27 -65t-65 -27t-66 27t-28 65zM940 1890q0 38 28 66.5t66 28.5t66 -28.5t28 -66.5t-28 -65t-66 -27t-66 27t-28 65z" />
<glyph unicode="&#x152;" horiz-adv-x="2400" d="M119 799q0 165 60.5 310t171 254t278.5 171.5t372 62.5h1233q15 0 26 -10.5t11 -25.5v-45q0 -15 -11 -26t-26 -11h-911q-12 0 -20.5 -8.5t-8.5 -20.5v-580q0 -12 8.5 -20t20.5 -8h766q15 0 26 -11t11 -26v-41q0 -15 -11 -26t-26 -11h-766q-12 0 -20.5 -8.5t-8.5 -20.5 v-551q0 -12 8.5 -20t20.5 -8h911q15 0 26 -11t11 -26v-45q0 -15 -11 -26t-26 -11h-1233q-204 0 -372 62.5t-278.5 171t-171 254t-60.5 311.5zM242 799q0 -113 32.5 -215.5t96.5 -187t154.5 -146.5t212.5 -96.5t263 -34.5h144q12 0 20.5 8t8.5 20v1303q0 12 -8.5 20.5 t-20.5 8.5h-144q-141 0 -263 -34.5t-212.5 -96.5t-154.5 -146.5t-96.5 -187t-32.5 -215.5z" />
<glyph unicode="&#x153;" horiz-adv-x="2398" d="M119 799q0 165 60.5 310t171 254t278.5 171.5t372 62.5h1233q15 0 26 -10.5t11 -25.5v-45q0 -15 -11 -26t-26 -11h-911q-12 0 -20.5 -8.5t-8.5 -20.5v-580q0 -12 8.5 -20t20.5 -8h766q15 0 26 -11t11 -26v-41q0 -15 -11 -26t-26 -11h-766q-12 0 -20.5 -8.5t-8.5 -20.5 v-551q0 -12 8.5 -20t20.5 -8h911q15 0 26 -11t11 -26v-45q0 -15 -11 -26t-26 -11h-1233q-204 0 -372 62.5t-278.5 171t-171 254t-60.5 311.5zM242 799q0 -113 32.5 -215.5t96.5 -187t154.5 -146.5t212.5 -96.5t263 -34.5h144q12 0 20.5 8t8.5 20v1303q0 12 -8.5 20.5 t-20.5 8.5h-144q-141 0 -263 -34.5t-212.5 -96.5t-154.5 -146.5t-96.5 -187t-32.5 -215.5z" />
<glyph unicode="&#x178;" horiz-adv-x="1624" d="M48.5 1587.5q5.5 9.5 17.5 9.5h71q38 0 58 -30l600 -838q6 -7 16 -7t16 7l603 838q20 30 57 30h72q12 0 17 -9.5t-1 -20.5l-686 -959q-17 -24 -17 -51v-520q0 -15 -10.5 -26t-25.5 -11h-48q-15 0 -25.5 11t-10.5 26v518q0 27 -17 51l-686 961q-6 11 -0.5 20.5zM494 1890 q0 38 28 66.5t66 28.5t65 -28t27 -67q0 -38 -27 -65t-65 -27t-66 27t-28 65zM940 1890q0 38 28.5 66.5t66.5 28.5t66 -28.5t28 -66.5t-28 -65t-66 -27q-39 0 -67 27t-28 65z" />
<glyph unicode="&#x2c6;" horiz-adv-x="727" d="M24 1837.5q2 15.5 13 24.5l297 219q12 11 28.5 11t28.5 -11l301 -219q11 -9 13 -24.5t-7 -27.5l-16 -18q-9 -12 -25 -14t-28 6l-244 176q-9 8 -22.5 8t-22.5 -8l-240 -174q-12 -9 -28 -7.5t-25 13.5l-16 18q-9 12 -7 27.5z" />
<glyph unicode="&#x2dc;" horiz-adv-x="808" d="M16 1804q4 47 17.5 89.5t38 80t65.5 60t94 22.5t97.5 -24t111.5 -88q31 -31 49.5 -47t45 -30t51.5 -14q48 0 77.5 41.5t34.5 106.5q1 17 12.5 27t28.5 10h21q14 0 24 -12t9 -25q-3 -46 -15.5 -88.5t-36 -80.5t-63.5 -60.5t-92 -22.5q-51 0 -90.5 23.5t-112.5 89.5 q-38 34 -55 48t-44.5 28t-52.5 14q-51 0 -82.5 -41t-39.5 -107q-1 -17 -12.5 -27t-28.5 -10h-19q-14 0 -24 12t-9 25z" />
<glyph unicode="&#x2000;" horiz-adv-x="1095" />
<glyph unicode="&#x2001;" horiz-adv-x="2191" />
<glyph unicode="&#x2002;" horiz-adv-x="1095" />
<glyph unicode="&#x2003;" horiz-adv-x="2191" />
<glyph unicode="&#x2004;" horiz-adv-x="730" />
<glyph unicode="&#x2005;" horiz-adv-x="547" />
<glyph unicode="&#x2006;" horiz-adv-x="365" />
<glyph unicode="&#x2007;" horiz-adv-x="365" />
<glyph unicode="&#x2008;" horiz-adv-x="273" />
<glyph unicode="&#x2009;" horiz-adv-x="438" />
<glyph unicode="&#x200a;" horiz-adv-x="121" />
<glyph unicode="&#x2010;" horiz-adv-x="907" d="M176 645v41q0 15 11 26t26 11h483q15 0 26 -11t11 -26v-41q0 -15 -11 -26t-26 -11h-483q-15 0 -26 11t-11 26z" />
<glyph unicode="&#x2011;" horiz-adv-x="907" d="M176 645v41q0 15 11 26t26 11h483q15 0 26 -11t11 -26v-41q0 -15 -11 -26t-26 -11h-483q-15 0 -26 11t-11 26z" />
<glyph unicode="&#x2012;" horiz-adv-x="907" d="M176 645v41q0 15 11 26t26 11h483q15 0 26 -11t11 -26v-41q0 -15 -11 -26t-26 -11h-483q-15 0 -26 11t-11 26z" />
<glyph unicode="&#x2013;" horiz-adv-x="1288" d="M176 645v41q0 15 11 26t26 11h862q15 0 26 -11t11 -26v-41q0 -15 -11 -26t-26 -11h-862q-15 0 -26 11t-11 26z" />
<glyph unicode="&#x2014;" horiz-adv-x="1617" d="M178 645v41q0 15 11 26t26 11h1188q15 0 26 -11t11 -26v-41q0 -15 -11 -26t-26 -11h-1188q-15 0 -26 11t-11 26z" />
<glyph unicode="&#x2018;" horiz-adv-x="563" d="M143 1253q0 98 66 195t158 178q11 10 25.5 9.5t25.5 -11.5l2 -4q10 -11 9.5 -25.5t-11.5 -25.5q-113 -113 -146 -203q-10 -25 19 -35q28 -6 48.5 -33t20.5 -61q0 -43 -31.5 -73.5t-74.5 -30.5q-45 0 -78 32.5t-33 87.5z" />
<glyph unicode="&#x2019;" horiz-adv-x="569" d="M160.5 1166.5q0.5 14.5 11.5 25.5q111 111 145 203q10 26 -18 35q-29 6 -49.5 33t-20.5 61q0 42 32 73t75 31q45 0 77.5 -33t32.5 -88q0 -52 -20.5 -106.5t-55 -103t-70.5 -87.5t-77 -75q-11 -10 -25.5 -9.5t-25.5 11.5l-2 4q-10 11 -9.5 25.5z" />
<glyph unicode="&#x201a;" horiz-adv-x="499" d="M70.5 -277.5q0.5 14.5 11.5 25.5q111 111 145 203q10 26 -18 35q-29 6 -49.5 33t-20.5 61q0 42 32 73t75 31q45 0 77.5 -33t32.5 -88q0 -52 -20.5 -106.5t-55 -103t-70.5 -87.5t-77 -75q-11 -10 -25.5 -9.5t-25.5 11.5l-2 4q-10 11 -9.5 25.5z" />
<glyph unicode="&#x201c;" horiz-adv-x="933" d="M143 1253q0 98 66 195t158 178q11 10 25.5 9.5t25.5 -11.5l2 -4q10 -11 9.5 -25.5t-11.5 -25.5q-113 -113 -146 -203q-10 -25 19 -35q28 -6 48.5 -33t20.5 -61q0 -43 -31.5 -73.5t-74.5 -30.5q-45 0 -78 32.5t-33 87.5zM514 1253q0 98 66 195.5t157 177.5q11 10 25.5 9.5 t25.5 -11.5l3 -4q10 -11 9 -25.5t-12 -25.5q-111 -111 -145 -203q-10 -25 19 -35q28 -6 48.5 -33t20.5 -61q0 -43 -31.5 -73.5t-74.5 -30.5q-45 0 -78 32.5t-33 87.5z" />
<glyph unicode="&#x201d;" horiz-adv-x="940" d="M160.5 1166.5q0.5 14.5 11.5 25.5q111 111 145 203q10 26 -18 35q-29 6 -49.5 33t-20.5 61q0 42 32 73t75 31q45 0 77.5 -33t32.5 -88q0 -52 -20.5 -106.5t-55 -103t-70.5 -87.5t-77 -75q-11 -10 -25.5 -9.5t-25.5 11.5l-2 4q-10 11 -9.5 25.5zM531.5 1166.5 q0.5 14.5 11.5 25.5q111 111 145 203q10 26 -18 35q-29 6 -49.5 33t-20.5 61q0 42 32 73t75 31q45 0 77.5 -33t32.5 -88q0 -52 -20.5 -106.5t-55 -103t-70.5 -87.5t-77 -75q-11 -10 -25.5 -9.5t-25.5 11.5l-2 4q-10 11 -9.5 25.5z" />
<glyph unicode="&#x201e;" horiz-adv-x="876" d="M70.5 -277.5q0.5 14.5 11.5 25.5q111 111 145 203q10 26 -18 35q-29 6 -49.5 33t-20.5 61q0 42 32 73t75 31q45 0 77.5 -33t32.5 -88q0 -52 -20.5 -106.5t-55 -103t-70.5 -87.5t-77 -75q-11 -10 -25.5 -9.5t-25.5 11.5l-2 4q-10 11 -9.5 25.5zM441.5 -277.5 q0.5 14.5 11.5 25.5q111 111 145 203q10 26 -18 35q-29 6 -49.5 33t-20.5 61q0 43 31.5 73.5t74.5 30.5q45 0 78 -33t33 -88q0 -52 -20.5 -106.5t-55 -103t-70.5 -87.5t-77 -75q-11 -10 -25.5 -9.5t-25.5 11.5l-2 4q-10 11 -9.5 25.5z" />
<glyph unicode="&#x2022;" horiz-adv-x="927" d="M201 666q0 110 77 186t187 76t186 -76t76 -186t-76 -186.5t-186 -76.5t-187 76.5t-77 186.5z" />
<glyph unicode="&#x2026;" horiz-adv-x="1208" d="M141 80q0 42 32 73t75 31t73.5 -30.5t30.5 -73.5q0 -44 -30.5 -74.5t-73.5 -30.5t-75 30.5t-32 74.5zM500 80q0 43 31.5 73.5t74.5 30.5t74 -30.5t31 -73.5q0 -44 -31 -74.5t-74 -30.5t-74.5 30.5t-31.5 74.5zM856 80q0 42 32 73t75 31t73.5 -30.5t30.5 -73.5 q0 -44 -30.5 -74.5t-73.5 -30.5t-75 30.5t-32 74.5z" />
<glyph unicode="&#x202f;" horiz-adv-x="438" />
<glyph unicode="&#x2039;" horiz-adv-x="837" d="M123 737v23q0 37 27 61l462 414q8 7 17.5 3t9.5 -15v-78q0 -38 -27 -62l-352 -315q-8 -8 -8 -19t8 -18l352 -315q27 -24 27 -62v-78q0 -11 -9.5 -15t-17.5 3l-462 412q-27 24 -27 61z" />
<glyph unicode="&#x203a;" horiz-adv-x="837" d="M199 276v78q0 39 26 62l353 315q8 7 8 18t-8 19l-353 315q-26 23 -26 62v78q0 11 9.5 15t16.5 -3l463 -412q27 -24 27 -61v-23q0 -37 -27 -61l-463 -414q-7 -7 -16.5 -3t-9.5 15z" />
<glyph unicode="&#x205f;" horiz-adv-x="547" />
<glyph unicode="&#x20ac;" horiz-adv-x="1964" d="M115 596v18q0 15 11 26t26 11h110q11 0 18.5 9.5t6.5 19.5q-8 52 -8 119q0 61 8 110q1 12 -6.5 20.5t-18.5 8.5h-110q-15 0 -26 11t-11 26v18q0 15 11 26t26 11h131q12 0 22.5 7.5t13.5 19.5q83 252 301 411.5t492 159.5q213 0 396.5 -101.5t295.5 -273.5 q8 -10 4.5 -25.5t-16.5 -21.5l-41 -22q-13 -8 -28.5 -4.5t-24.5 16.5q-99 144 -252.5 227.5t-333.5 83.5q-222 0 -402 -125t-259 -325q-5 -9 1 -18t17 -9h602q15 0 26 -11t11 -26v-18q0 -15 -11 -26t-26 -11h-629q-12 0 -21 -8.5t-11 -20.5q-9 -55 -9 -110q0 -61 9 -119 q3 -12 12.5 -20.5t21.5 -8.5h541q15 0 26 -11t11 -26v-18q0 -15 -11 -26t-26 -11h-514q-11 0 -17 -9t-1 -18q81 -198 260 -320t399 -122q181 0 335 84t251 229q9 12 24 16t29 -3l43 -25q13 -6 16.5 -21.5t-4.5 -25.5q-112 -172 -296 -273.5t-398 -101.5q-272 0 -488 157 t-302 406q-3 12 -14 19.5t-23 7.5h-133q-15 0 -26 11t-11 26z" />
<glyph unicode="&#x2122;" horiz-adv-x="1691" d="M113 1538v23q0 15 11 25.5t26 10.5h477q15 0 26 -10.5t11 -25.5v-23q0 -15 -11 -26t-26 -11h-162q-12 0 -20.5 -8t-8.5 -20v-455q0 -15 -11 -26t-26 -11h-22q-15 0 -26 11t-11 26v455q0 12 -8.5 20t-20.5 8h-161q-15 0 -26 11t-11 26zM776 1018v543q0 15 11 25.5t26 10.5 h29q38 0 55 -30l225 -373q4 -9 14 -9t15 9l227 373q17 30 56 30h28q15 0 26 -10.5t11 -25.5v-543q0 -15 -11 -26t-26 -11h-22q-15 0 -26 11t-11 26v397q0 6 -5.5 8t-8.5 -4l-203 -336q-17 -24 -45 -24h-4q-30 0 -47 24l-203 336q-3 6 -9 4t-6 -8v-397q0 -15 -10.5 -26 t-25.5 -11h-23q-15 0 -26 11t-11 26z" />
<glyph unicode="&#x25fc;" horiz-adv-x="1597" d="M0 0v1597h1597v-1597h-1597z" />
</font>
</defs>
</svg>
