<?xml version="1.0" standalone="no"?> 
<!DOCTYPE svg PUBLIC "-//W3C//DTD SVG 1.1//EN" "http://www.w3.org/Graphics/SVG/1.1/DTD/svg11.dtd" >
<svg xmlns="http://www.w3.org/2000/svg">
<defs>
  <font id="icons" horiz-adv-x="500">
    <font-face font-family="icons"
      units-per-em="500" ascent="500"
      descent="0" />
    <missing-glyph horiz-adv-x="0" />
    <glyph glyph-name="icons_pc"
      unicode="&#xE001;"
      horiz-adv-x="500" d=" M439.4 102.5H263.5V75.7H317.6C325.1 75.7 331.1 69.7 331.1 62.3C331.1 54.9 325 48.9 317.6 48.9H182.3C174.8 48.9 168.8 54.9 168.8 62.3C168.8 69.7 174.9 75.7 182.3 75.7H236.4V102.5H60.6C45.7 102.5 33.5 116.7 33.5 134.2V419.4C33.5 436.9 45.6 451.1 60.6 451.1H439.5C454.4 451.1 466.6 436.9 466.6 419.4V209.8V183V134.2C466.5 116.7 454.4 102.5 439.4 102.5zM439.4 424.3H60.6V209.8H439.5V424.3zM60.6 183V129.4H439.5V183H60.6zM236.5 156.2L236.5 156.2C236.5 163.6 242.5 169.6 249.9 169.6H250.1C257.5 169.6 263.5 163.6 263.5 156.2V156.2C263.5 148.8 257.5 142.8 250.1 142.8H249.9C242.5 142.7 236.5 148.7 236.5 156.2z" />
    <glyph glyph-name="icons_close"
      unicode="&#xE002;"
      horiz-adv-x="500" d=" M250 492.5C116.1 492.5 7.5 383.9 7.5 250C7.5 116 116.1 7.5 250 7.5S492.5 116 492.5 250C492.5 383.9 383.9 492.5 250 492.5zM250 39C133.4 39 39 133.5 39 250C39 366.6 133.4 461 250 461C366.5 461 461 366.5 461 250C461 133.4 366.5 39 250 39zM310 310C304.5 315.5 299.5 319.5 294 314L250 270L206 314C200.5 319.5 195.5 315.5 190 310C184.5 304.5 180.5 299.5 186 294L230 250L186 206C180.5 200.5 184.5 195.5 190 190C195.5 184.5 200.5 180.5 206 186L250 230L294 186C299.5 180.5 304.5 184.5 310 190C315.5 195.5 319.5 200.5 314 206L270 250L314 294C319.5 299.5 315.5 304.5 310 310z" />
    <glyph glyph-name="icons_back"
      unicode="&#xE003;"
      horiz-adv-x="500" d=" M282.9 331.4C277.9 336.4 269.9 336.4 265 331.4L194 259.1C189 254.1 189 246 194 241L264.9 168.7C269.8 163.7 277.9 163.7 282.8 168.7C287.8 173.7 287.8 181.8 282.8 186.8L224.7 250L282.8 313.3C287.8 318.3 287.8 326.4 282.9 331.4zM250 492.5C116.1 492.5 7.5 383.9 7.5 250C7.5 116 116.1 7.5 250 7.5S492.5 116 492.5 250C492.5 383.9 383.9 492.5 250 492.5zM250 39C133.4 39 39 133.5 39 250C39 366.6 133.4 461 250 461C366.5 461 461 366.5 461 250C461 133.4 366.5 39 250 39z" />
    <glyph glyph-name="icons_bulb"
      unicode="&#xE004;"
      horiz-adv-x="500" d=" M70.3 229.3C71.1 222.3 66.3 216.1 59.4 215L22.6 209.4C22 209.3 21.3 209.3 20.7 209.3C14.1 209.3 8.6 214.1999999999999 7.8 220.8C7.7 222 7.5 223.1 7.4 224.3C7 227.9 8.1 231.3 10.4 234C12.7 236.7 15.9 238.3 19.4 238.6L56.5 241.1C56.8 241.1 57.1 241.1 57.4 241.1H57.4C64 241.1 69.5 236.1 70.3 229.5L70.3 229.3zM489.6 234.1C487.3 236.8 484.1 238.4000000000001 480.6 238.7000000000001L443.5 241.2000000000001C443.2 241.2000000000001 442.9 241.2000000000001 442.6 241.2000000000001C436 241.2000000000001 430.5 236.2000000000001 429.7000000000001 229.6L429.7000000000001 229.5L429.7000000000001 229.4C428.9000000000001 222.4 433.7000000000001 216.2 440.6 215.1L477.4 209.5C478.0000000000001 209.3999999999999 478.7 209.3999999999999 479.3 209.3999999999999C485.9 209.3999999999999 491.4 214.2999999999999 492.2 220.8999999999999C492.3 222.0999999999999 492.5 223.1999999999999 492.6 224.3999999999999C492.9 227.9 491.9 231.3 489.6 234.1zM69.9 320.4L35 333.2C33.6 333.7 32.1 334 30.6 334C25 334 20 330.4 18.3 325C17.9 323.9 17.6 322.8 17.2 321.6C16.1 318.2 16.5 314.6 18.2 311.5C19.9 308.4 22.7 306.2 26.1 305.2L62 295.4C63.1 295.1 64.3 294.9 65.4 294.9C71.1 294.9 76 298.5 77.7 303.9L77.8 304.2C79.9 311 76.5 318 69.9 320.4zM168.5 465.1C166.5 470 161.8 473.2 156.5 473.2C154.7 473.2 152.9 472.8 151.2 472.1C150.1 471.6 149.1 471.1 148 470.6C144.8 469.1 142.3 466.4 141.2 463.1C140 459.8 140.3 456.2 141.9 453L158.7 419.8C160.9 415.4 165.3 412.7 170.2 412.7C172 412.7 173.8 413.1 175.5 413.9L175.8 414C182.1 416.9 185.1 424.2 182.5 430.6L168.5 465.1zM250.3 493H249.8C248.8 493 247.8 493 246.8 493C243.2 493 239.9 491.5 237.5 488.9C235.1 486.3 233.8 483 234 479.4L235.7 442.3C236 435.4 241.7 430 248.7 430H248.7H248.8H249C256 430 261.7 435.4 262 442.4L263.4 479.5C263.5 483 262.3 486.4 259.8 488.9C257.2 491.6 253.9 493 250.3 493zM349.4 471.8C348.3 472.3 347.3 472.8 346.2 473.2C344.6 473.9 342.8 474.3 341.1 474.3C335.7 474.3 331 471.1 329 466.1L315.5 431.4C313 424.9 316 417.6 322.3999999999999 414.9L322.7 414.8C324.3999999999999 414.1 326.0999999999999 413.7000000000001 327.8999999999999 413.7000000000001C332.8999999999999 413.7000000000001 337.2999999999999 416.5 339.5 421L355.8 454.4C357.4 457.6 357.5 461.2 356.3 464.5C355.1 467.7 352.6 470.3 349.4 471.8zM437.4 297.6L473.2 307.8C476.6 308.8 479.4 311 481 314.2C482.7 317.3 483 320.9 481.9 324.3C481.5 325.4 481.2 326.5 480.8 327.6C478.9999999999999 332.9 474.1 336.4 468.4999999999999 336.4C466.8999999999999 336.4 465.3999999999999 336.1 463.8999999999999 335.6L429.0999999999999 322.4C422.5999999999999 319.9 419.2 312.8 421.3999999999999 306.2000000000001L421.5 305.9C423.3 300.6 428.2 297 433.8 297C435 297.1 436.2 297.3 437.4 297.6zM87.8 413.3C85.4 415.7 82.2 416.9 78.8 416.9C75.1 416.9 71.6 415.3 69.1 412.6C68.3 411.7 67.5 410.9 66.8 410C64.4 407.3 63.3 403.9 63.6 400.3C63.9 396.8 65.6 393.6 68.3 391.4L97 367.9C99.3 366 102.2 365 105.2 365C108.9 365 112.4 366.6 114.9 369.3L115.1 369.5C119.7 374.7 119.5 382.6 114.5 387.4L87.8 413.3zM434.6 402.5C434.9000000000001 406 433.7000000000001 409.5 431.3 412.1C430.5 413 429.7 413.8 428.9000000000001 414.7C426.4000000000001 417.4 423.0000000000001 418.9 419.3 418.9C415.9000000000001 418.9 412.6 417.6 410.2 415.2L383.8 389C378.9000000000001 384.1 378.7 376.2 383.3 371.1L383.5 370.9C385.9 368.2000000000001 389.4 366.7000000000001 393.1 366.7000000000001C396.1 366.7000000000001 399.1 367.8 401.4000000000001 369.7000000000001L429.9000000000001 393.6C432.7 395.7 434.3 398.9 434.6 402.5zM370.3 263.1C370.3 230.2 353.2 198.8 338 171.1C327.7 152.3 317 134.5 315 119.8V63.6C310 31.7 283.4 7 250.3 7C217.2 7 189 31.7 185 63.6V113.3C185 133 173 153.8 160.5 175.8C145.9 201.4 129.3 230.3 129.3 263C129.3 329.4 183.3 383.5 249.7 383.5C316.2 383.6 370.3 329.6 370.3 263.1zM289.6 61H210.4C215.6 44 231.4000000000001 31.6 250.0000000000001 31.6C268.7 31.6 284.5 44 289.6 61zM291 102H209V88H291V102zM346.2 263.2C346.2 316.4 302.9 359.7 249.7 359.7C196.5 359.7 153.2 316.4 153.2 263.2C153.2 236.9 167.4 212.2 181.1 188.1C192.5 168 204.3 148 207.7 126H238V222.4C231 226.1 227.4 232.9 227.4 240.7C227.4 252.5 236.8 262 248.6 262C260.4 262 269.9 252.5 269.9 240.7C269.9 234 267 228.1 262 224.1V126H292C295.4 144 305.9 163 316.8 183C331.3 209.4 346.2 236.4 346.2 263.2z" />
    <glyph glyph-name="icons_calendar"
      unicode="&#xE005;"
      horiz-adv-x="500" d=" M146.1 342.9C161.2 342.9 173.4 355 173.4 370V464.8C173.4 479.8 161.2 491.9 146.1 491.9C131 491.9 118.8 479.8 118.8 464.8V370C118.7 355 131 342.9 146.1 342.9zM353.9 342.9C369 342.9 381.2 355 381.2 370V464.8C381.2 479.8 369 491.9 353.9 491.9S326.6 479.8 326.6 464.8V370C326.6 355 338.8 342.9 353.9 342.9zM304.9 430.7H195.1V398.2H304.9V430.7zM425.2 430.7H413.9V398.2H425.2C437.1 398.2 447.1 388.3 447.1 376.5V311H52.9V376.5C52.9 388.2 62.9 398.2 74.8 398.2H96.4V430.7H74.8C44.7 430.7 20.1 406.3 20.1 376.5V311.7H20.1V279.2H20.1V62.2C20.1 32.4 44.7 8 74.8 8H425.2C455.3 8 479.9 32.4 479.9 62.2V376.5C479.9 406.3 455.3 430.7 425.2 430.7zM447.1 62.3C447.1 50.6 437.1 40.6 425.2000000000001 40.6H74.8C62.9 40.6 52.9 50.5 52.9 62.3V279.3H447V62.3zM140.6 188.1C155.7 188.1 167.9 200.2000000000001 167.9 215.2000000000001C167.9 230.2000000000001 155.7 242.3000000000001 140.6 242.3000000000001S113.3 230.2000000000001 113.3 215.2000000000001C113.3 200.2 125.5 188.1 140.6 188.1zM250 188.1C265.1 188.1 277.3 200.2000000000001 277.3 215.2000000000001C277.3 230.2000000000001 265.1 242.3000000000001 250 242.3000000000001C234.9 242.3000000000001 222.7 230.2000000000001 222.7 215.2000000000001C222.7 200.2 234.9 188.1 250 188.1zM140.6 79.7C155.7 79.7 167.9 91.8 167.9 106.8C167.9 121.8 155.7 133.9 140.6 133.9S113.3 121.8 113.3 106.8C113.3 91.8 125.5 79.7 140.6 79.7zM250 79.7C265.1 79.7 277.3 91.8 277.3 106.8C277.3 121.8 265.1 133.9 250 133.9C234.9 133.9 222.7 121.8 222.7 106.8C222.7 91.8 234.9 79.7 250 79.7zM359.4 188.1C374.5 188.1 386.7 200.2000000000001 386.7 215.2000000000001C386.7 230.2000000000001 374.5 242.3000000000001 359.4 242.3000000000001C344.3 242.3000000000001 332.1 230.2000000000001 332.1 215.2000000000001C332 200.2 344.3 188.1 359.4 188.1z" />
    <glyph glyph-name="icons_car"
      unicode="&#xE006;"
      horiz-adv-x="500" d=" M214.7 150.5H284.8C292.1 150.5 298 156.4 298 163.7L298 163.7C298 171 292.1 176.9 284.8 176.9H214.7C207.4 176.9 201.5 171 201.5 163.7L201.5 163.7C201.5 156.4 207.4 150.5 214.7 150.5z M424 273.5C400.6 282.3 375.2 287.8 365.5 289.7L365.4 289.7C361 291 341.6 309.9 321.1 336.8L320.1 337.9L319.9 338C310.9 347 298.7 359.1 275.8 359.1H155.4C134.5 359.1 123.2 339 113.3 321C104.8 305.6 96 290 84.8 290H67.4C43.2 290 28 274.9 28 250.7V178.7C28 162.8 41.3 150 58.7 150H73.2C79.3 125 101.6 107.2 128.2 107.2C159.4 107.2 184.9 132.7 184.9 163.9C184.9 195.1 159.5 220.6 128.2 220.6C101.4 220.6 78.9 202 73 177H58.7C56.9 177 55 178 55 178.6999999999999V250.7C55 260.3999999999999 57.7 263 67.4 263H361.3C412.9 253 441 237.3 445 232.6V181.4C445 179.6 442.7 177 440.8 177H426.5C420.6 202 398.1 220.6 371.3 220.6C340.1 220.6 314.6 195.2000000000001 314.6 164C314.6 132.8 340 107.2 371.3 107.2C397.9 107.2 420.2 125 426.3 150H440.8C457.1 150 471.9999999999999 165.1 471.9999999999999 181.4V233.4C472 248.1 455.7 261.6 424 273.5zM128.2 194.2C144.8 194.2 158.4 180.7 158.4 164.1C158.4 147.5 144.9 134 128.2 134C111.6 134 98 147.5 98 164.1C98 180.6 111.6 194.2 128.2 194.2zM210 290H125.6C129.6 296 133.2 302.5 136.4 308.3C141.8 318.1 150.1 333 155.4 333H210V290zM236 290V333H275.8C287 333 292.3 328.3 300.6 320.1C306 313 315.5 300 325.7000000000001 290H236zM371.3 133.9C354.7 133.9 341.1 147.4 341.1 164C341.1 180.6 354.6 194.1 371.3 194.1C387.9000000000001 194.1 401.5 180.6 401.5 164C401.5 147.4 388 133.9 371.3 133.9z" />
    <glyph glyph-name="icons_clock"
      unicode="&#xE007;"
      horiz-adv-x="500" d=" M250 484.5C120.5 484.5 15.5 379.5 15.5 250C15.5 120.5 120.5 15.5 250 15.5C379.5 15.5 484.5 120.5 484.5 250C484.5 379.5 379.5 484.5 250 484.5zM250 44.4C136.9 44.4 44.8 136.9 44.8 250C44.8 363.1 136.8 455.1999999999999 250 455.1999999999999C363.1 455.1999999999999 455.2 363.2 455.2 250C455.2 136.9 363.1 44.4 250 44.4zM264.7 255.9V396.6C264.7 404.7 258.1 411.3 250 411.3C241.9 411.3 235.3 404.7 235.3 396.6V250C235.3 246.1 236.9 242.5 239.4 239.9C239.7 239.5 240.1 239 240.5 238.6L313 166.1C318.7 160.4 328 160.4 333.7 166.1C339.4 171.8 339.4 181.1 333.7 186.8L264.7 255.9z" />
    <glyph glyph-name="icons_crosshairs"
      unicode="&#xE008;"
      horiz-adv-x="500" d=" M250 487.3C118.9 487.3 12.7 381.1 12.7 250C12.7 118.9 119 12.6 250.1 12.6C381.1 12.6 487.4 118.9 487.4 250.0000000000001C487.3 381.1 381.1 487.3 250 487.3zM274.7 64V175.9H225.3V64C141.3 75 75 141.4 63.9 225.3H175.8V274.7000000000001H63.9C74.9 358.7000000000001 141.3 425 225.3 436V324.1H274.7V436.1C358.6 425 425 358.7 436 274.7H324.2V225.3H436C425 141.4 358.6 75 274.7 64z" />
    <glyph glyph-name="icons_facebook"
      unicode="&#xE009;"
      horiz-adv-x="500" d=" M285.9 9.3V228.9H356.9L367.5 314.5H285.9V369.1C285.9 393.9 292.5 410.8 326.7 410.8L370.3 410.8V487.4C362.8 488.4 336.9000000000001 490.8 306.7 490.8C243.8 490.8 200.7 450.9 200.7 377.7V314.6H129.5V229H200.7V9.4H285.9z" />
    <glyph glyph-name="icons_food"
      unicode="&#xE00A;"
      horiz-adv-x="500" d=" M169.4 483.2C80.4 483.2 8 411.7 8 323.9C8 236 80.4 164.5 169.4 164.5C258.4 164.5 330.8 236 330.8 323.9C330.8 411.7 258.4 483.2 169.4 483.2zM157.4 189C86.8 195 32.1 253.5 32.1 323.9C32.1 394.2 86.8 452.7 157.4 458.8V189zM181.4 189V458.8C252 452.7 306.7 394.2 306.7 323.9C306.7 253.5 252 195 181.4 189zM488.9 401.7C486.6 404.2 483.3 405.7 479.9 405.7H438.6V456.3H460.7C467.3 456.3 472.7 461.6 472.7 468.2C472.7 474.8 467.3 480.1 460.7 480.1H426.6C420 480.1 414.6 474.8 414.6 468.2V405.8H364C360.6 405.8 357.3 404.3 355 401.8C352.7 399.3 351.6 395.9 352 392.5L374.9 194.5C375.6 188.5 380.7 184 386.9 184H457C463.1 184 468.3 188.5 469 194.5L491.9 392.4C492.3 395.8 491.2 399.2 488.9 401.7zM446.3 207.8H397.7L377.5 382H421.1C424.7000000000001 380 428.6 380 432.2000000000001 382H466.4L446.3 207.8zM299.3 168.1C257.1 168.1 222.7 134.2000000000001 222.7 92.4C222.7 50.7 257.1 16.7 299.3 16.7C341.6 16.7 375.9 50.6 375.9 92.4C376 134.2 341.6 168.1 299.3 168.1zM299.3 40.5C270.3 40.5 246.8 63.8 246.8 92.4C246.8 121 270.4000000000001 144.3 299.3 144.3C328.3 144.3 351.8 121 351.8 92.4C351.9 63.8 328.3 40.5 299.3 40.5zM290 105.7C290 114.1 283 121 274.5 121C265.9 121 259 114.1 259 105.7C259 97.3 266 90.4 274.5 90.4C283.1 90.4 290 97.3 290 105.7zM324.2 121C315.6 121 308.7 114.1 308.7 105.7C308.7 97.3 315.7 90.4 324.2 90.4C332.7 90.4 339.7 97.3 339.7 105.7C339.7 114.2 332.8 121 324.2 121zM299.4 81.4C290.8 81.4 283.9 74.5 283.9 66.1C283.9 57.7 290.9 50.8 299.4 50.8C307.9 50.8 314.9 57.6999999999999 314.9 66.1C314.9 74.5 307.9 81.4 299.4 81.4z" />
    <glyph glyph-name="icons_instagram"
      unicode="&#xE00B;"
      horiz-adv-x="500" d=" M436 287.2H393.9C397 275.3 398.8 262.8 398.8 250C398.8 167.8 332.2 101.2 250 101.2C167.8 101.2 101.1999999999999 167.8 101.1999999999999 250C101.1999999999999 262.9 102.9999999999999 275.3 106.0999999999999 287.2H63.9V82.5C63.9 72.2 72.2 63.9 82.5 63.9H417.4C427.7 63.9 436 72.2 436 82.5V287.2zM436 417.5C436 427.8 427.7 436.1 417.4 436.1H361.6C351.3 436.1 343 427.8 343 417.5V361.7C343 351.4 351.3 343.1 361.6 343.1H417.4C427.7 343.1 436 351.4 436 361.7V417.5zM250 343C198.6 343 157 301.4 157 250C157 198.6 198.6 157 250 157C301.4 157 343 198.7 343 250C343 301.4 301.4 343 250 343M436 8.1H63.9C33.1 8.1 8.1 33.1 8.1 63.9V436.1C8.1 466.9 33.1 491.9 63.9 491.9H436C466.8 491.9 491.8 466.9 491.8 436.1V64C491.9 33.1 466.9 8.1 436 8.1" />
    <glyph glyph-name="icons_locations"
      unicode="&#xE00C;"
      horiz-adv-x="500" d=" M250 38.9L240.2 50.6C234.9 57 111 207.3 111 326.8C111 400.8 173.3 461.1 250 461.1S389 400.9000000000001 389 326.8C389 207.3 265.1 57 259.8 50.7L250 38.9zM250 435.6C187.4 435.6 136.5 386.8 136.5 326.8C136.5 235 220.8 117.3 250 79.3C279.2 117.3 363.5 235.1 363.5 326.8C363.5 386.8 312.6 435.6 250 435.6zM250.1 268C216.2 268 188.6 295.6 188.6 329.5S216.2 391 250.1 391S311.6 363.4 311.6 329.5S284 268 250.1 268zM250.1 365.6C230.2 365.6 214.1 349.4 214.1 329.6S230.3 293.6 250.1 293.6S286.1 309.8 286.1 329.6S270 365.6 250.1 365.6z" />
    <glyph glyph-name="icons_magnify"
      unicode="&#xE00D;"
      horiz-adv-x="500" d=" M472.9 88.5L361.2 200.1C378 227.7000000000001 387.7 260.2000000000001 387.7 294.9000000000001C387.7 395.8000000000001 300.2 483.3000000000001 199.3 483.3000000000001C98.4 483.4 16.7 401.5 16.7 300.6C16.7 199.7 104.2 112.2 205.1 112.2C238.7 112.2 270.1 121.3 297.1 137.1L409.3 24.8C420.3 13.8 438.1 13.8 449.1 24.8L477 52.6999999999999C487.8 63.7 483.8 77.5 472.9 88.5zM72.9 300.6C72.9 370.5 129.5 427.1 199.4 427.1C269.3 427.1 331.5 364.9 331.5 294.9C331.5 225 274.8 168.4 205 168.4C135.1 168.5 72.9 230.7 72.9 300.6z" />
    <glyph glyph-name="icons_order"
      unicode="&#xE00E;"
      horiz-adv-x="500" d=" M384.4 349.7C384.3 350.4 384.1 351 383.8 351.5C383.5 352.3 383 353 382.7 353.5C382.5999999999999 353.8 382.3 354.3 381.8 354.8L380.6 355.9C380 356.4 379.5 356.6 379 356.9C378.5 357.2000000000001 377.8999999999999 357.5 377.3 357.8C376.4 358.1 375.5 358.3 374.9 358.3L266.1 358.6H243.4H229L175.6 420.8C171.5 425.5 164.3 426.1 159.6 422.1C154.8 418 154.2 410.9000000000001 158.3 406.2000000000001L199.1 358.7000000000001H136.2C133 358.7000000000001 129.9 357.3 127.8 355C125.7 352.6 124.6 349.5 124.9 346.3000000000001L149.3 91.3000000000001L149.4 89.9000000000001L149.5 89.8000000000001C149.6999999999999 88.9000000000001 150 88.0000000000001 150.5 87.2000000000001L150.9 86.5000000000001C151.4 85.6000000000001 152 84.8000000000001 152.8 84.1000000000001L153.3 83.6000000000001C153.9 83.1000000000001 154.5 82.8000000000001 155.2 82.4000000000001C155.5 82.2000000000001 156 81.9000000000001 156.6 81.7000000000001C157.9 81.2000000000001 159.3 81.0000000000001 160.6 81.0000000000001H349C350.3 81.0000000000001 351.7 81.2000000000001 353 81.7000000000001C353.6 81.9000000000001 354.1 82.2000000000001 354.7 82.6000000000001C355.1 82.8000000000001 355.7 83.1000000000001 356.3 83.6000000000001L356.8 84.1000000000001C357.5 84.7000000000001 358 85.5000000000001 358.4000000000001 86.1000000000001L359.1 87.1000000000001C359.5 87.9000000000001 359.8 88.7000000000001 360 89.7000000000001L384.6 346.2000000000001L384.7000000000001 346.6000000000002L384.6 347.1000000000002C384.7 347.9 384.6 348.7 384.4 349.7zM148.7 335.9H218.5L252.5 296.3C256.6 291.6 263.8 291 268.5 295C273.3 299.1 273.8 306.2 269.8 310.9L248.4 335.8H266.2H349.2L169.3 120.3L148.7 335.9zM184.8 103.5L254.8 187.4L324.8 103.5H184.8zM340.3 120.3L269.6 205L358.6 311.7L340.3 120.3z" />
    <glyph glyph-name="icons_quote"
      unicode="&#xE00F;"
      horiz-adv-x="500" d=" M237.7 413.5H138L41.6 274.5C22 246.2 12.2 217 12.2 187.1C12.2 157.1 22.3 132.9 42.4 114.4C62.6 95.9 87.4 86.6 116.8 86.6C146.2 86.6 170.7 96.1 190.4 115.2000000000001C210 134.3000000000001 219.8 160.4 219.8 193.7000000000001C219.8 226.9000000000001 204.5 253.4000000000001 174 273.0000000000001L237.7 413.5zM487.8 413.5H388.1L291.7000000000001 274.6C272.1 246.2 262.3000000000001 217.1 262.3000000000001 187.1C262.3000000000001 157.1 272.4000000000001 132.9 292.5000000000001 114.4C312.7000000000001 95.9 337.5000000000001 86.6 366.9000000000001 86.6C396.3000000000001 86.6 420.8000000000001 96.1 440.5000000000001 115.2000000000001C460.1000000000001 134.3000000000001 469.9000000000001 160.4 469.9000000000001 193.7000000000001C469.9000000000001 226.9000000000001 454.6000000000001 253.4000000000001 424.1000000000001 273.0000000000001L487.8 413.5z" />
    <glyph glyph-name="icons_signpost"
      unicode="&#xE010;"
      horiz-adv-x="500" d=" M482.7 400.7L436.8 452.2C434 455.4 430 457.2 425.8 457.2H264.4V472.8C264.4 480.5 257.8 486.7 249.7 486.7C241.6 486.7 235 480.5 235 472.8V457.1H117C108.9 457.1 102.3 450.5 102.3 442.3V338.9C102.3 330.7 108.9 324.1 117 324.1H234.9V294.5H74.3C70.1 294.5 66.1 292.7 63.3 289.5L17.4 237.1C12.4 231.5 12.4 223.1 17.4 217.4L63.3 165.5C66.1 162.3 70.1 161 74.3 161H234.9V27.1C234.9 19.4 241.5 13.2 249.6 13.2C257.7 13.2 264.3 19.4 264.3 27.1V161.1H382.4C390.5 161.1 397.1 167.7000000000001 397.1 175.9V279.7C397.1 287.9 390.5 294.5 382.4 294.5H264.4V324.1H425.8C430 324.1 434 325.9 436.8 329.1L482.6999999999999 381C487.6 386.6 487.6 395.1 482.7 400.7zM367.8 190.7H80.9L48.1 227.4L80.9 265H367.8V190.7zM419.1 353.7H131.8V427.5H419.1L451.9 390.8L419.1 353.7z" />
    <glyph glyph-name="icons_spicy"
      unicode="&#xE011;"
      horiz-adv-x="500" d=" M330 91.4C286 91.4 279.2 131 279.2 165.7C279.2 200.5 302.4 289.8 301.9 290.1C301.4 306.6 277.9 304.7 257.9 309.2C251.1 310.7 246.7 313.4 243.9 316.6C244.1 317.3 244.3 318 244.3 318.8C243.3 342.7 234.7 396 221.6 412.6C211.6 425.1 195.6 432.3 177.7 432.3C163.9 432.3 150.3 428 140.5 420.3C127.3 409.9 120.6 389.8 124.4 372.5C127.8 357.1 138.9 346.3 155.2 342.1C159.9 340.9 164.4 340.3 168.6 340.3C182.3 340.3 193.3 347 198 358.3C202.2 368.4 200.3000000000001 380.3 193.5 386.6C188.4 391.5 183 392.6 179.5 392.6C169.4 392.6 161.3000000000001 383.9 158.8000000000001 375.8C158 373.1 158.8000000000001 370 161 368.1C155.2 370.1 149.5 375.5 149.3000000000001 384.5C149.1000000000001 397.4 161.1000000000001 407.4 177.4 407.6C198.8000000000001 407.6 205.8000000000001 391 207.9 377C208.2000000000001 374.3 209.2000000000001 369.7 210 364.2C212.5 349.5 216.3000000000001 327.3 216.9 317.9C217 315.9 217.8000000000001 314.4 219.1 313.2C218.4 312.6 217.9 311.9 217.1 311.5C209.7 307.6 194.4 307.2 184.8 306.6C184 306.5 156.4 304.1 151 297.2C145.3 290 153.7 282.4 156.7 275.5C159.5 268.7 160.1 261.6 161.9 254.7C166.3 236.2 169.4 217.7 172.1 199.1C186.6 96.6 253.2 67.9 305.9 67.9C358.6 67.9 376.7 91.1 376.7 107.9C374.1 103.7 349.9 91.4 330 91.4zM194.3 201.9C192.1 217.8 188.8 238.7 183.7 259.6C183.2 261.6 182.9 263.5 182.4 265.5C181.8 268.9 180.8 272.7 179.7 276.6C184.7 278.4 196.7 281.4 211.9 282.3C233.8000000000001 283.7 268.3 279.2 276 277.2C266.2 235.3 256.7 190.5 256.7 165.6999999999999C256.7 130.1999999999999 264.7 107.3 276.6 92.6999999999999C214.8 108.2 198.5 172.3 194.3 201.9z" />
    <glyph glyph-name="icons_star"
      unicode="&#xE012;"
      horiz-adv-x="500" d=" M250 388.1L289.3 277.6H394.7000000000001L308.7000000000001 212.7L339.5000000000001 98.8L250 167.1L160.6 98.8L191.3 212.7000000000001L105.3 277.6H210.7L250 388.1M250 484.8L219.5 399L187.9 310H105.3H8.8L85.9 251.8L154.5 200L129.4 107.2L104.6 15.3L180.3 73.1L250.1 126.4L319.9000000000001 73.1L395.6 15.3L370.8 107.1999999999999L345.6 200L414.2000000000001 251.8L491.3000000000001 310H394.8000000000001H312.2000000000001L280.6 399L250 484.8L250 484.8z" />
    <glyph glyph-name="icons_story"
      unicode="&#xE013;"
      horiz-adv-x="500" d=" M457.8 410.4V148.1C457.8 140 453.1 132.5 445.6 128.7000000000001L291.3 50.6L250.3 29.5L216.8 46.4L217.1 46.4L54.4 128.7C46.9 132.5 42.2 140 42.2 148.1V410.4C42.2 418.1 46.4 425.2 53.3 429.2C56.9 431.3 61 432.4 65.1 432.4C68.8 432.4 72.4 431.6 75.8 429.9L249.2 342C249.5 341.9 249.7 341.7 250 341.5C250.3 341.6 250.5 341.8 250.8 342L424.2000000000001 429.8C427.5000000000001 431.5 431.2000000000001 432.3 434.9000000000001 432.3C439.0000000000001 432.3 443.1 431.2 446.7000000000001 429.1C453.6 425.2 457.8 418.1 457.8 410.4zM256 375.7L402.4 449.9C408 452.7 410.1 459.4 407.2 464.7C404.2 470.1 397.3 472.1 391.7 469.3L250 397.5L108.3 469.2C102.7 472 95.8 470 92.8 464.6C89.9 459.2 92 452.6 97.6 449.8L243.6 375.9L244.4 375.4C246 374.5 247.9 374.1 249.9 374.1C252 374.1 254.1 374.7 256 375.7zM65.1 148.1L238.5 60.3V322.6L65.1 410.4V148.1zM434.9 410.4L261.5 322.6V60.3L434.9 148.1V410.4z" />
    <glyph glyph-name="icons_tea"
      unicode="&#xE014;"
      horiz-adv-x="500" d=" M186.1 406H315.6C318.9000000000001 406 322 407.8 323.6 410.8C325.2000000000001 413.7 325 417.3 323.2000000000001 420.1C307.1 444.5 280.1 459.1 250.9000000000001 459.1S194.7000000000001 444.5 178.6 420.1C176.8 417.3 176.6 413.7 178.2 410.8C179.7 407.8 182.8 406 186.1 406zM250.9 440.8C267.6 440.8 283.5 434 295.8 424H206C218.3 434 234.2 440.8 250.9 440.8zM406.3 393H318.1C317.4000000000001 393 316.7000000000001 393 316 393H178.3C177.5 393 176.7 392.9 176 392.7C132.9 381.3 99.5 348.1 84.6 305.6C77.3 327.2000000000001 64.5 353.2000000000001 42.1 373.3L57.2 381.5C62.7 379.2000000000001 74.4 374 90.7 364.7000000000001C95 362.2000000000001 100.6 363.7000000000001 103.1 368.1C105.6 372.5 104.1 378 99.7 380.5C74.9 394.6 60.3 399.9000000000001 59.7 400.1C57.3 401 54.6 400.7000000000001 52.4 399.5L21.5 382.9000000000001C18.7 381.4000000000001 16.9 378.6 16.7 375.5C16.5 372.4000000000001 17.9 369.4000000000001 20.5 367.5C69.3 332.7000000000001 75.8 262.9000000000001 75.9 262.2000000000001C75.9 261.7000000000001 76.2 261.2000000000001 76.3 260.8000000000001C76.3 260 76.2 259.2000000000001 76.2 258.4000000000001C76 257.6 75.8 256.9000000000001 75.8 256C75.8 255.2 76 254.4000000000001 76.2 253.6C77.2 189.6 117.9 134.5 176 119.2000000000001C176.8 119.0000000000001 177.5 118.9 178.3 118.9H323.5C324.3 118.9 325.1 119.0000000000001 325.8 119.2000000000001C384.6 134.7000000000001 425.7000000000001 190.8000000000001 425.7000000000001 255.8000000000001C425.7000000000001 305.4000000000001 401.8000000000001 349.9000000000001 364.4000000000001 374.9000000000001H406.4000000000001C438.8 374.9000000000001 465.2 348.6 465.2 316.1C465.2 297.9000000000001 457.0000000000001 281 442.6 269.8C438.7000000000001 266.7000000000001 438 261 441.1 257.1C442.9000000000001 254.8 445.6 253.6 448.2000000000001 253.6C450.2000000000001 253.6 452.1 254.2 453.8000000000001 255.5000000000001C472.6000000000001 270.2000000000001 483.3000000000001 292.2000000000001 483.3000000000001 316C483.3 358.6 448.7 393 406.3 393zM322.3 137H179.5C132 150 98.2 194 94.6 247H407.1C403.6 194 369.8 150 322.3 137zM407.1 265H94.6C98.1 317 132 361 179.5 375H322.3C369.8 361 403.6 317 407.1 265zM418.5 89C418.5 84 414.4 80 409.4 80H92.3C87.3 80 83.2 84 83.2 89S87.3 98 92.3 98H409.4000000000001C414.4 98 418.5 94 418.5 89zM381 62.1V50.1C381 45.1 377 41 372 41C367 41 363 45.1 363 50.1V62.1C363 67.1 367 71.2000000000001 372 71.2000000000001C377 71.1 381 67.1 381 62.1zM139 62.1V50.1C139 45.1 135 41 130 41C125 41 121 45.1 121 50.1V62.1C121 67.1 125 71.2000000000001 130 71.2000000000001C135 71.1 139 67.1 139 62.1z" />
    <glyph glyph-name="icons_twitter"
      unicode="&#xE015;"
      horiz-adv-x="500" d=" M490.2 395.5L490.2 395.5L490.2 395.5M342.1 440.6C287.6 440.6 243.4000000000001 397.5 243.4000000000001 344.4C243.4000000000001 336.9 244.3000000000001 329.5 246.0000000000001 322.5C163.9 326.5 91.2 364.8 42.5 423C33.9 408.8 29 392.3 29 374.6C29 341.2 46.4 311.8 72.9 294.5C56.7 295 41.5 299.3 28.2 306.5C28.2 306.1 28.2 305.7 28.2 305.3C28.2 258.7000000000001 62.2 219.8 107.4 211C99.1 208.8 90.4 207.6 81.4 207.6C75 207.6 68.9 208.2000000000001 62.8 209.3C75.4 171.1 111.8 143.3 155 142.5C121.2 116.7 78.6 101.3 32.4 101.3C24.4 101.3 16.6 101.8 8.8 102.6C52.5 75.3 104.4 59.4 160.2 59.4C341.8 59.4 441.2000000000001 206 441.2000000000001 333.1C441.2000000000001 337.3 441.1 341.4000000000001 440.9000000000001 345.5C460.2 359.1 476.9 376 490.2 395.3C472.5000000000001 387.6 453.5000000000001 382.5 433.5000000000001 380.1C453.9 392 469.5000000000001 410.9000000000001 476.9 433.3C457.8 422.3 436.7000000000001 414.3 414.2000000000001 410C396.1 428.9 370.5 440.6 342.1 440.6" />
    <glyph glyph-name="icons_wok"
      unicode="&#xE016;"
      horiz-adv-x="500" d=" M464.3 350.9C476.3 365.9 483.4 384.7 483.4 405.3C483.4 453.9 443.1 493.6 393.6 493.6C370.4000000000001 493.6 349.2000000000001 484.8 333.3 470.5C307.4000000000001 480.1 279.2 485.4 249.9 485.4C119.5 485.4 13.9 381.9 13.9 254.2C13.9 218.1 22.3 184.1 37.4 153.7000000000001C23.1 138.0000000000001 14.3 117.3000000000001 14.3 94.8000000000001C14.3 46.1000000000001 54.6 6.5000000000001 104.1 6.5000000000001C130.8 6.5000000000001 154.7 18.0000000000001 171.1 36.3000000000001C195.7 27.8000000000001 222.2 23.0000000000001 249.8 23.0000000000001C380.2000000000001 23.0000000000001 485.8 126.6 485.8 254.2000000000001C486 288.7 478.2 321.5 464.3 350.9zM104.2 32.1C69.1 32.1 40.6 60.2000000000001 40.6 94.7000000000001C40.6 107.6 44.6 119.5000000000001 51.4 129.5000000000001C74.4 94.3000000000001 106.8 65.7000000000001 145.3 47.0000000000001C134.2 37.7 119.9 32.1 104.2 32.1zM450.2 376.6C428.2 411 397.2 439.4 360.4 458.5C370 464.5 381.5 467.9 393.7 467.9C428.8 467.9 457.3 439.9 457.3 405.4C457.2 395 454.7 385.2 450.2 376.6z" />
    <glyph glyph-name="icons_woksmart"
      unicode="&#xE017;"
      horiz-adv-x="500" d=" M293.4 189.8C293.4 199.5 290.9 206.9 285.7 211.9C280.5 217.1 273.4 219.5000000000001 264.2 219.5000000000001C255 219.5000000000001 247.7 217.0000000000001 242.7 211.8000000000001C237.5 206.7000000000001 235 199.1000000000001 235 189.2000000000001L235 150.9L250.3 150.9L250.3 166.7000000000001L278.1 166.7000000000001L278.1 150.9L293.4000000000001 150.9L293.4 189.8zM278 180H250V189.6C250 195 251.4 199.1 253.8 201.8C256.2 204.7 259.7 206.1 264.1 206.1C268.5 206.1 271.8 204.6 274.3 201.6C276.8 198.6 278.1 194.5 278.1 189.1V180zM311.2 334.9C300.8 344.8 288 349.8 272.8 349.8C257.7 349.8 244.9 344.8 234.5 334.9C224.1 325 219 312.6 219 297.8C219 283 224.1 270.7000000000001 234.5 260.7000000000001C244.9 250.8 257.7 245.8 272.8 245.8C288 245.8 300.8 250.8 311.2 260.7000000000001C321.6 270.6 326.8 283 326.8 297.8C326.8 312.7 321.6 325 311.2 334.9zM294.7 274.9C288.8 268.7000000000001 281.6 265.5 273 265.5C264.4 265.5 257.1 268.6 251.2 274.9C245.4 281.1 242.4 288.8 242.4 297.8C242.4 306.8 245.3 314.4 251.2 320.8C257.1 327.1 264.3 330.2000000000001 273 330.2000000000001C281.5 330.2000000000001 288.7 327.1 294.7 320.8C300.5 314.4 303.5 306.7000000000001 303.5 297.8C303.5 288.8 300.5 281.2 294.7 274.9zM352.5 174.9C361.3 178.1 365.6 185 365.6 195.7C365.6 203.5 363.3 209.2 358.7000000000001 212.7C354.2000000000001 216.2 346.6 218 336.0000000000001 218H310.0000000000001V151H325.0000000000001V172H335.8000000000001L351.0000000000001 151H369.8000000000001L352.5 174.9zM347.1 187.6C345.2000000000001 185.9 341.7000000000001 185 336.4000000000001 185H325V205H336.8C341.7 205 345.2 204.4 347.1 203C349.1 201.7 350 199.2 350 195.6C350 192 349.1 189.3 347.1 187.6zM92.1 347L112.3 289.1L130.5 347H154.5L172.6 289.1L193.1 347H218L182 247H165L142.5 317L120.3 247H103.2L67.3 347H92.1zM110.6 174.7C108.8 175.9 105.6 177.1 100.5 178.3C92.5 180.2 86.7 182.6 83 185.6C79.3 188.5 77.5 193.3 77.5 199.6C77.5 205.9 79.8 210.9 84.5 214.3C89.2 217.7 94.9 219.5 102 219.5C106.5 219.5 111.1 218.7 115.7 217.2C120.4 215.7 124.3 213.5 127.7 210.6L119.9 199.7C114 204 107.9 206.3 101.5 206.3C99 206.3 97 205.8 95.5 204.5C94 203.4 93.3 201.8 93.3 199.8C93.3 197.8 94.2 196.3 96 195.2C97.8 194 101.9 192.6 108.4 191.1C114.9 189.6 119.9 187.2 123.6 184C127.2 180.8 128.9 176.3 128.9 170.3C128.9 164.3 126.6 159.4 122 155.6999999999999C117.3 151.8999999999999 111.4 150 103.8 150C92.9 150 83.2 153.8999999999999 74.5 161.8L83.6 172.8C91 166.4 97.7 163.3 104.1 163.3C106.9 163.3 109.1 163.8 110.7 165C112.4 166.1999999999999 113.1 167.8 113.1 169.8C113 172 112.2 173.6 110.6 174.7zM218 151H203V193.1L184.7 156H175.6L157 193.1V151H142V218H162.6L180.2 181.1L198 218H218V151zM428 205H409V151H394V205H374V218H428V205zM411.3 276.3C420.8 263.2000000000001 427.9000000000001 253 432.6 247H405.8L375.5 286.7L365 275.4V247H343V347H365V306.2L404.3 347H432.7L391.8 302.8C395.4 298 401.9 289.4 411.3 276.3z" />
    <glyph glyph-name="icons_youtube"
      unicode="&#xE018;"
      horiz-adv-x="500" d=" M487.3 345.3C487.3 345.3 482.6 378.2000000000001 468 392.6C449.6 411.6 428.9 411.7000000000001 419.5 412.8C351.7 417.6 250 417.6 250 417.6H249.8C249.8 417.6 148.1 417.6 80.3 412.8C70.8 411.7000000000001 50.2 411.6 31.8 392.6C17.3 378.1 12.6 345.3 12.6 345.3S7.8 306.7000000000001 7.8 268.1V232C7.8 193.4 12.6 154.8 12.6 154.8S17.3 121.9 31.8 107.5C50.2 88.5 74.4 89.1 85.2 87.1C124 83.4 249.9 82.3 249.9 82.3S351.7 82.4 419.5 87.3C429 88.4 449.6 88.5 468 107.5C482.5 122 487.3 154.8 487.3 154.8S492.1 193.4 492.1 232V268.2C492.2 306.7 487.3 345.3 487.3 345.3zM200 188.2L200 322.2L330.9 255L200 188.2z" />
    <glyph glyph-name="icons_full_star"
      unicode="&#xE019;"
      horiz-adv-x="500" d=" M250 484.8L219.5 399L187.9 310H105.3H8.8L85.9 251.8L154.5 200L129.4 107.2L104.6 15.3L180.3 73.1L250.1 126.4L319.9000000000001 73.1L395.6 15.3L370.8 107.1999999999999L345.6 200L414.2000000000001 251.8L491.3000000000001 310H394.8000000000001H312.2000000000001L280.6 399L250 484.8L250 484.8z" />
    <glyph glyph-name="icons_down"
      unicode="&#xE01A;"
      horiz-adv-x="500" d=" M20.5 363.7C6.5 349.7 6.5 327 20.5 313.2L224.5 113.4C238.7 99.4 261.5 99.4 275.5 113.4L479.4 313.2C493.6 327.1 493.5 349.8 479.4 363.7C465.4 377.7 442.5 377.7 428.4 363.7L250 199.8L71.6 363.7C57.5 377.6 34.8 377.6 20.5 363.7z" />
    <glyph glyph-name="icons_left"
      unicode="&#xE01B;"
      horiz-adv-x="500" d=" M363.7 479.5C349.7 493.5 327 493.5 313.2 479.5L113.4 275.5C99.4 261.3 99.4 238.5 113.4 224.5L313.2 20.6C327.1 6.4 349.8 6.5 363.7 20.6C377.7 34.6 377.7 57.5 363.7 71.6L199.8 250L363.7 428.4C377.6 442.5 377.6 465.2 363.7 479.5z" />
    <glyph glyph-name="icons_right"
      unicode="&#xE01C;"
      horiz-adv-x="500" d=" M136.3 20.5C150.3 6.5 173 6.5 186.8 20.5L386.6 224.5C400.6 238.7 400.6 261.5 386.6 275.5L186.9 479.4C173 493.6 150.3 493.5 136.4 479.4C122.4 465.4 122.4 442.5 136.4 428.4L300.2 250L136.3 71.6C122.4 57.5 122.4 34.8 136.3 20.5z" />
    <glyph glyph-name="icons_up"
      unicode="&#xE01D;"
      horiz-adv-x="500" d=" M479.5 136.3C493.5 150.3 493.5 173 479.5 186.8L275.5 386.6C261.3 400.6 238.5 400.6 224.5 386.6L20.6 186.9C6.4 173 6.5 150.3 20.6 136.4C34.6 122.4 57.5 122.4 71.6 136.4L250 300.2L428.4 136.3C442.5 122.4 465.2 122.4 479.5 136.3z" />
    <glyph glyph-name="check"
      unicode="&#xE01E;"
      horiz-adv-x="500" d=" M486.6 412.1C475.4 423.1 457.1 423.1 445.9000000000001 412.1L156 126.6C144.8 115.6 144.8 97.8 156 86.8C167.2 75.8 185.5 75.8 196.7 86.8L486.6 372.2C497.8 383.2 497.8 401.1 486.6 412.1z M196.5 126.8L54.1 266.1C42.9 277.1 24.6 277.1 13.4 266.1C2.2 255.1 2.2 237.3 13.4 226.3L155.8 86.9C167 75.9 185.3 75.9 196.5 86.9C207.8 97.9 207.8 115.8 196.5 126.8z" />
    <glyph glyph-name="x"
      unicode="&#xE01F;"
      horiz-adv-x="500" d=" M319.3 250L464.7 395.4C484.7 415.4 486 446.2 466.2 466C446.4000000000001 485.8 415.4000000000001 484.5 395.6 464.5L250.1 319.2L104.5 464.8C84.7 484.6 53.3 485.6 33.4 465.8C13.6 445.8 14.6 414.5 34.4 394.7000000000001L180 249.1L35.2 104.5C15.2 84.5 13.9 53.7 33.7 33.9C53.5 14.1 84.6 15.4 104.4 35.1999999999999L249.1 179.8999999999999L394.5 34.4999999999999C414.5 14.4999999999999 445.7 13.5999999999999 465.6 33.4999999999999C485.6 53.4999999999999 484.6 84.6999999999999 464.6 104.5999999999999L319.3 250z" />
    <glyph glyph-name="play"
      unicode="&#xE020;"
      horiz-adv-x="500" d=" M250 78L250 78C244.9 78 125.2 79.2 87.2 82.8L86.6 82.9C85 83.2000000000001 82.9 83.4 80.5 83.7000000000001C68 85.2000000000001 47.2 87.7000000000001 30.6 104.8000000000001C15 120.4 10 153.7 9.8 155.1L9.8 155.2000000000001C9.8 155.6 5 194.1 5 232.2000000000001V267.9000000000001C5 306 9.8 344.5 9.8 344.9000000000001L9.8 345C10 346.4000000000001 14.9 379.7000000000001 30.5 395.3C48.5 413.9000000000001 68.5 415.8 79.2 416.8C80.3 416.9000000000001 81.2 417 82.1 417.1L82.4 417.1C148.6 421.8 248.8 421.9000000000001 249.8 421.9000000000001H250C251 421.9000000000001 351.1 421.8 417.4 417.1L417.7 417.1C418.6 417 419.5 416.9000000000001 420.6 416.8C431.3 415.8 451.3 413.9000000000001 469.3 395.3C484.9 379.7000000000001 489.9 346.4000000000001 490.1 345L490.1 344.9000000000001C490.1 344.5 494.9 306 494.9 267.9000000000001V232.2000000000001C494.9 194.1 490.1 155.6 490.1 155.2000000000001L490.1 155.1C489.9 153.7000000000001 484.9999999999999 120.4 469.3 104.8C451.3 86.2 431.3 84.3 420.6 83.3C419.5 83.2 418.5 83.1 417.7 83L417.4 83C351.3 78.2 251 78 250 78L250 78zM88.7 95.6C126.3 92.1 247.5 91 250.1 90.9C252.5000000000001 90.9 351.2000000000001 91.1 416.5 95.8C417.4 95.9 418.4 96 419.6 96.1C429.3 97 445.6 98.6 460.3 113.8L460.4 113.9C470.9 124.3 476.3 148.4 477.5000000000001 156.9C477.7 158.5000000000001 482.2 195.7000000000001 482.2 232.2000000000001V267.9000000000001C482.2 304.4000000000001 477.7 341.5 477.5000000000001 343.2000000000001C476.3000000000001 351.7000000000001 470.8000000000001 375.8000000000001 460.4 386.2000000000001L460.3 386.3000000000001C445.6 401.5000000000001 429.3 403.1 419.6 404.0000000000001C418.5 404.1 417.5 404.2000000000001 416.6 404.3000000000001C350.8 409.0000000000001 251.3 409.0000000000001 250.3 409.0000000000001H250.1C249.1 409.0000000000001 149.6 408.9000000000001 83.8 404.3000000000001C82.9 404.2000000000001 81.9 404.1 80.8 404.0000000000001C71.1 403.1 54.8 401.5000000000001 40.1 386.3000000000001L40 386.2000000000001C29.5 375.8000000000001 24.1 351.7000000000001 22.9 343.2000000000001C22.7 341.6 18.2 304.5000000000001 18.2 267.9000000000001V232.2000000000001C18.2 195.6 22.7 158.6 22.9 156.9C24.1 148.4 29.6 124.3 40 113.9L40.1 113.8C53.6 99.9 70.9 97.9 82.3 96.5C84.5 96.2 86.7 95.9 88.7 95.6zM200.7 189L329.6 254.9L200.7 321.3L200.7 189z" />
    <glyph glyph-name="burger"
      unicode="&#xE021;"
      horiz-adv-x="500" d=" M26.3 356.6H473.6C485.4 356.6 494.9 366.1 494.9 377.9S485.4 399.2 473.6 399.2H26.3C14.5 399.3 5 389.7 5 378S14.5 356.6 26.3 356.6zM473.7 271.3H26.3C14.5 271.3 5 261.8 5 250S14.5 228.7 26.3 228.7H473.6C485.4 228.7 494.9 238.2 494.9 250S485.5 271.3 473.7 271.3zM473.7 143.4H26.3C14.5 143.4 5 133.8 5 122S14.5 100.7 26.3 100.7H473.6C485.4 100.7 494.9 110.2 494.9 122S485.5 143.4 473.7 143.4z" />
    <glyph glyph-name="salad_wrap_icon"
      unicode="&#xE022;"
      horiz-adv-x="500" d=" M416 67.8C394.8 71.3 352.3 73.5 352.3 101.8C351.6 142.1 368.6 208.6 411.7 205.8C454.9 203 482.4 157 484.6 140C486.7 123.7 454.2 79.2 415.3 85.5C376.4000000000001 91.2 384.2 143.5 392 151.3C399.1 158.4 419.6 167.6 429.5 153.4C436.6 143.5000000000001 440.1 131.5000000000001 434.5 124.4C432.4 129.4 427.4 132.2000000000001 421.8 132.2000000000001C414 132.2000000000001 407.7 125.8000000000001 407.7 118.1C407.7 110.3 414.1 104 421.8 104C424.6 104 426.8 104.7 428.9000000000001 106.1C428.9000000000001 106.1 457.9 113.2000000000001 457.9 132.3C457.9 151.4 414.0000000000001 189.6 389.3000000000001 166.3C364.5000000000001 143 370.2000000000001 78.6 415.5000000000001 80C460.8000000000001 81.4 512.4000000000001 107.6 497.6 144.4C487 171.3 459.4 210.9 426.2000000000001 219.4C419.8000000000001 220.8 412.8000000000001 221.5 405.7000000000001 220.8C401.3000000000001 220.9 396.7000000000001 219.5 392.0000000000001 217.1C409.5000000000001 244.1 416.6000000000001 271.8 419.8000000000001 287.3C420.5000000000001 293.7 415.6000000000001 299.3 408.5000000000001 299.3H363.9000000000001C361.1 299.3 358.9000000000001 302.8 360.4000000000001 305.7C384.9 348 386.3 406.7 386.3 430C386.3 435.7 382.1 440.6 376.4000000000001 440.6C351.6 442 285.1 440.6 226.4000000000001 395.3C194.6 370.5 178.3000000000001 333.8 169.8000000000001 299.8H162.7000000000001H6.5C2.3 299.8 -0.6 296.3 0.1 292C2.9 273.6 13.5 226.9 49.6 190.8C89.2 151.2 131.7 137.7 143 134.2C144.4 133.5 145.8 132.1 145.8 130V103.1C145.8 97.4 150.8 92.5 156.4 92.5H163.5H264C270.4 92.5 274.6 97.5 274.6 103.1V125C274.6 130 277.4000000000001 134.2 282.4000000000001 135.6C286.7000000000001 137 292.6 139.1 299.6 142.1C300 140.6 300.8 139.8 300.8 139.8L343.2 78.3C343.2 77.6 343.9 77.6 343.9 76.9C347.4 71.9 351.7 68.4 357.3 67.0000000000001C473.9999999999999 39.4 502.9999999999999 91.1000000000001 498.8 94.6000000000001C495.3 96.8 451.4 62.2 416 67.8zM237.1 387.6C288 427.2 346.7 427.2 365.1 425.8C368.6 425.8 371.5 423 371.5 419.4C372.2 398.9 370.8 329.6 335.4 293.5C297.9 256 258.3 235.5 199.6 230.5C196.1 230.5 193.9 234.7 196.1 237.6L305.7 347.2000000000001C309.2 350.7000000000001 309.2 356.4 305.7 359.9C302.2 363.4 296.5 363.4 293 359.9L183.3 249.6C180.5 246.8 176.2 248.9 176.2 253.1C179.8 287.8 193.2 353.6 237.1 387.6zM264.7 143.5C261.9 142.8 260.5 140.7 260.5 137.8V113C260.5 109.5 257.7 107.3 254.1 107.3H165.7C162.2 107.3 159.3 110.1 159.3 113V139.2C159.3 141.3 157.9 142.7 156.5 142.7C145.9 145.5 109.8 159 73 190.8C38.3 221.2 21.4 261.5 18.5 277.1C17.8 280.6 20.6 283.5 24.2 283.5H162.8H166.3C161.3 255.9000000000001 160.6 231.9000000000001 160.6 221.3C160.6 217.8 163.4 214.9 167.7 214.9C250.5 215.6 293.6 233.3 343.1 282.8000000000001C343.8 283.5 343.8 283.5 344.5 284.2000000000001H391.2C394.7 284.2000000000001 397.5999999999999 281.4000000000001 397.5999999999999 277.8000000000001C394.7999999999999 261.5 390.4999999999999 227.6 346.7 190.8000000000001C310.6 161.2 276.7 147.1 264.7 143.5z" />
    <glyph glyph-name="icons_boba"
      unicode="&#xE023;"
      horiz-adv-x="500" d=" M363.8 396.5C357.6 397.2 352.1 392.5 351.4000000000001 386.5L313.2000000000001 22.5H186.8L149.9 374.1H319.8C326 374.1 331.1 379.2000000000001 331.1 385.4000000000001C331.1 391.6 326 396.7000000000001 319.8 396.7000000000001H137.4C134.2 396.7000000000001 131.2 395.3 129 393C126.9 390.6 125.8 387.5 126.2 384.3L165.5 10.2C166.1 4.5 170.9 0.1 176.7 0.1H323.3C329.1 0.1 333.9 4.4 334.5 10.2L373.8 384.3C374.4 390.3 370 395.9 363.8 396.5zM134.3 387.5C133.9 387 133.7 386.4 133.7 385.8C133.7 386.4 134 387 134.3 387.5zM172.9 10.9C173.1 9 174.7 7.5 176.6 7.5C174.8 7.5 173.2 8.9 172.9 10.9zM323.3 7.5C325.2 7.5 326.8 8.9 327 10.9C326.9 8.9 325.3 7.5 323.3 7.5zM366.3 385C366.4000000000001 386.3 365.9000000000001 387.5 365 388.3C365.9 387.4 366.5 386.2 366.3 385z M235 59.7C246.7 59.7 256.3 69.2 256.3 80.9C256.3 92.6 246.8 102.2 235 102.2C223.3 102.2 213.7 92.7 213.7 80.9C213.8 69.2 223.3 59.7 235 59.7z M261.3 148.4C261.3 136.7 270.8 127.1 282.6 127.1C294.3 127.1 303.9000000000001 136.6 303.9000000000001 148.4C303.9000000000001 160.1 294.3 169.7 282.6 169.7C270.8 169.7 261.3 160.1 261.3 148.4z M220 207.3C231.7 207.3 241.3 216.9 241.3 228.6C241.3 240.3 231.7 249.9000000000001 220 249.9000000000001C208.3 249.9000000000001 198.8 240.4000000000001 198.8 228.6C198.8 216.8 208.3 207.3 220 207.3z M311.3 284.8C311.3 296.5 301.8 306.1 290 306.1C278.3 306.1 268.7 296.5 268.7 284.8C268.7 273.1 278.2 263.5 290 263.5C301.8 263.6 311.3 273.1 311.3 284.8z M222.5 301C234.2 301 243.8 310.5 243.8 322.3C243.8 334 234.3 343.6 222.5 343.6C210.8 343.6 201.2 334.1 201.2 322.3C201.3 310.6 210.8 301 222.5 301z M250 411.5C256.2 411.5 261.2 416.6 261.2 422.8V477.5H307.5C313.7 477.5 318.8 482.5 318.8 488.8C318.8 495 313.8 500.1 307.5 500.1H250C243.8 500.1 238.7 495.1 238.7 488.8V422.8C238.8 416.5 243.8 411.5 250 411.5z" />
  </font>
</defs>
</svg>
