<?xml version="1.0" standalone="no"?>
<!DOCTYPE svg PUBLIC "-//W3C//DTD SVG 1.1//EN" "http://www.w3.org/Graphics/SVG/1.1/DTD/svg11.dtd" >
<svg xmlns="http://www.w3.org/2000/svg">
<metadata></metadata>
<defs>
<font id="evelethshadow" horiz-adv-x="1697" >
<font-face units-per-em="2048" ascent="1638" descent="-410" />
<missing-glyph horiz-adv-x="575" />
<glyph horiz-adv-x="2048" />
<glyph horiz-adv-x="2048" />
<glyph unicode="&#xd;" horiz-adv-x="2048" />
<glyph unicode=" "  horiz-adv-x="575" />
<glyph unicode="&#x09;" horiz-adv-x="575" />
<glyph unicode="&#xa0;" horiz-adv-x="575" />
<glyph unicode="!" horiz-adv-x="661" d="M639 1184l-12 6l2 -12l10 -4l-2 -13l6 -28l-8 -23l2 -78l-4 -22l-10 -17l6 -22l-2 -43l-19 -4l15 -21v-16l-23 -8l6 -13l10 -6l-2 -76l-6 -24l-12 -17l12 -26l-8 -21l-4 -47l-10 -20l8 -27l-27 -45l8 4h15l2 -14l-4 -25l-19 -43l-22 6l-6 -10h-17l-10 8l-16 33l26 39 l17 47l-4 66l8 14v70l10 63v53l12 23l-12 22l6 27l8 10l-6 17l6 22l9 121l12 33l-8 24l2 13l10 16l-6 25v22l12 33l-6 27l10 34v54l8 10l-6 24l6 25l17 2l6 6l4 15l10 -7l4 -10l15 -6l-6 -92l4 -37l-13 -23v-43l-4 -24l-18 -4l16 -27l2 -10l-4 -12zM655 195l7 12l26 -29 l10 -6v-113l-8 -8l-4 -12l-14 -2l-2 -12l10 -31l-31 -33l-10 -22l-12 14l-9 -4l-2 -37l-96 -53l-16 14l-21 6l-12 -2l4 -10l8 -6l4 -11h-73l-21 7l-8 6l6 12l8 37l15 -2l24 -21l11 -4l6 11l-2 22h28l23 8l18 13l23 22l24 -8l9 8l-5 10v17l35 37l13 22l6 39l18 18l-2 46z M350 -113l4 13l19 -4l4 -33l-10 -2l-19 12zM627 -20l12 4l-4 14l-19 14l-4 -12l4 -14zM653 82l4 -12l13 4l10 22l-12 2l-11 -6zM590 1063l4 -14l24 8l-8 12l-12 2zM553 -94l2 -10l10 4l4 22l-12 -4zM549 530l-8 -10l12 -4l14 4l-8 12zM612 1358l11 -10l6 8v10l-11 4z M578 829v-14l10 2l6 6zM567 772l-4 -6l10 -8l5 16zM670 145l10 -4l-4 13h-10zM563 721v-8h10zM649 43v-6h8v6h-8z" />
<glyph unicode="&#x22;" horiz-adv-x="1058" d="M1059 1475l24 -31l-8 -21l4 -47l-8 -6l-22 2l24 -26l2 -13l-8 -39l2 -12l-10 -4l-6 -8v-13l12 -16l-10 -20l4 -78l-10 -17l-35 -6l-15 -16l7 -10l10 -7l20 -4l11 2l2 -10l-11 -35l-10 7l-4 12l-12 -8l-4 -15l10 -6h12l12 -6l5 -6l-23 -43l2 -10l16 -17l-10 -28l-8 -9 l8 -22l-2 -23h-10l-16 21l-11 6l2 -14l13 -21l22 -10l-12 -47l-12 -19l-9 -6l-30 -2l-11 -4l-8 2l8 41l-2 12l-14 -20l-18 -14l4 -19l-25 4l-39 -2l-10 -6l-12 2l-6 8l-21 -10l-25 2l-22 10l-14 15l4 12l14 14l23 4l81 -4l58 6l35 33l18 29l-10 22l4 11l18 8l-20 45l-2 12 l10 21l2 22l-6 37l12 31v59l19 12l-8 29l8 27l-2 35l-6 10l8 12l-4 23l8 133l31 41zM530 1073l5 8l10 -8l16 -49l-4 -10l-10 -8v-15l22 -16l-10 -25l-2 -22l-18 -31l-11 2l-4 6l-12 2l-6 -20l6 -43l27 35l12 -2v-11l-6 -12l6 -10l-6 -13l-10 -6l6 -12l-2 -12l-23 -33l-33 8 l15 41l22 -4l-6 12l-27 9l-8 10l6 8l15 72l8 6l-8 10l4 23l8 10l-8 22l10 45l-6 31zM457 819l6 12h12l4 -10l-18 -43l-8 -6l-9 2v8l-26 -2l-8 -8l-25 6l-18 -10l-37 -2l-43 16v15l-4 8l18 20l12 -6l47 8l13 -2l12 -8l-4 -12l2 -10l12 -17l15 17l4 10l14 -4l23 8zM553 1098 l-10 -13l-17 11h-14l4 14l8 8l23 -4l6 -6v-10zM983 823l-6 -10l8 -10l14 -2l9 24l-13 2zM520 1147l8 10l11 -4l-9 -18l-10 -5v17zM1034 1153l-4 -10l12 4l7 6h-15zM508 795v-9h8v9h-8zM1020 1278l6 4l-10 4z" />
<glyph unicode="#" horiz-adv-x="1609" d="M1540 541l2 -15h-22l8 -12l14 -49l8 -10l-4 -49l4 -13l-12 -4l-6 -10l4 -27l10 -8l-12 -22l6 -11l4 -49l-8 -24l-16 -15l-15 4l-39 -12v12l-8 11l-28 -27l-41 2l-13 6l-26 -10l-31 10l-23 -8l-26 -23l2 -26l-8 -37l-17 -14l-2 -68l6 -29l-30 -2l12 -16l8 -21l-4 -24 l-23 6l-8 -6l4 -10l11 -7l4 -14l-19 4v-16l-4 -12l-8 -9l-27 4l-22 11l-10 -6l-5 -13l-10 4l-8 19l-8 8l-6 -10l-2 -25l-105 4l-20 8l-23 -6h-22l-23 6l-8 33l8 8l23 9l22 -4v-13l8 -10l37 -16l4 16l-26 8l-8 8l2 13h49l22 -6l54 6l22 -6l23 6l18 10l27 24l-4 27l26 31 l-6 12l-12 6l4 10l22 9v8l-16 14l8 76l10 18l-4 13l17 30l18 -4v9l-14 18l6 8l22 10l25 2l21 -6l8 -8l10 6l51 6h35v-26l10 -4h17l-4 26l47 4l12 4l4 101l12 16l-12 19l-6 22l2 27l10 35l8 8l-4 8l-10 2v14l4 11l16 14l19 -4zM356 -106l-8 8l6 24l21 15l12 -4l6 -9l10 -4 l5 13l10 -3l37 7l20 -9l47 7l25 -2l8 -5l68 27l8 59l-4 13l20 14l-8 27l27 39l-9 10l-2 22l7 21v24l10 7h12l12 6l-20 14l16 43l17 12h12l16 -6l-8 -26l10 -23l-6 -27l-6 -8l-12 -6l6 -24l-2 -9l-12 -4l8 -49l-13 -6l-18 2l18 -12l5 -11l-2 -16l-9 -6l11 -21l-23 -10l14 -22 l-4 -13l-22 -10l12 -35l-12 -6l-19 -35l-26 -4l-27 8l-10 -6l-25 -4l-49 4l-10 -2l-27 15l-26 -7l-15 13l-12 2l-4 -8l2 -11h-57zM1585 1044l2 15l58 -8l2 -78l-5 -23l-16 -35l19 -30v-15h-23l4 -12l19 -14l-3 -17l-6 -8l-41 -20l-14 2l-25 -6l-8 10l-26 2l-11 10l-6 -6 l-2 -12l-6 -8l-20 6h-54l-32 -17l-7 -8l-16 6l-8 -10v-16l-33 8l6 12l25 27l-4 10h-15l-16 -12l-8 2l26 41l17 12l22 6h15l18 -8h115l41 16l18 13l8 10l-2 16l-6 10l17 23l-15 45l-6 49zM1485 1462l8 -6l-4 -10v-49l-6 -25h-17l9 -22l-37 -7l-17 9l-6 8l-2 24l4 15l23 -4v12 h-19l4 27l19 36l31 -2zM842 803l-11 -12l-18 8l-8 -11l12 -36l-12 -2l-23 6l-18 12l4 14l23 17l-3 12l-8 4l-2 12l19 21l12 2l22 -6l15 -19zM891 1458l8 6l21 -6l22 6l-2 -26l4 -23l-10 2l-12 17l-13 -7l-6 -12l4 -12l11 -4l-7 -15l-12 -8l8 -8l21 10l10 -2l-14 -20l-23 -4 l-10 6l-14 22h12l6 4l-27 19l6 8l11 37zM1610 1145l12 -2l-4 -15l24 -43l3 -14l-13 4l-6 10l-8 -14l-25 6l-10 13l16 32v17zM1501 457v-11l25 -8l12 4l-2 13l-8 6l-23 4zM1597 823l2 -10l11 4l8 23l-14 4l-7 -10v-11zM1612 1010l-13 -4l7 -13h10l6 8zM1569 840v-13h14v15 l-10 6zM1511 428l-6 -8l11 -14l4 14zM1198 -4l4 -4h8l-4 8zM1149 -72v-8h8v8h-8z" />
<glyph unicode="$" horiz-adv-x="1230" d="M1227 508l2 14l12 -20l19 -21l-3 -24l15 -51l-8 -21l4 -23l-13 -57l-10 -14l-12 -6h-10l8 -23v-12l-10 -25l-19 -18l-22 -10v-27l-70 -68l-25 -10l-14 -2l-43 -29l-10 2l-45 -24l-12 2l-25 -14l-14 -19l-15 -49l6 -76l-6 -22l-20 -15l-51 -16l-45 8l-107 -8l-22 12 l-11 -6l-22 -2l-35 10l-6 23l-8 4l-13 -2l-8 -21l-6 9v8l14 16l27 10h31l6 -10l2 -14l6 -10l8 6l12 20l9 6l14 2l-6 -8l2 -8l20 -2l70 23l12 -2l6 -23l27 27l21 -11l6 -8l12 19l-2 39l6 8l14 6l-12 8l4 23l-8 45v26l27 31l4 -10l-6 -23l2 -10l12 2l10 20l-2 25l86 43l39 8 l10 23l23 10l49 33l4 22l21 15l38 61l17 19l-4 22l8 4l10 19l6 77l6 23l9 6l-6 6l-3 13l5 10zM1198 1053l4 10l25 -10l10 -19l8 -49l-8 -65l-31 -17l-18 8l-129 -8l-10 4l-5 8l-18 -8l-16 13l-23 -17l-14 2l-23 13l-10 18v10l16 19l39 -2l47 4l43 -2l9 -17l22 10l25 5l24 10 l13 -4l18 -17l10 6l4 15l-22 6l6 10l2 33l12 -6l6 -10l7 8l2 14l-6 8l-21 8zM1120 948l-8 -6l23 -22l12 22zM874 1507l5 13l18 -4l-2 -13l-8 -8l-13 -2v14zM1145 213l2 -16l14 4l-22 30l-2 -12zM1014 92l8 -4l4 6v12h-12v-14zM1192 260v-14l12 2v10zM1124 166l-4 -14l10 2 l5 8zM1241 397v-12h10l-2 8zM1233 420v-8h8v8h-8z" />
<glyph unicode="%" horiz-adv-x="2234" d="M1999 1460l14 2l-22 -43l-25 -28l-24 2l-9 -7l11 -24l-7 -25l-22 -22l-8 -25l-17 -4l-4 8l4 15l-10 -4l-4 -27l4 -12l-10 -6l-17 -19l-8 -27l-28 -8l2 -26l-11 -19l-12 -4l-6 27h-14l-9 -4l11 -25l8 -10l-35 -64l-12 2l-21 13l-12 -4l6 -11l21 -14l-15 -18l-22 -41 l-19 -15l-12 -2l4 -24l-41 -41l-2 -11h-16l-11 -6l-14 -16l-26 6l-15 16l4 9l11 6l4 24l10 23l63 78l17 35l22 6l2 16l21 33l10 -8l6 -15l6 -4l11 8l2 11l-15 43l8 6l21 -2l-4 30l76 95l20 14l2 27l6 8l21 6l6 -25l6 -8l14 4l7 8l-3 15l-8 8l-22 10l12 23l12 2l11 -6l8 32 l18 13l2 24l6 11l9 4h14l16 -15zM954 6l11 8l-11 6l-39 3l11 18l-2 22h37l10 -43l-2 -24l-19 -16l-12 -21h-27l7 -8l10 -4l-6 -10l-25 -9l-8 -8v-26l-10 -5h-25l-47 17l-12 -23l-54 -4l-22 10l-39 -6l-25 6l-20 -8l-49 -2l-74 15l-16 18l-11 -4v-21l-10 2l-6 7l-4 24l12 6 h41l19 -14l4 -10l12 10l10 -4l12 -19l9 7l-4 24l10 2l6 8l2 13l16 -4l35 4l13 -6l-11 -9h27l4 -18l16 27l11 6l26 -6h27l72 14l6 10l22 12l27 9l-19 6l35 47l6 -8v-9l19 -16zM2261 342l-6 -10l8 6l2 12l12 2v-78l-4 -24l-18 6l-17 -18l-4 -23l15 2l20 21l12 4l-32 -119 l-29 -47l-22 26l-31 4v25l35 68v24l10 15l-2 14l10 31l8 4h13l18 -11l2 11l-8 8l-37 14l12 29l-4 14l27 2v17l-6 10l-25 8v19l35 16l8 -10l6 -25v-22zM1962 -57l12 8l11 -4l16 -15l-2 13l10 20l53 41l6 12h23l10 7l4 10l-2 10l11 -4l6 -23l6 -8l37 25l-6 41l20 12l25 6 l-2 -16l-17 -19l8 -4l11 8l4 9l6 -11l-4 -12l-10 -10l-23 -4l-4 -10l4 -21l-12 -4l-27 4l12 -27l-8 -10l-12 -4l-25 6l8 23l-8 8l-10 -8l-2 -23l4 -28l-4 -13h-14l-31 -12l-4 -22l-12 4l-23 -2l-68 -33v16l7 12l10 7l18 -9l15 19v29l-15 -5l-14 5l-2 -13l4 -10l-2 -8l-18 14 l-5 12l15 2zM1143 279l8 2l-4 -25l-8 -12l-11 -6l-2 -27l-4 -8l-10 -6l-20 2l-9 -9l-6 -18l4 -16l-26 2l2 -17l-8 -37l-19 -10l-4 10v17l-10 6l-25 4l-8 6l-2 15l23 -9l6 9l-4 10l-11 4l11 27l38 -5v-18l9 6l10 21l-8 6l-11 -6l-8 10l-2 12l21 35l26 -8l4 -13l-10 -6l6 -10 l27 -2l-4 14v25l8 10l-22 -6l-11 2l8 14l21 9zM1923 -80l10 -4l-10 -20l-43 -52l-22 17l-13 -6l-6 -9l-12 -6l-21 6l-43 4l-39 11l-6 22l-30 -4l12 19l24 6l35 -6l4 -27l23 6l20 27l11 6l10 -6h24l50 14zM680 676l6 12l31 -14l6 -8l-16 -31l-21 -10l-24 -7l-41 -2l-15 15 l-12 -4l-23 2l-10 -8l-10 8l-49 10l-10 8l24 21l25 8l22 -8l47 8h27v-12l6 -11zM1167 406l11 10l22 -8l6 -11l-2 -6l-12 2l4 -10l18 -12l-14 -45l-4 8l-18 6h-27l2 -12l18 -25l-2 -12l-12 6l-22 -10l2 16l-19 23l-2 14l14 -2l11 4l4 23l-6 14l8 6h14v-12l8 -6l11 4z M1051 1200l12 -6l4 -25l-6 -28l-25 -6l-6 26l10 37zM965 102l4 11l16 -2l10 -9v-22l11 -4l-9 -10l-2 -17l-14 4l2 17l-14 18l-13 6zM2212 117h12l2 12l-10 27h-14l-4 -23zM1649 1055l8 -13l12 5l19 -17l10 2l-25 27l-20 10zM582 653l-7 -10l35 -8l2 12l-6 8l-12 2zM2032 -51 l-4 -12h12l10 18l-10 2zM1808 1264l4 -9h15l-2 15l-13 4zM1624 1010l14 -4l2 8l-6 8l-12 2zM1620 954l-8 -6l8 -8l10 -2l4 18zM666 649l-4 -14l20 4l-4 10h-12zM614 -100l11 -6l4 16l-13 2zM2060 -29l-2 -12h10l5 10l-5 8zM2126 68l10 8l4 -13l-14 -6v11zM1962 1413l8 -10 l4 18zM2140 35l-6 14l14 -4zM915 -12v-11h11l6 9zM1034 133l6 -8l-4 18l-10 -4zM1606 989l10 -2v10h-12zM1798 1208l6 -6l2 8l-6 7zM2232 182v-12l9 6zM1022 174l-4 -8l12 16z" />
<glyph unicode="&#x26;" horiz-adv-x="1677" d="M1294 1200l2 14l7 -8l-3 -12h27l-12 -23l22 -6v-35l-22 -14l4 -12l22 -12l-2 -15l-16 -14l14 -45l-6 -8l-14 -54l-17 -14l3 -12l-46 -80l-16 -16l-20 -13l4 -16l-35 -23l-23 13l9 -21l-5 -12l-16 -14l-20 -9l-35 -6l-27 27l6 22l13 19l20 12l14 21l35 20l13 20l12 3l6 24 l10 10l23 -8l10 4l-14 31l4 10l26 25l4 12v16l23 9l-4 28l2 25l12 22v45l-6 33l4 27zM1094 -20l6 -11l-13 -4l-2 -22l-34 -17l-13 2l-10 9l-16 -21l-27 -12h-12l-8 6l-35 -27l-19 4l-67 -24l-62 -2l-20 -6l-45 -5l-55 3l-25 26l-10 4l-15 -4l4 -22l-73 14h-15l-14 23l21 10 l22 -2l21 -8l18 14l27 -2l10 -6l6 -11l10 5l4 10l13 2l4 -15l8 -10l12 -4l12 6l-8 27l13 6h12l43 -18h12l-6 8l18 22l15 -4l35 10l26 -2l41 23l45 16l49 11l9 10l22 10h37l20 -12zM1513 -61l11 -11l26 15l6 -9l5 -26l12 -2v26l20 7l33 -11l45 13l51 -2l23 -9l24 -22l5 -10 l-23 -15l-25 6l-20 -6l-74 -4l-4 10v17l-12 -2l-10 -21l-56 2l-32 11l-17 16l-10 -8l-4 -15l-8 -10l-23 8l2 23h27l2 16l6 11l10 4zM1315 -68l8 11l35 -11l22 11l6 -27l62 23l2 -13l-4 -14l2 -14l-27 -15l-10 4l-6 11l-10 4l-4 -23h-60l-47 8l16 19l-8 14l-16 -12l-10 4 l4 12l18 15zM598 500l14 2l9 -33l10 -8l-10 -23l-17 -18l-22 -10l-27 -2l-10 22v23l12 22l29 23zM1604 383l2 10h12l4 -26l-8 -13l18 -10l4 -12l-12 -6l-20 -31l-13 6l-14 16l-12 -6l-11 -20l-12 -2l-12 -8l-10 10v10l18 29v10l14 -2l9 -8l16 2l10 8l-12 18l2 13l18 -9l11 9 zM1706 459l6 10l21 -10l10 -29l-12 -2l-11 -16l-10 6l-2 12l-14 -2l-8 -8l2 -12l16 -15l4 -8l-22 -8l-9 -8l-6 -15l-10 4l-6 -6l-2 23l18 78h25zM758 1174l-2 -9h24l-14 -24l-2 -11l-23 13l-12 -4l-10 12v8l29 27l4 12h26l13 -18l-9 -13l-14 9l-8 8zM1679 -84l-4 -10l11 -6 l16 6l-6 18l-10 4zM1622 418l6 10l12 -16l11 -4l-29 -5v15zM791 -113l-9 -8l15 -8l6 6l2 10h-14zM1161 838l10 -2l5 10l-15 4v-12zM1376 -88l-4 -14h14l-2 10zM1573 283l6 8l8 -4v-6zM846 -88l-4 -6l8 -4l4 8zM791 1165h-11l2 2z" />
<glyph unicode="'" horiz-adv-x="581" d="M563 1473l17 -5l-9 -32l4 -13l23 -4l4 -45l-12 -18l-4 -103l-11 -22l7 -25l-7 -10l-12 23l-8 -11l25 -30l-15 -19l-10 -4l-14 -18l8 -7l18 -2v-79l-4 -25l-10 -16l10 -15l-6 -22l-2 -49l-10 -21l14 -18l-8 -9l-12 -4l-9 -14l23 -4l2 -12l-10 -23l4 -14l-23 -25l-22 -8 h-49l-23 10l-22 -10l-17 10l-43 -14l-24 -2l-23 6l-14 16l-4 13v16l14 14l12 -6l51 6l33 -6l11 6l6 -6l4 -20l10 6l8 20l39 2l10 7l17 96l8 110l22 -14l2 10l-12 21l-12 4l-2 22l8 23l2 23l-6 10l6 10l4 23l-2 28l19 13l4 10l-19 8v18l21 9l8 8l6 14l-6 8l-21 2l-6 23l11 45 l4 76l14 28zM557 1364l2 -12l10 4l13 20l-2 13h-13zM545 1094v-11h12v11h-12z" />
<glyph unicode="(" horiz-adv-x="888" d="M952 1663l11 -4v-31l-17 -31l-16 -12l-35 -10l4 -19l-31 -34l-12 -4l-10 -27l-23 -14v-23l-37 -31l-24 -43l-8 -24h-11l-18 -51l-31 -39l-12 -49l-10 -21l-8 -6v-25l-7 -24l-22 -43l-8 -6l6 -21l-15 2l-4 14l-26 -12l8 -10l22 -16v-15l-12 -18h-22l-6 -8l6 -9h22l8 -6 l-22 -100l-6 -72l-13 -37l-8 -10l10 -24v-13l-8 -24l-12 -19l10 -14v-12l-20 4l-10 -4l-15 37l8 10l2 22l-6 39l15 -2l8 -8l6 6l-2 21l-27 10v49l11 20l-3 35l5 11l10 4v-21l20 -4l11 4l-5 17l-20 12l-10 -2l-8 20l2 13l18 28l-8 23l10 22l2 29l6 12v29l8 20l11 4l-4 23 l38 119l23 39l14 16l7 27l10 22l26 39l11 23l18 2v24l8 25l25 6l10 6l-4 25l10 18l43 45l4 10l27 -4l6 25l23 37l14 2l29 20zM946 -242l12 -6l-6 -14l2 -12l13 -9l-13 -14l-6 23l-47 -5l6 -10h21l8 -10v-23l-35 -47l-29 2l-12 -6l12 -26l-28 -39l-23 -15l-14 -2v-24l-37 -19 l-2 -28l-4 -11l-16 -14l-11 -4l-24 2l-23 10l4 11l-8 20l2 10l12 21l43 41l19 -9l2 9l-6 10l8 24l49 54l10 20l25 8l4 25l10 23l17 18l30 18zM569 659l9 9l6 -54l-6 -49l4 -10l10 -8l-12 -23l12 -20l-12 -25l-11 -8v27l-8 10l17 16h-21l-10 19l-8 37l16 16v16l-20 33v10h12 l10 -14zM547 856l-8 -8v-23l24 11l15 2l-3 14l-6 6l-12 2zM807 -399l-6 -11l6 -6l35 2l-27 23zM629 1241l-2 -10l14 -14l6 6l2 22l-12 4zM840 1546l-6 -10l8 -6l18 10l4 12zM778 1513v-10l10 4l5 11l-13 4zM625 1174l-2 -11l10 -2l4 13h-12zM745 -483l-10 -6l8 -7l9 2z M569 678l4 16l5 -10zM883 -307l-15 -8h11zM887 -342l-4 -8l12 8h-8zM672 1337v-8h8v8h-8z" />
<glyph unicode=")" horiz-adv-x="888" d="M942 647l12 2l4 -14l-10 -23l6 -53l-18 -57h-23v-10l17 -17l12 -20v-11l-6 -14l-23 8l-12 -4l8 -18l27 8l-2 -45l-6 -25l-19 -28v-52l-4 -24l-8 -19l-14 -16l4 -22l-15 -31l5 -23l-9 -8l-24 -57l-10 -6l4 -23l-9 6l-10 21l-16 4v-13l26 -34v-11h-8l-14 17l-6 -8l-21 -13 l4 -10l31 -12l-2 -15l-8 -10l-21 -12l9 -23l-25 -2l-14 -14l-4 -12l4 -15l-11 -22l-6 -27l-16 -33l-8 7l-8 24l-11 -6l-4 -8l4 -51l-18 -15l-10 -22l-7 -27l-34 -31l-7 -12l-22 -10l-14 -18l-25 -58l-20 6l-13 -2l31 31l-6 10h-21l4 13l31 22l6 10l-2 13l-10 18l12 2l15 29 l8 -8l6 -27l6 -10l10 -4l7 6l-7 8l17 33v16l20 10l8 8l-10 5l-8 -7l-18 13l-13 -2v18l17 -2l10 -8l12 4l15 18l-15 17v14h23l8 14l-25 5l7 8h14l6 39l27 28l8 -6l26 -2v12h-22l-8 9v10l8 22l24 7l13 16l8 72l16 16l15 49l4 27l14 33l-4 22l23 41l22 98h12l-6 27l2 27l23 -5 v11l-10 20l4 12l8 5l6 10l-2 12l-14 10l14 47l6 70h14l11 6l2 19l-4 22l12 -4zM893 1094l12 -2v-25l13 -25l-9 -14l23 -37l-10 -22l16 -43l-2 -15l-14 -4v-14l6 -10l8 2l4 -15l-8 -12l12 -22l8 -27v-12l-10 -21l-10 -8l18 -14l8 -23l-4 -12l-24 10l-12 -6l6 -12l10 -9l14 -4 l6 -24l-4 -12l-20 18l-8 12l-9 -10l5 -35l-13 -4l-10 19l6 36l6 9l11 4l-15 12l-4 10l6 10l13 5l-5 10l-8 6l-4 10l14 14l3 25l-17 14l8 11h13l6 12l-33 16l-4 64l2 22l10 17l10 6l-10 24l-12 7l-8 84zM471 -393l14 -4l-6 -27l37 -18l10 10h13l-17 -19l-6 -14l-12 6l-29 -14 l-6 12l10 23l-12 6l-23 -55l13 -9l6 -10l-17 -24h-10l4 30l-12 -2l-2 -24l-20 -21l-7 -12l-39 18v41l13 6l39 41l14 2l16 29l23 16zM877 348l-9 -8l2 -14l7 -11l10 -6l8 6l10 23l-2 12l-8 8zM715 -145l14 -2l-12 36v13h-15l7 -39zM834 166l12 -8l14 4l-2 14l-8 8l-27 4z M852 229l8 -6l6 8l-4 21l-12 2zM858 272l6 -12l13 4l6 12l-15 5zM514 -344l6 10l10 -6l-2 -14l-12 -4zM604 -248v17l6 -5l4 -26l-8 -6l2 10zM766 -39l-12 -2l4 -12l12 2l8 6zM500 -367l8 9v-25l-14 8zM459 -492l-2 15l22 -6l-8 -9h-12zM838 117l-15 -4l4 -11l9 2zM672 -180 l-4 -8l14 6zM918 590v-12h10l-2 8zM913 514l9 -4l-9 16v-12z" />
<glyph unicode="*" horiz-adv-x="1103" d="M1012 836l-2 10l30 -2l4 -15l15 -20l-10 -21l-31 -16l-4 10l-10 4l-19 -45l-20 -12l-19 16l-10 -8l-2 -14l8 -4h12l-14 -19l-41 -20l-6 -10l-12 6l-7 12l-10 -4l-16 -14l18 -13l-32 -30l-58 -35h-8l-23 12l5 25l-13 6l4 22l23 11l12 20l41 4l4 -22l17 2l4 10l-8 20l2 13 l12 18l37 27l20 -8l8 24l15 19l10 6l6 -15l12 -8l9 4l-11 27l9 12l8 4l22 -2l37 -14l-2 12zM1053 1034l14 2l8 -18l15 12l12 2l6 -41l-27 -16l-12 2l-16 14l-4 -8v-12l-29 2l-31 16l-6 19l8 16l13 8l24 -4zM567 666l8 10l13 -14l-8 -46l-7 -8l-12 -4l-12 23h14l-2 16z M879 715v-13l12 9v14l-8 8zM524 649l6 8l11 -10l-6 -8l-13 -4z" />
<glyph unicode="+" horiz-adv-x="1122" d="M1133 489l6 -10l-17 -4l-20 14l-10 -4l-11 -10l-10 -4l-12 4l-8 -8l-2 -14l-25 -4h-102l-31 -7l-19 -12l-6 -8l2 -12l-6 -33l-20 -6l-8 -6l10 -23l18 -14l4 -80l-14 -6l-27 6l4 -19l19 7l6 -11l2 -16l-14 4l-8 8l-48 -20l-6 -11l25 -6l8 -8l35 31l4 -12l-4 -9l-19 -16 l-8 -12h-24l-33 6l-6 26h-15l-14 -14l-6 -22l-21 6l-24 2l-90 -8l-13 6l-8 12l-18 -18l-23 8l-18 14l-12 4l12 27l98 14l45 -8l2 -10l-6 -19l12 6l15 23l22 -14l9 18l51 -4l8 -6l35 33l18 30l-10 43v109l8 4h14l-4 12l-16 15l2 14l14 27l15 -13l8 23l78 2l24 -8l19 8l98 2 l23 8l10 -8l24 -10zM1141 750l12 -2l-4 -25l2 -14l-23 -27l23 -4v-33l-27 -18l9 -11l24 -10l-6 -22v-33l-49 29l-6 24l2 21l10 20l-8 23l-2 47l4 24zM303 487l8 -6l-10 -20l-25 -10l-14 -2l-39 8l-14 14l10 23l21 10l26 -2zM844 1090l12 -3l-4 -14l-8 -8l14 -21l-2 -10 l-8 -8l-12 4l-9 10l-2 13l-12 2l-6 6l14 18zM1151 788l6 -12l-4 -14l-37 8l-14 -20l-4 16l6 25l18 12l21 -6zM1120 543v10l10 -4l9 -10h8l4 -11l-6 -8l-2 -12l-15 4l-6 8zM815 1020l-2 14l23 -14l4 -12l-11 -2l-8 4zM879 465l-5 -10h27v16h-14zM1133 600h-13l6 -12h13z M844 307l-8 -6l12 -4l8 8zM254 479v-12h12l-4 8zM1112 713v-13l8 7zM1116 453v6l12 -6h-12zM950 475v-8l6 -4z" />
<glyph unicode="," horiz-adv-x="661" d="M670 172l6 14l10 -10l6 -22l-2 -13l-18 -28l24 -11l11 -8l-5 -10l-38 -23l26 -8l-2 -57l-14 -47l-12 -19l-9 -6l-4 19l-14 -9l-4 -8l6 -24l-2 -25l-8 -20l-78 -97l-10 -20l-35 -31l-25 -41l-20 -12l-33 -33l-27 -39l-28 -18l-6 -12l-39 -7l-33 13l-6 10l8 24l14 23l41 31 l27 41l84 65v23l28 22l27 43l31 37l22 45h17l10 8v33l27 47l2 29l26 94l2 27l11 -10zM649 -10h-12l6 -8l8 -27l6 -8l15 45zM528 -217v-16l15 -5l4 13l-2 10l-8 8zM567 -119l-6 -14l14 2l7 10z" />
<glyph unicode="-" horiz-adv-x="854" d="M838 414l-7 -13l11 -4l14 2l-29 -24l-12 -4l-24 2l-19 -21l-12 6l-6 11l-49 -13l-23 4l-16 17l-13 -6h-12l-16 16l-21 -10l-14 2l-10 -23l-13 4l-6 23l-10 -4l2 -23l-12 2l-6 19l-13 -8l-4 -13h-22l-4 17l-19 -13l-24 -2l-21 11l-27 -13l-16 17l-10 4l-10 -19l-9 -6 l-24 6l-47 -2l-9 19v12l-10 -4l-8 -23l-10 5l-6 22l16 16l21 9l96 2l4 -27l35 31l192 -4h139l11 -23l8 -8l39 35l-8 22l12 4l2 23l20 -16l7 8l-7 10l-20 12l6 15v12l-6 12l10 -2l8 6l4 11l13 -3l10 -10l4 -12l-2 -27l-8 -8l-6 -51zM805 715l12 16l21 -10l8 -8l4 -23l-6 -76 l-8 4l-7 23l-20 27l-6 26zM842 588l2 14l12 -4l-6 -10l-2 -39l-14 4l-5 12zM813 600l12 -4l-2 -14l-6 -9l-10 -4l-4 13l2 10zM424 401l-4 -14l26 -4l3 10l-11 8h-14zM330 397l-8 -2l2 -12l8 -6h12l-4 22z" />
<glyph unicode="." horiz-adv-x="655" d="M670 205h10l4 -12l14 -19l4 -14l-4 -17l7 -22l-11 -10l8 -48l-10 -34l-14 -21l-37 -26l16 -23l-18 -14l-14 -21l-11 -6l-14 -2l-8 -10l-2 -15l-12 -2l-41 -24h-11l-12 6l-6 -8l-21 -10l-24 -3l-94 9l-21 10l-8 10l4 10l18 13l82 8l5 -31h12l6 15l-14 20h14l27 14l26 -22 l10 24l-6 11l33 32l12 19l23 12l35 49l-4 19l12 16l6 25l8 77l13 19zM674 135l-2 -14l16 -4l6 26l-12 -2zM649 35l8 -8l5 8v14l-13 -4v-10zM582 -45v-12h10v12h-10z" />
<glyph unicode="/" horiz-adv-x="1718" d="M1030 403l-12 -4l-8 39l-9 11l13 38v11l10 6l16 2l-2 24l6 25l11 4l-2 14l12 19l10 4l10 -6l13 18l14 76l12 16l11 7v18l10 6l8 21l10 49l8 8l15 -21l16 -2l8 11l-6 12l-24 8l12 21l10 6l15 2l-3 14l7 39h18l2 10l-4 13l23 45l16 45l20 30l23 -4l-14 25l18 14v31l39 59 l10 9l2 26l27 33l2 12h20l11 4l-23 19l4 14l21 35l24 8l6 68l27 39l41 73h27l4 13l-2 12l-9 4l-4 10l27 4l-8 27l26 29l-4 22l35 43l4 31l17 12l28 6l-4 15l-12 4l16 37h15l10 4l6 8l-10 6l-15 -2l5 12l43 41l26 -6l12 -18v-23l-10 -22l-18 -17l-10 -2l2 -14l-7 -27l-8 -8 h-10v-27h-20l-7 -30l7 -11l-3 -12l-20 -22l-4 -21l-27 -43l-10 -8l-12 27l-11 -11l5 -14l18 -16l-2 -15l-8 -8l-25 -8l4 -12l-4 -41l-16 -17l-12 -20l-19 -47l-12 -21l-27 -22v-13l-4 -8l-27 -6v-20l9 6l4 10l6 -8l-4 -23l-19 -20l-10 -6l-2 -27l-6 -23l-47 -81l-2 -13 l-15 -4l2 -22l-26 -25l-6 -10l2 -27l-10 -22l-23 -2l-2 -25l-31 -66l-2 -12l-10 -4l-8 4l-4 -22l-23 -9l8 -26l-14 -4l6 -13v-12l-10 -22l-19 -13l-14 -51l-20 -45l-27 4l-23 -6v-31l5 -6l10 -2l-15 -47l-8 -12l-8 6l-20 6l-9 10l-8 -8l-14 -31h39l10 -6l-39 -39l6 -12v-10 l-6 -12l-18 16l-13 -4l-14 -15l4 -14l10 -8l-4 -12zM872 158l17 4l6 -41l-12 -6l-4 -15l-9 -10l9 -12l2 -10l-11 -23l-22 -33l-2 -12l-23 6v-8l6 -8v-27l-12 -20l-22 4l-2 -15l8 -12l-4 -10l-15 -12l2 -15l-6 -22l-30 -35l2 -12l-7 -25l-16 -20l-12 -5l4 -22l-23 12l2 -12 l9 -14l-7 -9l-22 -6l-8 -8l6 -12l12 -6l-8 -9l-27 -57l-14 -14l-16 -47l-11 -6l-12 4l-6 26l-12 4l-7 -4l9 -20l2 -25l-35 -24l-10 4l-4 12l-19 -10l-24 -4l-48 10l-12 -4l-6 -8l-51 6l-96 -2l-27 12l-25 -10l-14 2l-2 10l10 21l-10 -5l-16 -14l-13 -4l23 41l8 4l23 -4l12 8 l80 -4l22 4l17 -14l12 -4l10 2l2 12l23 -2l57 6l10 -22l9 8l4 14h47l12 4l-4 19l51 84l19 49l28 14l4 17l9 10l-9 16v14l27 15l18 51l35 78l29 6l10 8l-6 15l-10 8l4 12l22 14v15l11 20l2 27l16 12l6 12v17l10 -4l4 -9v-41l15 5l-2 26l28 31l-4 25zM872 223l13 6l26 -16 l15 2l-11 -35l-30 -2l-4 35zM901 266l6 10l4 -26l11 -8l22 8l8 -27l-2 -12l-12 -4l4 -10l-12 6l4 10l8 6l-8 8l-23 2l-10 23v14zM1008 406l10 -7l-8 -18l-23 8l-12 23h24zM973 336l6 8l22 -12l9 -10l-15 2l-6 -7l-14 -4zM952 299l9 -12l-37 4l-9 -12l-4 10l4 12zM1296 983 l13 -4l4 10v17l-17 4l-4 -13zM1516 1405l-5 -10l15 -6l10 2l6 12l-22 10zM1401 1184l-2 -13l14 -8l8 21l-4 10zM1491 1360l2 -14l12 2l11 16l-11 6l-10 -2zM1049 498l2 -15l12 2l6 7v10l-18 8zM594 -385l-4 -12l12 -4l10 4l4 10l-12 4zM1161 680l10 -4v12l-8 8l-8 2l-10 -4z M793 -12l4 -15l10 2l6 7l-16 18zM717 -131l2 -12h10l8 18l-12 2zM852 182l6 6l10 -8l-2 -14l-16 4zM1272 926l-12 -4v-11l14 -4l8 11zM698 -190l-2 -15l13 -4l10 8l-8 8zM1645 1677l8 -6l8 19l-8 8l-6 -8zM952 332v18l19 -2l-6 -12zM301 -451l2 -10l12 2l2 17l-12 -2z M1051 436l12 6l-4 -22l-12 4zM1434 1286v-12l12 4l2 14zM1186 752l-2 -11l12 2l2 11l-8 6zM1640 1624l9 2l-11 10l-12 4l4 -10zM1700 1722l8 -6v19h-10zM799 14l10 -4v17l-10 -4v-9zM637 -283l10 -2v13h-12zM616 -322v-12h9l2 8zM1622 1579l10 -6v14zM963 264l-2 15l10 -11z M1079 504l6 -6l-4 16zM825 45l6 4l-10 4z" />
<glyph unicode="0" horiz-adv-x="1476" d="M1522 631l-9 -6l3 -27l-5 -53l2 -21l-16 -2l-14 -18l4 -12l14 -17l-22 -39l16 -14l-20 -47v-15l-13 5l-14 -3l-6 -10l4 -12l14 -21l-16 -30l-2 -15l-21 23l-4 -10l2 -17h19v-14l-21 -27l4 -12l-51 -98l-27 -15l-26 -43l-37 -32l-25 -13l-14 -34l-27 -7l-53 -45l-10 -4 l-25 8l-18 -30l-10 -4l-17 2l-10 6l-12 -6l-19 -21l-22 -2l-8 6l-21 -12l-45 -10l-49 -4l-39 -9l-12 7l-15 16l-45 -14h-16l-18 10l-19 -4l-20 8l-23 2l-20 14l-2 15l8 4h43l10 6l10 -4h54l22 -6l27 10l12 -14l10 18l25 -2l43 6l10 -18l8 -4l13 4l-11 14l6 8l21 13l94 34 l21 13l57 22h16l27 41l68 70l38 49h19v27l26 30l3 15l30 41l4 22h15l12 -6l6 10l-6 39l6 12l21 17l8 12l-10 2l-17 -6l-2 10l4 10l8 7l15 -2l8 -7l-10 39l16 43l-2 25l12 8l-8 19l14 4l13 28l14 2v15l-22 8l-7 10l11 2l12 -6l6 12l4 27l12 4l-14 14l-22 13l-9 16l7 12l10 -4 l12 -18l6 10l-8 18l-25 25l13 2l37 -12l8 -10l2 -25l-4 -29l2 -12zM776 1155l6 -12l11 4l6 8l8 -8l6 -27l-65 -30l-25 -23l-18 -2l-39 -59l-19 -15l-4 -22l-12 -19l-19 -14l9 -25l-13 -47l-6 -8l-20 4l-7 -8l5 -10l10 2l4 -21v-35l-14 -12l4 -26l-13 -23l7 -12l6 -51l-17 2 l-10 8l-2 -15l8 -6l23 -6l-6 -37l-13 4l-6 23l-16 4l-6 37l10 8l-19 27l7 45l-2 26l18 11l-14 16l-4 10l2 13l20 8l4 10l-20 4l2 23l10 18h18l9 8l-7 8l-20 7l2 30l4 13l8 6l17 -27l14 12l-6 13l-12 6l-2 16l6 27l41 51l10 25v14l24 10l7 12l24 7l21 24l26 -2l23 6z M1470 940v10l25 -20l16 -47l9 -54l-23 5l6 -15l10 -8l-2 -10l9 -45l-7 -13l-20 13l-14 -2l-6 24l8 43l-2 13l10 4l16 30l-37 29l5 12zM1368 203l-2 -13l18 -4l-4 39l-8 11l-4 -11v-22zM1382 252l-2 -12l11 4l8 30l-10 5zM885 -121l16 -2l-6 19l-10 4l-6 -13zM1464 461 l-4 -10l13 4l8 8l2 12l-13 -4zM1348 160l2 -10l14 2l2 12l-10 4zM727 1133l-8 -17l14 -6l4 14zM666 1098l12 -4l-2 14l-14 2zM1077 -47l-2 -12l12 -2l5 8z" />
<glyph unicode="1" horiz-adv-x="804" d="M760 1462l6 11l22 -11l19 -28l-2 -15l-8 -8l10 -37l-2 -24l-8 -11l10 -39l-6 -24l6 -25l-4 -26l-6 -11l10 -26l-19 -19l17 -22l-4 -12l6 -21l-6 -20l6 -25v-29l-10 -22l6 -12l-6 -39l10 -25l-2 -59l-8 -23l10 -26v-50l-4 -8l-10 -6l-7 8l7 21l-9 8l-8 -4l4 -23l-10 -14 l8 -35l27 12v-47l-4 -10l-13 -2l-40 21l-5 40l9 25l-7 39l7 39l6 8l-8 8l-7 23l9 51l2 49l8 4l-6 39l14 19l-6 12l-16 18l4 103l14 55l-8 10l-10 -2l-3 103l5 49l12 41zM793 305l8 6v-10l-27 -22l2 -13l8 -8l9 8v15l8 -5l6 -22l-8 -6l-6 -45l14 -21l-2 -28l-8 -9l10 -22 l-14 -17l-9 -22h13l6 -45l2 -51l-8 -58l-17 4l-10 -12l10 -22v-13h-37l5 31l-13 -2l-45 -35l-47 8l-16 -2l-9 21l-8 6l-10 -23l-18 -8l-43 2l-4 25l-15 4l15 31l26 -4l21 -11l14 15l12 -4l19 -15l26 4l11 -4l10 8l35 9l12 6l22 -15l5 7l-3 26l-6 13l6 10v39l7 10l10 -6h16 l6 14l-4 12l-32 7l8 63l-8 21l6 12l10 8l6 12l-27 35l9 25l-2 22l-7 10l19 15zM487 -59l15 4l6 -13l-6 -36l-19 -15l-47 10l-28 17l16 18l20 15l13 -9l20 2zM750 674l-2 12l30 -10l10 2l9 -27l-9 -10l9 -23l-4 -12l8 -20l-8 -21l-37 19l-4 41l26 6l6 10l-8 6l-14 -4l-14 4z M748 551l-5 10l23 -8l4 -8l-4 -13l8 -8l8 8l6 15l11 -8l6 -25l-4 -10l-27 16l-22 -16zM776 410l17 4v-19l-13 -4l-6 -8l-4 -23l-8 -8l8 -10l10 -4l4 -14l-14 -2l-10 4l-6 10l-2 37l10 6zM205 995l10 -4l-12 -28l-13 4l-6 24l9 4h12zM807 477l-6 -10l-8 8l-15 2l6 12l11 3 l8 -5zM756 -20l10 -5l6 11v14l-10 6zM793 451l-5 -15l-10 8l-4 15l17 2zM762 887v-23l10 2l6 21h-16zM776 934l-10 -2l4 -12l10 -2l8 14zM768 432l-2 -10l-12 6l-6 12l12 2zM778 1360h-8l10 -17l13 -4l-5 15zM788 377l5 10h12v-14zM748 307l8 12l4 -10l-2 -8zM764 221l2 -8 l4 16l-8 2zM686 -90l-4 -6l8 -4l4 8zM770 1294l4 -8l-4 17v-9z" />
<glyph unicode="2" horiz-adv-x="1327" d="M1311 1135l2 14h12l10 -21l13 -43l8 -98l-4 -51l-13 -64l-14 5l2 -17l-6 -55l-23 4l-8 -12l6 -6h21l-29 -70l-2 -14l-18 -17l-11 -24l-26 4v-13l6 -8l-10 -22l-17 -19l-28 -22l-2 -13l-19 -24h-24l10 -17l-27 -22l-4 -10l-26 -6l-17 -11l-12 -18l-27 6l-10 6l-10 17l2 22 l6 12l12 13h15l26 41l17 18l20 12l12 21l33 33l21 14l6 25l12 18h14l7 22l34 68l6 27l13 -4l6 -9l10 13l-2 10l-20 8l20 57l14 15l-6 12l6 25l-4 12h23l6 10l-2 17l-23 4v51zM690 1165l15 2l8 -32l26 14l6 -23l-8 -10l-55 -33l-8 -10l-27 8l-8 -8l8 -22l-26 -9l-5 -41 l-12 -20l-10 -6l12 -23v-12l-16 -33l-29 -22l-18 10l6 23l-10 4l-4 -21l-9 -12l-14 -2l-18 12l-15 -2l-8 -8h-45l-49 -6l-37 2l-25 8l-26 -8l-27 2l-43 20l-6 8l6 13l25 14l96 4l29 -2l4 -18l18 12l25 6l57 -2l31 8l12 -6l12 6l17 21l8 26l25 -2l14 6l-29 33v33l6 14l29 11 l-6 24l51 37l4 -45l17 2l10 8l-12 15l-3 12l7 10zM860 -61l4 -15l21 13l35 6l4 -11l-4 -8h18l12 23l23 2l45 -6v-15l8 -8l12 4l11 19h71l8 -37l-38 -4v26l-11 9l-14 -39l-8 -9h-53l-23 -6l-35 11l-8 -5h-51l-13 21l-8 -6v-15l-22 -6l-15 2l-12 9l-22 -9h-41l-9 9l-43 -11 l-51 2l-49 11l-18 10l-15 -17l-12 -2l-4 37l-8 13l57 6l8 -23l8 6l3 13l24 -2l45 10l10 -19l21 4l10 -4l12 11h27l21 8l24 -8l12 6l23 2zM315 -57l11 -6l-2 -13l-17 -12l17 -14l10 4l4 10l-2 12l-6 8l8 7h37l8 -7l23 11l26 2l62 -6l-13 -19l15 -4l12 8l27 -24l4 -13l-25 7 l-10 -7l-19 19l-10 -8l-4 -11l-12 -4l-47 8l-39 -2l-49 -8l-25 2l-37 11l-37 -9l-24 9v34l12 -2l18 17l15 4l37 -4l10 -6zM1327 281l12 -9l-6 -10l2 -10l13 -21l2 -12l-7 -14l-26 10l-6 -12l2 -15l24 5l11 -5l2 -10l-15 -16l11 -21v-26l-11 -37l8 -43l-10 -4l-2 -15l-6 -8 l-8 4l-23 35l-4 12v17l17 6l2 12l-23 4v15l10 18l2 12l11 -2l10 6l6 11l-4 20l-16 -22l-11 -9l-2 70l-6 25l10 24l21 17zM1278 -31l4 13l12 -5l9 -8l34 4l11 -4l-7 -22l-2 -37l-14 -16l-10 6l-19 26l-10 6l-4 -12l12 -33l-47 4l-8 7l-4 12l-10 -4l-13 -17l-12 -2v23l-14 -6 l2 -10l-45 -7l-10 2l2 13l6 8l18 10l-4 19l10 2l25 -7l10 -6l29 17l12 -2l8 -27l19 18zM1171 662l-2 -13l13 2l8 6h14l-4 13l-8 4l-12 -4zM1235 733l10 -4l4 12l-14 4v-12zM975 -88h-12l4 -10l14 -4zM649 -100l10 -2v12h-12zM307 918l-4 -11h10l6 13zM553 940l4 8l-14 4v-10 zM510 -66l2 9l6 -4l2 -11zM1167 -92l11 4l-17 4zM825 -82l4 10l-12 -4zM700 -96l5 8l-13 -2zM485 920l9 -5l-9 15v-10z" />
<glyph unicode="3" horiz-adv-x="1282" d="M1286 471l6 10l11 -4l12 -18l-8 -23l10 -8l16 -49l-24 2l-11 -4l-6 -8l4 -13l9 -6l24 2l-2 -82l-6 -22l-14 -17l8 -18l-10 -18l-2 -27l-23 -29l-14 -35l-37 -30l-15 -19l-10 -22l-71 -62l-39 -26l-45 -23l-23 4v-16l-80 -25l-10 -8h-23l-77 -16l-25 8l-20 -10l-48 -9 l-53 37l-10 -26l-8 -2l-13 4l-51 2l-8 8l-18 -6l-25 2l-10 27l-23 -19l-24 6l-19 11l-14 16l14 -2l8 -8l48 10l22 -4l19 -10l20 12l25 4l45 -4l-19 -17l4 -10l13 2l2 17l10 -2l20 14l11 -2l20 -14l8 10l15 8l18 -8l4 -10l-16 -15l20 -2l19 12l-4 11l-11 4l-4 8l6 6l27 6h20 l11 -4l6 8l49 13l8 6l13 -2l8 -6l20 22l10 4h15l22 15l45 20l62 45l14 4l29 37l33 33l6 10h18l-4 25l35 49l4 26l22 37l13 49l4 52l-2 49l10 20v23zM1243 1188v16h19l4 -18l18 -43v-15l-8 -12l14 -49l2 -23l-4 -26l-18 -49l2 -17l-4 -24l-19 -31l-8 6l-14 -2l18 -10l-2 -12 l-45 -52l-2 -24l-12 -4l-21 -19l-24 4l-15 13l-6 22l4 8l19 15v22l14 19l62 121v22l18 90l-8 27zM649 1184l15 -2l2 -15l6 -10l10 -6l-16 -18l-74 -50l-14 -18l-43 -25l-23 9l-39 -7l-20 7l-9 8h27l25 6l12 8l35 62l6 -7l6 -20l10 8l-10 25l12 20l19 15l24 10h39zM389 1044 l-2 -10l-12 2l-6 8l-13 -6l-14 -22l-10 2l-21 12l-28 -22l-52 4l-18 6l-10 18v17l43 16h37l22 -8l25 8l51 -8zM553 567l4 8l43 -12l6 -10l15 4l22 -4l12 -18l-22 -3l-23 11l-16 -11l-12 -2v23h-15l-14 -14h-14l-4 18zM854 -78l-8 -4l4 -14h10l6 6l2 12h-14zM1233 109l10 -9 l6 11l-4 12h-10zM618 1145l-14 -2l4 -10h15l8 6zM1159 31v-11l10 5l5 10l-11 4zM819 -92v-17l15 5l-3 10zM1239 958v-16l10 4v12h-10zM248 1040l8 -14l4 14h-12z" />
<glyph unicode="4" horiz-adv-x="1368" d="M1421 518l9 -6l2 -14l-5 -25l-12 -18l4 -13l15 -16l-15 -12l6 -27l-6 -10l6 -19l9 -102l-7 -18l-16 -17l6 -12l13 -6l-21 -31l-14 -4l-6 6l-9 21l-12 -2l-6 -11l-4 -26l-25 4l-24 -6l-35 -17v-125l-10 -18l6 -25l-6 -65l-21 -10l-26 -7l-54 -2l-24 6l-21 -8l-78 -2 l-22 10l-35 -10l-27 10l-12 -6l-31 9l-10 -7l-18 23l6 12l20 19l27 -4l27 8l14 -11l53 9h53l54 -13l20 11l51 12v33l9 12l-7 10l-4 39l11 23l-7 80l2 22l9 21l14 20l70 2l39 6l10 10l20 35l-4 25l8 51l-10 27l8 22v10l-6 13l10 4l11 -8l6 16l-23 -4l4 22l9 5l-15 18l-2 14 l6 8l21 11l8 8l-6 6l-21 6l9 10l22 -4zM1116 1487l10 -6l-4 -15l17 -28l-4 -11l-11 -4l-14 15h-12l4 -15l18 -18l-12 -23l-31 -34v-27l-26 -35l-13 4l-12 -4l4 -10l10 -8v-6l-22 -27l-19 12l-8 -2l-2 -12l21 -21l-6 -8l-13 -4l-4 -29l-35 -61l-14 -35l-31 -26l-18 18l-4 -14 v-27l-27 -4l-12 6l-6 10l2 13l16 16l-2 10l-8 6l14 21l19 16v17l10 22l16 15l-4 18l10 6l27 4l10 6l-8 13l-12 6l22 43l23 24l12 4l10 39l15 19l10 6v22l4 9l10 2l23 -11l-12 37l2 13l8 4h14l-8 22l31 23zM315 213l15 -4l2 -12l8 -11l20 27l9 4h12l12 -8l25 10h14l10 -4 l9 -10l28 2l25 6v-37l6 10l43 25l53 2l-6 -10l2 -8l14 -5l9 27l12 -8l25 4v-23l10 3l16 10l4 -13l-8 -22l-61 -10l-64 10l4 14l-6 4h-16l6 -10l-6 -12l-15 -2l-55 4l-20 -10l-23 16l14 10l-4 8l-26 -8l-9 11l-10 4l-10 -7l6 -26l-57 -2l-10 6l-23 -8l-23 2l-12 -6l-20 10 l-25 -2l-6 22l-10 -4l-13 -18l-10 2l-6 33l39 14l49 6zM1239 836l12 2l21 -39l-4 -11l-11 -4l-6 -8v-22l-6 -11l-12 -8l-12 23l-2 14l12 4l14 19l-10 4l-12 -2l-9 6l9 20zM1026 1339l-4 -10l10 -4l12 2l7 8l-4 8l2 13l-13 4zM928 1149v-12l10 2l6 6l2 24h-16zM1403 279v-13 l10 4l2 27h-16zM1083 -88l-2 -12l11 -4l10 2l2 10l-14 10zM410 176l6 -12l-13 -4l-6 12zM977 -86l6 -10l8 14l-12 8zM356 186v-6h11z" />
<glyph unicode="5" horiz-adv-x="1335" d="M1350 571l-2 15h12l22 -66l7 -47l-3 -102l-12 -92l-14 -23v-27l-12 -22l-11 -6l2 -15l-8 -22l-33 -37l-6 -25l-20 2l8 -22l-47 -51l-29 -21l-14 -18l-39 -27l-12 6l-6 13l-9 -11v-26l-10 -8l-82 -33l-16 -17l-31 -2l-22 -8l-13 15l-12 -7l-14 -24l-21 2l-123 -12l-14 22 l-10 -6l-2 -10l-11 -6l-4 10l4 26l-12 -4l-6 -24l-8 -8h-15l-34 12l-13 -6l-12 4l-14 16l-6 27l59 -10l12 2l23 14l24 -6l29 6l27 -14l14 22h23l8 -4l2 -10l-8 -8l2 -9l12 7l24 36l13 -6l22 6l19 15l20 -4l21 14l63 20l17 19l24 6l25 21l14 -3l8 -6l4 27l93 94l18 4l6 27 l10 22l43 58l-2 20l17 47l12 19l-2 24l8 39l6 8l-8 23l12 47v74zM754 621l8 -9v-14l-14 -16h-11l-12 8l-4 -8l4 -11l-18 -8l-5 -8l-16 2l-22 -10l-15 -17l-22 -8l-13 4l-10 19l-10 -6l-2 -43l-31 -17l-10 39l-12 2l-9 -4l-10 2l6 21l21 8l14 18l84 47l27 23h33l22 4l6 -8z M1235 1458l8 8l19 -14h14v-25l8 -45v-28l-12 -4l-15 -23l19 -12l-6 -10l-13 -5l5 -34h-23l-4 -45l-16 8l2 8l10 2l-6 12l-2 27l16 18l-16 29l4 25l26 -4l-4 10l-18 14v12l-12 17l2 26zM1014 1114l6 12l37 -10l12 6l23 -14l-21 -33l-10 -6l-23 8l-22 -2l-10 4l-7 13l-18 -11 l-12 2l-8 11v22l6 6l8 -4l-2 -10l24 6l15 -10zM1233 1206l6 11l10 -5l-2 -14l6 -6l23 -8l-8 -23l8 -49l-6 -6l-13 -2l-4 -27l-22 -8l-4 27l-8 -9h-15l6 13l35 14l4 51l-2 11l-20 18zM600 -92h14l-4 -14l-8 -11l-2 -12l-22 10l-5 13zM1241 1423l4 -14l12 2l7 8l2 13l-21 4z M1061 -63l10 -5l4 11l-4 22h-14zM1282 162l2 -10l12 6l7 12l-15 4zM1176 1087h10l-4 -14l-11 -2l-4 14zM895 -94l4 -8l12 6l-2 8l-14 4v-10zM1053 1106l-6 -10l12 -4l6 12zM518 500l2 10h10v-14l-10 -4zM1153 16l10 -6v8zM569 545v-13l9 7zM1219 1161v10l12 -4l-4 -6h-8z M1329 332l4 -10l8 10h-12z" />
<glyph unicode="6" horiz-adv-x="1331" d="M1247 209l4 12h9l10 -6l4 -12l8 -8l10 2l6 6l11 2l6 -37l-6 -12l-19 8l-24 -39l-6 -25v-16l-19 -4l-8 -8l4 -11l-18 -14l-29 -41l-19 -14l-24 -2l-35 -41h-14l-27 -17l-4 -10l-135 -49l-62 -12l-12 4l-4 10l-10 6l-10 -6l-13 -20h-98l-39 6l4 24l-24 -8l-9 -8l-26 6 l-23 14l-4 7l2 10l21 6l43 -2l12 4l16 -6l11 4h28l25 -8l76 18l22 -26l10 10l-2 24l15 -2l8 -6l14 19l23 -4l37 20l28 -4l6 8l2 14l9 9l32 10l27 22l12 4h19l4 13l14 16l39 29l25 24l8 25h14l8 23zM1212 1473l13 -9l22 -24l-45 -13l2 -14l-4 -12l-16 -19l-6 2l2 27l-11 -6 l-2 -10l4 -43l-22 -13l-29 -22v18l10 2l11 25l8 8l-8 6l-37 -2l6 -26l-2 -11l-10 -8l6 -22l-23 -17l-2 -16l-8 -10l14 -13l5 -10l-13 -4l-26 -45l-7 8l5 27l-25 -8l8 -23l2 -20l-10 -21l-23 4l9 -20l-19 -9h-12l-10 7l6 24l10 19l6 24h13l6 8l12 2v23l-23 4l9 25l36 47 l15 -15l10 9l4 12l-2 29l16 16l11 20l2 13h14l8 8l8 25l9 8l14 -4l12 22l6 21l9 8l12 2l12 -4zM737 709l8 -13l-10 -20l-22 -8l-19 -13l-6 -10h-26l-31 -37l-10 -6l-5 12l7 27l-2 10l-39 -45l4 -10h12v-27l-27 -8l7 -10v-14l-15 -23l-10 -8h-10l-13 6l27 23l-6 8l-33 6l8 26 l25 5l8 8l-18 33l4 16l18 -14l2 26l51 56l80 18l21 -2zM1343 629l7 8l12 -6l6 -13l-4 -12l-10 -8l30 -33l2 -55l-4 -43l2 -41l-8 -4l-6 -21l-8 -10l8 -6l14 -2v-18l-24 -7v-22l12 -2l-2 -23l-4 -8l-12 6l-19 29l-26 -4l2 16l16 19v12l-8 20v13l8 4h12l-8 53h15l8 6l2 27 l-6 8l-7 -8v-27l-8 2l-6 19l4 55l-6 22zM1317 315l10 4l8 -8v-16l8 -10l-10 -6h-14l8 -31l-18 -39l-13 6l-14 16l-4 23l10 6h12l5 10l-5 9l-10 2l8 22zM1032 1270l-4 -13l23 -8l6 8l2 13l-4 12l-11 4zM1085 -25l-4 -12l6 -8l11 -2l10 16v15zM961 1198l12 -6l-4 -23l-13 2 l-6 21zM1137 1401l2 -12l16 20l4 14l-6 9zM1348 274l2 11l12 -4l-8 -23l-11 -6zM1260 168l-9 -4l2 -12l11 -2l6 6v12h-10zM1346 535l-3 -11l11 -4l8 4l4 11l-10 4zM1092 1274l6 12h10l-2 -14l-6 -8zM893 -96l4 -13l10 7v16h-10zM764 -109l-4 -14l16 -4v14zM1266 182l2 -10 l12 2l2 12l-10 2l-4 7zM795 -117l-4 -6l8 -8l10 8l-4 8zM1100 12v-14h8v14h-8zM946 1161l10 4l-6 -14zM1335 221l-4 8l12 -4zM680 682v-8h8v8h-8zM1116 -10v-6h6v6h-6z" />
<glyph unicode="7" horiz-adv-x="1191" d="M1274 1440v-10l-25 -5l-10 -16l6 -10l29 -21l4 -10l-16 -27l12 -24l2 -12l-4 -13l-10 -8l14 -20l-2 -25l-8 -10l8 -53l-10 -52l-11 -20l-14 -17l-4 -24l-16 -16l-2 -15l-11 2l-8 8l-12 -6l8 -26l-4 -23l-53 -96l-2 -29l-7 -12l-20 -10l-2 14l-6 8l-13 4l-6 -6v-24l6 -11 l15 -2l8 -6l-4 -10l-23 -10l-4 -39l-18 -39l-2 -12l-27 -13l6 -32l-16 -21l-25 -47l-8 4l-6 10l-12 -6l-6 -8l-13 -4l9 -8h16l12 -4l-20 -48l-13 -6l-4 -12v-16l-14 8l-23 -2l-20 -13l-27 -6l9 39l18 2v27l14 4l9 12l-5 27l11 10h22l10 4l-22 15l6 26l10 21l29 37l4 24 l33 74l22 -4l-4 37l2 10l8 8l17 2l-10 23l30 30l-2 13l6 24l21 31l8 22l23 3l8 6l-15 22l29 53l19 15l12 4l-4 24l4 25l27 64l-3 26l7 57h10l-14 68l-5 57l5 25l12 14l18 2l15 -4zM637 35l8 10l12 -4v-27l13 2l26 17h15v-15l-17 -14l2 -16l-8 -23l-33 -55l-20 -16l-8 8 l-19 -19l-82 -4l-43 6l-22 -6l-39 10l-37 -10l-27 6l-18 -6l-35 6l-22 -6l-23 6l-39 4l-10 7l-8 12l12 16l23 10l28 7l51 -9l13 2l10 9l18 -15l45 11l50 4l53 -2l37 -7l16 13l23 4l10 6l14 18zM932 471l4 -14l-33 -31l2 -10l-18 -43v-15l-10 -4l-7 -10l-4 -27l-8 -8l-14 4 l-6 13l-19 -21l4 -10l23 -4v-17l-4 -10l-11 -2l-8 8l-14 2l10 -30l-4 -23l-29 14h-16l-22 -10l-5 23l17 2l4 20l8 -6l14 -2l7 10v17l-23 8l18 49l15 23l20 14l-4 16l39 60l23 -8l18 34l16 2l11 -4zM360 1118l7 -4l22 10l45 2l49 -4l27 4l10 -20l-6 -25l-37 -4l-10 4l-2 11 l-12 -5l-15 -18l-59 4l-12 -4l-15 18l-41 23l-14 2l2 -14l8 -8l23 -9l6 -8l-84 -8l-6 27l-10 -5l-11 -18l-24 10l-4 25l10 20l22 4l13 -10l20 8l51 4l27 -4zM741 211l7 8l16 -14l10 -2l12 4l-4 -14l-16 -19l-27 4l6 -12l11 -8l22 -4l-18 -29l-17 4l-22 -6l-16 -14l-21 -11 l-12 6l12 21l29 35l10 20l6 27zM532 1116l9 10l12 -6l10 -20l-8 -21l-10 -2l-17 4zM682 82l6 8l12 -4l9 -8l4 -12v-17l-27 8l-14 23zM979 676l-12 -4l6 -25l8 -8l12 -4l8 37zM852 401l-10 -8l10 -8l12 2l10 10l5 11l-7 8l-8 -10zM1225 1180l6 -9l12 5l4 14l-4 12l-12 -2 l-6 -8v-12zM1018 754l2 -11l12 7l10 24l-18 4zM625 -68l-11 -8l11 -4h28l-4 14l-12 3zM1124 942l-6 -8l10 -6l13 4l4 8zM741 109l11 -5l-4 -14l-11 4l-4 8zM655 -23l-6 -8l17 -4l2 12l-6 7zM403 1098l13 2l-4 10l-13 2zM631 -23l-4 -12h12v12h-8zM799 319l10 -2v11h-12z M246 -88l-4 -10l18 10h-14zM1001 702v-8h9v8h-9zM676 -4l-4 -4v-8l8 6z" />
<glyph unicode="8" horiz-adv-x="1388" d="M829 -92l2 10l11 -4l2 -14h14l12 18l19 -8l45 18l49 11l39 2l16 18l23 10l16 2l41 27h17l8 10l14 4l19 -41l8 6l4 11v14l-8 8l-13 4l-2 15l27 -9l10 13l-10 6l12 18l21 13l32 34l15 21l41 31l8 26l20 27l7 29l6 10l18 -4v12l-10 18l2 13l25 20l-5 35l23 -12l-6 51l-10 25 l14 -3l25 5l10 -9l-15 -47v-24l13 -35l-11 -4h-14l-6 -8l6 -11l10 -6l7 -10l-11 -25l-8 -6l-8 6l8 -26l-14 -17l-13 -4l11 -18l-23 -45l-41 -58h-18l-10 -22l-17 -21l-59 -41l-29 -24h-18l-15 -14l-20 -9l-10 4l-5 11l-10 4l-4 -10l8 -9l2 -12l-47 -16l-20 -15l-15 7h-10 l-10 -7l-6 -10l-12 2l-33 -10l-17 4l-36 -14h-68l-25 -4l-10 2l-16 12l-10 -8l-23 -6l-84 10l-10 -4l-4 12l4 14h-27l-18 -14l-33 16l-2 15l12 -6l6 -11l19 23h61l27 -29l4 6v17l20 10l23 -2l10 -8l33 6l12 -23l10 -6l11 10zM1303 858l-13 2l-2 -12l6 -14l11 -9h4l-15 -12 l-12 -4l-14 -2l-13 8l-4 45l9 23l12 4l8 10l6 27l10 20l23 98l8 23l12 18l-10 7l-6 12l10 20l4 21l-6 22l23 17l18 -43v-25l8 -8l-6 -25l6 -65l-8 -21l-6 -61l-20 -29l8 -26l-29 -41l-14 -11zM764 612l12 -2v-12l-8 -29l-16 6l-88 -49l-25 -26l-25 8l-10 -8l21 -15l-11 -20 l-16 -14l-20 -7l-15 5l-10 20l-2 25l4 22l20 29l11 4l16 20l14 -2l9 -8l4 -12l6 8l-2 10l-8 10l-13 5l9 8l24 10l10 8l7 12l40 3zM733 1217l17 -3l14 -10l-10 -12l10 -23l-8 -6h-15l2 23l-6 14l-18 -12l10 -19l-8 -24l-8 -10l-74 -48l-23 7l2 59l7 10l6 -6v-20l22 6l13 -15 l10 17l12 2v16l-45 19l19 16l18 10l22 6zM1397 498l6 10l8 -8l4 -13l-4 -12l8 -8l19 -33v-12l-8 -8l-46 30l5 29zM1135 -49l14 -2l2 10l-6 12l-15 4l-2 -12zM1329 162l-10 -6l4 -11l23 -4v15l-7 6h-10zM922 -98l2 -15l12 4l4 13l-4 10l-12 4zM868 -127l13 -4v18l-23 9z M1309 889l-13 -2l4 -10l23 -7l-2 15zM680 584v-11h16v7zM696 1182v-17l11 4v9zM1317 946v-10h10v10h-10zM1352 193l10 -3l-4 9l-8 4zM1380 217v-8h9v8h-9zM1313 825h-4l2 2z" />
<glyph unicode="9" horiz-adv-x="1331" d="M1346 1073l2 12l10 -6l20 -24l-8 -23l6 -26l21 -56l-2 -28l-6 -25v-16l-5 -11l-6 -4l6 -10l7 -25l-7 -51l-12 -22l-16 -15l10 -18l-14 -14v-23l-13 -20l-18 -47l-35 -48l-8 -26l-12 -23l-21 -14l-6 -23l-14 -20l-11 -25l-12 -6l-51 -53l-12 -6v-29l-11 -22l-14 -15 l-24 -6l-9 -24l-45 -74l-20 -10l-17 -31l-22 4l8 -27l-16 -14l-11 -20l-14 -17l-24 -6l-7 -29l-22 -43l-43 -59l-10 -2l-21 8l-10 -6l2 -12l12 -19l-35 -30l-32 -15l-25 6l-37 -10l-12 6l-25 2l-14 -4l-25 23l-10 4l-8 -6v-11l-25 -6l-49 -2l-51 4l-49 -2l-21 11h-69l-6 6 l-2 12l22 -4l8 8l4 23l27 -5l70 7h45l24 -9l13 7h84l20 8l8 -6l31 -9l45 19h14l109 139l41 62l18 16l82 119l35 35l8 28l29 21l4 26l33 33l55 76l27 26l4 23l18 16l60 91v22l43 37l-7 12v25l11 20l28 35l-8 6l-6 19l4 24h19l4 19h-23l12 180zM592 1108l14 -4l-8 -12l4 -15 l14 4l9 11l6 -11l2 -16l-10 -4l-5 -10l-34 12l-9 -8l15 -19l20 -12l-6 -6l-20 2l-15 -33l15 -22l-35 -13l-4 -14l-8 8l-9 25l-2 39l23 6l-10 26l14 23l22 16l-2 13l7 10zM1356 977l-8 -10l4 -11l22 -12l4 27l-14 10zM674 1124l4 13l12 -2l-8 -13l8 -10l-8 -14l-2 -13l-10 -8 l-2 15zM858 51l8 -6l8 8v13l-10 6l-8 -9zM770 -76l-12 -4l4 -10l12 -4l10 2l-4 12zM1087 332l11 -4l-2 20l-9 6l-4 -10zM852 2l-12 -2l6 -12l14 4zM637 1116l-4 10l12 -4l2 -12l-4 -14zM702 1147l-2 14l13 -4l4 -12zM924 123l4 -10l10 4l-2 10l-8 4zM1257 553l7 -8l4 18 l-11 4v-14zM1192 535l12 2l-4 10h-12zM1188 483v-10h8l4 10h-12zM717 1112v10h10v-10h-10zM1290 676v-6h13zM670 1149l4 8l8 -4l-4 -8zM1026 272v-8h8v8h-8z" />
<glyph unicode=":" horiz-adv-x="716" d="M694 213h15l16 -43l8 -59l6 -11l-10 -12l6 -27l-16 -49l-21 -28l-26 10v-12l18 -19l-4 -12l-37 -14v-15l-4 -10l-18 -10l-13 -2l-8 8l-2 10l-10 -6l-2 -16l-25 -13l-10 -10l-14 23l-23 -9l4 11l47 16l2 12l-18 8l-4 11l22 10l23 4l-4 21l20 10l15 18l22 -2l-6 14l2 13 l19 18l-2 35l6 27l30 55l-4 10l-14 17l4 12zM707 733l2 12l16 -6l-4 -24l-12 -31v-12l-13 -2l-10 4l-14 -45l-21 -27l-24 -6l-21 -23h-10l-68 -34l-57 -7l-51 11l-21 10l-14 16l-4 11l74 16h28l11 -23l8 -8h14l-10 37l20 12l25 9l6 -11l4 -22l8 -6l13 2l6 6l-21 29v8l6 12 l11 -6l4 -10l49 80l8 8l29 -2l24 6zM518 -74l10 8l11 -8l-7 -8l-34 -10l2 -14l6 -11l10 -4l12 2l7 -20l-7 -6l-22 8l-74 -10l-29 6l-22 41l45 4l18 -13l15 17l16 -12l19 18zM684 868l2 11l10 -2l17 -19l10 -24l2 -27l-4 -12l-8 2v-9l8 -2l14 7v-13l-6 -10l-37 8l-10 6l-2 37 l18 2l4 15l-8 6h-12zM692 768l13 -6v-17l-19 -14l-16 19l-4 10l2 12zM711 113l-13 2l-6 -11v-14l6 -12h15l8 8l2 8zM631 614h14l-12 23l-10 8l-5 -12l3 -12zM618 -51l13 -4v16l-13 6l-4 -10zM653 678v-10l9 4z" />
<glyph unicode=";" horiz-adv-x="718" d="M688 889l14 4l11 -16l16 -48v-51l-10 -20l4 -15l-10 -18l2 -25l-37 -55l-4 -12l-12 4l-19 14l-8 -4l4 -12l14 -21l-10 -2l-12 6l-2 -10l-47 -51l-7 8l-43 -22l-22 4l-18 -12l-35 4l-19 14l-10 -6l-35 -4l-8 10l-2 22l6 -6l6 11l19 10l37 -2l22 14l29 -2l22 8l54 43l34 13 l6 26l27 39l17 16l-5 11v14l13 25l14 4l-10 22l-4 27l2 24l6 11zM606 -88l2 10l37 -18l12 6l13 -10l-6 -25l-7 -8l-22 -8h-14l4 18l-11 -6l-6 -10l8 -6l9 -45l-33 -35l-29 -23l-14 4l-23 -16l15 -19l-29 -43l-18 -16l-25 -4l12 -23l-20 -14l-76 -74l-59 9l2 12l-6 22l63 70 l53 29v28l21 15l47 53l20 12l-2 13l21 14l4 -14l10 -9l8 13l-18 28l4 11l27 12l-5 10l5 10l24 2l8 4zM696 6h15l-6 -8l-21 -12l-4 -11l4 5l8 -9l4 -24l-12 -37l-14 8l4 8h10l-2 13l-16 18l-31 -18l-14 -2l2 14l12 20l16 2l8 7l3 22zM694 193l13 6l-7 -27l5 -6l10 -2l2 -14 l-15 -23l29 -16l2 -11l-22 4l-31 27l8 8v19l-8 10zM674 53l4 13l12 -9l25 6l12 -6l-8 -8l-47 -18l-6 -11l-11 7l-2 12zM657 696l13 -6l4 -8l-35 -4l-4 -14l33 6l8 8l4 12l-8 4l-6 23l-9 6l-10 -18zM506 -266l-10 -4l4 -17l10 6zM582 -131l-2 -10l10 -4l4 10zM672 86l-2 10 h10v-12zM655 2l-4 6h11zM707 8l4 12l4 -12h-8zM563 596v-8h8v8h-8z" />
<glyph unicode="&#x3c;" horiz-adv-x="1198" d="M1165 1243l9 -4v-22l8 -21l2 -35l-6 -12l6 -23l2 -49l-21 -12l-6 -8l4 -6l23 4v-80l-12 -41l14 -43v-10l-6 -13l-27 -8l12 -14l-6 -10l-28 -17l-35 17l-6 -5l6 -20l-4 -10l-23 -4l-10 4l-4 10l-31 -6l4 -12l8 -7l-10 -6l-33 2l-18 -12l-23 -27l-26 9l-19 -15l-14 -18 l-12 -2l-15 4l-16 -12l-23 -7l-36 27l-9 23l21 12l69 27l27 20l21 -2l69 27l29 22l12 -2l12 4l13 -22l14 18l2 12l12 19l13 4l26 -10l13 6l-19 16l8 45l-4 96l2 74l23 4l4 15l-8 6l-15 -2l-6 26l13 70l-2 10l10 4zM1130 211l11 8l24 -10l-24 -21l8 -8l25 -8l4 -14l-25 -6 l-12 -25h12l29 12l2 -12l-4 -12l-21 -15l19 -26l-7 -39l-6 -8l-10 -4l-10 6l-17 18v49l-6 23l-2 35l17 26l-9 10l-2 11zM1161 408h13v-23l8 -8l-13 -15l9 -26v-76l-4 -10l-7 -4l15 -17l4 -10l-8 -12l-31 14l4 23l-10 4l8 35l10 4l-10 43l-6 10h-13l-10 6l2 14l21 25l-4 14 l-11 9l9 8zM1143 1190l-2 -14l20 2l-6 8zM1141 967v-9l2 9h-2z" />
<glyph unicode="=" horiz-adv-x="1187" d="M1149 569l4 11h18l17 -35l-12 2l-9 6l2 -12l15 -6l-13 -35l13 -4l-2 -70l6 -35l-39 2l4 -10l8 -4h15l8 -47l-4 -10l-9 -7l17 -34l-6 -11l-19 -12l13 -22l-17 -17l-12 -6h-17l-16 27v14l-6 -27l4 -14h-16l-23 10l-98 -10l-33 10l-53 -6l-107 6l-12 -10l-25 6l-28 -2l-21 6 l-12 -2l-8 -8l-6 6v12l-66 -18l-31 8l-49 -6h-37l-22 8l-31 -10l-18 10l-105 -8l-45 8l-28 17l12 16l18 12l49 6l68 -2l12 -10l25 10h74l22 -8l27 -4l18 12l21 -6l47 10l18 -10l51 13l37 -9l8 -8l19 14l29 3l96 -13h22l74 10l25 -8l26 8l27 -26l6 22l41 4l23 9l6 10l-9 37 v24l9 23l-6 22l-3 88l9 11l6 26l-19 13l4 12l23 10zM1151 1018l-2 14l22 4l19 -37l-8 -10l-15 -8l4 -14l19 -17l-2 -14l-12 -21l14 -22l-2 -14h-12l-9 4l-4 -35l13 2l4 8l8 4l2 -12l-6 -25l4 -16l-25 10h-14l-10 -6l6 -12l45 -17v-26l-23 -17l15 -12l2 -24l-17 -11l-22 -6 l-15 49l19 4l-23 41v11l9 10l-9 20l9 105l10 10l-4 14l-11 9l3 12l6 8l18 10zM1165 426l11 2l-25 18zM1139 997v-14l-9 8l5 13zM1153 289l-8 4l-6 -12z" />
<glyph unicode="&#x3e;" horiz-adv-x="1198" d="M1202 801l-2 10l21 -4l14 -21l6 -28l-2 -17l-12 -2l-6 -8l-2 -12l6 -6h14l2 -54l-10 -34l8 -39l-6 -25l-6 -8l10 -23l2 -24l-6 -23l-14 -22l-21 -17l-35 -10l-12 2l23 41l-7 8h-20l6 -22l-6 -23h-19l5 -30l-72 -29l-148 -82h-22l-21 -14l-14 -4l-10 4l-4 12l-19 -33 l-65 -33l-19 -14l-12 2l-22 -6l-60 -29l-16 -14l-11 -4l-12 2l-16 -14l-23 -11l-20 -2l-39 -30l-27 -5l-32 -20l-23 -2l-18 -16l-70 -31l-31 -21l-51 4l-10 29l2 12l14 -2l10 -18l2 -14l27 12l-4 27l-8 8l-15 2l5 8l59 39l22 -4l17 16l98 51l12 -6l21 8l12 -2l4 13l17 14 l69 29l17 14l6 10l14 -4l39 21l12 -2l15 -19l10 10l-14 25l92 39l41 24l22 -4l19 17l67 30l19 15l47 6l2 -18l29 18l10 20v15l94 49l12 -4l15 -19h12l2 11l-6 10l-10 6l-7 10l5 10l18 7l-4 20l8 6l-10 25l6 12l-8 21l-4 26l2 10h22l-8 11l-14 4l2 12l-4 27l2 26l8 11l-8 26z M340 100l-10 -4l4 -26l12 -4l14 32l-8 4zM403 104l11 -8l6 10l-2 23h-12l-7 -10zM967 391v-16l18 4l-2 12l-14 10zM457 143l-2 -10l16 -4l2 10l-4 8l-10 5zM797 299l-4 -6h22l-4 10l-8 4zM1204 537l8 -11l2 19z" />
<glyph unicode="?" horiz-adv-x="1210" d="M1198 858l-12 2l8 -24l-4 -9l-27 -10l4 -33l-12 -6l-31 -37l-24 -10v-16l-4 -10h-35l-27 -41l-24 -25l-35 -6l-41 -43l-23 4l-2 -8l4 -15l-34 -28l-15 -21l-14 4l-10 -6l-13 -20l-12 -4l12 -29l-14 -2l-18 10l-9 10l7 19l-9 12l-10 2l10 23l27 37l2 14l70 61l20 13h10 l56 49l32 16l64 57l4 -12l8 -8l13 4l43 2l12 6v11l-8 6l-21 4l-6 10l-10 -8h-15l13 22l12 6l12 -2l8 45l13 21l33 39l18 16l-10 8v113l10 23l14 -19l11 6l4 13l-2 12l-25 2l-10 8l12 53l10 21l9 6l6 -20l8 -11v-30l12 -33l-2 -12l8 -52l-6 -32l-8 -11l8 -22l-10 -4l-8 4 l-6 -74l-11 -39zM913 195v-13l-22 8l-6 -10l14 -33l-14 -10l6 -22l27 -9l-3 -69l-6 -23l-24 -51l-15 -2l-8 6l-4 -10v-25l-12 -4l-27 -37l-37 23l-14 -6l-8 -12l6 -23l-33 -16l-18 18l-17 2l-2 -8l9 -6l2 -13h-17l-18 11l-8 -6l-23 -5l-25 5l-24 12l-17 14l-6 10l6 9l25 8 l8 -8l33 6l12 -4l-2 -17l11 -8l10 6l16 35l14 4l11 -2l16 -10l14 4l-4 23l37 32l23 8h14l6 23l17 10l24 72l6 43l6 12v31l13 45l20 -8zM332 995l8 -4l6 17l21 -9l8 9l10 2l49 -9l10 7l21 -21l-10 -4l-4 -8l2 -14l-31 -7l-23 15l-45 -23l-90 6l-53 -2l-8 23l6 18l18 10l25 7 l55 -4zM623 1143v26l22 -10l4 -20l-8 -25l-18 -29l-17 2l-10 -6l-10 -22l-39 4l-4 8l28 62l15 18l10 6h12v-6l6 -4l-8 -6l-2 -13l14 2zM1174 858l12 2v29l14 14l12 2l-2 13l-8 6l-31 -23l-2 -27l-10 -12zM874 45l13 -6l-2 12l22 10l-8 5v22h-12l-15 -33zM860 25l-10 -9 l8 -12l14 -6l9 6l4 12l-8 11zM1196 1032l-6 -10l10 -4h21l-9 22l-10 4zM1063 762l-12 -4l4 -15l10 -12h8l-4 23zM791 -61l2 -13l10 8l10 25l-12 4zM1001 678l-8 -4l2 -12l15 -3l2 13zM831 492l5 8l12 -6l-2 -9l-15 -4v11zM223 973l10 -4l5 16l-15 2v-14zM367 977l-5 -4v-8 l11 -4l4 4v8zM1096 784l4 15l4 -6l10 -2l-4 -11zM760 489l4 15l6 -15h-10zM1001 727v-12l9 6zM246 969l6 4l-10 4z" />
<glyph unicode="@" horiz-adv-x="1966" d="M1948 965l6 8l10 -6l18 -35l-2 -12l15 -33v-10l-6 -11l6 -22l2 -62l10 -24l-22 -13l16 -22v-49l6 -10l-4 -13l-12 -16l-11 -6l15 -19l-13 -75l-12 -31l-8 -8v-27l-47 -88l-27 -39l-37 -31v-12l-8 -18l-35 -27l-6 -10l-18 -4l-29 -25l-12 -20l-47 -15l-6 -8l-17 2l-10 -4 l-8 -10l-15 8l-30 -27l-19 6l-10 -6l-45 -2l-25 4l-36 -6v10l6 9v12l-11 -2l-4 -6v-13l-26 -2l-37 7l-14 12l-5 10l2 12h17l18 -10l15 -2l4 8v13l24 -2l56 4l6 -25l8 6l8 19l27 12h10l8 -6v-13l43 48l15 6l18 -17l4 9v12l62 39l24 24h16l5 8l-2 15l22 14l16 17l37 59l17 16 l22 15l-8 22v10l8 23l29 43l8 25l4 49l12 32l-4 23l23 37l-6 10l-10 6l14 35l10 6l-24 23v14l12 2l6 -6l12 -2l-10 22l-20 31l6 19l-2 26l4 23l8 8l-16 22zM1380 -76l11 -6l-2 -27l-7 -8l-10 -4l4 -22l-10 -4h-25v20l-12 -8v-23l-37 -10l-26 6l-2 -8l-19 -14l-12 -2l-25 6 l-18 -15l-62 -10l-10 -6l-57 4l-2 10l-8 9l-17 -2l-14 -21l-129 6l-51 12l-43 17l-9 6l15 14l26 6l23 -6l8 -6l10 8l11 2l24 -4l21 6l10 -4l12 -16l17 4l18 19l6 -7v-12l25 8l37 4l14 -18l6 6l-6 6l-4 13l41 2l12 -5l8 -8l25 27l12 4l12 -8l29 16l12 2l9 -20l8 -10l6 8l6 24 l8 9l17 2l10 -7l4 -10l14 8l6 11v12l33 14l8 -6l9 10l8 2zM1499 825l4 -18l-8 -4l-10 4l-4 -12l10 -7l12 7l4 -23l9 -18l-21 -47l4 -15l-22 -14l-17 14l-4 13l2 18l8 16l-12 31l4 23l8 10l-6 16v12l4 9l19 4l10 -6zM1010 319l14 -4l-4 -22l10 6l-2 12l6 11l17 -3l22 -12 l-16 -37l-13 4l-47 -2l-20 4l-10 9l-31 -4l-6 18v12l6 8h14l17 -12l32 15zM1090 -186l6 -11l26 4v15l-6 6l-20 6l-6 -10v-10zM1161 -168l15 -4l2 10l-4 10l-11 5l-6 -11zM928 -174l-10 -6l4 -13l12 -4l6 9l-4 10zM1925 481l-6 -12h14l9 4v10l-7 6zM1968 702l-2 -10l10 -8 l13 2l-11 4l2 17l-8 6zM1974 651l-12 -4v-10h18zM1931 541l11 -6v8zM997 -184v-9h9v9h-9z" />
<glyph unicode="A" d="M690 172l12 -4l-8 -4l-2 -29l-4 -8l-18 -14l-25 -7v27l-12 -6v-10l12 -21l-2 -16l-8 -10l-12 -4v-27l-23 -8l-14 -19l6 -10l2 -22l-6 -23l-25 -55l-24 -13l-27 2l-20 15l-5 -23l-94 8l-39 -4l11 21l-3 14l21 12l25 -2l8 -6l18 15l15 -13l22 11l39 10l35 33l6 26l-10 19 l2 10l16 12l-4 27l4 12h27l-17 37l33 37l25 8l10 -2l12 -8l10 4l3 10zM1579 -59h12l6 -11l17 -12l22 23l11 -4h47l10 -9l16 17l25 -4l37 -15l8 -18l-6 -12l-12 6l-7 12l-8 -8l-10 -21l-8 -6l-62 4l-14 -4l-8 23l-10 4l-5 -23l-24 -4l-76 8l-37 -8l-20 4l-76 -2l-23 8l-16 17 l23 4l-5 22l39 7l23 -11l20 9l48 6zM907 139l4 8l-8 11l-16 2l-4 -15l4 -12l-15 -8h-10v20l-6 -8l-20 -12l-50 -10l-26 2l-23 8l-22 -8l-13 6l3 12l10 17l-13 16l23 -4l18 14l45 -6l46 6l8 -4l8 -10l18 12h25l33 -16l8 4l2 8l20 -8l17 8l22 4l113 -8l8 -31l-2 -12l-14 -4 h-25l-12 4l-8 8l-13 -18l-96 4l-39 -4l-12 6l-8 12h12zM305 -63l4 -11l21 11h14l2 -46l-22 -6h-82l-23 -6l-14 4l-17 21l-12 6l-10 -6l-4 -13l-8 -8l-11 8l-2 11l6 26l29 21l23 -8l45 -4l51 4zM842 825h30l13 -20l-2 -55l4 -11l-21 -32l-2 -15l-12 4l-6 11l-10 6l-21 -17 l-10 -2l-12 6l22 50l14 -5l17 -18l2 25l-10 24l-23 -8l4 14zM1497 -90l10 -4l2 10l-8 6zM600 68l12 -2l-2 10h-14zM528 -53l-4 -10l11 2l6 10zM850 795v-11l14 7zM242 -78l-4 -4v-8l8 4zM1081 156v-9h6v9h-6zM1010 141l10 -4l-2 8zM287 -94v-6h10z" />
<glyph unicode="B" horiz-adv-x="1560" d="M1604 233l-11 3l-4 -9l19 -14l-6 -20l-15 -21l-24 -8l6 -12l12 -5l-20 -38l-2 -17l-11 -6l-39 -51l-18 8l-4 -10l4 -13l-33 -34l-41 -29l-51 -16l-16 22l-7 -4v-14l11 -4l-6 -11l-39 -16l-11 23l-20 -35l-23 2l-59 -17l-22 9l28 22l-18 19l-4 14l28 10l47 6l19 13l37 10 l20 12l12 -2l35 33l15 2l80 63l6 27l16 4l10 -10l21 10l10 -4l-14 18l-11 23v10l7 8l14 6l8 -12l23 8l-27 23l-4 8l4 14l23 -8l12 27l-17 31l13 4l6 8l-8 35l2 12l6 8l8 -8l8 -18l15 -3l-11 21l-12 4l12 12l-18 9l-4 10l2 8l12 4l-4 14l-10 9l4 10l10 8l-8 25l8 10l21 -14 l8 -23l-2 -12l-19 14l-8 -18v-13l23 9l8 -13l4 -24l-4 -27l6 -35l-10 -43v-28zM764 584l8 -9l12 17l23 4l166 -4l8 -8l20 -11l9 -8l-4 -12l-15 -14l-20 -7l-53 3l-39 -5l-15 23l2 10l8 12l-10 9l-8 -4l-6 -27l2 -14l-10 -7l-25 -2l-10 5l-4 26l-4 -8v-14l-133 -13l-21 13 h-24l10 -17l10 -4h14l-12 -67h-41l-8 22l-4 29l2 26l10 23l8 6l-6 10l2 13l19 10l12 2l18 -17l11 5l8 18l67 -6zM1503 842l-6 -8l-10 4l-12 18l-7 -8l-2 -14l13 -21l-4 -10l-19 -12l-26 -3l-31 25l8 29l23 43l26 24l4 27l19 29l4 30l8 9l-2 16l16 72v14l17 22l-4 9l4 6 l-21 12l6 10l-2 23l13 4l14 -18l16 -48l2 -24l-6 -23l4 -22v-74l-24 -100zM745 1165h95l-6 -18v-12l22 -11l-6 -12l-10 -6l-25 -2l-22 14l-7 10l-43 -20h-24l-31 20l-26 5l12 -21l-4 -14l-25 -29l-12 -6l-2 -14l-6 -9l-21 13l-6 12v33l12 -4l6 -11l13 4l14 19l-45 4l-8 6 l24 37l11 4l8 -24l8 4l2 24l37 4l16 -8l9 8l12 -2l18 -16l8 6zM408 -74l12 -8l12 4l19 15l22 -11l19 -16l8 6l-8 21l8 4h12v-11l10 -20l23 -27h-56l-12 23l-14 -2l-8 10h-13l-65 -25l-12 2l6 11l12 4l-8 8l-13 4l-10 -4l-6 -8l2 -15l-24 -6l-21 4l-10 7l2 8l-10 10l-19 -14 l-10 4l-2 24l20 11l48 2l71 -9zM686 -59l10 -9l-20 -30l2 -15l-25 -6l-86 6l-4 27l21 27l67 -35l8 8l-6 10l-26 6l-6 11l28 -2l27 4zM766 -70l-6 11l24 -2l2 -11l13 6l22 -2l19 -10l-4 -35l-11 -6l-12 2l4 13l-4 10l-18 -10l-9 14l-14 -12v-15h-8l-8 6l-2 13l4 -6l8 22v12z M870 1163l15 -2l4 -18l22 18l23 -6v-35l-23 13l-10 -21h-39l2 47zM707 -70l4 11l12 -4l18 -17l13 -6l-23 -31l-22 4l-13 -4l2 21zM1057 -74l-4 15h10l6 -13l29 -28l-31 -13l-14 4l-9 11l7 4h12v12zM1012 -78l2 -12l-8 -8h-13l-12 14l-12 2l-4 10l18 13l23 -9zM1167 -80 l2 -14l-10 -6l-22 4l-9 22h31zM926 -74l2 11h10l4 -11l-8 -30h-19zM852 -109v15l12 -2l10 -17l-18 -8zM1507 80l15 -4l2 20l-19 2l-2 -10zM545 -59l8 4l10 -8l-2 -11l-12 2zM301 -94l6 -6l6 6l2 12h-16zM1372 0l-10 -2l2 -10l10 -2l6 8zM428 -104l14 4v-13l-10 -4zM1518 993 l6 -6l4 21h-10v-15zM1509 950v-14l11 2l2 12h-13zM735 1135v-15l10 4l5 11h-15zM1595 238l9 6l-15 6l-4 -14zM575 -98h13l-4 10l-13 2zM1241 -55l8 -8l2 12zM1098 -86v8h6v-8h-6zM956 -100v10l9 -6z" />
<glyph unicode="C" horiz-adv-x="1673" d="M1708 217h-14l6 10l-12 23l-13 4v-21l25 -24l-31 -41l-2 -16l-22 -11l-11 -24l-30 -21l-13 -22l-22 -11l-31 -32l-22 8l-25 -39l-10 -6l-11 4l-16 14l-10 -32l-8 -9l-19 -6l-26 2v-26l-19 -7l-8 7l-16 -19l-27 -8l-21 -14h-22l-21 -15l-28 -2l-37 -12l-51 -6l-11 -4 l-10 4l-2 12l-45 -24l-35 24l6 -10l-20 -6l-10 18l2 12l-21 -12l-6 -26l-33 6l-12 18l-6 -14l-12 -6l-13 22l-16 2l-10 -6l-15 -2l-4 27l11 6l22 4l39 -8l8 -29l19 14l22 27l17 -2l10 -6l24 10l74 6l4 -10l8 -6l15 18l20 13l80 16l23 10l18 14l10 -6l29 21l25 6l18 16l80 43 l59 52l25 28l12 2l19 15l14 18l22 10l2 15l7 10l10 6v-27l20 7l6 8l-18 35l8 8l15 6l6 20l35 37l12 23l20 -8l25 -3l14 -34l-12 -4l-27 -58zM741 1028l-4 -14l-22 16l-13 -8l13 -27l-15 -4l-12 4l-4 -24l-16 -19l-11 -2l-12 8l-6 -12l4 -14l-16 -17l-6 -22l-3 -31l-22 -18 l4 -13v-22l-6 -25l-21 -43l9 -24l-9 -23l-8 -6l-14 -2l-10 14l4 13l2 41l8 10l-8 8l-8 -6l-7 -21l-12 19l4 29l13 18l20 -8l10 4l-6 12l-14 2l-15 -4v31l19 31l14 -17l2 -14l23 26l-6 13l-11 6l-14 -4l-4 12l4 12l19 15l4 -10l8 -7l4 15l-16 20l6 12h14l10 7l-8 26l12 8h15 l6 23l10 18l23 9v-35l12 6l6 8l6 25l-6 26h14l21 17l45 6l22 10l-4 27l11 4l10 -4l6 -11l22 7l-8 12l6 10l13 4l26 -4l9 6l22 6l55 -2l39 -6l15 -16v-15l-7 -14l-38 4l-2 23l-15 -2l-8 -6l6 -23h-12l-21 -8l-22 4l-12 -14l-15 4l-22 -13l-13 5l-8 -5l-4 -22l-49 -10l-18 -15 zM1638 1006l-16 2l-8 -23h-12l-29 -16l-12 4l-19 -19l-49 -16l-33 -16l-8 -11l-22 17l-9 -8v-15h-22l-13 4l-6 33l11 4l4 10l-4 13l24 8l88 49h17l41 25l34 6l45 22h11l16 15l35 14l37 -6l8 -8v-17l-10 -20l-13 -4l-8 -23l-10 -6l-25 2zM1686 287l-5 -15l15 4l12 -22l6 12 l-4 13l-16 12zM647 999l-8 -8l4 -10h16l9 10l-11 8h-10zM856 1110l8 -8l8 12l2 14l-10 7zM821 -92l6 -12l-4 -9l-12 2l-6 7l6 12h10zM840 -119v15l18 -17v-10l-12 2zM795 1090l2 -11l16 4l-4 19h-12zM752 1067l-15 4l-4 -14l8 -6l15 2zM1044 -111l-8 -10l25 6l4 11l-12 2z M915 1143l-2 -10h21l-4 12l-8 6zM1534 66v-13h12l-4 8zM1171 -100l5 -4h8l-6 8zM1640 1034v-8h9v8h-9z" />
<glyph unicode="D" horiz-adv-x="1675" d="M1679 645l13 12l32 -32l2 -13l-20 -26l14 -15l9 -20l-11 -19v-57l-4 -14l-20 -8l-21 4l-18 -15l-25 -43l19 -14l20 -6l8 -6l-8 -51l-10 -25l-29 -41l-10 8l4 27l-31 -17l15 -10l-11 -10l-4 -39l9 -4l10 4l-17 -18l-26 -43l-31 -39l-31 -21v-20l-22 -13l-47 -38l-27 -9 l-33 -32l-45 -21l-4 12l-18 15l-4 -11l10 -16l-17 -18l-22 -9l-27 -4l-32 -18l-15 4l-18 18l-8 -6l4 -24l-97 -19l-24 2l-21 7l-41 -11l-63 -2l-6 13l-10 6l-11 -4l-12 -19l-14 23l-31 -21l-14 2l4 19l-15 -2l7 -9l-23 -6l-27 2l11 23l-19 6v12l-10 -4l-6 -8l6 -33l-47 17 h-14l38 30l25 11l25 2l26 -7l-4 -18l23 8l4 -10v-14l14 14l23 6v19l14 -2l27 -21l10 4l2 14l47 9l22 -6l7 -11l26 6l15 -2l12 19l123 28l35 3l16 18l22 12l50 19l30 20l6 10h23l27 31l14 2l10 6l29 41l22 11l74 94l14 35l25 18l53 141l4 37l15 4l16 19l35 4l-2 12l-6 6 l16 19l2 10l-8 14l-23 -16l-2 12l15 23l-8 10l-11 -4l-4 -10l-10 8v10l14 20l4 15zM743 1133l11 -7l39 15l2 -27l4 -10l12 -8l10 8l-2 33l10 4h27l8 -11l4 -24l11 6l4 12l8 9l10 2l19 -13l-7 -24l-14 -13l-20 -4l-103 6l-10 -4l-8 23l-19 12l-8 -8l-8 -23l-25 -2l-24 7 l-21 -33l-6 -47l-2 -74l-4 -12l-20 -8l30 -37v-17l-18 -4l14 -18l2 -23l-8 -61l10 -19l-14 -49l8 -22l4 -27l-6 -37l-6 -8l10 -33l-6 -20l10 -19l-4 -12l-22 -25l-4 -12h-23l-8 25v24l10 21l18 14l-22 33l2 26l-8 50l2 22l18 70l-16 20l-2 17h12l14 12l-8 12l-12 2l-6 27v51 l-4 12l14 13l-10 45l20 8l6 6l3 16l-11 -4l-4 -10l-10 -4l-12 14l6 27l6 72l8 22l17 19l26 -4l84 4zM371 -61l12 -5l-4 -10h-14l2 -12l6 -8l12 6l12 24l9 9l10 -4l12 -19l8 -4v23h66l20 -15l51 19l11 -4l12 -15h14l-2 -14l10 -25l-36 4l-13 -4l-8 15l-18 -15l-13 6l-49 -6 l-2 17l-8 10l-8 -27h-25l-12 9l-10 -7h-27l-10 7l-12 -7l-25 -4l-25 2l-41 23l-24 -14l-2 12l12 16l4 12l25 7l24 -2l9 -9l20 9h27zM1683 762l5 12h12l4 -26l22 -3l7 -6l-4 -14l-11 -8l-30 16zM1702 711l12 2l6 -23l17 -14l-11 -14l-12 4l-26 28l4 11zM655 -70l13 9l8 -7 l8 -20l10 -8l-8 -23l-12 4l-8 9zM1677 836l6 36l13 -2l18 -28l-6 -6l-2 -25l-2 8zM1620 344l-4 -12l12 -2l27 -17l2 41h-17zM616 1063l-14 -2l16 -31l11 -6l8 33l-10 6h-11zM1690 428l10 -2l-8 -18v-15l-19 10l-4 9v14zM623 -70l14 4l4 -53l-20 4l8 9zM612 631l-6 -13l17 -6 l6 11l-2 10l-9 6zM1675 539l2 -15h-14l-6 8l6 11zM977 -78l-8 -2l6 -10l14 -2v16zM631 1085l14 -4l-4 17l-12 2zM950 1098l8 -11l-14 -2l-8 11zM999 -94l9 -8l4 14l-8 8zM846 -72l-2 11l16 -5l-4 -8zM698 1110l11 -4v16l-11 -4v-8zM1675 799l2 10l9 -8l-3 -13zM1389 31 l-5 -8h13l4 10zM1624 379l6 -10l4 16zM1714 793l-4 12l12 -4zM1329 14v-8h6v8h-6zM1253 -47l4 -14l5 10zM610 702l4 -4h7l-5 9zM588 565l4 8l6 -10z" />
<glyph unicode="E" horiz-adv-x="1425" d="M1313 635l-10 6l12 -37l6 -78l-4 -14l-23 4l-2 -22l-12 2l-23 -11l-10 4l-45 -6l-35 6l-12 -2l-18 -10l-25 10l-6 9l-47 -9h-25l-22 7l-11 -7l-24 -2l-33 9l-35 -13l-47 -2l-37 10l-55 -8l-16 8h-23l-47 -8l-70 -22l-10 20v47l29 19l20 -6l25 6l39 -15l10 2l16 13l27 -4 l76 4l33 -10l20 8l27 4l37 -6l8 -6l184 8h84l-18 -13l-13 -18l4 -8l13 4l24 27l13 4l4 -31l12 6l14 21l-10 6l-25 4l-8 8l19 31l-4 22l8 78l-6 35l10 12l-14 8v49l4 25l10 21l8 6l10 -4l4 -11l23 4l2 -28l-10 -49l4 -23l8 -10l-6 -23l-8 -6l10 -24l-2 -25zM891 -94l-12 4 v-10h22l4 -17l-26 2l-11 6l-26 -8l-31 8l-14 -4h-23l-8 -8l-23 10l-16 17l-10 -2l-12 -17l-72 -4l-23 4l2 17l-6 10l-14 -31l-17 -2l-45 8l-28 -6l-13 2l-8 6l-20 -8h-47l-11 25l-12 6l-10 -4l-8 -12v-15l-11 -2l-30 10l-43 -6l-25 9l-8 6l6 10l12 4l-4 23l47 6h115l6 -23 l8 -8l13 -2l8 20l8 11h39l33 -13l24 13l25 -2l22 -9l25 2l12 9l15 -4l10 -9l14 -2l-4 11l19 6h24l37 -6v-9l-8 -6l14 -20l12 6l9 10l-9 23l29 -2l17 -13l20 13l23 4l51 -11l20 -10l29 21l24 -2l11 -9l30 9l5 -35l-5 -10l-22 14l-4 -10l2 -11l-6 -10l-76 8l-2 17l-8 6z M774 1130l6 -10l13 4l10 11l4 12l151 -8l89 8l18 -12l129 12v-31l31 -14l6 -8l-10 -9l-27 5l-23 -5l-94 5l-35 -7h-26l-62 15l-22 -13l-25 7l-35 -2l-53 20l-12 -2l12 -23l-10 5l-6 8l-96 -15l-66 -4l-6 -10l-6 -25l-13 5l-6 6v24l-16 6l-2 13l12 2l14 -6l5 22l-23 -4l8 18 l10 7l54 2v-31l12 2l2 29l19 -6l24 10h25zM1411 127l-2 14l12 -2l2 -14l35 8l8 -47l-2 -78l-18 -4l8 -6l10 2v-14l-12 -23l-10 -8l10 -2l12 6l4 -33l-10 -20l-16 -12l-23 -7h-78l-20 35l-33 -8l4 -10l25 2l-2 -15l-10 -6l-25 -6l-10 6l-4 15l-21 -17l-16 8h-12l-5 13l-10 8 l-12 2l-4 -8v-15l-21 -8l-10 2l-18 15l-19 -11l-12 -2v27l-12 -4l2 -10l-11 -9l-24 -8l-4 11l4 34l22 13l15 -4l8 -9l12 6l25 5h63l13 6l53 -33l12 2l-4 10l-8 6l4 11l24 2l43 -6h27l16 -23l29 117l-10 18l4 27h12l11 6v20l-19 -10zM1432 1214l-5 -10l27 10l4 -12l-4 -12 l-8 -8l22 -4l-6 -45l2 -13l-14 -18l-23 -10l-98 -7l-18 13l-15 -2l-20 -13l-23 7h-14l-20 43l12 14l76 -6l18 -8l8 -9l19 23l26 -4l31 14l-4 12l2 23l8 18l-6 25l4 10l14 4l7 -22zM1466 213l-2 -16h-32l32 -33l-10 -19l-16 2l-11 7l-12 -7l-8 37l8 39l17 13l-7 10l-12 4 l8 14l17 8l14 -8l6 -8zM1442 1292l4 13l20 -5l-6 -26l-10 -6l6 -11l-6 -8l-10 8l-4 11zM1419 1391v12l17 -6l-9 -31l5 -12h-15l-8 4l2 16zM1460 1460l4 -10l-12 -2l-25 8v12l13 5l12 -5zM1135 1108l2 -10h14l8 10l-2 14l-10 6zM1444 1323l-2 12h14l8 -4l-6 -18l-10 4z M713 1114l-4 -8l26 2l-2 10l-12 6zM1280 592v-12l12 2l4 14l-4 10zM662 -86l-7 -8l21 -6l-2 12zM1405 1309l4 4l10 -4v-6l-10 -5zM1411 1278l8 -2l11 -8l-25 4zM1419 -90l21 -4l-8 10zM553 -84l-6 -10h14zM1454 1358v8h8v-8h-8zM1427 1415v8l13 -8h-13zM731 -68v-6h8v6h-8z " />
<glyph unicode="F" horiz-adv-x="1361" d="M1253 498l7 -11l32 23l8 -23v-14l-10 -22l-10 -9l-14 -2l-4 15l-19 16l-4 -10l16 -21l-10 -6l-28 2l-11 4l-10 -6l-39 -4l4 23l-14 -2l-12 -21l-29 4h-59l-5 10l2 17l-4 10l-16 -2l-6 -6l-2 -21l-6 -8h-15l-28 19l-13 -7l-6 -12l-12 2l-6 8l-12 5l-3 -15l-14 4l-51 -8 l-74 2l-16 12l-12 -2l-11 -8h-35l-22 -10l-23 -27l-10 -28l2 -37l-10 -19l8 -30v-13l-10 -18l2 -37l-23 -4l5 -10l22 -21v-14l-22 -10l-27 2l-8 8l10 47l16 16l-4 11l-10 4l-4 8l6 6l12 2v14l-6 11l-16 12v129l22 53l52 8l12 -4l16 -34l10 -7l13 2l-2 13l-25 18l37 10l12 -2 l11 -8l16 12l24 -4l52 6l26 -2l-4 -22l15 2l10 8l6 12l27 -4l98 4l47 -2l25 -6l12 2l10 11l23 -9l32 9l19 -11l12 2v-14l12 -8l11 12l-4 8v13l20 12zM1380 1466l11 4l14 -16l20 -10l-4 -27h-26l-11 -4l7 -12l10 -6l12 6l10 -23l-2 -65l4 -13l-4 -12l-14 -14l20 -29l3 -12 l-5 -12l-26 -4l6 -11l12 -2l8 -10l-2 -39l-6 -10l4 -31l-18 -10l-12 2l4 24h-45l14 -18l20 -12l-18 -17l-12 -2l-27 33l-14 -2l-8 -6v-29l-50 8l-22 -2l-27 4l11 27h-19l-14 -24l-13 -7l-22 17l-27 -17l-10 4l-12 17l-15 -14l-26 -7l-37 9l-6 8l6 6l29 8h12l2 27l68 4l24 -4 v-17l6 -10l8 8l-4 15l25 2l33 -9l12 7h10l10 -25l9 -8l8 6l6 23l6 8l49 -8l15 24l18 19l21 -5l6 9l-4 8l-19 10v23l8 22l-6 23l6 53l-8 22l17 2l10 9l-10 8l-13 -2l-12 6l4 22v54l6 20zM672 1143l12 2l4 -12l17 -17l2 -12l14 4l27 29h69l-10 -35l-16 -15l-13 -4l-10 13 l-20 -15l-39 6l-43 -18l-27 -18l6 -37l-6 -8l-18 18l-11 -2l-16 -10l-4 24l10 23l16 14l-18 27l23 37h28zM391 -63l12 2l17 -19l6 -12l23 10l18 14l6 11l23 -2l6 -7l-19 -30l13 -6h14l-10 -21l-11 6l-38 11l-5 6l-20 -11l-25 -4l-6 11l-6 28l-14 -2l-8 -10l-13 -4l4 -19 l-49 -8l-47 6l-8 7l4 10l10 -4l-2 14l-10 6l20 19l27 -2l10 -7l25 7h53zM1264 786l6 7l18 -7v-16l4 -12l-6 -6l2 -11l8 -6l4 -10l-6 -10l4 -27l7 -8l-11 -23l-2 -22l6 -94l-2 -13l-12 2l-18 -16l-23 6l8 76l11 -2l20 10l-10 8l-23 -6l-10 2l6 10l43 17l-14 29l2 10l10 10 l-6 14l-31 23l-6 8l6 19l-2 14l13 2zM637 143l12 -4l-2 -14l-12 -21l6 -12l-6 -18l2 -8l10 -11l-10 -8l-6 -22l-10 -7v-49l6 -16l10 6l-2 33l10 -4l4 -8l-4 -37l2 -13l-26 -10l4 10l-2 13l-23 -9l-22 15l26 12l-6 10l-12 4l-2 13l10 45l-8 49l8 18l-2 29l6 10l14 -18l11 6z M934 1122l22 23l25 -8l61 4l-6 -13l-18 -10l-51 -6l-11 -8l5 -23l-15 -2l-8 4l2 15zM909 1139l21 -13l-4 -10l-19 -10l-39 27l-12 -5l-14 -16l-11 -6l5 12l-5 15l13 6l26 4zM553 -74l10 -6l-18 -39l-17 29l-18 16l8 13l10 2zM569 -86l4 10l13 -2l18 -24l-14 -15l-12 -2 l-11 4zM627 428l8 -6l14 4v18l-28 9zM645 1104l-2 -12l29 4v14l-10 4l-11 -2zM612 102l-12 -2l4 -18l12 2l7 6v10zM883 1100h12l-4 -8l-23 -9l-10 4l10 9zM807 451l2 -11l12 4l6 15l-8 8zM1245 664l2 12h15l-5 -14l-10 -5zM598 -4l10 -4l4 14l-8 8l-6 -8v-10zM993 1096 l13 -4l-7 -9l-12 -2l-4 11zM905 1087l-2 13h15l-3 -17zM1278 569v-14l10 2v12h-10zM754 1120l-6 -6l10 -2l6 6z" />
<glyph unicode="G" horiz-adv-x="1703" d="M1700 633l12 -4l-8 -8l-2 -11l8 -4l10 4l17 -37l-4 -8l-19 19h-12l2 -11l-6 -30l8 -2l23 8l6 -37l-15 -31l9 -24l-3 -13l-14 -20l10 -12l11 -2l-9 -9h-12v-32l23 -13l-4 -98l2 -61h-27l2 -13l8 -6l13 -2l6 -8l-4 -59l8 -21l-15 -27l9 -12l2 -22l-11 -47l5 -9l-9 -6l-14 2 l4 -24l10 -19l13 -2l-2 -12l-7 -8l-26 6l-8 -2l-11 -23h-120l-21 17l-8 -9l-37 -10l-51 13l-21 16l4 12l19 15l88 8l14 -17l8 9l13 2l28 -7l9 -6l30 19l13 -6l10 -37l10 6l4 10l-10 33l10 8l15 4l-7 41l7 23l-7 20l-2 47l4 51l-2 50l11 18l-4 31l20 10l-4 12l-19 10l3 17 l-11 22v11l15 -15l16 2l6 9l-4 12l-12 4h-17l-2 14l9 21l-7 14l19 4l4 15l-19 12v14l23 8l-6 11l-21 16l2 35l-6 10l8 10l-6 17l6 49l-8 14l2 12l13 17zM602 897l-4 12l-16 -18l-4 -37l-7 -10l11 -2l10 8l12 2l-22 -94l-2 -31l-13 4l-4 10l8 27v12l-8 8l-12 -24l-10 -10 l4 -6l10 -3l-2 -12l16 -22l2 -15l-14 2l-10 7l-17 53v10l7 4l-15 19l21 43l4 24l-6 31l10 6l12 -2v14l8 25l23 -12l27 28l4 10v15l-9 12l9 4l14 -2l8 4l-6 13l6 38l19 19l22 4l12 -6l5 22l-5 9l17 16l47 16l31 19l6 10l20 -8l17 14l51 8l-6 -12l8 -4l29 -2l-5 22l27 2 l72 -24l2 -12l-12 -17h-25l-10 6l-23 -10l-39 -6l-10 4l-39 -29l-22 -6l-27 -2l-21 -12l-36 -33l-25 -8l-8 -6l-17 -29l-14 4l-14 -20l-8 -25l-27 -2l-12 -6l-11 -18l15 -19l-4 -16l-23 -11zM1663 1180v-11l-10 -2l-19 11l-10 -11l2 -10l8 -10l-22 -23l-13 -4l-20 23h-14 l2 -13l14 -10l-33 -37l-39 -28l-45 -21l-16 -16l-23 -10l-49 -9l-22 -8l-11 13l-4 22l4 8l17 15l24 10l11 -8l12 2l-6 10l-10 6l-2 14l22 9l57 34l15 2l10 21l20 8l13 -2l10 -8l10 20l17 21l28 24l23 9l26 2l13 -4zM1214 -55l5 10l14 -2l18 -14l9 -25l-13 -4l-30 -23l-15 -4 l6 21l-2 10l-20 -12l-6 -23l-45 -10l-2 12l-7 6l-22 -30l-27 4l-22 -4l-11 -7l-16 11l-35 -8l-22 6l-8 8l-2 10l-13 -6l-18 -18l-8 22l-11 4l-4 -14l-45 2l-22 8l-15 21l-34 -5l4 13l8 6l24 2l23 -10l12 -19h15l14 13l2 10l10 -2l58 10l14 -27l8 4l-4 11l8 6l25 6l12 -4 l-10 -8l-8 -15l8 -10l10 8l-2 17l35 8l6 12l14 -16l8 2l5 10l26 -12l6 8l-4 12l2 11l21 -5l18 11l25 6l22 -21l8 6v11zM1071 530l14 5l21 -23l2 -12l-12 -6l-25 -2l-8 -11h-10l-9 8l-20 -12l-25 2l-18 15l-2 20l8 12l35 9l25 -3l12 -6zM1683 791l7 12l12 -4l4 -11l27 7 l4 -11v-30l-4 -13l-15 2l-14 23l-10 6l-6 -6l-13 -2zM1706 690l6 10l17 -8l-19 -22l6 -6l17 2l4 -11l-6 -22l-11 -4l-8 22l-18 -8l-4 14zM1681 737l2 13l46 -37l-13 -2l-12 4l-14 -2l-2 14zM1452 1096l-14 -2l2 -13l6 -8l10 -2l10 4l-4 15zM1694 516v-16l18 -6v28l-10 4z M680 1038l-2 -8l6 -10l12 -6l-4 16l10 10l-18 9zM848 1133l-4 -17l12 -6h12l9 10h-15zM1708 133l-10 -4l8 -14l14 4l-2 12zM739 1055l-6 -11l12 3l11 16l-4 12l-11 -6zM1430 1028l8 -6l10 33l-14 -6zM1690 88l8 -8l4 8v14h-12v-14zM805 1104l-4 -14l14 4l2 14zM1608 1196 l-17 -4l2 -10l6 -4l7 6zM1518 1102l6 6l-19 4l2 -10h11zM1694 -2v-12h12l-4 8zM1145 -82v-12h8l4 12h-12zM582 950v11l8 -3l4 -8h-12zM1729 -68v13h10l-2 -8zM1686 686l-3 4l7 4l4 -8h-8zM635 911v9h8v-9h-8z" />
<glyph unicode="H" horiz-adv-x="1714" d="M672 535h12l-6 -13l12 -37l12 9l-12 36l49 7l97 -2l18 -13l12 8l25 2l47 -4l18 11l11 -7l4 -10l45 13h22l72 -17l-6 -29l-49 -12h-99l-4 10l-22 9l-8 -7l-4 -10l-9 -6l-10 6l-39 -4l-10 4l-8 10l-35 -12l-25 8l-20 -12l-41 8l-27 -4l-22 -10l-19 -16l-12 -19l2 -29l-8 -8 l10 -20l-6 -19l10 -51l-8 -39l-6 -8l6 -27l-6 -10l6 -10l4 -27v-39l-18 -4v-18l22 -12l-6 -23v-74l-4 -24l6 -25l-10 -63l-21 -11l-18 19l-14 -2l-11 -6l-12 -19l-47 4l-14 -4l-13 4l-6 11l-6 26l2 13l12 4l25 -2l16 -13l7 8l47 13l18 12l-12 47v49l8 37l-10 19l4 10l10 4 l-14 43l2 57l8 33l18 -10l4 14l-32 14l4 48v86l14 22l-14 21l-2 22l8 43l51 14zM1696 1194l12 -2l2 -98l-6 -45l-18 -9v-22l4 -8l8 4l6 20l6 -8l-2 -41l4 -12l-6 -10l-10 -5l10 -24l2 -14l-4 -11l-8 -4v-14l8 -23l-2 -22l-12 -23l-7 -22l3 -10l12 4l6 12l6 -6l-6 -10l4 -101 l-2 -26l-6 -23l6 -12l-2 -27l-23 12l-10 -6v-14l8 -6l23 -4l6 -9v-47l-12 -16l12 -18l-12 -25l6 -23l-2 -26l4 -39l8 -10l-2 -31l-6 -10l4 -13l-4 -24l-18 -4v-17l18 -16l4 -12l-4 -13l-18 -10l14 -20l-2 -15l-12 -18l16 -47v-27l-8 -6l8 -12l-4 -23l-8 -10l4 -10l14 -17 l-16 -41l4 -26l-31 6l-20 27l6 14l4 24l8 11l-12 22l26 8l-8 9l-14 4l4 12l-2 20l-10 35l10 9l10 -3l-14 60l4 35l14 20l-8 23l10 4l4 10l-4 8h-22l2 25l-4 22l4 11l10 6l-16 47l8 8l2 23l-4 26l6 21l-6 20v135l20 8v23l-6 8l-16 2v47l8 -4l2 -12l6 -8l10 6v20l-8 7l-14 2 l-4 49l8 18l-6 27v49l-6 12h24l-6 13l-18 18l4 12l2 72l10 20l-10 15l-2 10l14 20l18 17l7 10l-9 8h-26l-4 19l10 4h14l11 -4v10l-13 29l-10 -17l-10 10l2 9l12 8zM602 1456l2 12l27 -2l8 -6v-80l-6 -22l-19 -15l29 -14l6 -8l-6 -53l2 -27l4 -10l-14 -25l10 -37l-27 -26 l-6 -23l6 -12l9 6l-4 21l18 4l10 -25l-8 -41l-8 -6h-17l-22 -8l8 24v15l-18 10l2 29l12 37l8 8l-18 32l-2 25l4 10l12 6l-14 45v50l10 16l-4 45l16 8l-18 15l-4 12l10 4zM1606 -53l12 -6l-2 -25l6 -29l-10 -4h-25l8 19l-28 -2l-21 -9l-8 -8l-12 6l-6 11l-7 -6l-2 -11l-10 -2 l-26 6l-9 9v10l11 4l20 -4l-2 12l-18 8l-27 -18l-10 -21l-47 -4l-33 13l-12 -7l-27 5l-10 8l16 24l47 13l103 -2l30 4l4 -19h13l14 10l10 -10l8 6l5 13zM1683 1479l13 -6l-10 -23l10 -20l-19 -33l6 -11l21 7l6 -54l-4 -22l-12 -19l10 -22l-18 -33l-13 -6l8 -6h23l-10 -21 l-23 -10l-8 19l8 8l-16 18l-8 27l36 6l7 8l-11 4l-16 15l-12 43v77l-4 27l26 25zM432 -59h12v-17l19 -28l4 -13l-23 -2l-8 4l-24 -2l-2 15l-7 8l-26 -27h-29l-47 8l-22 -8l-11 21v32zM1640 -49l7 4l10 -14h-6l6 -9l12 -6h25l10 6l2 -12l-12 -24l-27 2l-27 16l7 12zM612 494 v-13l9 -6l10 2l8 8v11l-10 6l-11 -2zM1679 975l-6 -14l21 -3l4 11l-2 14l-10 4zM1001 512l-4 -12h21l6 8l-12 10zM621 1276l10 4l-6 10h-17l2 -12zM1679 127l-8 -8l4 -8l11 -5l2 13zM604 199l-8 -9l16 -8l2 19zM621 57l-3 -10l13 2l4 12l-12 5zM616 1092l7 -7l-2 9l6 12 l-11 -4v-10zM1688 367l-11 -7l9 -6l10 2zM436 -84l6 10h-20l6 -10h8zM1663 -12l10 -6v12l-6 6zM1675 238l-4 -7l19 9l-13 8zM1573 -84l10 -2l-8 12zM1673 543l8 -4v10l-8 4v-10zM614 1317v-8h9v8h-9zM246 -98v8l6 -10z" />
<glyph unicode="I" horiz-adv-x="655" d="M635 737l14 4l-8 -153l-8 4l-2 -12l6 -5l8 5l2 -101l6 -33l-12 -14l10 -39l-6 -22l6 -21l-2 -24l-8 -23l8 -22v-23l-12 -37l10 -18v-51l-10 -41l12 -15l-6 -20v-15l-4 -10l-8 -4l4 -14l10 -8l-16 -17l-23 -6l-10 -8l-6 39l6 20l14 -2l8 -8l9 10l10 27l-10 4l-31 -10 l-8 10v12l20 -4l-20 19l8 24l8 6l-16 33v16l12 -2l8 -6l10 8l3 9l-5 10l-20 12l14 15l-4 10l-14 12v94l-4 62l4 10l8 4l-4 12v41l-4 15l26 -11l9 4l-11 19l-16 14l-10 17l10 28l-4 13l8 49l-16 22l8 23v53l10 -2zM629 -10l-2 12h8l6 -12l4 -37l-10 4l-25 -20l-24 -13l-17 2 l-8 -8v-22l31 14l26 -4l19 4l-6 -10l-19 -13l-24 -6l-41 6l-6 25l-13 20l2 -24l-6 -12l-22 6v12l-4 -8v-15l-4 -8h-78l-51 4l-23 9l-23 -13l-18 17l-37 -17l-8 8l-4 31l27 12l24 5l25 -5l10 -6l16 13h193l22 4l15 10l26 -6v8l-20 18l2 15l8 -10l14 -5l13 5zM631 1442l10 -4 l-12 -8l16 -25v-12l-22 6l-13 -2v-13l15 -2l16 -12l6 -20l-2 -78l-31 -19l9 -12l12 -2l10 -8l-10 -8l-4 -13l8 -10l6 -20l4 -47l-6 -15l-20 -10l18 -14l8 -19v-49l-26 8l14 25l-4 10l-23 2l6 19l11 4l-23 49l-16 18l10 72l-6 22l18 5l2 26l6 8h-18l-8 49l4 50l12 18l-8 23 l18 8h13zM635 911l-2 -14l20 -4l-8 -49l-14 16h-13l5 -14l8 -8h14l-4 -11l4 -20h-27l5 -16l18 -7l4 -12l-4 -12l-16 -17l-25 -4l-6 21l-2 88l16 12l-2 10l-10 17l12 22l10 6h11zM639 1016l14 -6l2 -11l-4 -24l-6 -10h-14l-35 -11l4 35l-4 15h22l9 10zM639 946l6 -10l-10 -6 l-12 8l-13 -4l-8 -10h-10l12 22l25 4zM631 1473l6 -13l-21 -12l-12 2l4 14l10 9h13zM614 1346v-25l17 4l-2 23l-11 6zM608 537l-4 -11h10l13 17zM596 1026l4 4l8 -4l2 -12l-10 2zM610 1204l-2 -16h10v10zM621 395l6 -4l4 15h-13zM623 168v-8h10l4 8h-14zM637 371l-14 -6 l10 -5zM610 772v-8h13z" />
<glyph unicode="J" horiz-adv-x="1361" d="M1315 936l2 16l10 4h16l-2 15l-8 6l-20 2l2 25l-4 47l6 22l-8 23l6 51l-6 137l12 19l-8 90v51l8 2l25 29l8 -5l12 -18l6 -27l-6 -22l-8 -8l10 -21l4 -22l-4 -49l4 -64l-4 -14l-10 -8l12 -23l-6 -102l8 -91l-2 -14l-8 -8l10 -27l-8 -8v-35l-4 -10l-10 -4l16 -18v-9l-8 -8 l6 -20l2 -25l-4 -10l-27 -6l-8 -11l8 -22l27 8l12 -18l-6 -25l-14 -33l8 -22l-6 -10l-2 -25l16 -59l-8 -19l6 -24l-4 -47l6 -13l-24 -8l6 -10l20 -12l-18 -144l-37 4l-8 -8l4 -8l22 -2l4 -35l-4 -10l-24 6l-25 -6v-53l-4 -13l10 -8h17v-12l-15 -13l-39 15l5 16l-3 10l-10 11 l15 18l2 10l-4 15l6 12l18 18l12 7l-10 8l-4 14l16 18l2 13l-6 26l19 9l-6 24l8 51l16 33l-8 41l16 21l-6 10l-20 16l4 49l-2 23l-6 10l8 23v51l6 10l-14 19l8 8l2 10l-10 61l4 11l10 8l-10 26l22 41l-14 21l-4 -12l-8 -9l-2 13zM752 -129l-25 -12l-12 18l-10 -22l-25 6 l-23 -6l-10 8l-4 12l-12 -6l-29 8l-12 -2l-6 12l-21 7l2 12l10 6l27 -6l45 4l15 -2l-5 -23l13 -2l20 6l15 -4l2 9l-7 10l5 8h12l33 -10l10 2l8 -29l12 6l-4 27l15 -2l18 6l8 8h33l8 6l27 -2l61 27l49 14l19 17l26 10l19 -35h14l17 12l6 11l4 22l-13 -2l-4 -10l-12 -2l-4 14 l18 18l33 23l6 12l15 2l16 15l27 39l10 6l10 -19v-12l-6 -8l10 -23l11 23l2 39l-13 33l13 12h14l49 -31l-6 -27l-41 -38l-2 -15l-12 -4l-9 -10l-14 -4l-10 18l-19 -24l-12 -4l6 -9l21 -4l-6 -12l-37 -29l-6 -12l-13 -2l-41 -31l-22 -2l-23 4l-8 -6l4 -8l-18 -10l-27 -4 l-59 -27h-39l-12 -6l-7 -10l-26 2l-64 -4l-6 14zM559 565l8 -6l-8 -31l4 -12l-41 -18l-4 12l8 22l-18 25l-4 25l18 16l25 4l10 -10l-2 -14zM1004 -51l-3 -15l25 11l10 -2l8 -13l3 11l-11 20l-26 -4zM1337 403l9 -4l12 27l-8 8l-15 4zM1317 236l14 2l-2 -15l-6 -10l-14 -2 l-4 18zM1337 848l-6 -10l8 -9l15 -2l2 13l-8 8h-11zM807 -115l-4 -8l14 -4l14 4l-4 10l-10 2zM1331 356l4 -10l6 8l2 15h-12v-13zM999 -88l7 -4l2 10l-9 6v-12zM1339 600l-8 -10h15zM1343 1395l11 4l-19 6zM1335 1350v-9h8v9h-8zM840 -98l8 2l-12 8zM1145 -10l4 10l-10 -4z " />
<glyph unicode="K" horiz-adv-x="1572" d="M1528 1438l8 8l2 -14l18 -9l11 7l-2 16l-4 4l-11 -2l-14 -2l35 37l14 -4l35 2l12 -13h-22l2 -16l14 2l6 10l2 -12l-12 -22l-10 -7h-10l-5 -22l-30 -17l-6 -26l-19 -12l-12 2l2 -21l-51 -51l-33 -41l-21 -8l-8 -23l-14 -4l-12 -31l-23 -4l-4 -18l-29 -19l-4 -20l-10 -6 l-23 -33l-18 -16l-14 -4l-29 -41l-31 -35l-30 -23l-13 -22l-67 -70l-6 -10h-31l-19 12l-8 23l6 22l9 10l10 -4l10 -18l6 8l4 25l-4 24l31 41l18 -6l6 6l7 23l45 30v15l22 20l25 -14l12 2l-12 18l-10 5l-7 8l37 32l15 21l4 14l37 31l51 64h14l10 22l47 49l29 -6l12 4l-16 17 l-2 16l31 12v17l6 12l16 4l27 -10l6 8v14h-12l-6 -10l-11 6l6 10l13 -2zM643 455l6 12l19 -12l6 -23l-6 -35l-9 -10l-8 -4v-53l-22 -8l4 -11l16 -14l-4 -10l-16 -15l4 -12l18 -12l-2 -29l-4 -10l-16 16l-27 -4l19 -18l28 -21v-26l-6 -23v-20l6 -11l-6 -8l-20 -10l26 -23v-36 l-8 -9l6 -8l4 -37l-10 -18l4 -12l-10 -31l-8 -6l-31 33l-12 4l-6 -13l2 -10l26 -27l-12 -6h-12l-21 11l-10 22l-21 -12l-6 -23l-67 6l-17 -2l-2 11l-6 6l-10 -10l-23 -9l-75 6l-25 -6l-10 -6l-21 15l-12 2v36l10 7l23 4l76 -4l22 2l19 -13l71 11l12 -2l-4 -27l4 -10l9 4 l6 33h39l8 -9l29 25l6 22l2 27l8 23l12 -7l2 -14l15 4l8 8l-6 13l-27 10l-6 27l4 24l12 35l-10 12l10 15l-16 18l-6 12l4 25v74l8 34l12 19l11 8l-5 18l-22 -4l-6 27l4 25l16 32l23 -8l10 8v15zM1444 -59l10 -9l8 7l23 4l28 -2l21 -9l-4 -18l8 -6h14l11 6l-11 6l-4 8l23 11 l24 2l39 -4v-15l8 -2l19 12l6 -8l6 -22l-4 -11l-12 3l-19 10l-49 -17l-76 -8l-14 6l-8 11l-29 -17l-73 6l-11 6l-20 -8l-78 4l-18 -8l-50 8l-20 15l-6 20l43 19l37 -2l14 -7l23 13l10 -4l78 2l18 -11l25 9h10zM631 1470l10 -10l2 -53l8 -49l-10 -19l4 -65l-8 -21l-10 -4 l-15 23l-24 26l4 13l14 2l-12 20v27l4 10l8 4l-12 21v53l4 12l14 15zM1354 1200l12 -8l12 14l-35 17l3 -13zM604 371l6 -6l4 8l23 10l-2 14l-8 4zM604 -27l-2 -14l2 -4l17 4l6 23h-15zM1276 1102l8 6l-4 8l-12 -4l-11 -22zM385 -80l-12 -2l6 -12h10l6 8zM270 -74l-4 -12 l15 -2l8 10zM590 326l-2 12h12v-16zM1296 1126l15 -2l-4 13l-13 2zM1298 1178v-13h13v13h-13zM1595 1436l7 -9l6 9l-6 10zM1536 1376l-10 -6l4 -8l10 6zM1575 -96v-8h10z" />
<glyph unicode="L" horiz-adv-x="1323" d="M1397 258l6 -16l-10 -6l-19 2l4 -23l6 -8l11 4l8 18l10 -22l-8 -47l2 -27l8 -12l-8 -23l-10 -4l18 -22l-4 -25l2 -100l-8 -43l-12 -19l-52 -6l-73 6l-19 9l-67 -13l-39 4l-8 21l-9 8l-10 2l-4 -16l4 -11l-8 -4l-55 2l-13 -6l-30 8l-25 -8h-24l-25 6l-18 15l-7 10l-22 -25 l-10 -6l-25 8l-18 -6l-29 -2l-8 10v17l-8 4l-13 -6l-6 -25l-14 -2l-72 10l-16 -12l-35 8l-33 -8l-12 4l-10 17l-11 -9l-24 -2l-49 4l-11 -2l-8 9l-22 10l-6 -10l6 -13l-11 -6l-47 6l-67 -8l-49 10l-21 11l-16 14l6 10l26 12l27 -2l8 -6l23 8l51 -4l25 2l10 7l24 -5l52 5 l12 -17v-14l12 4l21 31l26 -6h21l10 -7l27 13l24 -4l94 4l23 -2l37 -11l20 9l25 -2l8 -7l23 11h24l25 -11l20 11l13 -2l8 -23l10 4l2 14l6 9l27 -2l22 -7l49 9l74 -9l29 5l-4 -21l4 -10l8 4l4 22l23 5l22 -11l8 -8l19 23l26 -9l21 7l16 14l23 41l8 -4l4 -8l10 4l4 12l-4 10 l-18 8l-8 45l2 25l10 25l-12 41l-4 55l4 24l14 23l10 8h11zM602 1464l4 11l12 -11l25 -6v-72l4 -30l-6 -10l-10 -7l-6 -12l22 -37v-12l-37 -8l4 -10l27 -3l10 -4l-10 -39l-8 -10l8 -18l4 -27l-2 -12l-14 -14l4 -11l-6 -35l-17 -14h-22l8 23l4 55l-4 25l-12 18l2 10l12 17 l-8 94l4 90l-6 12l2 25zM635 598l12 -6l-4 -23l12 -22l-16 -41v-14l-49 -9l-2 25l4 47l-4 23l14 18l21 6zM588 958l2 17l24 -12l7 8l18 -4l4 -33l-14 2l-13 -21l13 -34l14 6l-4 -15l8 -18h-20l-21 8l-12 -2v37l8 39h14l9 16l-9 2l-22 -6zM594 709l8 8l14 -6l9 -13l22 9 l2 -13l-10 -41l8 -24v-11l-8 -10l-8 8l-6 15l-13 -6l-10 2l-10 24v15l10 6l6 -21l8 -6l5 10l-9 39l-18 -4v19zM631 821l12 -2l8 -31l-18 -22l10 -41l-12 -2l-8 8l-13 25l-12 6v26l18 13l-14 12l-4 14l12 2zM629 1065v16h18l-4 -51l8 -24l-14 2l-35 -19l-12 31v14l20 -12 l23 -6l-6 10zM612 553l-2 -12l6 -6l13 -3l6 13v16l-10 8zM1366 -68l8 -6l2 11l-10 20v-25zM412 -92l12 -6l2 10l-10 8zM610 1413l-8 -4l4 -10l10 2l5 8zM848 -80l-4 -4v-8l4 -4h8l4 4v8l-4 4h-8zM606 1212l-4 -8l10 -2l4 10h-10zM1380 154l9 8l-15 4zM1307 -92l10 4l-17 4z M1384 41l5 -4h8l-4 8z" />
<glyph unicode="M" horiz-adv-x="1992" d="M1954 1446l6 8l12 -2l10 -8l-10 -23v-10l10 -8l-10 -17l15 -63l-21 -10l-6 -8l27 -41l4 -13l-11 -8l-6 -22l13 -19l-5 -47l5 -29l-23 -18l23 -27l-2 -14l-11 -6l-6 -10l8 -7l11 7l-9 -35l9 -23l-13 -35l4 -12l9 -8l-7 -29l2 -10l-18 -8l6 -25l19 -41l2 -16l-9 -18l-2 -25 l7 -51l-15 -4l2 -11l11 -4l2 -12l-11 -4l-20 4l2 -12l18 -10l6 -9l-10 -4l-12 -31l8 -6l10 6l7 -10l2 -71h-23l-12 -5l4 -8h22l4 -12l5 -59l-27 -7l4 -36l-8 -11l10 -8l16 -2l9 -61l-19 -13l-4 -10l8 -8l11 -2l-7 -25l5 -47l-5 -35l-6 -12l15 -37l-2 -24l-9 -13l9 -22 l-7 -23l-6 -8l11 -18l-3 -13l-22 2l-6 -6l-2 -14l8 -8l22 -8l5 -27l-2 -29l-7 -22l-14 -12l-22 4l-21 -13l-27 -2l-20 11l-4 12l-10 -6l-13 -15l-26 4l-62 -8l-22 8l-97 -6l-34 6l-21 13l4 26l8 11l23 6l47 -4l35 6l51 -10l100 10l27 -4l8 -9l19 19l20 33l10 6l-8 24l2 15 l11 6l-13 22l17 17l-7 8l-10 2l4 39l23 6l-14 16l-13 35l6 23l11 10l-9 8l-6 23l4 39l-6 24l27 8l-17 17l-6 12v16h39l-4 19l-22 -8l-11 6l-12 18l14 47l9 9l-17 16l4 12l23 11l-4 22l-27 -4l4 41l29 6l8 8l2 13l-6 10l-33 12l2 25l11 18l22 2l-25 29l-10 6l4 12l23 29 l-21 10l-8 8l-2 17l10 -2l17 -11l8 9l-31 45l19 12l-15 14l-4 23v61l4 8l9 5l4 10l-15 33l-2 16l17 14h14l2 15l-10 24l-10 -12l4 -12l-4 -11l-13 21l2 26l15 33l-17 19l2 14l21 25l4 10l-23 12l-4 51l8 25h13l2 10l-4 6l-11 -6h-12l8 47l-8 64h23v10l-19 43v25h15l8 -7 l4 11zM633 356l-8 -8l20 -8l-2 -53l-10 -37l6 -6l10 -35l-2 -12l-6 -9l4 -22l-6 -70l2 -14l-23 -10l-8 -9l4 -12l23 -14l-2 -23l-6 -14l-8 -8l6 -6l12 -2l6 -7l-6 -18l-10 -4l4 -10l8 -6l-14 -19l6 -22l-27 -13l-8 27h-16l-13 4l-8 -6v-21l-10 -2l-4 7l-27 -13l-12 4l-70 -4 l-76 13l-65 -11l-23 11l-4 14l-18 14v6l10 9l21 6h51l12 4l27 -17l20 9l35 6l25 -4l20 -11l23 9l65 12l12 6h15l2 25l-4 24l6 33l6 6v14l-14 41l4 13h20l6 8l-28 39v10l4 6l12 4l6 -4l-2 -12l8 -6l4 22l11 4l-13 15l-10 4h-14l-6 10l2 23l8 20l8 -8l6 -23l11 -6l8 6l-11 31 l3 12l-9 4h-14l-8 9l-6 24l8 12l26 -8l7 13l-9 6h-14v14l-16 25l6 10l10 -19l10 9v12l-6 12l-10 6l25 23l12 -6l6 -11l2 -22zM1249 70l-12 -7l4 19l-10 -4l6 -23l-23 -12l-47 4l-8 -6l-8 22l-10 -6l-13 -20l-98 8l-16 10h-33l2 13l8 8l35 10l14 16l13 -6l26 -2l15 -8l32 10 h11l10 -6l12 4l37 31l12 -4l27 6l-2 27l-6 8l4 10l18 12v27l6 22l58 101l8 37l22 6l-4 22l4 13l9 8l14 2l12 35l13 -4l10 -17l2 -53l4 -12l-8 -11l-15 -6l9 -22l-13 -19l-6 -22l-14 -17l-12 -2l-2 -12l-7 -8l9 -14l-27 -41l-8 -27l-6 -4l-11 2l-2 8l-14 -14l2 -12l12 -19 l-34 -55zM606 487l8 11l27 -43l4 -13l-2 -8l-10 -8l-4 14l4 13l-12 12l-7 -6l4 -25l-12 -4l-18 -14l-2 12l4 27zM1217 94l-13 -4l-2 -22l8 -9l25 45l-12 -2zM1032 68l-2 -13l12 4l7 23l-13 -2zM1919 -88l10 -4l4 20l-10 2zM1323 328l2 -6l10 4v14h-10zM420 -90l2 -8h10 l-2 12l-6 6zM1960 807l-8 -6l16 -4v12l-4 6zM1835 -84v-10h12v10h-12zM1087 70l11 -7v15zM1958 182l10 -2l-4 8l-8 5zM1942 1470h10l6 -6l-21 -2zM535 -80v-8h12zM1722 -80v-8l11 8h-11zM1946 -45l2 -4h8l-4 8z" />
<glyph unicode="N" horiz-adv-x="1714" d="M1655 1049v14l43 -10v-11l10 -32l-8 -23l8 -14l-4 -12l8 -19l-12 -14l8 -39l-6 -45l2 -27l-10 -10l18 -8l-4 -23v-100l-4 -12l8 -23l-14 -12l12 -47l-6 -72l8 -51l-12 -47v-23l8 -20l-2 -25l6 -47l-4 -47l4 -98l-2 -23l-8 -27l2 -24l8 -12l-12 -23l4 -12l-10 -19l-11 -35 l7 -22l6 -6h12v-31l-10 -4h-17v-27l-49 13l-12 -9l-27 -8l-100 4l-18 -8l-25 8l-72 4l-22 9l2 24l-4 8l47 11h102l17 -15l8 6l39 7l12 -4v-9l-10 -18l6 -10l8 8l4 24l12 2l23 13l14 16l27 53l-12 52l-2 24l6 35l12 23l19 -5l2 13l-7 6l-12 4l-14 -4l-4 12l4 72l-6 24l22 9 l-8 10l-12 6l2 27l-4 51l10 22l-10 23l4 106l-4 95l6 16l-8 35l6 24l6 9l-8 51l4 190l-6 62l22 2l-6 12l-14 4zM635 360l6 -12l-6 -10l-12 -8l8 -23l22 -37l-14 2l-23 -10l7 -8l22 4l6 -22l-6 -52l8 -24l-2 -10l-12 -17l10 -43l4 -78l-14 -14l4 -14l-2 -13l-14 2l-11 21 l-12 -27l23 -10l22 -2v-14l-8 -23l-14 -18l-19 -13l-12 9l-23 -13l-22 6l-57 -10l-37 12l-15 -4v27l-16 -2l-6 -25l-25 -6l-24 6l-78 -6l-23 6l-22 21l-2 10l20 19l13 4l22 -9l10 9h35l16 -15l27 15l12 -4h27l51 8l19 -13l-9 -6l-6 -12l11 -8l8 6l4 12l-4 17l12 2l45 -17 l10 2l-2 25l11 6l10 18l8 66l22 -27l13 4l4 27l-10 6l-29 2l-10 6l10 33l8 8l-6 9v22l6 8l12 4l-6 29l-6 10l-12 6v115l8 21l-10 24l2 15l14 10l21 -4zM1681 1460l5 13h12l10 -27l-27 -27l23 -6l8 -6l-18 -14l-4 -13l22 -6l-6 -92l2 -96l-4 -101l6 -20l-2 -8l-59 26l4 13 l-4 49l6 24l-4 13l2 43l-4 12l14 23l-10 22l-2 84l16 4l-10 10l-2 50l14 2l8 6l-10 14l10 2zM610 604l-20 12v19l4 12l6 4l14 -10l7 -25l-3 -14l13 4l8 8l6 -10l-2 -22l-10 -39l8 -27l-2 -12l-8 -4l18 -19l4 -12l-4 -14l-10 6l-16 33l-9 -7l-14 -28l35 -35l12 -23l2 -14 l-8 -4l-16 14l-21 11l-12 -2v69l4 23l16 14h15l-27 39l-4 14h22l3 19zM1675 76l11 -2v12l-15 20l-2 -20zM1669 885l-2 -11l8 3l6 10l-8 6zM1677 930l4 8l-14 4v-10zM596 -86l-4 -14l12 6zM637 66l4 10l-10 -2zM1673 1325l-2 -8l10 8h-8z" />
<glyph unicode="O" horiz-adv-x="1789" d="M1847 688l2 14l9 -4l8 -30l-27 -6l2 -11l21 -2l-7 -24l7 -25l-17 -10l2 -29l-6 -49l-14 -43l-6 -8l4 -12l-6 -23l-15 -23l-4 -14l-37 4l-2 -18l-10 -8l16 -13l-10 -22l-16 -15l6 -12v-35l-59 -82l-5 -12l-18 4v-18l-66 -76l-75 -63l-45 -27l-19 8l-8 -27l-12 -4l-8 -8 l-13 -4l-8 19l-10 -5l-4 -12l4 -12l-39 -23h-23l-10 -6l-4 -10h-27l-20 -12l-47 -15l-31 -14l-94 4l2 10l-10 4l-6 -6v-10l-7 -10l-47 -8h-45l-12 4l-25 -6l-22 6l-19 16l-24 -6l-10 4l-7 8l-30 -10l-13 23l-10 8l-14 -4l-8 -9h-11l5 19l10 6l26 2l29 -6l23 -12l6 -9l28 19 l50 -4l12 -6l4 14l25 -2l22 4l25 -2l8 6l24 8l27 2l27 -4l18 15l25 6l41 -6l14 22l20 6l25 -10l6 8l-2 12l14 5l23 14h12l80 51l53 29l136 127l12 22h14l12 19v16l27 37l4 12l19 15l32 65l9 8l2 15l14 22l10 8l-6 11l-2 16l25 2l6 12l-15 13l19 77l8 5l10 -5v11l-14 34l4 17 l23 12l6 10l-15 5v12l13 18l22 -12zM1012 1157l10 -4l-4 -23l-94 -22l-31 -12l-27 4l-35 -17l-83 -55l-66 -53v-14h-35l4 -9v-22l-10 -25l-20 -14l-7 -49l-16 -41l-27 4l-10 -4l6 -13l25 -10l-12 -35l-23 9l14 -21l4 -14l-40 -2l-9 53l4 37l13 16l10 6l-14 23l16 51l12 21 v24l15 21l28 20v14l4 11h11l8 -6v14l10 20l27 29l4 12h20l6 -8l15 21l47 41l14 -5l35 23h27l24 10l21 -10l16 16l25 7l22 -13l27 4zM1812 899l11 8l10 -18l2 -12l-6 -25l-6 -10l10 -4l14 -19l6 -24v-56l5 -24l-13 -6l-6 -11l-12 2l-6 7h-13v16l15 18l-4 11l-15 16l4 14 l25 -2l6 11l-8 10l-14 4l4 18l-9 4l-12 -4l4 21v47zM1765 416l2 -13l11 7l14 20h16v10l-12 21l-14 -2l-17 -19v-24zM1827 633l-15 -2v-27l23 -8h10v27zM1507 49l2 -12l23 10l4 12l-4 13l-12 -4zM1806 545l-6 -13h12l17 15l2 8l-8 8l-6 -12zM602 913l-4 -14l10 6v13l6 12 l-22 8zM1624 197v-13l8 6l10 25l-10 -2l-6 -6zM1800 506l-4 -14h16l-2 12zM584 858l-4 -16l12 2l2 10zM1790 369l4 -11h-16l4 11h8zM813 1118v-14l10 2v10zM1411 29v-15l10 9zM1151 -84l10 -4l-2 10l-8 6v-12zM1190 -84l10 -8v8h-10zM758 1092l4 -7v9z" />
<glyph unicode="P" horiz-adv-x="1488" d="M1518 1067l4 8l12 -4l4 -29l14 -20l13 -4l-2 -27l6 -73l-4 -21l10 -18l-6 -21l2 -47l-6 -23h-27l4 -12l23 -14l-2 -27l-15 -49l-4 -31l-10 -8l-2 -24l-39 -80h-20l-17 -47l-51 -78l-23 -4l-8 -27l-43 -22l-76 -56l-22 -12l-51 -12l-19 -13l-14 4l-23 -10h-47l-45 -14 l-24 -4h-45l-35 -4l-8 22h-15l-20 -22l-27 8l-22 2l-23 -10l-22 8l-78 -4l-25 6l-49 -49l12 -31l-12 -37l8 -26l-4 -50l4 -10l-14 -12l18 -27l-6 -24l4 -39l-4 -12l-10 -9l6 -6l2 -12l-6 -12l-18 -11l-50 2l-20 -10l-8 6l-21 2l-24 -4l-19 21l-14 -17l-10 -6l-25 2v15l10 16 l-12 10l-14 -4l-4 -10l8 -27l-49 4l-19 9l-10 -13l-31 4v11l6 12l-12 -6l-20 -21l-23 11l-4 12v16l14 4l9 11l8 -11l12 -4l27 8l6 11l20 -9l119 9l12 -23l11 4l12 19l29 -2l22 6l66 53l-7 12l-10 2l-14 -4l4 39l6 12l12 7l-14 18l-6 18l2 13l8 10l-6 18l-6 54l4 59l18 43 l41 10l37 -6l10 -6l21 8l35 -6l20 8l51 -2l27 -6l23 6h98l35 6l4 -10l8 -6l4 -10l10 2l9 10v18l34 7l19 -11l12 15l2 12h29l20 6l35 27l14 -15l17 21l78 55l16 23l23 14l18 18l53 74l15 -12v35l26 10l-6 22l2 13l12 18l25 96l16 45l15 19l-15 10v14l19 25l-10 23l-3 24l9 27 l26 43l-2 12l-8 6l-6 -8l-2 -12l-8 -10l-9 6l-2 10l9 51zM893 1145l10 -6l-4 -15l-18 -16l-11 6l-6 10l-18 -16l-15 4l-8 8l-20 -8l-103 -4l-20 -4l-16 -10l-5 -11l-22 7l-10 -11l8 -8l14 -4l-2 -29l4 -49l-6 -20l-8 -8l12 -25v-12l-8 -17v-14l10 -21v-10l-6 -10l-10 4l-4 6 l-13 -22l9 -6l14 4l-6 -15l-8 -8l-13 -2l-16 10l-6 23l-4 55l22 8v17l-14 20l2 15l14 16l2 14l-6 13l-16 18l4 10l8 6l4 11l-8 12l-12 6l8 12l2 11l-6 12l10 20l-6 11l6 12l16 16l11 -2l6 -8l6 8l23 6l26 -2l17 -14v-10l10 4v22l131 -4zM1499 649l-10 -2l8 -18l10 -4l23 26 l-10 4zM596 -68l-4 -10l12 -4l2 -8l8 -6v14l11 4l10 10l-31 9zM1513 733l3 -10l26 4l-12 23l-10 4l-7 -11v-10zM1389 451l6 -15l10 4l8 23l-12 6l-10 -8zM1503 698v-12l19 -4l4 12l-4 15l-11 6l-2 -10zM1473 575l8 -10l18 6l-14 19l-12 4l-5 -10zM647 1116l10 -4l2 10 l-10 23l-8 6l2 -27zM965 289l-11 -4l4 -11l23 2l-4 11zM631 279l-4 -9l8 -6l10 2v17l-10 6zM1546 834l-2 -13l12 2l7 6l2 11l-17 4zM1348 430l-7 -12l13 -2l6 12zM1421 502l2 10h-14l2 -12zM528 -98l11 -6v14zM1030 303v8l12 -8h-12zM1073 285v-13l8 7zM752 272v-6h10z M623 1030l-5 -8l9 -4l4 8zM1323 379v-8h6v8h-6z" />
<glyph unicode="Q" horiz-adv-x="1755" d="M1780 879l12 2l2 -29l-4 -12l-10 -9l14 -18l2 -12l23 4l-2 -103l-15 -49l8 -10l13 10l2 -35l-10 -18l-3 -55l-28 -86l-4 -39l-8 -8l-13 -37l-8 -8l-6 8l-2 12l-8 6v-26l18 -5l-16 -49l-74 -120l-37 -33l-76 -84l-20 2l-19 -15h-24l-21 11l-4 8l19 39l18 16l21 10l8 23 l22 12l23 29l14 4l-4 18l23 13l4 8l-4 6l30 37l37 68l8 24l21 8l2 23l27 67l12 72l14 35l-2 14l6 8l11 -6v-16l8 -8l4 8l-2 10l-21 35l2 14l11 9l-17 18l8 22l2 74l9 33l-15 45v14zM891 1161l4 -12l12 22l31 -4l8 -6l-2 -12l21 14l8 -10l16 4l8 -27l-43 -14l-63 -8l-14 27 l-9 -7l4 -20l-4 -12l-28 -2l-23 -9l-47 -30l-6 26h-16l4 -20l-2 -29l-9 -8h-24l-6 -4l-4 -10v-17l-19 -14l-31 -37l-12 -4l-6 -23l-23 -22l-4 -12l-16 -2l-6 -11l4 -10l14 -12l-14 -21v-16l-21 -4l13 -21l-2 -24l-13 -19l13 -26l-2 -13l-33 15l-17 -6l-6 24l2 64l-4 14 l23 10l-2 23l-8 18l8 21v14l10 6l12 21l17 47l14 18l10 6l4 19l72 76l14 -5l7 13l16 10l35 8l18 -22l12 4l-16 37l37 -4l8 4l4 12l4 -12l27 12l-4 6l-10 2l8 6l24 6zM2003 -264l12 -2l10 -23l-22 -26l8 -7l19 5l-11 -25l-65 -59l-15 18l-8 -6l6 -10l2 -15l-22 -10l-25 2 l-20 12l-4 -10l10 -31l-29 -10l-24 2l-15 -16l-20 -10l-12 -2l-27 6l-16 -23l-27 4l-14 -4l-17 17l-10 -17l-76 -8l-35 4l-18 12l-55 2l-17 13v22l27 -10l10 8l23 4l26 -2l25 4l22 -22l29 24l37 7l16 -5l9 15l51 10l43 14l8 6l39 11l59 43l23 10l14 2l23 33l14 -6l8 -9l25 5 l-12 45zM1794 549l-6 10l-12 -2l-7 -8l5 -21l10 -4zM1913 -371l-15 -4l3 -22l14 4l4 12zM547 678l-2 14l28 -8l-8 -10l-14 -6zM1731 428l8 -8l8 24l-8 9l-8 -11v-14zM1786 758l14 -2l-6 18l-10 4l-2 -12zM1966 -352v-15l10 7l9 22l-13 -4zM1712 -455l-8 -10l8 -4h12l2 14 h-14zM1837 -410l4 -10l10 4v15l-10 4zM1755 475l10 -6l4 12l-12 6zM641 993l4 8l-14 5v-11zM721 1061l-2 -10l14 -4l-2 12zM1720 319l-8 -10h14zM678 1034l-8 -6l14 -4zM694 1059l-6 -4v-8l6 -5l4 9zM754 1126l10 4l-4 -8h-12zM608 961v-9h8v9h-8z" />
<glyph unicode="R" horiz-adv-x="1568" d="M1571 1063l14 2l4 -14l-12 -35l14 -27v-14l27 -14v-130l-19 -22l3 -29l-9 -47l2 -12l-12 -2l-10 6l-4 -8l4 -8l12 -7l-6 -26l-6 -8l-23 -11l4 -10l9 -6l2 -10l-9 -8l3 -15l-9 -4h-12l-6 -26l-10 -23l-29 -39l-59 -59h-13l-6 4l-2 -12l-29 -19l-12 -18l-6 8l2 12l8 6 l-8 15l-12 -7l-6 -8l-4 -22l-7 -13l-12 7l-22 32l30 41l15 4l120 125l7 27l24 41l12 -2l15 16l-4 15l-8 8l26 59l12 6l-8 11l-2 22l4 12l15 19l-7 24l5 45l-2 23l26 -8l14 4v18l-22 -4l-10 19l-4 22v70zM672 367l12 4l18 -15l13 -34l-10 -7l-27 -4l-21 -10v-14l-4 -11 l-14 -12l8 -26l-22 -13l-4 -14l6 -12l20 -15l-4 -22l4 -60l-10 -6l-12 2l26 -61l-4 -49l-8 -23l6 -22l-2 -27l-16 -4l-6 -6l-5 -12l-43 -9h-28l2 15l8 6l-2 10l-14 -4l-21 -27l-51 6l-35 -6l8 45l-6 13l39 4l12 -21l11 -6l8 8v15l18 4l23 -13l18 15l15 18l16 60l29 -2l8 8 l-6 8h-23l-12 4l4 12l10 6l-8 9l-4 24l4 13l8 8l-14 35h22l-2 14l-20 14v142l4 26l35 17l22 2l11 -9zM872 1167l13 -4l-8 -14l20 14l10 -4l51 -2l11 -4l10 -23l-18 -12l-25 -10h-25l-12 6l-16 -8l-62 12l-45 -8l-16 8l-23 -8l-57 -4l-23 -10l-6 -27h-22v-12l22 -37l-8 -43 l8 -74l-10 -4l-20 8l-3 -12l7 -12l-4 -15l-13 2l-14 19l6 10l2 25l-8 24l16 10l2 13l-4 10l-18 8v98l4 39l14 4v11l-6 8l19 18h77l47 -4l19 -10l29 21l8 -3l8 -8l27 6zM1223 -57l10 4l6 -6l4 -21l10 4l11 23l14 -10l10 6l29 -4l20 8h17l18 -13l14 -2l23 5l16 -11l9 -24 l-50 -15h-51l-28 11l-9 8l-8 -8l-2 -13l-80 -2l-22 6l-17 15l-6 -6l-4 26l6 8l21 7zM422 -86l2 -16l-39 -17l-8 6l-21 4l-49 -10h-28l-15 4l-8 21l-10 6l41 27l12 4l49 -4l12 -7l19 -16l10 4l2 10l-6 9l12 8h11l12 -19zM1462 -53l17 -4l-4 -29l12 -6l10 35l12 -4h82l23 -31 l-6 -12l-21 -9l-35 7l-24 -9l-19 13l-20 -9l-23 -2l-22 7v26l10 23zM639 1126l-4 -16l12 -2l10 6v16l-10 7zM694 1143l-2 -8l13 -5l10 5l-4 14l-15 4zM1401 514l-6 -12l8 -6h12v22zM612 -20l13 -3l2 11l-4 8l-11 4l-4 -10zM594 -82l14 -2l-4 12l-22 11l4 -13zM1497 627l8 -9 l8 5v12l-4 8zM647 340l-12 -4l6 -10l12 2zM1460 524l6 -6l9 14l-15 5v-13zM635 201l4 14l12 -8l-6 -6h-10zM1559 -72l-9 -12h13z" />
<glyph unicode="S" horiz-adv-x="1431" d="M1040 -82l13 -6v27l20 4v-13l10 -6l7 10l-7 11v12l27 8l12 -8l29 27l27 -4l8 8l18 -15l8 7l-6 8l-20 4l18 14l35 17l-8 -41l4 -13l8 -8l-2 -12l-12 -17l-21 -8l-20 31h-6v-35l-6 -10l-23 -10l-14 2l-11 6l-8 -8l-49 -21l-20 -12l-43 12l-9 -8l-18 -6l-49 -6l-23 20 l-22 -22l-21 4l-10 -8l-20 6l-27 2l-25 10l-18 -12h-8l-8 8l-2 14l-11 -8l-6 -14l-37 12l-8 8l-22 -8l-11 20l-8 9l-12 2l-6 -21l-49 17l14 12l37 8l28 -2l31 -16l6 -11l11 9l4 14h98l22 -6l-18 -12l8 -11l23 -10l8 -10l27 4l-7 10l-10 39h23l12 -4l8 -8l2 -10l21 4l10 -4 l-8 14l6 8l12 2l8 6l15 -6l22 4l35 21zM1417 1147l6 10l17 -14l2 -10l-6 -23l8 -8l14 -6l2 -82l-10 -19l-23 -8l-4 12l4 29l-12 -4l-10 -18l4 -27l-14 -4l-23 8l-12 23l-12 -7l-11 -24l-55 -4l-20 6l-13 18l-2 15l-10 -6l2 -29h-102l-25 4l-33 14l6 13l-2 22l52 6l16 -10 l8 6l39 2l10 -26l11 6l2 14l6 10l30 -8l54 4l61 -4l31 35l10 6l-6 25l2 28zM1413 221l10 -10l-6 -45l13 -27l-7 -12l-18 20l-8 -6l-4 -12l10 -25l8 -4l8 4v-10l-12 -18l-41 -33l-6 -10h-19l2 -15l-4 -12l-14 -16l-59 -29l-23 27l-4 12l37 6l-16 19l-17 2l66 53l22 2l15 -4 v-19l8 7l8 22v14l-6 9l-10 2v10l28 8l-10 27l27 28l10 7l-10 18l10 8zM1477 410l8 -11l-6 -10l2 -39l-4 8l-9 4h-14v-34l12 -6l15 6l-2 -11l6 -41l-6 -8l-13 -4v-26l-10 -2l-16 16l-4 -12l10 -11l-10 -2l-27 6l10 46l11 -5l6 -10l10 4l12 19l-8 10l-14 2l-4 25l2 26l-4 23 l-7 8l27 8v17l-14 20l6 12l12 6l12 -2l9 -8l-5 -14zM750 1206h12v-12l-4 -8l-21 10l-12 -2l4 -12l-2 -23l-6 -10l-16 -2l-19 -17l-22 11l-5 -11l-22 -8l-19 13l7 6h8l-4 14l-15 2l11 23l32 22l68 6zM1458 219l12 -8l-16 -53l-16 2l-11 6l3 22l14 35zM780 1188l4 10l23 -10 l4 -12l-12 -5l-17 -12l-12 -2l4 21zM690 1188l-14 -4l4 -35l16 18l17 35zM1034 -86l-8 10l-10 -26l4 -13l12 19zM1427 1053l13 -2l-10 16l-13 2zM754 1159l-6 8l14 -4z" />
<glyph unicode="T" horiz-adv-x="1454" d="M1061 1130l2 9l43 -4v-15l-10 -24l2 -13l-27 -4l-20 4l-11 7l-8 -5l2 -10l15 -12l-2 -29l4 -47l-11 -22l7 -23v-14l-11 -17l-10 -2l6 -12l21 -18l-11 -146l7 -47l-23 -4l10 -37l21 -16l-6 -21v-51l-11 -18l9 -23v-27l-5 -12l-24 10l-19 15l-14 33l8 14l-8 16l8 10l-8 66 l8 10v25l-8 47l21 8l-13 21l-6 20v133l17 17l2 14l-9 6l-10 21l-6 51l8 22l-4 31l12 23l2 34l21 11l31 -23l6 6zM985 475l2 10l19 -12l32 -8l11 -6l-5 -15v-26l9 -49l-2 -23l-7 -12l3 -17l6 -10l-6 -26v-27l-5 -10l-12 -4l10 -15l4 -20v-80l7 -23l-2 -28l-13 -8l8 -23 l-22 -4l4 -10l23 -13l4 -28l-23 -92l-12 -7h-10l-13 7l-28 -13l-13 4l11 54l10 20l16 21l-8 57l4 10l8 6l4 11l-12 18l6 14l11 8l-11 19l-10 49l6 49l10 21l-6 12l2 49l-4 12l-8 9l4 49l-4 35l16 22v14zM1524 1446l24 -4l-6 -21l2 -59l-22 -19l4 -12l18 -14l-4 -31v-49 l-12 -33l12 -24v-25l-6 -37l2 -12l-10 -8l-49 -8l-9 -7l-22 9l-12 16l-4 12l8 10l32 21l9 10l16 -14l10 6l4 25l-14 22l-8 6l6 21v35l6 10l-12 47l8 47l-12 18l4 13l6 61l6 6l25 -4v-14zM1352 1147l10 4l-4 -27l8 -12l8 8l2 23l27 -2l20 -8l-4 -43l-10 -7l-29 2l-10 5 l-22 -7l-39 11l-82 -13l-72 13l-39 -9l-10 5l24 47l13 6l18 -10l23 8h145zM879 -61l6 10l20 -23l15 17l8 -2v-13l14 -28v-13h-20l-21 -8l-8 21l-8 6l-13 -4l-16 -19l-94 8l-21 -12l-22 4h-51l-13 6l-12 21l4 10l10 8h25l18 11h37l8 -7l13 2l6 7l24 -4h72l10 -5zM385 1133 l12 -5l13 5l6 6l12 4l6 -10l6 -35l-6 -11l-22 -4l-21 11l-12 -7h-37l-12 -8l-27 4l-10 7l-27 -7l-12 7l-14 16l-9 27l43 8l91 6zM186 1133l4 10l7 -10l-7 -5l9 -10l37 -16l-7 -8l-51 -9l-6 23l-25 -2v12l13 17l18 -11zM1008 -29l-13 -12l15 -27l16 9l-2 14zM1016 807h-8 l4 -14l10 -9l4 19zM1018 1022h14l-24 20v7l-2 -13zM727 -88l4 -8l10 4l4 14l-12 -2zM1018 610l-4 -16h16l-4 10zM846 -86l-12 -4l6 -10l12 4zM1016 541l6 8l-18 4l2 -10zM1014 635l-4 -10h16l-4 10h-8zM1018 406l-8 -11h12z" />
<glyph unicode="U" horiz-adv-x="1669" d="M1681 1462l9 -12l-2 -14l-9 -19l2 -14l-22 2l-12 -4l2 -15l6 -8l10 2l6 9l10 4l7 -11v-18l-9 -25l-2 -55l-12 -20l14 -19l7 -24l-5 -15l-18 17l-8 -4l2 -13l29 -18v-90h-13l-4 8l-6 -10l2 -9l16 -16l5 -12h-31l-8 -10l-2 -15l6 -12l10 4l12 16l13 2l-7 -49l-10 -18 l17 -33v-16l-27 -8l2 -15l16 -33v-16l-14 -16l-4 -11l8 -4h14l5 -22l-5 -76l5 -51l4 -12l-25 -17l14 -18l7 -21l2 -24l-7 -52v-43l-18 -16l10 -37l-26 -110h-15l-18 8h-12l16 -19l6 -26l-10 -21l-2 -37l-21 -10v-20l-14 -2l-25 -13l11 -24l-2 -12h-13l-6 6l-10 -6l-14 -21 l12 -10l-10 -25l-15 -20l-18 -15l-21 -6l-4 -14l-14 -19l-43 -28l-14 -21l-21 4l-6 -12l-23 -10l-8 -8l-26 8l-11 -33l-12 -6l-27 8l-12 -8l-6 -10l-137 -41l-41 -2l-23 24l-12 2l-6 -6l6 -20l-14 -4h-25l-12 4l-8 8l-19 -14l-12 4l-6 10l-12 4l-13 -23l-22 9l-23 -4l-8 8 l-37 6l-12 14l-10 4l-13 -2l-18 -12l-21 6l-20 15l-8 10l10 10h25l14 -6l24 -2l60 8l22 -6l37 6l15 -2l18 -8l57 16l29 2l18 -16l15 -2l4 22l12 -2l8 -20l15 -17l8 11l-12 30l14 2l18 15h15l43 18l26 -10l13 18l14 -2l18 21l54 18l36 31h13l22 27l35 -5l6 5l-2 26l31 39 l37 33l67 125l17 -15l10 -4l12 2v15l-4 8l-8 4h-12l2 27l30 73l-2 29l27 16l-10 19l-2 24l20 43l-10 54l6 49l12 31l15 18l-10 12l-13 6l6 13l21 18l6 10l-18 17l-23 4l10 63l8 9l-14 30v25l4 12l15 14l-15 23l17 18l12 35l-4 10l-10 9l-19 4l4 47l10 37l15 4l8 10l-8 6 l-25 6l-8 11l6 12l25 8l-4 8l4 11l-8 10l-15 4v12l15 10l-15 21l10 55l-6 -8l-10 18l2 31l8 8l-8 19l6 12l-2 35l4 6l-10 20l-2 29l12 8l25 6zM610 1460l4 -28l17 -13l-6 -10l-19 -16l-2 -13l23 -6v-108l-4 -23l-11 -18l-8 -6l6 -11l13 -4v-104l4 -47l4 -13l-8 -10l-13 -4 l8 -10l9 -21l4 -37l-21 -4l-6 -8l4 -10l19 -8l-4 -101l8 -39l-35 3l2 -15l10 -8l19 8v-155l-13 -21l-22 -8l-4 12l6 12l-6 5l16 12l-4 14l-16 -14l-2 10l10 31l-23 8l-2 27l4 43l-6 24l13 27l-11 24l2 17l19 8l-4 10l-11 6l-4 11l2 12l7 6l-13 18l13 58l-9 49l6 14l17 21 l-23 10l9 23l-13 34l8 31l-6 23l8 71l-6 23l15 14l-15 19v127l9 24zM1653 592l12 -4l4 20l-6 8h-12l-4 -12zM1329 -2l4 -12l10 4l9 22l-11 2l-8 -6zM1647 1448l-5 -14l23 10l6 8l-6 8zM1559 238l2 -15l14 4v13l-8 8zM1534 180l14 -2l-6 12l-24 5l6 -11zM885 -113l14 -4v17 h-20zM590 727l-8 -4l2 -10l20 2l-4 10zM592 920l-4 -15h16v15h-12zM1151 -88l8 -6l8 12l-18 8zM1526 203l12 2l-4 10l-8 6l-4 -10zM1632 967l-4 14l12 -2l2 -10zM1640 539l7 -9v19l8 12l-10 -8zM592 1118l-8 -6l10 -4l6 4zM981 -113v-8h8v8h-8zM1647 870l-5 -4v-6l9 4z M598 1145l6 2l-8 8zM616 1462l11 -6l-15 4zM610 1462l2 -2h-2v2z" />
<glyph unicode="V" d="M1751 1477l29 4l10 -17l2 -37l-16 -4l-7 -34l5 -15l-17 -8l-10 8l6 27l-2 14l-12 -4l-19 -14l6 -8h13l4 -25l-8 -12l10 -6l12 6l2 -15l-24 -26l4 -8v-13l-21 -43l-18 -28l-2 -27l-12 -18l-13 2l-10 -7l4 -10l8 -6l2 -10l-6 -8l-4 -25l-14 -4l-6 -8l-2 -13l4 -28l-13 -13 l-37 9l3 -13l20 -6l4 -30l-12 -7l-15 -16l-22 14l-2 -12l8 -8l16 2l-2 -23l-41 -86l5 -16l-27 -45l-37 -4v-19l10 -8h13l2 -12l-23 -53l-2 -29l-16 -16l-19 -43l-18 -58l-27 -12l13 -27l-25 -39l-14 -32v-29l-15 -23l-12 -8l4 -12l-18 -45l-13 4l-20 29l-12 4l4 -13l12 -14 l-2 -14h22l-2 -15l-24 -6l-10 -6l6 -12l-15 -21l7 -6l20 6l-2 -16l-6 -10h-27l10 -19l2 -12l-14 -18l-20 -17v-10l18 -8l-4 -8l-18 -15l-37 45l-4 27l8 4l4 8l14 -18l4 -12l21 26l8 29l-6 35l-8 8l-4 -25l-15 -6l8 -20l-4 -21l-10 6l-8 25l12 16l8 35l7 10l10 6v17l14 20v23 l21 14l12 23v12l-6 12l65 162l15 12l-2 13l10 32l22 13v30l6 25l11 21l24 22v25l13 20l8 41l14 14l-4 17l12 20l15 47l22 31l2 29l6 22l23 25l-4 14l2 10l28 25l-4 23l11 18l4 -8l18 92l14 18l41 90l15 17l10 6l-4 12l4 45l12 19l11 -4l16 -15l8 9l2 22zM1145 -41l12 -6 l-4 -23l10 -30l-18 -4l-4 -13h-33l-8 11l-27 14l-4 14l-29 2l-12 -6l14 -10l-2 -12l-6 -9h-14v21l-12 -4l-15 -21l-55 13l-18 -11l-13 -2l-22 4l-8 9l-23 -13l-14 17l-11 -4l-2 -13l-30 2l-37 25l12 16l29 15l49 2l53 -4l49 2l4 -33l9 4l2 25l22 -11l4 15l56 -4l24 4l8 8 l23 -12l-4 -15l12 -18l8 -2l10 6l-12 26l4 13zM1155 43l-2 12h10l13 -22l10 -6h26l13 4l-2 -15l-9 -8l-12 -2l6 -37l-6 -10l-47 14l-25 -2l5 31l14 4v17l10 8zM1188 117l2 10l10 -2l6 -6l-2 -13l-6 -6l4 -10l31 -8l-6 -12l-21 -15h-26l-13 25l4 22zM1176 16l-13 -4v-14 l6 -10l11 -4h14l2 8l-6 10v14h-14zM1534 944v-12h14l8 8l-4 23l-10 4zM1253 135l13 -2l-2 -10l-11 -4h-14l-10 4l4 14l10 2zM1686 1294l4 -10h18v12l-6 9l-12 2zM1647 1149l-11 -10l15 -11l12 15l-4 12zM1708 1343l-4 -14l16 -4l4 12l-6 9zM1540 905l-2 -12l18 -2l-2 14 l-8 8zM1368 508l12 -4l-2 16l-10 6l-4 -10zM1409 600l12 -2l-2 12l-10 8l-4 -10zM883 -72l-11 -2l5 -10l10 2l4 8zM1640 1219l9 -7l2 19h-11v-12zM1370 453l6 -9l6 15l-14 4zM1204 150l2 10l11 -6v-13zM1622 1108l-8 -6l10 -6l8 10zM1243 102l8 -10l-10 -2l-8 6zM1554 1012 l11 -4v10l-9 4zM1647 1194l2 -8l6 2l4 8zM1061 -117v8h8v-8h-8zM1341 365l13 -5l-4 9z" />
<glyph unicode="W" horiz-adv-x="2349" d="M2195 735l11 -2l-4 6l-11 2l23 101l22 65l13 68l18 47l27 94l6 10l-2 23l14 53l27 12l-12 25l16 70l14 18l-4 27l8 8l11 20l30 97l15 -2l18 -15l12 -2v-49l-28 -88l-4 -37l-7 -14l-10 -8l2 -11l-4 -24l-16 -51l-8 -11l4 -14l-11 -25l-8 -10l8 -26l-14 -17l-8 -35l-31 2 l2 -14l17 -14l-2 -13l-13 -14l6 -22l-30 -93l-49 -188l-7 -22l-24 26l-17 -4l15 -22l18 -15v-14l-18 -33l4 -12l-2 -13l-12 -26l-2 -27l-5 -8l-10 -4v27l-24 -5l-7 -10l5 -10l22 -6v-45l-29 -107l-8 8v15h-16l-23 -10l21 -37l-21 -27l23 -16l-8 -25l-15 -6l-8 4l-6 21 l-10 -9l-8 -26l-19 8l10 22l6 35l17 19l-4 12l4 49l10 23l12 16l13 -6l18 -21l12 -6l4 11l-2 12l-28 29l-13 4l9 65l8 8l14 54l8 10l23 -4l-27 35l13 18l18 76l10 22zM1090 207l-7 -10l-34 4l26 -27l-4 -24l-22 -68v-14l-23 -9l8 -22l-12 -33l-14 -4l-58 4l2 14l13 21l2 14 l26 10l-4 9l-8 4l8 22l-4 23l27 53l8 6v47l6 21l12 20l-2 15l13 20l28 96l10 21l3 26l20 27l6 51l6 23l29 47l-4 12l16 47h15l10 -4l16 -16l4 -12l-2 -21l-6 -10l6 -39l-2 -10l-14 -17l2 -14l-8 -8l-17 -64l-8 -8v-29l-12 -22l-17 -45l-26 -96zM2056 113l-2 12h17l4 -25 l-11 -20l-20 -14l-23 -9l4 -12l29 -22l-2 -15l-27 2l-6 -6l2 -12h13l14 12v-22l-16 -43l-11 6l-4 10l-12 4l-14 -8l6 -12l16 -17l4 -12l-10 -2l-41 -25l-12 2l-12 9l-31 -11l-19 19l-8 -6l-47 -7h-47l2 13l-14 16l-13 4l-8 -6l2 -10l8 -8l5 -13l-52 4l-37 -4l-8 11l2 14 l-8 -8l-4 -13l-14 -4l-25 2l-33 15v22l11 2l20 -14l10 8l-6 23h25l37 -6l22 4l10 6l11 -4h49l12 -6l31 10l12 -6l51 4l19 -8l22 10l39 8l14 22l-6 23l11 8l14 66l8 8l12 4l-2 25l6 6l17 -29l12 -2l8 4zM963 -12l10 4l12 -23l21 6l6 7l2 -15l-6 -12l-29 -4l-35 -14l2 -9 l21 11v-13l14 -14l-12 -18l-21 -7l-12 2v35l-12 -2l-2 -28l-37 -11l-13 2l-8 9l-49 -13h-24l-46 10l-10 7l-14 -15l-25 4l-82 -2l-34 6l-15 15l-4 22l8 4l11 -4l2 -12l6 -6l8 6v21l25 4l8 6l24 -4l146 4l26 -4l13 4l18 -15l23 -10l12 2l6 21l23 8l16 -2l6 10l2 16zM2075 233 l6 13l10 -10l25 6l-5 -11l-8 -4l-10 4l-12 -24h-15l-10 -8l-10 -23l-10 -6l8 -8h22v-12l-6 -9l-10 -2l-25 6l-8 11l6 10l13 8v25l6 26l16 17l4 -15zM1012 94l-8 -8l12 -18l10 -5l10 19l2 12l-12 4zM2249 854l-8 -4l-3 -8l5 -13l10 -8h14l-2 25l-6 8h-10zM2349 1143l4 14 l-10 10l-19 -8v-18l15 -6zM2376 1315v-15l22 5l-2 22l-6 6l-10 2l-6 -8zM2286 987l4 -12l18 4v16l-4 11l-10 4l-8 -9v-14zM2316 1098l-8 -8l8 -9l27 4v15l-12 4zM2361 1262l-4 -15l23 -4l6 14l-4 9l-10 2zM1096 406l2 -13l14 2l10 6l6 11l-12 4l-12 -2zM1051 254l-7 -8 l25 -8l12 4l2 12h-32zM997 27l7 -13l18 9l-2 14l-8 8zM2136 344l6 8l4 -8v-14l-4 -8l-16 4l2 12zM2243 766l12 -2v31h-10l-7 -23zM2079 188h14l-4 -22h-14l-4 12zM2413 1419l-3 -12l13 -2l8 8l2 17l-12 -3zM1952 -70l-10 -2l12 -18l10 2l-2 14zM1081 319l-12 -2l4 -14l10 -4 l7 10zM2281 942l-8 -8l21 -8l4 12l-6 4h-11zM1028 141l10 -6l6 12l-6 7l-12 2zM1118 465v-23l8 4l2 15zM2402 1364l-4 -10h17l-5 10h-8zM1151 549l4 10l-12 -4zM801 -84l6 4l-10 4z" />
<glyph unicode="X" horiz-adv-x="1572" d="M1657 1454v-16l-27 20l-10 -10l-4 -14l12 -15h12l-2 -14l-6 -10l-37 -13l2 -14l-6 -22l-22 -29l-6 -27l-13 -2l-10 6l2 -22l-16 -2l-17 -17l9 -22l-19 -14l-4 -11l-12 -32h-29l-10 -5l12 -14v-12l-26 8l12 -23l-21 -38l-18 -15l-8 -26l-11 -9l-10 4l-12 17l-10 -4l-6 -19 l16 -30v-17l-14 -4l-19 -16l-18 -45l-15 -25l-12 -2l-12 6l-2 -12l4 -14l-21 -27l-6 -27l-20 -14l-17 -35h-28l-8 -8l-5 -25l-14 5l-20 18l10 43l2 25l16 16l35 63l25 11l32 69l33 37l21 14v23l18 12l23 47l84 123l10 23l22 16l9 10v23l34 31l15 18l4 27l12 12h23l10 -27 l8 7l8 22l-8 10l-8 2l-23 -4l2 17l9 4l14 -2l14 4l-4 22l19 15l22 4l10 -2l17 -15zM694 68l13 2l4 -27l-9 -8l-28 -55l-23 4l-4 -25l-35 -63l-32 -5l-9 9l-18 -19l-39 6l-45 -8l-72 10l-53 -8l-27 4l-131 -4l-20 15l-29 -5l-4 15l19 35h170l18 -7l49 11l45 -6l25 6l14 -2 l8 -9l27 11l47 -4l39 -11l14 29v29l-4 12l-10 6l8 14l10 9l11 -4l10 -17l6 12l-6 27l2 10l16 -10l2 10l-14 25l12 10l11 -2zM1665 -80l2 -12l-25 -21l-24 -6l-51 2l-25 8l-18 -14l-29 8l-25 2l-10 -6l-26 6l-39 -2l-23 11l-20 -11l-39 2l-19 13l-20 -13l-25 -6l-26 2l-21 11 l-8 10l-2 26l20 11l25 -2l31 -17l18 12l43 9l64 -2v-11l-7 -12l9 -10l12 2l6 20l6 7l47 -5l39 5l27 8l39 -11l10 3l8 12l23 -8l26 2l13 -4zM768 203h14l-2 12l-16 12l-14 2l14 25l8 8l19 -8l4 27l16 -2l10 -9l-10 -20v-12l14 -17l-20 -47l-33 -33v11l8 24l-8 6h-12l-8 -22 l8 -41l-4 -13l-29 17l-12 -4l-10 37l45 73l8 -22zM678 123l4 10l12 -6l13 -31l12 -8l12 18l10 -4l4 -10l-8 -18l-12 -6l-14 2l-4 12l-35 14l-10 8l8 9l22 -2zM1186 811l12 -4l12 20v15l-14 6h-10l-8 -17zM578 -20l12 4l-6 -39h-15l-10 4l-2 8l10 16zM1464 1210l4 -10l27 6 l-12 13l-4 12l-11 6zM1495 -86l-4 -10l6 -8l19 10l2 12h-15zM1303 1006l-13 -2l6 -27l13 8l2 12zM1599 -84l9 -8l2 -10l8 -2l-10 30l-9 8l-6 -10zM1548 1354l-12 -2l6 -15l12 -4l5 13zM1280 950l-8 -8h33l-5 12zM522 -66l-8 -8l4 -8l19 4l-5 12h-10zM1509 1327l-8 -6l27 -10 l2 8l-8 6zM465 -94l-4 -10h16l-4 10h-8zM1214 870l-4 -10h11l4 8zM1536 -96v-8h6v8h-6zM666 31l4 -11l4 5z" />
<glyph unicode="Y" horiz-adv-x="1671" d="M1176 614l10 -8l-12 23l18 49l27 39l18 14l-2 10l4 9l10 4v16l11 23l30 32l4 11v16l21 27l18 12l6 22l23 27l20 45l60 86l18 4l4 29l19 45l28 35l33 30v17l8 24l50 80l12 -2l10 -8l6 6l-2 23l-8 6l41 59l4 13l14 -2l9 4l-11 6l-4 10l15 12l12 2l6 13l8 6l12 2l29 -4 l6 -25l-8 -18l-20 -29l-4 -25l-19 -26l-6 -23l-21 -2l-2 -14l-30 -35l4 -27l-33 -36l-20 -33l-13 2l-8 6l-14 -16l4 -25l8 -8l-4 -10l-16 -15l-7 -10v-14l-16 -13l-4 -10v-14l-23 -10l-49 -52l4 -24l-10 -23l-31 -39l-4 -12l-4 8l2 17l-8 14l10 14v15l-12 -4l-6 -11l-4 -53 l14 -10l-6 -14l-8 -9l-15 -4l2 -22l-10 -6l-10 -25l-2 -16l-16 -17l-25 -39l-10 6l-6 -12l8 -10l-15 -27l-30 -2l4 -30l-31 -31l4 -27h-10l-8 10l-13 29l11 2l6 8l-8 13h-13l-10 -9l6 -10l2 -20l-8 -37l4 -10l8 -4l2 -13h-28l2 -12l8 -6l-12 -25l-25 -28v-52l-12 -30l-8 -6 l16 -11l-4 -10v-33h-31l6 -18l-2 -10l23 -11l12 -18v-10l-12 2l-10 16h-13l4 -22l-18 -7l-8 15l-2 24l16 60l-8 2l-6 8l6 10l12 4l4 13l-6 6l-10 -4l-10 2v45h16l10 4l-6 12h-24v23l10 -4l24 2l19 16l4 18l-12 -4l-11 -18l-12 4l-6 10v15l14 22l9 6v-12l-13 -10l13 -4l4 14 l12 2l6 10l-4 10h-12l16 9l-12 14l6 12l20 15zM1040 -92l9 6l-9 27l17 6h12l18 -13l23 -43l-12 -10l-13 8l-12 2l-24 -6l-11 -8l-24 8l-23 -4l-6 10v17l-37 -4l-12 4l4 -8l8 -2l2 -15l-20 6l-107 -8l-35 4l-18 13l-12 20l6 10l10 6l43 7l17 -11l10 11l24 -11l29 15l10 -2 l11 -9l18 11l12 -4l29 -19l18 15zM1135 119l-2 -15l18 -16l-2 -25l6 -32l-8 -11l-6 -20l12 -74l-2 -12l-33 10l-12 -6l-4 12l8 21l18 12l-18 39l-8 -22l-4 6l4 20l-4 14l24 15l6 12l-6 8l-24 6l4 13l-8 22v25l8 47l-8 53l22 -4l23 -10l16 -17l4 -24zM1102 254l4 16l8 -8h10 l13 8l18 -12l4 -14l-8 -23l-14 4l-4 13l-9 8zM1323 811h-10l-2 -29l10 -6l8 8l4 31zM1675 1358l13 -2l4 8v12l-4 8h-15l-6 -8zM813 -82l-6 -8l8 -10l14 2l7 8l2 16l-15 -2zM1112 168l-2 -12l12 4l4 30l-6 9l-6 -9zM1237 715v-15l14 2l4 9l-2 12h-12zM1511 1100l7 -10l4 8 l8 4l-4 14l-13 -4zM1329 838l6 6l-6 6l-12 2l2 -12zM1305 752l8 2l-23 16l4 -12zM1122 -109l-6 13l21 -8zM1518 1149l-5 -10l13 -2l4 10zM1704 1450l-4 -12l14 4l-4 8h-6zM1133 455v-11h6l4 11h-10zM1264 766v-8h8v8h-8zM1522 1090v-7h8v7h-8z" />
<glyph unicode="Z" horiz-adv-x="1492" d="M1526 1446l10 -8l2 -56l-4 -34l-6 -13l6 -20l-2 -25l-8 -22l10 -23v-24l-10 -52h-15v-18l-61 -72l-45 -39l-2 -12l-12 -20l-31 -35l-4 -10l-19 4l-12 -9l2 -14l-6 -24l-51 -52l-8 -24l-11 -2l-20 6v-33l-19 -12l-22 -8v34l-14 -6l-5 -10l2 -10l21 -33l-18 -14l-23 -6 l-4 10l4 10l-35 -8l6 -12l11 -7l14 2l6 -14l-4 -12l-51 -64l-15 -2l-18 -12l-8 -10l-31 -70l-8 -8l-23 8l-12 -43l-29 -39l-30 -16l-37 2l-13 6l3 21l12 2l-6 16l32 39l15 35l20 12l8 10l3 12l12 5l8 8l2 16l49 39l12 -6l15 -21l8 7l4 12l-6 12l-25 15l17 30l20 10l15 25 l10 10h18v11l-12 4l14 18l11 4l16 17l2 14l20 14l17 31l24 -6l13 4l-4 14l2 13l32 49v14l11 8l16 2l8 25l19 2l2 12l12 17v14l20 12l19 29l22 4l5 33l12 4l14 18l10 23l9 8l8 -6h10l10 16l-2 25l19 8l-2 31l18 45l-20 10l8 10l-4 35l10 2l10 -4l10 6l-18 14l-12 5l16 75 l23 -10zM1491 252l4 10l31 -6l10 -41v-12l-8 -23l-8 -8l20 -16l-6 -25l4 -51l-8 -21l-10 -8l16 -28l2 -25l-6 -98l-23 -9l-106 -8l-10 6l-15 19l-12 2l-2 -8l6 -15l-55 -4l-35 6l-6 7l-21 -11l-24 -6l-39 2l-19 13l-6 10l-20 -15l-25 -6h-28l-25 8l-20 13l-7 10l-10 -4 l-6 -8l-2 -15h-84l-37 -6l-27 10l-24 -6h-25l-24 9l-17 16l-4 10v14l11 7l22 2l12 -6l52 8l47 -6l41 -13l22 15l47 -4l19 8l12 -8l12 4l10 -7l17 -26l8 8l10 25l25 4l18 -11l49 7l19 -11l22 11l45 4l23 -11l10 7h88l-2 -15l15 -20l12 -6l8 10l-6 39l12 6l31 35l-10 59l-6 12 l10 2l8 9l8 20l-14 12l-10 19l-2 51zM500 1133l8 -9l4 19l33 -10l20 10l78 -6l-8 -23v-16l-33 4l-22 -10l-54 -2l-22 -7l-23 7l-53 -7l-35 7l-18 -7l-10 4l-5 11l-22 -11l-76 -4l-22 4l-21 11l-2 30l14 2l23 13l12 -2l19 -13l26 15l97 -2l77 6l11 -4zM352 -59l8 -7l27 11 l6 -4v-11l21 11h24l17 -15l20 13l12 2l17 -4l-8 -25l4 -12l-15 -15l-12 -2l-14 13l-21 -11l-24 2l-8 27l-54 -29l-39 -6l-32 8h-17l-10 -4l-23 13l-18 -9l-20 13l-3 10l7 18l16 11h111l16 6zM780 -100l-4 -13l-24 -4l-21 6l-8 7l-4 22l-8 -10v-17l-45 -8l-37 -2l-6 10l2 13 l-23 -23l-72 6l-12 4l-2 27l-8 19l14 -3l19 5l22 -2v-29l-8 -2l-2 -10l27 18v27h26l33 -9l20 -10v19l27 -4l59 4l15 -4l10 -27zM993 627l-10 -4l10 -7l8 -34l9 -7l8 27l22 27l-12 18l-10 4l-14 -18zM1114 731l-20 -4v-16l6 -9h10l16 15l2 12l-8 10zM1495 -35l-8 -8l12 -18 l14 -2l7 30l-13 2zM963 569l2 -12l12 2l6 6v10l-10 3zM942 522l-4 -14l18 -4l-2 18h-12zM289 -82l-4 -10l10 2l16 12l-4 8zM887 -86l-2 -10l14 2l6 12l-16 4zM1507 1223l-2 -11l13 5l2 14l-11 4zM678 -90l10 -6l2 10l-8 8zM1272 938l-4 -10l12 2l2 12zM1419 1073l11 -2 l-3 10l-12 2zM1513 1409l-4 -12h11v12h-7zM950 575l-8 -10h14zM950 553l-8 -10h12zM1479 1174v-9l8 -2zM995 -90l11 -6v6h-11z" />
<glyph unicode="[" horiz-adv-x="808" d="M614 1102l4 12l11 -4l6 -10l6 -58l-8 -4h-15l5 -10l22 -22l-10 -23l-8 -8l18 -19l-4 -24v-101l-6 -49l10 -47l-6 -82l-12 -30l14 -68l-27 4l4 -12l9 -6l18 10l-6 -76l6 -33l-6 -12l-12 -6l14 -35l-4 -22l-10 -9l12 -18v-14l-27 -2l-12 -7l4 -12l10 -6l11 4l2 14l18 -16 l-6 -18l6 -25l-4 -51l4 -14h-22l-33 14v14l12 21l21 10l-5 10l-6 4l-22 -2l-6 80l4 33l12 16l-14 6l2 15l-6 28h8l6 -12l12 23l-14 18l-6 23v79l-6 35l6 10l-2 37l6 21l-10 22l4 82l6 21l-10 57l26 23l-6 12l-20 14l6 68l-6 39l18 6l-2 16l6 23l8 10l-22 -4l-4 22h8l10 -6 l8 9zM831 1915l15 -6l6 -72l-14 -35l16 -14l-2 -14l-16 -15l-5 -12l7 -6l12 2l4 -166l-23 -4v-27l-100 -2l-74 -6l-6 -6l-6 -25l-8 9l-6 -11v-16l-10 2l-17 10l-6 -6l-2 -10l39 -8l10 -7l-22 -45v-16l12 -6l6 -12h-18l-5 -27l23 8l-2 -22l-8 -27l8 -20l6 -37l-4 -27l-10 -20 l-8 -9l14 -20l-2 -10l-14 2l-25 24l4 13l27 20l-33 2l-12 10v54l22 12l8 10l-6 12l-10 7l-6 12v12l10 16l-4 13l-8 6l-2 12l22 4l-18 19l10 16l-18 39l4 12l8 2l10 -4l8 8l2 17l-18 -6l-10 4l-2 12l16 14l-10 11l8 22l10 8h49l48 9l20 -5l47 9l29 18l14 33l-8 4h-14l8 31 l18 -4l6 6l2 12l-8 8l-14 4l-6 13v53l-6 33l16 14l-10 22l-2 27l6 21l16 12h12zM801 -395l10 30l20 -18v-6l9 6l2 16l10 -4l2 -32l4 -13l-22 -10l-5 -12l5 -11l18 -6l-2 -14l-21 -35l7 -8l12 -2l-2 -12l-27 -29l-24 -8h-15l-22 8l-8 10l-11 -4l-4 -10l-8 -4l-197 6l-45 -4 l-98 8l-20 -10l-95 4l-22 8l-14 14l32 -2l13 4l2 13l-4 10l2 8h98l18 -8l23 6l35 2l18 -8l19 8h145l25 -14l26 18l27 -4l47 8l37 27l2 25l12 16l-4 12l-10 6v15zM825 -193l13 -4l20 -53v-14l-12 4l-8 10l-11 -4l23 -29l4 -10v-18l-12 2l-15 14l-12 -8v-12l21 -19l18 8l4 -22 l-22 -8l-43 18l8 39l-8 18l8 13l-4 18l18 14l-18 19l6 12zM588 94l2 15l10 -9l12 -2l27 6v-22l-8 -47v-25l-17 -4l-14 14l-10 23l-4 25zM590 180l6 8l20 -10l7 -10v-14l18 -17v-16l-14 4h-27l-12 18l-2 25zM586 1171l4 13l22 -21l6 -22l-4 -11h-12l-10 7l-6 10v24zM782 -518 l-4 -12h27l8 -5l8 5l2 12h-14l-4 -8zM791 1591l2 -12l12 6l6 10l-10 11l-8 -7zM727 1559l10 -5l6 9l-2 10l-8 6l-6 -8v-12zM612 995l6 -8l7 6l2 13l-13 4zM606 496l2 -13l13 2v13l-13 4zM815 1888l-10 -2l4 -12l14 20zM614 915v-8h9v8h-9zM600 59l4 -10l10 4zM805 -526v-4 h10z" />
<glyph unicode="\" horiz-adv-x="1716" d="M1624 -440l8 -9l8 19l11 4l12 -4l10 -23l8 27l13 4h24l39 -18v-17l-12 -22l-12 4l-35 -6l-8 2l-9 8l-39 -12l-26 22l-10 4l-13 -26l-116 6l-11 -6l-22 6l-64 -6l-12 4l-27 22l7 6l12 -2l8 31l94 -4v-12l-8 -19l23 4v23l10 6l24 4l25 -4l20 -10l25 6l23 -2z" />
<glyph unicode="]" horiz-adv-x="808" d="M745 436l3 13l12 -5l10 -18l23 4l8 -2l-2 -47l6 -29l-17 -16l-8 -21l2 -22l21 -4l6 -8l-6 -13l-12 -2l-9 -8l6 -6l21 -4l-8 -51l2 -33l6 -10l-12 -39l10 -23l2 -26l-8 -37l8 -29l-2 -12l-25 -43l23 -11l-6 -24l-6 -10l10 -23v-63l6 -35l-8 -35l8 -90l-8 -23l4 -22v-58 l-27 -8v-14l23 -27l-19 -18l-4 -27l-6 -8l-20 -10l-11 2l-4 8v12l-22 -8l-17 -14h-96l-35 -4l-22 10l-25 -10l-22 4l-97 -4l-51 6l-10 -6l-53 6l-49 -2l-23 4l-27 18l5 23l24 8l94 2l25 4l2 -12l16 -10l17 22h28l23 -8l16 4l11 8l49 -6l98 -2l70 -6v-14l4 -9h14v25l33 16 l20 -18l8 6l5 21l-7 10l7 24l2 52l-7 73l3 25l8 6l8 21v26l-8 2l-8 25l12 6l6 12l-10 21l-6 32l6 27l-13 27l21 59l-16 21l4 41l26 -13l4 11l-4 20h-26l-4 20l4 97h12l6 -6v14l-8 6l-14 2l2 12l-5 33l11 8l-6 19v53l8 23l6 6l-10 22l-6 27l22 -4l12 12l-8 8l-22 4zM809 1731 v-13l-23 6l-12 -2v-12l8 -20v-13h27l2 -26l-6 -52l4 -10l-12 -26l4 -15l8 -8l-6 -12l-21 -21l2 -14l21 -10v-29h-14l14 -51l-8 -25l2 -12l10 -20l-4 -13l-14 4l-13 -6l-14 -18l6 -13l12 -2l15 5l8 -9l2 -24l-4 -51l6 -11l-16 -26l10 -23v-37l-6 -12l10 -23l-6 -49l2 -22 l6 -12l-16 -19l12 -16l-12 -11l12 -12l-4 -125l-31 6l-10 -6l-15 31v25l15 73l-17 17l2 14l7 10v17l20 6l6 8l-4 12l-26 6l-3 27l9 70l-6 37l18 14l-4 12l-10 8l10 35l8 10l-27 11l5 75l-5 54l15 2l8 6v10l-6 4h-12l2 90l8 19l8 6l-18 6l6 14v25l-6 37l8 22h16l10 4l-8 19 l-26 -2l-5 10l7 41l-2 27l34 12l21 -6zM758 459l-10 -4l-3 26l5 33l6 8l-11 23l3 28l22 7l-6 26l-19 43l-2 15l11 6l10 -2l-6 8l-10 4l-5 10l2 15l15 22l-4 12l-2 43l-6 11l12 26l41 -4l8 -22v-17l-21 -12l-6 -10l11 -21l16 -12l-2 -12l-14 -13l14 -45v-55l-10 -47l12 -35 v-16l-12 -2l-6 -7v-10l-7 -8zM805 1776v-13l-12 -2l-15 6l-12 -18h-14v10l8 21l14 16l12 6l-20 10l8 9l6 20l-6 25h14l9 8l-9 6l-24 -4l-8 8l2 12l14 19h21l8 -23l6 -51zM770 895l-6 -8l8 -6h10l9 6l-5 10l-8 4zM776 -338l10 -4l9 18h-21zM770 80v-10l12 4l4 14l-12 4z M795 465l-2 12h16l-4 -18zM764 213l2 -10l4 22l-6 4v-16zM778 1124v-10h13l-5 8zM776 643l-6 -6l10 -4l6 8zM795 446l2 9l6 -11l-10 -8zM250 -520v-12l8 6zM770 1065v-8h12zM786 -418l-4 -8l11 4z" />
<glyph unicode="^" horiz-adv-x="1429" d="M739 899l15 -6l4 -29l-2 -22l-15 -43l-12 4l-14 14l-6 -4l-4 -14l8 -8h14l-8 -50l-12 -2l-15 -24l-14 -2l-23 -13l21 -30l-4 -19l-13 -12l-4 -27l-20 -43l-19 -28l-53 -9l-24 3l-21 14l-10 -19l-23 7l-47 -5h-112l-19 9l-47 -6l-24 4l-23 10v26l18 15l13 2l51 -8l22 2 l13 6l53 2l27 -8l51 4l35 -6l26 14l15 -14l2 -13l10 4l6 23l6 8h14l19 56l12 2l15 -5l4 11l-4 45l18 4l-2 35l16 12l13 2l-2 14l-9 9l11 18l18 51l16 31l17 10zM1176 590l8 -6l18 10h12l13 -53l-31 -11l-10 5l-12 14l-21 -12l-39 -5l-65 5l-11 20l4 21l7 6l14 2l10 -4 l17 -15l16 27h59zM1268 594h14l8 -23l21 11l37 4l10 -6l10 4l4 8l12 2v-19l13 9v-15l6 -6l20 15l15 2l8 -9l-8 -20l-21 -14l-12 -5l-23 3l-8 6l-12 -11l-27 7l4 10l9 6l-27 18l-8 -8l12 -14l2 -12l-8 -2l-10 4l-4 10l-25 -8l-29 -2l-10 6l2 14l-6 27l8 6zM711 866l-2 -14 l22 -6l10 6l-6 12v15l-14 -5zM688 743l12 -2l-2 13l-10 6h-14l4 -12zM479 571l-2 -14h12l5 12l-5 11zM348 557l8 -8l15 14l-6 8zM602 612l12 -2v15h-12v-13zM610 682v6h6v-6h-6zM584 563v-6h6v6h-6z" />
<glyph unicode="_" horiz-adv-x="1447" d="M1450 -172l10 -8l-2 -21l8 -53l-12 -25l12 -22l-2 -41l-10 6l-2 25l-6 10l-8 -4l-2 -45l10 -4l8 6l12 -53l-6 -25l6 -37l-14 -33l-18 -12l-23 2l-12 -6h-25l-12 -4l-23 10l-18 -6l-12 4l-45 -2l-35 -6l-25 4l-12 27l-29 2l-2 -9l4 -8l-2 -12l-24 4l-23 -8l-24 6h-70 l-16 14l-13 2l-4 -16l-59 -6l-105 4l-14 10l-45 -8l-53 -4l-27 6l-20 14h-11v-18l-12 2l-35 -4l-20 12l-35 -18l-18 8h-25l-8 -4l-15 2l-10 8l-10 -6l-14 2l-13 -6l-47 8l-51 -4l-49 2l-31 16l-10 -18l-16 2l-13 18l2 11l15 20l12 4l10 -4h23l24 6l45 2l11 -4l4 -10l34 14 l15 -8l24 8h25l57 -10l23 10l47 -4l8 -6l21 10l22 -4h78l20 -6l11 6h24l25 -6l16 10l74 -10l20 -8l23 14h197l81 4l11 -8l6 -12l10 -6l4 8l-4 10l55 6l21 -8l10 6h35l22 13l25 26l-4 25l6 8l25 -23l14 -2l4 11v14h-16l-13 6l-16 17v71l-4 8h22l9 9l-6 10l-15 2l-10 6l6 27 l27 4l4 14l-10 2l-9 -8l-12 -4v26l6 13l21 12zM1401 -494l10 -8v13z" />
<glyph unicode="`" horiz-adv-x="731" d="M786 1692l-4 -13l-49 4l23 -41l-6 -8l-2 -12h-23l2 -14l6 -11h-16l-25 -24l-16 4l-19 14l-4 11l2 18l43 78h23l2 28l8 23l37 68h27l10 10l12 -6l6 -9l2 -22l-6 -45l-16 -19zM762 1718l8 -8l6 12l-4 15l-8 8l-4 -12zM680 1589h12l-2 10l-6 5h-12l2 -11zM709 1642l6 11 l-13 -4zM786 1778l-4 -11h11v11h-7z" />
<glyph unicode="a" d="M887 168l10 -4l21 12l22 6l12 -4v-45l11 6l18 31l8 6h8l13 -8l-4 -35l-15 -2l-18 -16l-66 12l4 27l-14 -7l4 -18l-2 -10l-25 8l-24 -4l-2 18l-8 -8l-41 -14h-66l-8 6l-4 10l-10 6l-6 -8l6 -14l-27 -2l-27 -13l-10 7l-39 -121l-22 -23l-4 -30l-23 -15l-4 -22l-8 6l-6 20 l-6 -6l6 -20l-17 -15l-67 -2v21l-13 -4l-10 -19l-10 4l-23 -4l-12 19l-33 -17l-6 8l-6 35l-8 -6l-10 -33l-101 -4l-28 8l-29 -4l-23 2l-8 7l2 34l35 13l19 -9l20 9l23 -2l10 -7l35 11l73 -8l29 4l6 -27h17l2 23h26l47 12l51 22l-2 49l9 9l20 47l6 24l21 47l16 17l14 -8 l17 12l22 8l54 4l36 -8l50 6l10 -6l10 6l35 2zM1587 -61l8 -5l-2 -14l6 -10l9 8l6 23h41l8 -7v-14l-8 -22l-15 -15l-16 13l-12 4l-2 -9l-15 -10l-47 6l-6 9l-26 -11l-74 6l-23 -2l-12 -6l-8 4l-8 31l-19 -8l8 22l9 5l12 -5l35 9l10 -2l10 -9l12 7l25 2l12 -5l21 9h51z M881 778l-7 -8l11 -16l-4 -27l-19 -14l-10 -23l-14 -18l-11 -4l-16 16l-6 23l2 22l18 16l-6 23l4 25l17 32l41 -10l4 -27zM1782 -74l10 -8l-8 -22l-10 -7l-41 -6l4 13l10 8l-16 14h-21l2 -12l12 -19l-24 2l-25 -6l-6 11l6 24v16l11 9l10 2zM1036 162l4 10l27 -12l8 8l12 4 l13 -4l-4 -41l-9 -8l-24 -2l-12 4l-27 -2l6 10zM1063 145l-4 -12h14l10 10l-2 13zM227 -74h-12l10 -20l13 -2l-2 16zM1483 -82l-8 -8l10 -4l16 2l-4 8zM817 717v-8h8v8h-8z" />
<glyph unicode="b" horiz-adv-x="1560" d="M1567 150l12 -9l-14 -37l-15 5l-12 -3l-27 -32l7 -8v-11l-11 -20h-22l8 -10l-6 -7l-12 -2l-9 -22l-22 -10l-27 -21l-26 -6l-19 -23l-16 3l-25 -7l-35 -22l-18 10l-21 -22l-12 6l-22 -2l-23 -11l-22 -4l-13 2l-12 9l-20 -11l-25 -2l-10 4l-6 9l-27 -15l-31 -2l-12 4l-6 8 l-10 -4l-58 -4l8 31l-4 12l-22 -8l-12 -18l6 -6h10l10 -7l-8 -6l-25 4l-22 11l-45 -9l-8 4l-23 -6l-29 -2l-20 11l-4 10l-35 -23l-10 4v15l-35 -17l-12 6l-6 11l-17 -13l-24 -4h-43l-7 11l-2 14l-10 -4l-20 -23h-15l-6 10l2 13l-22 -23l-37 13l-19 16l-22 -12l-12 2v34 l47 13l24 -2l15 -11l22 5l4 -9l23 9l53 2l27 -4l-19 -15l6 -8h15l10 4l-8 23h92l37 8l22 -15l13 3l10 8l18 -11l47 9l23 -6l49 6l72 -13l22 11l10 -15l13 19l67 6l23 -4l8 -6l23 16l30 -2l82 20l12 15l50 20l43 27l39 45l14 4l47 43l18 -10l9 8l-9 27l15 -4h41zM905 586 l8 -11l9 9l22 6l37 -4l29 -21l-4 -14l-17 -21l-94 9l-10 4l-21 -11l-22 -4l-78 11l-59 -9l-21 9l-10 -4l-15 -19l-14 -49l-14 -18l-27 -5l-10 50v24l10 21l-12 18l16 21l21 10l53 4l27 -2l34 6l21 -8l18 8l25 -8l24 8l33 -16l27 12zM1499 1178l4 10h8l21 -14l12 -50l8 -10 l-2 -22l6 -52l-4 -34l-6 -11l4 -22l-6 -10l-2 -23l-12 -18v-21l-23 -35v-14l-26 -10h-15v-17l9 -10l-7 -12l-20 -17l-12 -2l-19 11l-12 22v27l16 16l23 45l18 13l4 22l15 18l4 50l16 30l-12 56l10 20v64zM406 -104l6 -9l-9 -6l-36 2v25l-15 -2l-16 -25l-76 8l-14 19l6 10 l20 14l15 5v-9l-6 -10l-2 -14l18 8l4 10l-4 12l12 11l13 -4l51 -4l20 -11l-2 -16zM1548 160l-10 -4l-10 24v15l8 20l18 12l15 -2l-10 13l-13 2l2 22l8 8l15 -14l8 -20h14l21 12l-19 -58v-14l-12 -2l-10 4l-19 -10zM1577 393v25l25 -6l14 -21l-2 -26l-19 14v-12l11 -11 l-4 -22l-25 8l-12 -4v27l-4 14zM854 1141l-4 14l39 -8l12 -6l6 -8l-18 -17l-25 -6l-12 4l-6 10h22l-4 11zM1587 317l12 -2v-26l-6 -13l-10 -6l-10 23l-17 16l-4 15l11 2zM805 1141l10 2l4 -10v-17l-20 4l-11 6l-14 2v15l10 4zM686 1153l2 -14l-20 -2l-21 10l-2 12h33z M616 1112l11 2l-2 -12l-9 -12l-12 2l-12 18l14 -2zM1612 297l6 6l8 -8l-6 -25l-6 -8l-4 10zM657 1116l5 12l8 -8l-2 -12l-9 -10l-14 -4zM733 1153l-4 12l23 -6l4 -12h-13zM1481 63l8 -6l8 17l-16 4v-15zM707 1137v10l8 4l6 -8l-4 -10zM510 -88l10 -2l-4 12l-10 8v-12z M688 1114l4 10l6 -6l4 -12l-10 2zM608 1149l10 6l-2 -12l-12 -4zM1491 885l-10 -2l8 -9l12 5zM752 1116v12l12 -4l-4 -8h-8zM727 1108l-2 8h12v-10zM815 -70v-8h8v8h-8zM1489 100v-12l8 6z" />
<glyph unicode="c" horiz-adv-x="1673" d="M1708 330h16l21 -31l4 -12l-6 -13l-10 21l-17 20l-10 -4l-4 -10l12 -14l2 -13l-12 2l-6 9h-8l2 -25l10 -39l-31 23l-12 -8l27 -11l-9 -24l2 -25l-10 -4l-6 -8v-14l-45 -27l-12 -33l-17 -12l-12 -4l-76 -68h-14l-17 -22l-88 -41l-86 -47l-26 -2l-56 -17l-16 -8l-18 4 l-47 -12l-15 4l4 20l-6 6l-12 -6l-10 -24h-17l-10 -6l-16 14h-17l-8 -10l-12 -4l-13 18l-10 -23l-24 7h-43l-13 4l2 16l-4 8l-12 6l-10 -4l-10 -18l-21 6l-6 8v13l-8 -9l-2 -14l-23 6l-18 10l-13 2l2 15l11 8l37 -6h51l12 -4l25 8l28 -2l-8 -27l8 -10l11 4l8 19l-2 12h28 l58 12l26 -6l25 10l12 -6l21 12l73 17l29 16h27l10 -4l8 21l21 12l24 8l10 -2l41 25l37 28l41 25l74 59l25 25l18 -6v24l10 4l15 17l16 30l10 -6l6 -10l11 -4l12 22l-12 9l8 22l22 -4l-12 21v14l20 14l15 21zM961 1153l4 -10l26 20l21 -6l6 -6l2 -12h-23l-4 -13l-32 -16 l-27 10l-19 -14l-18 8l-84 -45l-22 -8l4 41l-13 12l-14 -16l14 -37l-6 -10l-39 -27l-4 -12l-26 -2l-11 -13l4 -12l-32 -35l-17 -30l-14 2l-10 6l-9 -10l11 -21l-2 -10l-6 10l-23 -14l6 -25v-29l-26 -18l6 -12l-9 -47l3 -13l-21 -6l-8 -6l4 -14l22 -17l-6 -10h-20l-21 10 l7 25l-3 18l-6 11l4 12l25 31l4 20l-10 12l-8 -28l-13 -2l-4 12l13 31h14l8 6l-4 12l-18 14l12 17l18 -19l11 19l-19 18l6 13l29 28l-8 12l24 48l17 18l12 6l18 -14l9 10l4 41l12 4l37 31l10 -12l12 4l9 8l-5 18l19 10h24l11 -6l6 9v14l22 8l66 8l-8 -10l2 -10l12 -19l12 6 l2 9l-6 30l25 2l20 -8zM1712 1094l8 -11l9 19l10 4l6 -37l-2 -10l-6 -6l-13 -4l-14 14l-12 2l-6 -10l14 -15l-6 -12l-10 -4l-23 10l-6 -10l-2 -14l-10 -6l-13 4l-6 8l-4 -12l-16 -15l-33 -14l-16 -17l-15 5l-20 -9l-21 -14h-26l-27 -25l-22 -8l-27 2l-4 27l-15 -4l-12 4v12 l4 8l41 23l4 12l27 2l8 4l6 -6l11 6l14 17l10 4l19 -8l22 6v14l12 19l13 -2l20 4l8 -11l13 4l14 31l14 -2l13 6l22 -10l35 6l-6 8l-25 7l6 10l13 4l8 10l12 -6zM1626 184l-16 -16l26 -8l17 20l4 15l-10 -2l-21 6v-15zM1167 -82l-14 -4l2 -12l16 -11l9 19zM1214 -72l7 -10 l12 4l8 12l-10 7h-14zM717 1079h-10l6 -22l10 -8l6 10l-4 12zM1057 -115l12 -2l4 11l-2 10l-12 4l-4 -10zM633 971l2 -13l10 3l6 8l2 12l-14 -2zM842 1112l8 -6l4 12l-6 12l-12 7zM1530 74l12 -8v12l-10 6zM1520 981l4 -14l6 10z" />
<glyph unicode="d" horiz-adv-x="1675" d="M1675 911l2 11l13 -4l16 -15l12 -20l6 -27l2 -53l-16 -15l6 -12l8 -6l7 -12l-13 -23h-26l6 -14l-4 -10l-11 -9l11 -4l20 27h12l9 -20v-13l-9 -20l7 -23l-2 -24l-17 -29l6 -12l9 -6l2 -17l-23 17l-6 -11l24 -43l-26 -6l-10 -6l-2 -14l8 -13l14 -2l-6 -39l-25 -6l-18 -28 v-25l27 -4l-7 -21l-14 5l-29 -19l9 -27l22 13l-12 -31l-23 -8v-23l-28 -8l4 -24l6 -13l-14 -16l-23 -41l-12 2l-4 10l-9 -8l-18 -45l-14 4l-2 -27l-9 -18l-8 -8l-18 -8h-27l15 -15v-12l-23 -8l-41 -23l-23 -2l-4 -12l4 -10l-43 -17l-18 13l-10 -4l4 -11h8l6 -8l-12 -4 l-21 -14l-12 -4l-12 4l-8 -9l-49 -12l-15 -14l-100 -17h-51l-11 9l-43 -17l-41 2l-12 27l-12 -6l-16 -21l-25 6h-51l-8 5l-7 10l-2 16l-18 -4v-14l8 -19l-24 -2l-43 6h-39l-15 -4l-18 19l14 39l109 -4l24 6l23 -19l10 8l16 5v-15l15 -12l6 6l-6 10v15l53 -4l10 -9l45 17 l27 2l22 -27l23 10l20 25l23 -12l18 14l70 25l21 14l12 -4l106 57h37l17 35l10 6l29 -10h12l-6 33l112 118l6 -20l13 -18l6 6l6 20l-20 21l-7 24l11 23l16 20l14 -8l23 14l-4 21l-15 -8l7 26l10 21l28 35l-2 28l11 19l10 6l-10 20v15l6 12l8 6l2 29l10 20l-12 19v14l25 35 l2 12l-19 8l10 133l-6 52l4 12l11 6l-15 33zM774 1137h14l5 -23l16 -4l10 4l19 31l14 -17l22 7l39 2v-15l13 -16l2 -10l-10 -9l-13 9l-22 -9l-4 11l-7 4l-12 -4l-22 -23l-11 6l-61 2l-8 31l-17 -4l-8 -8l-6 -23l-22 11l-21 2l-12 -9l-13 4l-8 9l-10 -4l8 -13l10 -6l-6 -12 l-28 4l-11 -8l7 -21l10 -6h14l8 -63l-14 -58l2 -10l8 -12l-12 -19l8 -12l-8 -14l12 -23l-4 -53l6 -43v-37l-10 -18l8 -23l-22 -10l-9 -8v-17l15 2l6 13l10 6l2 -25l-8 -49v-22l6 -23l-31 -37l-12 -4l-6 4l-4 14l-2 37l-6 9l8 51l-8 20l6 45v54l-6 47l12 6l-6 10l-2 76l-4 8 l26 25l-20 57l-2 14h26l-4 10l-18 17l-8 14l8 23l-4 57l2 25l12 12h12l3 22l6 9l10 4l18 -17l47 19l13 -2l12 -8l25 8zM326 -61l12 4v-21l12 6l4 15l15 -2l10 -7l12 -34l8 8v24l4 11l25 -4l25 4v-17l22 4l-4 -12l8 -29l-8 -8l-39 8l-10 7l-16 -15l-33 8l-8 7l-15 -2l-18 -13 l-35 10l-12 -6l-2 47l6 11zM547 -76l10 -6l27 21l26 4h49v-13l13 -34l-4 -7l-13 -4l-32 4l-7 11l-2 14l-8 8l-10 -4l-2 -8l6 -10l-20 -15l-15 -4l-22 19l-23 -13l-16 -2l2 13l-25 28l6 13l23 4zM1593 297l-18 -37l8 -12v-15l10 7v14l9 6l-3 29zM983 -74l-6 -10l22 -10l13 2 v16l-19 8zM1694 426l10 -4l-2 -12l-19 -11l-6 11l6 10zM602 758l8 -10l8 6l5 24l-9 6zM246 -84l6 14l10 -4l-2 -16l-12 -6zM1337 -4l11 2l-2 12l-13 4l-4 -10zM623 991l10 -2l4 19l-10 4zM604 825l10 -6v12l-12 11zM1495 139h-10l2 -10l12 -2zM1360 4l-8 -6l14 -2l4 10z M623 815v-14l10 10zM715 1116l-10 -6l16 -4zM782 -74l-8 -8l14 -2zM1620 358l4 -16l2 10z" />
<glyph unicode="e" horiz-adv-x="1425" d="M1315 793l-4 -9l12 -18l2 -84l-22 -18l18 -41v-13l-6 -10l-21 4l4 -14l23 -12l-4 -66l-14 -14l-13 4l-14 12l-10 2l-9 -6l5 -21l-23 -6l-20 6l-52 -4l-37 2l-20 11l-10 -9l-33 -8l-63 6l-15 -4l-26 23h-13v-21l-78 2l-20 11l-49 -19l-23 8l-6 11l-12 -2l-10 -9l-9 2v27 l-10 -4l-8 -23l-27 -2l-65 -14l-33 8l-8 8l18 46l27 6h22l13 -6l22 12l25 -4h147l35 -8l31 12l10 -6l4 -9l10 9l25 2l27 -4l22 2l8 6l21 -6l78 6l49 -8h33l12 -27l8 8v12l23 52l6 26l-4 13l2 32l20 11l4 10l-2 14l-26 19l-5 12l13 2l10 -8l14 -2v12l-32 23v28l14 31l-4 18 l2 13l6 6l10 2l13 -4l18 -41zM1409 1450l6 8l10 -2l7 -20l18 16l12 6l6 -65l-6 -11l-10 7l-8 -9l-2 -16l20 -12l-4 -11l-20 -12l6 -12l20 -2l4 -15l-2 -28l-16 -29l10 -22l2 -23l-12 -31l18 -16l-18 -59l-25 4l-22 -11l-14 -2v13l-7 10l-8 4l-4 -27l-12 -4l-23 2l-32 11 l-13 -7l-24 -4l-27 2l-22 13l-21 -13l-22 7l-33 -7l-23 9l-8 -7l-25 -2l-10 4v23l-10 -2l-16 -29l-78 11l-13 -3l7 37l-7 13l23 2l35 -11l47 11h27l16 -11l20 11l13 2l22 -6l6 -11l11 13l12 4l10 -6l8 -21l31 4l2 23l12 2l45 -8l35 6l10 -23l31 27l10 2l13 -10l16 8l-8 45 l14 4l-12 51l2 12h23l-9 13l-18 10l6 23l2 40l-8 21l14 22l-10 23v41zM1436 264l10 2l14 -18l4 -74l4 -12l-22 -8l4 -13l14 -14l-2 -55l-4 -9l6 -10l4 -26l-12 -52l-6 -10l10 -10l4 -10v-15l-22 -45l-23 6l-98 -8l-33 11l-22 -9l-39 4l-23 -8l-22 8l-74 2l-21 9l-38 -4l6 14 l-2 12l-25 -8l-33 12l6 13l35 -5l6 11l31 -11l6 -12l31 23l10 -6l-6 -11v-16h10l4 8v14l25 -2l16 13l27 -11h12l23 11l80 -6l51 4l51 18l-4 25l6 8l-10 22l4 23v98l4 23l10 20v15l-10 18l19 12l-5 13l-10 4l-4 10l2 10zM453 -57h10v-33l8 -6l8 6v24l27 7l24 -7l25 7h29 l24 -7l19 -12l8 4l14 17h45l2 -13l9 -8l43 23l-13 -23l4 -14l-41 -17l-47 -10l-8 21l-10 10l-27 -23l-24 -6l-37 4l-21 13l-45 -15l-26 -4l-47 8l8 23l-11 6l-8 -6l8 -23l-22 -6l-25 6l-22 -8h-15l-18 13l-12 -5h-25l-18 15l-2 12l14 2l16 16l11 5l10 -5l6 -8l33 15l35 -7 l22 7zM723 1108l12 -6l10 4l5 12l-9 6h-24l10 9h31l22 8l-2 -15l6 -8l11 6l4 13l51 6l22 -2l19 -11l6 -8l37 13l16 -2v-50l-28 -2l-23 6l-8 9l-23 -17l-45 6l-98 2l-49 15l-14 -33l-25 -25l-27 3l15 14l10 4l6 8v14l23 11l-11 6l-16 2l-23 -25l-22 -6l12 35l14 18v-12l9 -10 l6 6l2 25l6 8zM901 -68l8 -6l-18 -22h22l11 -4l4 12l-4 22l14 7l12 -2l21 -17l22 -10l-2 -14l-20 -13h-8l-9 23l-6 -8l-10 -4l2 -11l-49 6l-76 3v12l8 10l23 -16l6 4l-6 14l-12 8l-23 -8l2 10l6 6l23 9l30 -2zM791 -88l12 -4l-12 -19l-21 -8l-16 17l-4 10l26 6zM563 -70h-10 l12 -18l4 -16l31 16l-6 10zM1151 1118l-4 -20h27l-11 16zM1290 553l8 -6l9 26l-13 5zM1274 1100l10 -4l6 8l-4 12l-10 6zM616 498l13 -9l4 11l-4 8l-11 4zM1423 53l-4 -10l13 -2l6 10l-6 8zM840 1098l8 -6l4 18h-14zM1006 -98l14 2l-8 -13l-13 3zM944 -74l-4 -4l4 -10l10 4 l-4 10h-6zM698 1130l-4 11l13 -2l2 -15z" />
<glyph unicode="f" horiz-adv-x="1361" d="M1266 782v13l16 -7l10 -22l2 -14l-22 -2l6 -9l12 4l10 -22l3 -25l-9 -36l-6 -9l-22 4l4 -10l24 -8v-23l9 -53l-13 -22l8 -27v-27l-10 -32l-26 -27l-13 6l-24 4l-25 -6l-49 4l-76 -8l-18 6l-62 -2l4 8l9 2l-7 7l-20 6l-8 -27l-39 4h-96l-39 10l-11 -10h-51l-22 4l-10 6 l-29 -20l-12 2l4 22l-13 11l-14 -6l2 -15l12 -24l-12 -41l2 -15l-27 -4l7 -12l2 -33l-25 -8l-10 23l-4 75l-4 15l8 6l10 -2l-2 12l-8 10v13l14 22l23 14h12l10 -6l21 11l24 -3l9 -6l-5 -12l5 -10l10 6l-6 20l24 -2l64 4l20 -8l8 -8l25 10l39 2l57 -12l4 19h47l37 -5l-4 -12 l6 -12l13 -6l6 10l-4 10l2 10l26 5l27 -3l47 -12l33 -16l14 18l19 13l34 -9l9 9l-21 10l-6 8l6 12l2 74l14 20l-6 9l-10 51v24h10l13 -8h16l-6 29l-8 8l-27 -6v12l14 41l15 -4zM1364 1415l6 15l8 -7l35 -6l8 -6l2 -12l-14 -2l-18 -15l-5 -12l3 -12l10 4l10 18l8 -6l10 -57 l-26 -27l18 -8l-2 -14l6 -27l-22 -12l4 -10l18 -5l2 -12l-4 -47l6 -20l-14 -25v-14l-10 -6l-25 -3l-20 11l-6 10l-6 -6l-7 -21l-22 -2l-37 8l-8 7l-10 -7l-23 -4l-47 2l-23 -4l-18 27h-14l-17 -31l-22 4l-94 4l4 9l8 2l-4 10l-27 2l-8 -18l-23 -7l-51 -2l-65 4l-15 23 l-8 -27l-27 -2l-8 -6l-20 10l-25 7l-22 -9l-21 2l-10 -6l-2 13l10 6l-6 12l-2 18l-14 -2l-17 -16l6 -8l19 -10l-6 -11l-15 -2l-14 -37l-27 2l-12 -6l-14 19l-4 14l4 12l8 -4l6 -22l25 4l-13 18l7 8l16 11l-8 8l-17 -14l-10 -5l-4 11l2 26l37 23l14 -15l27 13l12 -6l25 -2 l8 -5l8 -10l17 10l20 7l104 6l11 -41l6 -6l12 4l-2 14l-8 8l8 11l12 4l25 -2l10 -9l8 17l50 -6l22 2l18 -15l27 -4l8 8l4 15l117 -4l-8 -23l8 -10l12 -4l11 6l-2 12l-7 6l3 9h20l12 4l23 -23l16 19l25 -2l26 6l27 37l12 8l15 -15l10 7l6 12l-12 18l-31 13l-2 14l4 22l6 13 l-6 10l-2 20l4 15h12l7 4v12l-21 27l-2 12l14 29l2 14zM629 297v12l16 -6l-18 -35l14 -12l4 -10v-15l-12 -4l-6 -8l4 -10l10 -4l-4 -15l-8 -8h16l-6 -12l-25 -10l7 -13l24 -10l4 -43l-20 -14l8 -10l6 -33l-14 -19l16 -12l4 -10l-6 -12l-10 2v-17l16 -32l-12 -21l-23 12 l-10 -8l2 -29l-8 -8h-14l-4 19l-13 -6l-10 2l4 22l-8 -8l-10 -2l-23 6l-2 -12l6 -6h23l-4 -13l-11 -2l-20 6l-10 -6l-10 6l-33 2v25l-33 -29h-16v15l-29 -19l-27 11l-8 -15l-20 6h-56l-12 4l-10 17l4 12l18 14l11 -4l6 -8l10 -4l12 6l2 21l51 -9h25l23 9l47 -15l24 2l13 7 l4 -13l55 21l22 -2l13 -6l4 12l-8 24l22 17l-10 22l-8 8l-4 15l8 10l14 -4l12 4l-22 18l-10 50l10 34l-6 25l-2 66l18 -2l8 22l-18 14l-4 13l29 -2zM1421 1450l6 -10l-10 -6l-35 4v32l15 5l18 -13zM1262 569l-5 -14l29 14l4 11v14l-12 -4zM600 1014l10 10l8 -4l5 -10v-15 l-13 -8l-10 14v13zM866 446h13l-5 27h-22l6 -20zM760 461l-2 -10l35 -5l-7 11l-20 12zM1358 1128l2 -12h14l4 10l-4 13h-14zM1321 1112l-10 -4l4 -10l18 -2l-2 12zM1253 469v-14h13l6 6l-6 6zM621 98h8l-4 15l-15 4l4 -13zM1098 1104l8 -8l4 12l-8 8zM418 -84l-12 -10l14 2z M1165 1118l9 -2v10h-11zM1266 629v-13l8 7zM614 205v-8h9v8h-9z" />
<glyph unicode="g" horiz-adv-x="1703" d="M1726 797l9 -9l-9 -30l9 -47l-4 -76l4 -21l-17 -18l11 -18l10 -35l-27 -8l23 -23l-4 -43l10 -35l-8 -37l6 -32l-6 -19l2 -76l-6 -34l-7 -11l11 -18l2 -43h-21l-6 -25l27 6l4 -8v-14h-17l-22 -10l-4 -13l4 -8l35 8v-55l-13 -43l9 -8l4 -68l-23 -4l4 -14l-2 -12l-24 -9 l-25 4l-35 -2l-10 -8l-12 8l-39 -2l-13 7l-8 -7l-22 -4l-37 6l-8 7l-39 -5l-15 11l-4 12v16l23 13l51 -4l37 6l22 -4h37l13 -7l32 11l13 -2l8 -9l-2 -10l-10 -2l6 -12l16 -10l21 18l-9 41l7 25l8 8l-4 8l-19 10l6 10l2 19l-4 12l25 -4l10 4l-10 8l-25 11l4 53l-4 84l9 14 l-13 45l8 70l-2 24l7 27l-3 14l-6 9l4 12l11 8l-4 10l-11 9l-2 24l4 76l-6 24l10 19l3 14l10 -2l-4 12l-15 21l4 10l-4 64l4 14l23 -12l4 16l-27 6l-4 15l2 12l17 31l22 -9l-6 13l6 6zM1642 1221l17 -4l10 -43l-51 -41h-12l-17 -17l-22 -2l-11 -18l-26 10v-14l8 -9l-16 -14 l-107 -70l-47 -10l-12 2l-27 17l4 14l13 20l20 17l47 20l27 35l22 10h15l34 35l23 4l18 17l15 20l63 21h12zM1225 -41l14 -2v-27l8 13l15 -9l-9 -22l-16 -16l-23 -11l-100 -26l-12 2l-6 6l-23 -8l-37 -4l-12 4l6 22l-4 13l-18 -5l4 -30l-11 -4h-24l-19 57h35l23 -8l22 14 l15 4l12 -4l14 -18l11 6l10 20l41 15l14 -2l45 20h25zM893 1167l12 4l8 -24l31 14l49 -2l-26 -26l8 -9l2 -10l-12 4l-25 -8h-14l-13 18v17l-12 -4l-39 6l-12 -2l6 -17l35 5v-13l-6 -8l-2 -16h-15l-22 -9l-17 -12l-18 43l-10 4l-10 -6l-25 -37l-8 15l-10 4l2 16l8 10h16 l19 13l4 10h41l8 16l26 -4zM561 932l8 8l19 -31l12 -4l8 25v22l-10 19l-10 6l10 4l8 -6l17 20l10 4v23l12 16l10 -8l13 -37l12 -6l6 -8l-4 -12l-8 6l-2 12l-31 -10l-4 -14l-4 -58l-15 -16l-12 -4l-22 12l-11 -10l-10 -2l-10 12l2 25zM1096 520l10 -8l-4 -12l-25 -6l-12 4 l-6 -11l-23 -10h-41l-22 12l-6 9l12 22l10 8l21 7l51 4zM844 -94l12 2l4 -19l43 21l15 2l34 -16l4 -11l-2 -20l-10 -10l-12 4l-23 26l-6 -22h-16l-13 4l-18 14l-14 -2l-13 4l-28 21l6 6zM524 772v12l17 -14l22 -2l10 6l5 -12v-41l-7 -25l-12 -20l-18 10l-4 10l6 35l-8 6 l-15 2zM698 1075l11 -2l-4 -16l4 -13l14 -16l12 -4l-4 -10l-16 -15l-25 -6v17l-10 8l-4 12l10 6l6 11l2 14l-12 -2l-12 -12h-15l2 12l7 8l22 8h12zM723 1098l2 12l18 -8l-6 -15l6 -38l-10 6l-12 20l4 12zM598 877l12 2l4 -11v-14l-10 -16l-8 6l-12 20zM584 819l4 10l8 -8 l-4 -20l-17 -19l-10 -4v15l4 10zM561 870l4 9l10 -9l3 -8l-9 -24l-18 14zM805 1104l10 -2l-2 -15l6 -8l-6 -10l-12 -4v14l-8 23zM999 1139l-2 12l11 2l12 -8l-4 -15l-10 -8l-13 2zM760 1061l2 12h14l8 -4l-10 -18l-8 -7l-12 -2zM532 821l7 8l12 -6l-16 -22l-7 10zM1163 -82 l-8 -10l10 -4h17l-6 12zM905 1114v10l4 -12l-8 -10l-6 12h10zM1378 1049l-4 -15h12l-2 10zM1507 1133v-11l9 4zM743 1026v12h11zM1616 -92v-8h8v8h-8zM1700 676v-8h8v8h-8z" />
<glyph unicode="h" horiz-adv-x="1714" d="M1653 1300l2 13l33 -23h16l6 -22l-16 -70l-11 -10l3 -14l22 -29l-4 -12l4 -50l-4 -22l-8 -10l14 -23l-10 -18v-15h-27l4 -12l33 -14l-6 -35l-16 14l-11 21l-8 -11v-24l8 -8h27l4 -15v-63l-20 -25l-5 -10l9 -6l8 2l8 -23v-36l-27 22l-12 -12l4 -10l23 -9l12 4l2 -26 l-6 -51l6 -25l-27 -14l5 -15l18 -16l4 -12l-6 -23l6 -12v-14l-14 -52l4 -8l10 -8l-6 -10l-6 -27l-10 -8l8 -10l12 -6v-56l-4 -26v-45l-12 -9l6 -30l-6 -11l10 -4l6 -8l-27 -14l5 -23l-5 -8l19 12l6 -6l4 -20l-4 -56l4 -10l-6 -10l-4 -37l8 -24l-6 -11l-10 -4l14 -18l4 -49 l-14 -47l-37 -13h-27l-20 10l-25 -6l-59 2l-15 -4l-26 15l-19 -15l-28 2l-23 -4l-20 10l-23 -12l-63 12l6 46l51 -5l27 5l10 6l22 -6h25l10 6l51 -9l35 9l68 -15l33 52l4 24l-2 14l14 23l-14 14v13h18l8 12l2 10l-10 21l-22 26l4 23v102l4 45l16 10l6 9l-10 6l-8 -10l-10 18 l-2 12l8 37l-6 27l12 45l-2 12l-12 19l6 34l-6 41l6 13l2 24l-4 70l4 10l22 8l-6 10h-24l8 41v25l-8 23l4 10l22 24l-22 23v14l10 21l20 24l-34 17l6 51l-6 26l14 21l-2 14l4 8l10 7l-4 10l-22 6v16l8 25l26 4l-4 14l-30 13l4 75l10 21l8 6l-2 14l-20 27zM690 528l10 -6 l-14 -18l12 -4l15 4l-8 22l10 9l12 2l12 -7l-6 -14l-20 -16l14 -13l10 7l21 38l61 5l15 -5l8 -10l8 8l33 -2l8 9l8 -7l23 -2l67 7l27 -9l22 11l49 -9l23 -10v-16l-4 -13l-23 -8l-12 6l4 27l-26 -10l4 -23l-11 -8l-75 27l-17 -19l-10 -4l-25 8l-47 7l-12 -19l-10 6l-21 2 l-26 -4l-6 15l-13 -3l-26 -16h-29l-27 6l-30 17v18l-27 -8l4 -14l23 -31l-11 -4l-6 -23v-14l-22 -6l-6 -8l6 -7l20 -2l-12 -63l-16 -2l-9 -6l-10 -21l-2 -14l10 -4l27 20l6 -22v-74l-10 -33l16 -22l-20 -23l20 -20l-6 -52v-49l6 -49l-12 -12l-8 6v12l-11 -4l-4 -14l4 -8 l23 -4l8 -7l-8 -8l-23 -8v-25l-10 -8l-12 -2l-49 13l-21 -17l-10 2l12 19l-12 8l-22 -27l-72 15l-10 -5l-6 -10l-27 4l-96 2l-39 13l2 14l6 10l45 21l43 -6l100 4l49 -13l9 9l39 6l24 -9l19 -14l-7 14l-12 7l12 16l23 8l-4 49l22 9v30l-12 -2l-4 -20l-10 -4v61l26 -16l13 4 l-13 22l-22 13l-2 26l4 25l-4 22l-6 13l18 12l-12 45l-4 47l6 66l14 16l4 10l-2 10l-20 5l-4 51l4 14l8 8l8 -4l6 -20h13l-13 16l4 10l23 -10l-6 10l-25 23l4 12l19 14l12 5zM625 1452l4 12l12 -4v-12l-10 -39l2 -8l8 -6l-4 -13v-24l6 -37l-10 -21l10 -45l2 -61h-12l-15 -10 l11 -25l12 -6l-14 -16v-15l18 -6l-6 -8l10 -23l-18 -32l-21 -4l-8 10h21l-5 26l-26 -8l-8 107l8 10v39l24 4l13 6l-2 31l-9 8l-16 -31l-16 15v24l12 21l8 6l-14 37l12 6l10 20l2 13l-10 20l-10 4zM1653 1372l6 12l33 -49l-11 -2l-22 15l-6 12v12zM1673 1409l-8 6h10l13 -6 l12 2l8 -31l-22 -4l-9 4l9 11zM426 -102l14 4l-2 12l-16 10h-12l-2 -12l6 -10zM616 1294l11 -4l4 23l-2 10l-11 4l-8 -22zM1341 -88l-2 -14h15l8 8l2 14h-14zM1550 -90l2 -12l9 4l4 12l-2 12l-7 6l-8 -8zM840 496l8 -4l8 8v14l-14 4l-4 -12zM1679 1444l4 -10l-6 -4h-12 l-4 14l10 4zM1694 1313l6 10l10 -4l-4 -14l-10 -9zM612 266l-2 -8l13 2l2 10l-11 6zM1696 1346l4 16l8 -4l2 -8zM1683 1272l9 -8v16l-11 6zM1677 -29l-8 -8l12 -4l7 10zM610 367v-15l11 6zM1651 1335l10 6l-2 -14zM1681 375v-8h7v8h-7zM1673 565v-12l4 10z" />
<glyph unicode="i" horiz-adv-x="655" d="M614 1214l7 11l18 -17l12 -6l-10 -20v-11l10 -6l-22 -26l22 -13l-12 -20l4 -35l-6 -20l10 -37h-22l-2 -10l10 -17l14 10l-2 -71l6 -37l-18 -8l6 -27l12 -31l-4 -14h-26l-5 -14l9 -7l10 3l8 -5l4 -26l-4 -92l4 -25l-10 -22l14 -23v-125l-8 -35l-18 -4l20 -24l4 -13l-2 -14 l-8 -6h-10l-8 -6l6 -11l20 -2l-8 -65l8 -21l-6 -10l-2 -22l12 -47l-14 -3l-8 -12l14 -8l-4 -8l-23 -6l-14 18l-12 47l6 23l14 20l-12 41l-10 4l6 10l10 -4l12 2l-22 41l-6 25l10 104l12 5l6 8l-6 6h-12l-6 49v51l6 33l-6 8v45l14 2l10 8l-8 9l-14 -4l-4 24l4 10l14 -4l13 4 l8 23l-4 12l-11 6l-6 -8l2 -20l-8 -9l-6 9l-2 47l-6 8l14 18l-2 17l-8 10l4 10l16 15l4 10l-8 2l-6 -8l-10 -2l2 96l8 33l-6 12l-8 6l22 43l-18 16l-6 21l10 74l-4 20zM631 -57h12l8 -29h-12l-12 8l-13 -2l-6 -10l4 -8l-2 -11l-10 -6l-61 -2l-11 4l-12 15l-8 -19l-25 2 l-43 -4l-12 6l-27 -6l-49 6l-22 -8l-23 6l-45 2l-12 19l-2 14l6 10l22 7l74 6l70 -6l39 4v-23l8 -4l10 4l8 23l39 -4l6 -9l62 31l12 -4l17 -14zM598 131l-6 12l8 4l10 -4l15 -18l18 8l4 -14l-8 -51l-6 -13l-17 -14l7 -8l18 -10l-4 -13l2 -12l12 -21l-6 -10l-12 -4l-12 6 l-7 13h27l-8 10l-12 4l-3 22l-8 7l-16 2l2 16l6 10l-16 43zM594 1356l4 12v-4l14 -8l-2 -10l37 -11l-4 -30l-14 -2l-8 -11l6 -6h14v-26l-10 -5l-23 -26l-10 -4l-6 26l12 2l6 11l-8 24l-8 4l16 8l-4 21l-14 18zM604 1417l12 4l2 -12l15 -18l4 20l10 6l4 -26l-2 -15l-16 -14 l-15 27l-10 4l-14 -2zM637 1448l6 -10l-8 -4l-25 -2l-8 -7l-8 7l-2 12l35 8zM590 4l4 14l8 -10l-4 -12zM614 98l7 -8l8 16l-13 5zM616 1143l-10 -4l8 -17l4 8zM629 571l-15 -4l2 -10l11 2zM575 -68v-12l9 6z" />
<glyph unicode="j" horiz-adv-x="1361" d="M1292 158l-10 4l10 -6l-16 -47l-14 -19l-17 -10h-12l-4 -12v-23l-23 -4l-18 10l-4 10l-10 -10l-3 -10l13 -27l-6 -12l-27 -25l-6 -12l-25 -6l-33 -31l-12 -4h-16l-2 15l6 8l-19 10l-12 2v-16l-14 4l-23 -6l-4 -13l6 -6l43 -2l-2 -14l-10 -8l-27 10l-10 8l-4 12l-12 -4 l-19 -16l-14 -2l6 -12l13 4l10 -4l-4 -9l-11 -6l-22 4l-21 -10l-47 -10l-22 -10l-25 6l-61 4l-17 16l-8 -18l-10 10l-12 -14l-11 10l-20 -6l-49 4l-10 6l-5 35l9 4l12 -4l22 -25l11 -2l14 31l10 -2l13 -17l57 25l59 -2l39 -16l17 14l10 20l10 2l12 -6l19 19l18 -4l96 49 l25 -23l16 13l-22 14l80 84l18 4l6 22l33 11l6 8l-6 10l2 10l35 29l2 29l25 35l6 41l28 100l7 37l-5 20l3 23l10 35l-4 12l14 31l-10 36v142l22 16v10l-26 9l4 22l2 76l8 22l-8 19l20 31l-4 12l-16 16l10 8l10 2l37 -16l-6 -12l-2 -23l6 -39l-2 -14l-25 -6l-4 -12l11 -5 l14 5l6 -21l-4 -76l6 -24l-8 -6l-14 2l16 -31l2 -10l-4 -13l8 -10l-4 -22l4 -70l-8 -59l8 -19l2 -24l-4 -47l-29 -146l-12 -20l-4 -15l2 -16l-22 -23l-5 -26zM1354 1460l10 -8l-2 -12l10 -49l-4 -37l4 -13l-8 -18l6 -25l-2 -84l4 -38l-26 -7l18 -12v-90l-18 -12l-5 -11 l2 -12l9 -8l12 -2l-2 -12l6 -41l-4 -13l-12 5l-23 26h-16v17l18 14l-16 37l4 41l16 16l-26 27l4 151l22 10l-22 31l-4 27l4 35l6 10l-6 24l4 29l6 12l8 7zM530 602l15 -4v-51l10 -10l-10 -35l-23 -10v10l6 12l-22 -4l4 29l-10 20l6 25l14 16zM584 -94l14 -4l-2 -15l-10 -6 l-33 13l6 12h25zM1331 772l-8 -12l12 2l11 18v15l-11 4zM780 -106l-12 -3l4 -10l10 -4l9 6zM813 -106l-8 -3l4 -10h10l4 10zM1337 1411h-10l4 -10l10 -2zM1348 1008l-2 -13l10 6l-2 13zM1329 1171l-6 -10l12 2l6 6zM1198 18l4 17l4 -10zM1122 -4v-10l8 4zM1260 168l4 -6v16z M1219 86l6 4l-11 4z" />
<glyph unicode="k" horiz-adv-x="1572" d="M1534 1405l6 12l10 -6l9 -25l10 -6l-6 -8l-13 -4l-2 -14l-35 -54l-34 3l-9 -7v-22l-6 -10v-17l-26 -14l-29 -41l-33 -37l-49 -35l-10 -35l-8 -4h-13l-10 -22l-26 -23l-5 -12l-18 -2l-8 -23l-49 -47l-11 -22l-18 -17l-39 -20l-10 -25l-25 -28l-28 4l-13 6l-6 29l6 22 l43 51l11 21l12 6l20 18h13v25l12 6l24 29l13 6l4 14l57 47l19 27l10 2l12 35l27 4v22l37 31l49 68h18l10 22l31 33l33 16l20 -14l13 -4l8 2zM1399 -66l12 3l-6 -11l2 -10l10 -6h17l-2 12l-17 10l6 9l13 -2l8 -7l22 5h95l40 6l15 -6l-2 -21l12 2l2 23l10 -9l33 -6l6 -10 l-14 -14v-15l-84 -4l-6 11l2 12l-27 -4l-4 -19h-16l-10 8l-19 -12l-22 6l-52 6l-12 7l-12 -7l-31 3l-20 10l-2 10l-5 -6v-14l-6 -11l-39 11l-18 -11l-27 -4l-47 10l-20 13l10 32l12 3l2 -23l11 -4v22l22 7l29 -5l24 7l-2 -13l-6 -8l6 -6h13l2 14l6 9l18 6zM440 -55l15 -4 l6 -7l4 -24l14 4l8 10l-10 17l43 -9l12 5l23 -29l2 -10h14l11 -4l-7 -9l-22 -2v15l-12 -4l8 -7l-19 -4l-10 23l-10 8l-10 -6l-15 -19l-12 -2l-10 4l-14 19l-11 4l-4 -10v-17l-16 17l-12 -2l-13 -23l-24 6l-7 9l-18 -13l-31 -2l-12 31l-10 4l-6 -10l2 -17l-13 2l-28 21l6 4 l6 -6l4 10l-4 10l6 13l27 -4h57l4 -15l15 -20l14 26l20 13zM596 1456l2 10l16 -6l25 4l2 -69l6 -11l-12 -26h-23l11 -23l10 -6l14 -2v-29l-6 -24l-12 -19l-17 -12l-14 14l-6 25l-6 68l22 26l-10 27l10 4l4 10l-12 -6h-10zM614 199l7 12l10 -2l-6 -16l22 -11l-4 -49l2 -45 l6 -35l-6 -10l-16 -12v14l6 8l-12 8l-21 -16h-12l12 111l-12 24v13zM670 449l4 -15h-12l-19 -10l2 -23l10 -22l-20 -17l-6 -10l10 -8l-18 -12l-5 -10l-22 4l4 10l18 8l-6 12l-24 11v14l22 65l19 13l24 2zM594 18l4 13h10l-2 -23l10 -8l17 20l10 7l2 -25l-4 -31l6 -20 l-14 -21l-39 -10l8 -31l-12 -6v17l-25 22l-6 15l31 6v12l16 -12l10 -2l19 10l-8 8l-13 -2l-8 -6l-20 35zM1571 1452l6 -12h20l15 -19l-35 2l-12 -6l-2 13l-13 14l-4 12l15 2zM608 303l8 6l17 -14l2 -10l-29 -25h-12l6 12l-2 27zM1495 1405l6 10l17 -4l6 -10v-12l-13 -5 l-14 5zM616 1282v-12l13 2l6 10v31l-14 -4zM1606 1464l-2 15l12 -4l14 -15l4 -20l-14 4zM631 256l12 2v-12l-8 -19l-10 4zM592 238l6 12l8 -4l2 -23l-14 4zM1288 1149l-10 -4l6 -12l10 4l6 12h-12zM1366 1237l-8 -16l10 -7l4 13zM299 -76v-8h12zM1239 -109l8 3l-10 8z M616 385v-10l9 4zM1421 1264l4 -9l2 9h-6z" />
<glyph unicode="l" horiz-adv-x="1323" d="M1393 266l12 -4l4 -24v-54l6 -12h-10l-12 8l-9 -4l2 -12l9 -8l24 -6l-6 -23v-55l-6 -23l-6 -8l4 -14l10 -11l-6 -12l-4 -27l-8 -10l10 -16v-39l-23 10l9 -22l-37 -19l-10 6l-25 2l-25 -4l-24 2l-12 7l-11 -7l-24 -2l-47 4l-23 -8l-59 10l-21 -6l-12 6l-6 13l-23 -8 l-4 -11l-31 2l-20 9h-37l-14 12l4 -14l-23 -9h-43l-18 15l-19 -11l-24 -4h-70l-2 23l-6 8l-8 -6l-2 -21l-12 -4l-50 2l-18 -6l-12 4l-27 23l-12 -19l-8 -2l-35 9l-27 -2v14l-8 8l-10 -6l-2 -21h-23l-22 7l-19 -11h-31l-6 19l-16 -23l-80 4v27l-10 10l-27 -20l-12 -2l8 24 l18 21l13 -4h86l12 -7l23 7l143 4l12 -4l6 -11l25 11l25 2l8 -9l49 9l102 2l72 -11l22 15l23 -10l12 4l80 -6l23 6l14 -6l25 2l12 -5l22 11l33 -11h10l19 9l27 -9h22l47 11h14l23 -11l27 7l22 10l25 22l12 41l-14 19v67l6 23l-4 14v25l6 24l6 9l-10 16l8 6l25 -4l-31 47z M598 1038l4 9l12 -5l19 -32l10 -6l-4 -23l2 -49l-12 -31l14 -41l-10 -4l-12 -22v-11l8 -8l12 19l6 -11l-6 -10l-20 -16l4 -11v-20l-9 -8l-10 -33l-14 -4l6 27l-6 10l10 20l-2 10l-8 9l2 43l20 12l-16 20l8 25l-4 12l23 13l-9 12l-24 -8l-4 10l4 41l26 4l-10 6l-4 8l6 13 l-16 4zM639 1352l8 -9l-2 -28l6 -12l-8 -9l-6 -22l6 -37l-8 -4l-10 4l-4 -21l4 -10l12 6l10 -2l-6 -20v-14h-14l-9 -9v-14l-16 2l-18 18l6 25l2 33l6 10l-8 33l2 12l6 8l-8 47l4 13l12 -2l23 4zM623 727l2 16h14l4 -10l-2 -22l6 -9l-14 -26l10 -21l8 -41l-22 -18l4 -14 l14 -23v-12l-29 22h-24l2 27l14 41l23 -10l4 10l-12 22l-19 -6l4 17l8 8l9 22zM647 1452v-16l-24 2l2 -2l-11 -19l7 -10l22 -6v-15l6 -10l-2 -8l-22 4l-31 -16l-6 24l6 82l22 11l19 -3zM631 1061h-13v14l-4 8l-16 -4l-6 19v12l22 -10l11 2l-2 12l-7 8l-10 2l10 6l13 -2l8 -6 l6 -12v-10l-6 -8l-2 -25zM772 -76l-4 -8l20 -8l5 8v14h-13zM633 1147v12h10l2 -12l-4 -6zM598 1139l12 2l-8 -17l-10 9zM633 1049l4 4h6l4 -11l-10 -4zM618 973l7 -6l8 8l-12 10zM1223 -100h12l-16 12zM1313 -82l12 -2l-8 10zM610 475v10l8 -6zM637 754v8h6v-8h-6z" />
<glyph unicode="m" horiz-adv-x="1992" d="M1972 1475l10 -7l5 -51l-13 -16l4 -15l9 -8l-7 -10l-2 -20l4 -15l-30 -10l-2 -12l6 -6l22 -2l-2 -11l11 -20l-5 -45l5 -23l-17 -18l-6 -27l8 -4l15 4l2 -12l-17 -19l4 -10l15 -16l-6 -49l-3 -72l-26 -23l31 -51v-37l-9 -10l7 -10l-7 -31l13 -41l-4 -10l-15 -14l15 -43 l4 -52l-9 -77l9 -25l-9 -22l-14 4l-8 -4v-21l8 -6l14 4l9 -27l-13 -2l-10 6l-8 -8l-4 -14l12 -8h10l4 -10l3 -27l-7 -37l9 -12l2 -23l-7 -37l5 -12l-13 -8l-10 4l4 -10h14v-148l-10 -43l19 -14l-11 -21l-18 -6l-12 4v-12h22l4 -8l15 -12v-17l-13 -12h-14l-18 12l-9 -4l5 -12 l10 -6l26 -4l-2 -15l4 -10l11 -6l-9 -12l-2 -13l7 -12l-27 -25l-23 -10l-6 10l2 11l9 10l-9 10l-22 8l-4 -10l2 -12l10 -19l-14 -4l-9 6l-16 35l-4 -10l-27 -27l-12 -4l-25 9l-18 -11l-12 -2l-13 6l-38 -4l-11 2l-10 9l-22 -13l-23 15l-18 -15l-45 13l6 14l-15 22l23 9 l39 -5l24 9l50 -15l8 -6h10l72 21l34 -4l13 -9l10 13l10 -6l6 -11l25 33l8 6h12l-6 17l-2 22l4 55l-2 27l-6 23l25 22l10 19v38l-8 -10l-2 -26l-8 -11l-9 6v48l-6 59l2 27l6 22l7 8l-13 31l17 18l-13 21l-4 25v51l-4 37l12 20l-4 68l13 4l6 10l-2 10l-21 -10l-2 33l10 24 l15 -16l8 4l4 12l-2 11l-18 12h-15l2 90l11 4l-13 45l2 47l6 25l25 -10l12 2v14l-6 8l-31 -2l-8 47l4 66l21 4l6 8l-6 6l-21 4l-4 29l4 12l11 4l8 -4l4 17l-12 6h-15l6 43l7 10l-9 20v13l9 26v13l-13 22l8 58l-8 26l4 19l-8 20l8 18l-2 23l6 23l23 -9l6 7l-2 20l-6 8l-10 2 l-2 13l12 4zM1389 410v24h12l4 -8l-2 -14l4 -9l-14 -16l-23 -41l-8 -8l2 -12l10 -17l-8 -8l-8 -20l-2 -33h-17l-28 14l-8 -8v-14l22 4l4 -23l-4 -24l-39 -82l-24 -11l10 -18l-6 -10l-9 -4l-22 2l-6 -11v-12l-6 -10l-23 6l-24 -6l-21 2l-8 8l-19 -10l-22 -4l-49 6l-4 20 l-9 -8l-20 -8l-35 -4v14l10 6l-12 19l2 10l25 6l26 -2l9 -10l10 6l84 8l8 -22h14l35 39l12 6l-4 -10l4 -9l21 13l4 10l-8 8h-15l33 60l15 49l22 18l-2 12l16 35l23 -20h12l21 8l-11 4l-6 8l-4 23l-22 -4l6 18l14 -2l8 -8l4 12l-8 37l15 23l2 10l30 -15zM438 -57l13 2l4 -19 l47 17l22 -13l33 13l12 -4l-8 -35l35 14l14 -12l4 -12l-47 -7l-96 2l-12 23l-6 -10v-15l-9 -10l-20 10l-39 2l-20 11l-19 -15l-80 4l-14 19l10 24l12 7l7 -21l20 -14l-16 30l20 11l74 -11l20 11zM602 487v11l14 -2l25 -21l-8 -12l8 -21l8 -51l-2 -26l-6 -15l6 -24v-115h-33 l2 14l-4 11l-10 8l-14 4l2 26l6 9l27 -21l6 10l-4 11l-23 18l-10 4l-4 29l2 51l8 33l-2 12l-8 10v13zM641 176l4 -12h-14l-8 -4l-13 -19l-18 -14v47l-8 25l20 8l21 -10zM618 -25l5 13h10l-2 -35l6 -10l-35 -25l-27 43l25 4zM594 31l2 12l18 -10l9 -21l-5 -12l-8 8l-12 -2z M633 88l4 8l10 -4l-14 -22v-27l-12 6l-5 8zM612 123l17 12l12 -6l4 -14l-35 -2zM1280 164l-12 -2l2 -12l8 -7l12 -2l4 23h-14zM401 -84l-10 -4l4 -12l6 -6l15 10l2 12h-17zM598 84v12l16 -6l-12 -20l-10 -4zM1288 195l10 -5v27h-14zM1950 244l-8 -4l2 -17l6 -2l8 4l2 11z M518 -98l8 -6l13 16l-23 4zM1974 954l4 13l11 -6l2 -13l-9 -4zM1948 1376l-2 -12l12 4l8 8l-2 10l-6 -8zM1356 375l14 -6v18h-10zM1214 70l-14 -7l14 -4v11zM1952 1069v-8h8v8h-8zM1298 266l9 4l-13 4z" />
<glyph unicode="n" horiz-adv-x="1712" d="M1679 1473l13 -3l-4 -12l4 -22l10 -21l2 -22l-4 -11l-10 -10l14 -22l2 -11l-10 -65l-15 -4l9 -10l14 -9l-4 -12l4 -10v-15h-31v-20l27 4l4 -51l-6 -43l-6 -10l8 -27l8 -57l-10 -23v-10l6 -12l-14 -23l14 -8l-14 -23l8 -6l6 -26l-2 -15l-6 -10l6 -8l4 -25l-6 -22l-8 -8 l4 -13v-22l8 -19l-12 -2l-11 6l-8 -8l33 -45l2 -14l-31 -17l9 -10l14 -4v-63l-10 6l-19 -8l-4 -11l-16 15v22l10 2l16 -12l11 10l-11 35l-12 -2l-6 -8l-10 8l-2 10l4 10v27l8 8l10 -12l12 4l5 12l-13 6l-22 25l4 8l12 2l-20 47l2 11l10 10l-4 22v39l-8 27l4 10l10 4l6 8 l-8 7l-12 2v41l20 10l-6 10l-19 16l5 11v73l12 31l-10 17l-2 24h14l12 19l-8 2l-14 -7l-9 13l7 10l4 23l10 20l-16 10l6 47l-2 41l22 4l-8 9l-23 10l7 14l10 8l-10 23v24l6 25l6 10zM602 668l6 10l33 -25l-2 -12l8 -49v-23l-12 -16l14 -21l-8 -100v-49l8 -47l-8 -23l4 -24 l-6 -76l2 -27l-23 -10l-8 -10l4 -12l21 -25l6 -23l-10 -4h-23l-20 9l4 49l8 10l-10 20l-4 21l24 16l-24 23l2 94l8 35l-8 14l6 13l10 6l-8 8l-10 24v13l6 10l12 6l-2 10h-14l2 80l6 23l-6 35l4 12l14 14l-6 10v11zM1694 403l14 3l-8 -54v-47l-8 -20l8 -21l4 -24l-4 -56 l-8 -37l16 -45l-4 -22l-8 -8l8 -82l-12 -23l-4 -24l4 -37l-23 -4l-10 20l-19 15l-12 4l8 20l15 16v-14l4 -8l22 4l-2 14l-16 15l-8 2l-2 12l14 6l-4 15l8 12l-8 4h-12l2 47l14 35l-16 16l12 23l-4 10l-8 6l-5 12l9 7l35 6l4 8l-9 6l-14 -6l-12 2l-6 22l-2 52l12 37l-10 14 l-2 12h22l-16 43l2 10l14 -2l8 -10l11 4zM627 12l10 -4v-14l8 -19v-12l-8 -4l-23 4l7 -12l18 -17l6 -10l-12 -20l-17 -13l-45 -10l-51 2l8 11l11 4l-9 10l-12 6h-12l-19 -14l-12 -17h-26l-46 8l5 17l-5 12l-22 8l-12 -4l4 -14l18 -16l-8 -9l-37 -2l-2 13l-16 10l-15 -6 l-20 -17h-14l-9 6l-14 2l-8 29h10l43 19l31 2l6 -13l12 -8l12 23h29l10 -4h21l12 4l29 -37l8 8l8 23l13 2l40 -7l11 5l24 -19l15 -2l10 12l-6 9h-17l-10 4l55 51l-22 12v14l12 2zM1556 -70l9 -6l-15 -18l-18 -10l-10 6l-15 -19l-14 2l-10 9l-13 22l-8 -4v-10l-45 -13l-20 -2 l-37 4l4 23l-8 6l14 17l21 4l49 -9l73 9zM1696 549l8 -4v-58l-10 2l-35 19l-12 2l-2 12l12 19l12 6zM590 76l-2 14l12 -4h39l10 -6l-6 -29l-6 -10l-23 -10l-6 10h-12l-6 20v15zM1655 467l8 10l8 -4l2 -12l8 4l13 -23l14 -4l-2 -14l-8 -8l-25 -8l-4 14l-22 -2zM1575 -72l4 13 h12l4 -15l15 -20v-23h-17l-2 23l-8 -6l4 -9l-8 -8l-23 4zM604 305l-8 -2l14 -45l8 10l3 27l-7 12zM1663 1053l-4 -9l10 -6l14 -2l9 8l-6 15zM604 510l14 -4v12l-4 8l-10 4l-6 -10zM1671 1407l-12 -4l22 -12l7 10l-2 10zM1669 858v-18l2 -4l15 18zM1655 -109v7h14l-6 -7h-8z " />
<glyph unicode="o" horiz-adv-x="1789" d="M1804 745l-2 15h15l6 -10l-2 -17l34 -6l-2 -49l-6 -8l15 -27v-14l-25 -47h-22l-9 -7l6 -8l25 -4l10 -26l-6 -11l-8 -34l-10 4l-11 18l-14 -18l6 -9l21 -4l-4 -49l-13 -14h-28l8 -8l6 -23l-2 -27l-8 -22h-25l-10 -6l2 -12l10 -5l2 -10l-10 -24l-35 -52h-14l-4 -26l-14 -17 l-9 -22l-63 -70l-37 -30l-21 -13l-18 37l-2 -10l8 -23l-2 -16l-22 -14l-27 -27l-27 6l-12 -6v-23l-18 -12l-13 -2l-22 6v-22l-45 -23l-49 -14l-19 -12l-49 -15l-70 -10l-55 -16l-14 4l-8 10l-13 -4l-6 -10l-12 -4l-10 4h-47l-7 -9l-49 19l-24 -10h-15l-10 8l4 37l6 12h15 l28 -20l13 2l12 14l74 4l4 -14l10 -6l8 4l6 22l29 2l20 -6l5 -10l12 22h12l10 6l4 9l54 8l45 16l90 47h18l17 19l80 53l14 20h14l17 19l22 12l19 19h18l10 6l2 31l29 38l18 17l13 6l6 25l33 30l-4 25l32 35l8 26v17l9 8l10 37l10 6l17 -2l4 -27h18l-2 15l-16 12l4 10l8 6 l-6 8l-21 7l2 38l15 5l12 -3l2 13l-8 26l2 13l8 10v14l-4 10l4 11l10 -4l2 -23l13 2l10 25l-39 22l16 49l19 -22l10 4l2 12l-8 25l-27 -4l6 10zM1018 1141l6 -11l-8 -6l-49 -12l-4 8l4 23l-11 4l-24 -8l4 -13l16 -14l-26 -6l-23 6l-8 8l-12 -4l-19 -31l-14 -4l-21 15 l-12 -19l-29 -22l-18 16l-18 -8l6 -27l-19 -18l-14 -4l-66 -74l-18 -16l-8 -19l-2 -24l-27 -27v-16l-8 -23l-14 -16l6 -27h-15l-10 -6l-4 -10l14 -19l5 -14l-19 -23l-24 -8l-7 47l-8 11l10 45l-6 22l19 10l-11 31l35 66l6 28l15 4l-2 15l10 20l27 27l14 -14l12 -3l-4 15 l-12 6l8 20l59 45l56 33l14 2l16 15l23 10l14 2l15 -6l4 18l108 6l43 -8zM831 -90h15l12 -19h14l2 -12l7 -6l2 -12l-15 2l-45 20h-12l10 19zM995 -119l-6 -10l8 -6l27 14l-4 12l-8 7l-6 -11zM1808 854l-6 12l25 -6l8 -6l4 -10l-10 -8zM1743 391l-12 -2l4 -18h12l14 12z M1827 801l10 -6l-4 -13l-23 6l-4 11zM600 918v-15l10 -4l6 10v13l-12 4zM1569 119l-17 -2v-11l17 -2l10 9zM1108 -129l10 -4v16l-18 4l2 -10zM1845 764l10 -4l-4 -15l-12 3l-2 12zM569 850l-8 -10l12 -9l5 13zM1628 215v-10l10 2l4 8h-14zM1174 -94l-7 -12l9 -3l6 9z M623 961v-9h8v9h-8zM698 1032v-8h9v8h-9zM905 1147l8 6l-14 4z" />
<glyph unicode="p" horiz-adv-x="1488" d="M1520 1067l16 2l-4 -31l18 -14l9 -20l-15 -27l23 -27l-2 -12l4 -76l-10 -20l6 -23l-6 -57l-23 4l-8 -8l4 -15l22 -14l-6 -35l-22 -4l4 -14l10 -8l-22 -50v-14h-15l-8 -4l10 -43l-14 -2l-57 -92h-19l-4 -25l-8 -20l-17 -15l-12 -4l-12 -18l-27 6l-10 -8v-29l-49 -22 l-37 -25l-154 -47l-135 -12l-6 8l-2 22l-12 -6l-10 -20l-52 8l-24 -8l-13 4l-14 18l-8 -6l2 -12l-35 -4l-14 31l-6 -9l-6 -20l-11 -6l-47 16l-18 -14l-12 -21l-19 -14l4 -27v-69l4 -11l-8 -20l2 -39l-4 -25l-16 -18l4 -10l-4 -21l6 -8l12 -2l-4 -12l4 -27l-27 -4l5 -8l12 -2 l4 -8l-43 -15h-14l-13 19l-10 4l-4 -12l-21 -15h-12l-10 6l-6 13l-15 -17l-12 -2l-14 15l-4 10l4 10l-10 8l-13 -4l-8 -8l2 -10l21 -6l-9 -11l-10 -4l-45 15l-20 -15l-23 4l-78 2l-18 11l-8 10l10 22l8 9l35 -9l10 4l4 9h148l26 2l23 -25l14 -2l8 21l15 -2l26 10l13 -2l8 22 l-2 90l8 25l-8 8l-2 12l4 11l10 6v-37l10 8l17 23l-17 16l4 12l-12 -2l-12 6l-2 27l12 121h12l33 -23h12l-4 13l-22 14l8 8l14 2l29 -6l8 -8l10 8h35l13 8l20 -6l49 -2l43 4l2 -12l-4 -10l27 -13l2 13l-8 10l2 12l20 -8l6 -8l29 12l12 -4l21 14h53l35 -14l-4 12l-11 6l9 9 l55 14l16 -6l19 16l12 6l14 -6l19 4l35 31l14 2l37 33l41 26l37 31l24 43l10 10l15 4l2 13l14 14l13 -4l-5 -14l7 -37l-2 -10l10 6l10 47l6 8l-18 37l4 12l14 2l-2 15l6 24l10 -4l7 -8l10 -2l8 4l4 10l-6 12l-20 19l4 10l10 4h14v17l-14 18l8 33l10 4l-6 26l33 27l-4 10 l-23 9l2 22l6 8l19 -4l-2 29l-6 8l-11 4l3 53l10 31l-8 6l-13 2l6 11l-4 49zM870 1151l13 -4v-17l10 -6l-8 -6l-23 -4l-12 6l-6 13l-72 -25l-24 -2l-33 12l-82 -35l16 -32l2 -17l-22 -12l-8 -10l8 -6l14 -2l-2 -13l-16 -12l4 -23l18 -8l-6 -129l-10 -8l-13 -2l-18 10l-6 10 l16 23l-12 18l-10 33v15l22 -7l19 -10l-2 10l-33 29l-2 76l6 22l-8 21v43l20 53l13 6l28 2l13 -12l-5 -16l5 -13l12 17l-6 24l37 4l92 -8l10 8l22 -2zM614 158l11 -8l14 16l2 10l-20 8zM1366 434l-12 -4l6 -22l10 -5l8 31h-12zM985 283l2 -13h27l-2 15l-8 6h-11zM770 1135 l-2 -13l12 4l8 21zM741 1137v-15l15 4l6 11h-21zM1477 610l-17 -4l4 -10l11 2zM1546 924l2 -11l11 5v10zM1288 356l-8 -6l8 -6l10 6z" />
<glyph unicode="q" horiz-adv-x="1755" d="M1776 887v12l12 -4l10 -23h-14l2 -12l22 -20l2 -13l-22 -8l4 -8l10 4l8 -4l5 -25l6 -12l4 -24l-2 -11l-8 -10l6 -10v-12l-15 -31l19 -4l-13 -41l-2 -47l5 -15l-13 -10l-26 4l6 -12l24 -14l-14 -43l-16 4l-4 -13l-29 -32l8 -11l29 2l2 -12l-17 -20l-4 -43l-37 -70l-2 -12 l-24 -29v-16l-119 -148l-29 2l-10 -8l4 -10l-6 -10l-20 14l-37 12l4 -12l-8 -2l-11 20l11 9l14 20l10 8l15 2l-3 -24l7 -11l12 5l14 18l-16 18l4 13h22l19 14l-2 10l-8 6l4 13l30 43l15 -6l14 4l-6 37l16 16l35 65l17 17v14l8 23l14 16l-4 23l14 16l9 4l12 -2l-12 35l4 14 l14 -4l10 4v21l-6 10l12 35l15 18l-19 19l6 22l-4 49l6 19l11 8l-13 31v26l13 33l-6 14l-2 25zM2044 -291l-2 10l10 -6l-2 -12l-12 -23l-27 -4v-16l-8 -23l-57 -41l-7 -8l-12 4l-37 -34l-26 16l-4 -12l10 -19l-33 -14h-12l-10 6l-19 -18l-14 4l-23 -6l-10 2l-20 -15l-62 -8 l-18 35l-21 -4v-31l-10 -6l-25 2l-20 12l-51 -2l-37 4l-19 13l-4 22l11 6h22l21 -10l14 12l12 -2l14 -14l7 12l10 4h45l6 9l21 -13l8 8l55 11l49 18l12 -2l3 -27l10 2l6 9l-12 22l12 8h10l8 -12l9 6l4 15l18 -21l10 23l35 43l12 -2l11 4l30 37l11 6l20 -11l6 7v30l47 27 l4 -12l-8 -23l13 -6h14zM623 981l16 8l-8 12v13l10 24h31v-18h-17l-8 -8l-6 -37l-6 10l-14 -14l-21 -8v-23l8 -4l10 4l9 18l14 -2l12 5l9 10l10 -8l-33 -45v-15l-10 -6l-13 -18l-10 -48l-12 -32l-8 -11l-19 11l-12 -2l4 -11l27 -2l2 -24l-8 -49l2 -25l-11 -2l-6 -8l-10 -4 l-14 16l-21 82l23 100l12 33h12l11 6l4 9l-4 8l-9 4l2 10l11 8l2 15l12 24l20 14zM948 1167h15l6 -8l2 -14h22l2 -10l-4 -9l-22 -10l-35 -2l14 23h-12l-16 -11l-17 -18l-26 -4l-5 33l-10 -4l2 -23l-14 -20l-23 -13l-10 8l-8 19l-12 6l-13 -6l-6 -12h17l8 -7l2 -12l-8 -6 l-23 2l-22 8l-17 -18l-6 -12l14 -13l-36 -33l-23 -12l2 12l14 27v12l-6 11l19 16l35 16l-19 13l4 12l15 16l38 29l23 -16l10 16l12 -6l7 -10v-15l-13 -4l-10 4l4 -22l17 -2l8 6l4 24l6 9l-16 18v8h14l16 8l9 -12l22 12zM1724 362l2 -12l21 4v27l-16 18l-2 -18l-9 -6l-12 6z M1950 -346l-11 -2l3 -17l8 -8l10 -2l10 6l6 13l-10 10h-16zM1788 739v-14l18 8l-6 47l-8 4zM596 905l-10 -2l4 -14l10 -6l12 4l-6 12zM1706 -467h14l-8 23h-12l-2 -13zM676 1075l8 8l6 -12l-2 -14l-16 4zM580 866l-13 -2l2 -12l6 -6h15zM700 1098l15 6l-4 -25l-17 8z M1595 -485l11 -4l4 10l-4 8l-11 4l-4 -8zM664 999l12 -2l-4 -10l-10 -2l-5 8zM1706 326l-6 -13h14l6 11zM752 1100l4 -8l14 8l-10 4zM1890 -383l-4 -12h10v12h-6zM1556 139v-8h9v8h-9zM1917 -375v-12l8 6zM1645 274v-6h10z" />
<glyph unicode="r" horiz-adv-x="1568" d="M688 315l-16 4l-10 -8l-21 -32l4 -25l-2 -80l6 -47l-16 -10l8 -27v-14l-4 -10l-10 -7l18 -26l-8 -58l6 -12l2 -22l-18 -31l-9 -25h-14l-6 9l-2 22l-8 6l-15 2v-14l11 -21l-13 2l-24 -6l-4 15l-27 -2l-14 -17l-21 10h-43l-51 -10l-25 35l-12 4l2 -12l13 -19h-95l-8 45 l21 9l26 2l25 -6l12 -15l8 23l23 -4l26 4l3 -37l4 -12l16 26l14 2l-4 17h64l12 -4l8 -9l15 17l16 -13l14 13h13l6 43l2 51l10 33l-6 20v37l6 8l-6 21v47l-6 39l12 22l-8 25l6 14l10 6l25 4l-6 15l-19 -8h-12l2 12l16 10l6 8l2 13l23 6l10 -2l8 -9l17 7h14l10 -4l9 -11v-30 l-9 -7zM1573 1083l6 9l14 -31v-23l-6 -10l25 -22l-4 -11l2 -22l10 -21l-4 -24v-82l-8 4l-4 10l-11 4l-2 -14l4 -12l17 -23l-33 -2l-6 -8l-2 -17l6 -8h22l11 -6l-21 -72l-14 -14l-12 -4v37h16l-4 18l-37 -22l2 -15l25 -32l6 -21l-27 2l-10 -4l-8 -10l22 -29l-75 -110l-23 -4 v-23l-20 -12l-15 -19l-22 -8l-19 2l-8 -6l-2 -25l-25 3l-26 10l-6 10l10 25l26 36l35 19l8 24l21 15l12 2l27 26l8 27l35 -12l8 10l2 16l-8 9l-18 8l4 10l30 4l-10 19l-2 22l35 21l4 6l-16 20l30 68l4 37l-4 12l8 22v37l27 6l6 15l-28 18l4 70l-4 10l8 25l-6 26zM1542 -59 l10 6l21 -6l-4 -11l10 -6l14 2l23 -6l-2 -16l-17 -19l-12 4l-2 15l-12 -4l-17 -15l-10 -4l-14 4l6 25l-2 10l-10 6h-17l-12 -6l8 -31l-110 -4l-23 9l-8 -9l-23 -2l-55 11l-80 -9l-37 6l-14 15l-6 14l4 10l18 13l41 2l27 -8l8 -7l25 7h41l10 -7l16 11l80 -2l74 8zM664 1126 l12 -4l-4 -12l-23 -16l-22 2l-9 10l-4 -12l35 -33l2 -14l-8 -43l2 -25l-22 -8l14 -25v-14l-14 -23l-19 -18l-10 4l-10 18l2 11l10 8l-12 49l4 10l8 6l-10 23l6 76l-8 22l12 35l27 8l12 -2l8 -8l2 -14l6 -9zM702 1161l11 -8l22 14h27l53 -8l72 10l24 -6l11 -10l34 6l11 -6 l-4 -39l-48 -6l-51 6l15 23l-15 16l-8 -8l-14 -31l-13 -4l-10 8l-4 15l-12 -7l-19 -16h-75l-25 27h-16l-6 14l-17 12l25 4zM610 1026v-14l21 14l2 29h-12l-7 -4zM1436 504l10 -6l8 22l-12 4l-6 -10v-10zM602 977l8 -10l13 14l-7 8h-10zM756 1130l10 3l-14 20l-4 -12z M608 236l-2 -11h17l-2 15l-11 4zM623 889l10 -2l-4 -10l-11 -5l-4 11zM606 16l-10 -6l8 -6l10 2zM1407 508l8 -2l4 14h-14zM535 -84v-12l10 2l6 6zM604 -47l6 -14l2 10zM653 350v-10h11l-5 10h-6zM1303 -84l4 -12l4 4z" />
<glyph unicode="s" horiz-adv-x="1431" d="M1448 471h16l15 -39l8 -10l-2 -14l-17 -31l7 -10l16 -13v-14l-27 -25l9 -8l14 -2l-4 -51l4 -10l-31 -103l-14 -14l-8 -27l-31 -32l-19 -31l-20 -12l-29 -37l-98 -62l-51 -12l-29 -20l-31 -3l-69 -20l-15 31l-8 8l-12 2l-6 -12l10 -33l-10 -6l-35 -2l-2 10l10 8l-2 12 l-10 5l-31 -9l8 -26l-12 -2l-37 6l-22 -8l-9 4l-4 12l-12 -6l-6 -12l-12 -7l-25 11h-12l-27 -11l-10 9l-21 8h-59l-27 8l-8 23l-24 -7l-11 -6l-10 6l-24 7l-7 10l46 10l45 -2l8 -12l10 -6l25 -5l14 23l22 -6l48 8l20 -6l2 -19l10 -4l4 11v16l60 -2l20 -10l17 12l22 10l23 -2 l10 -8l6 8l21 8l63 11l12 -21l15 -14l10 8l4 12l-4 15h-29l6 10l23 8l27 4l6 -22l10 -5l6 7v10l-10 6l27 27l18 4l29 26l8 2l8 -10l6 8l2 15l15 4l20 14l31 37l20 16l12 4l15 21v16l18 15l35 61v25l14 41l2 36l5 11l14 16l-2 12l-10 19l6 6l10 2l2 16l-10 33l6 4l12 -2 l-6 10h-10l-10 7l4 12zM1108 1024v10l25 -6l36 2l27 -6l23 8h41l12 -6l22 6h25l10 -6l-12 -37l4 -14l-29 2l-51 -4l-45 2l-22 6l-54 -10l-26 6l-15 14l-2 10l6 15l15 -4l8 -8l4 10zM1454 985l-8 -10l-80 2l-27 -6l-10 6l8 33l-2 14l11 8l10 2l24 -6l11 -6l6 -10l2 10l-10 8 l22 45v39l6 12l13 7l-15 4l6 10l11 4l10 -2l22 -98l2 -23zM797 1200l10 -2l4 -35l-23 -12l-26 8l-21 -4l-18 -14l-27 -2l-41 -17h-22l-12 6v13l12 14l22 -14l4 8v25l27 24l10 -6l11 -23l2 -14l10 6l4 13v16l-8 6l-15 2l7 8l22 6zM1434 213l-4 -14h16l8 6l2 12l-10 2z M1458 262l-8 -2l6 -10l12 -2v16zM1208 -35l11 -4l4 14h-17zM848 -121l12 2l-4 10l-12 3zM754 -119l-4 -10h14v10h-10zM1427 1004l-12 -3l19 -10l4 6zM606 1151v12l10 -4l-2 -8h-8zM1442 1047l-4 -9h10l4 9h-10zM647 1182v12l6 -6l2 -10zM768 1186v-8h8v8h-8z" />
<glyph unicode="t" horiz-adv-x="1454" d="M1493 1458l6 10l17 -20l20 6l8 -2v-125h-22l26 -10l-6 -53l4 -78l-8 -33l6 -18l-24 -50h-93l-10 23l-10 -4l-10 -19l-11 5h-45l-26 -5h-37l-25 9l-24 -9l-12 9l-54 -11h-24l-25 7l-18 12l-13 -21l-10 -8l-12 -2l-4 -12l-27 -37l-2 -12l19 -23l4 -170l-9 -47l7 -27l-2 -36 l-9 -11l6 -14l-4 -23l-20 -30l8 -2l14 6l7 -80l-7 -23l9 -18l-7 -27l5 -98l-11 -61l9 -37l-3 -27l-10 -35l6 -10l2 -33l11 -20l-6 -10l-3 -39l-6 -13l13 -22l-11 -94l7 -68l-11 -18l-32 -17h-25l-25 8l4 23l-6 8l-10 -6l-6 -29l-6 -8h-17l-32 10l-13 -6l-12 4l-16 15l-11 4 l-6 -8l4 -15l-24 2l-35 -6l-20 8l-37 -6l-21 15l-22 -13l-13 4l-12 19l6 22l23 13l10 -4l8 -31l8 6l-4 25l23 6l22 -2l9 -9l22 13l27 -13l10 7l65 2l2 -15l15 -18l6 -2l6 6l-10 33l12 2l25 -6l20 -13l10 4l46 54l-15 18l-2 10l6 60l-4 14l23 10l-4 13l-19 14l-4 80l4 22 l15 15l-5 12l-14 14l8 197l4 35l11 -4l4 45l-19 16l-6 23l2 14l10 6l15 2l6 10l-6 6l-15 -2l-10 5l6 10l13 4l-11 22l-4 25l11 35l8 10l-11 6l-14 33l2 57l8 35l-12 23l4 16l8 10l-10 23l-2 26l4 13l8 8l-6 10l-2 76l-4 12l16 25l5 12l-2 14l43 15l49 4l53 -2v-25l4 -10 l10 -6l6 10l-4 12l2 11l13 6l45 -6l22 10l78 -6l23 4l8 -4l4 -9l8 7l25 8l51 -4l10 -6l10 6l17 22l12 -2v41l6 12l-14 15l4 24v136l33 18l-4 16l-9 9l-24 6v14zM281 1135l12 4l2 -17l-4 -10l-15 -14l-2 -13l-12 -4h-59l-21 19l-6 12l-12 -2l-6 -6l-13 -2l-4 12l4 8l19 11 l12 2l4 -15l35 6l-4 17l25 -2l24 6zM395 1128l8 -8l13 2l10 17l23 -23l-15 -31h-72l-6 37l-6 8l-12 -18l-10 -4l4 -23l-13 2l-14 -4l-12 2l8 23l8 8l-2 12l-8 7l2 8h51l25 -4zM719 -88l-6 -10l8 -6l22 2v16l-12 4zM1470 1130l-4 -14l15 -4l12 4l2 14l-12 5zM1016 170l4 -10 l12 2l2 8l-4 8l-10 4zM1300 1106l7 -4l8 14h-17zM1004 977v-12h8l4 4zM1006 -72l-2 -10l10 8l-6 11zM238 1112v-10h10zM989 522v13l8 -7zM199 1104l4 -10l4 4z" />
<glyph unicode="u" horiz-adv-x="1669" d="M1612 465l-4 16l26 -4l15 35l-11 6h-16l4 10l-2 50l12 20l-10 27l4 10l6 4l-6 23l4 8v41l29 22l-2 10l-25 2l31 19l-18 61l-23 11l14 28l-2 10l-8 11l27 37l4 12l-31 16h23l14 13l12 2l4 -13v-24l-30 -66l12 2l6 6l12 4l3 -12l-11 -18l-18 -13l22 -47l7 -26l-15 -27 l6 -12v-21l6 -24l-12 2l-18 12l-13 -4l7 -10l20 -10l8 -9v-10l-10 -10l-4 -14h22l-6 -13l-12 -2l-8 -12l26 -37l-10 -37l-6 -8l4 -12v-27l-12 -74l2 -12l-12 2l-27 17l-23 -27l11 -2l20 -29l15 -4l-7 -10l-12 -64l-12 -22l-23 -12v-31l-18 -12l-12 4l-7 12l-8 -6v-33h17 l2 -10l-58 -80l-67 -66l-101 -69l-12 14l-10 -6l-25 -35l-10 -4h-14l-13 18l-8 -10v-16l-12 -2l-25 -17l-12 4l-18 -16h-35l-29 -10h-26l-54 -12h-32l-13 -5l-18 9l-35 -9l-18 13h-93l-18 14l-25 -6l-47 12l-22 25l14 4l39 -4l6 -15l8 -6l13 -2l10 4l4 7v12h8l10 -8l21 16 l74 -2l12 -6l43 10l74 6l-4 -20l20 8l-8 8l6 10l22 9l41 6l7 8l12 -2l22 4l66 24h12l10 9l7 14l16 -2l23 10l26 23h25l61 73l94 93l4 28l13 19l24 24v23l9 22l18 31l22 -14l7 4l-2 37l-11 4l-6 12l4 23l21 41v14zM600 1352l12 -4l-26 28l-4 -14l-11 6l-2 8l11 35v14l-11 17 l-2 10l37 -4l21 -33l-4 -14l-13 -21l4 -14l13 -8l-9 -8l15 -15l-13 -35v-12l11 -24l-6 -15l-11 -8l9 -10l4 -23v-37l4 -14l-23 2l-8 -8l6 -14l21 -11l-4 -34l4 -70l-11 -4l-6 -8l21 -33l-21 -16l8 -23l-6 4l4 -12l11 -10l-7 -25l-10 -16l13 -17l-5 -14l9 -57l-29 10l-10 -6 l-11 10l-4 12l9 23l10 8l-4 12l-11 -2l-8 25l2 12l11 6l-11 21l-6 24l17 27l-7 14l2 39l11 2v14l-19 29l-2 23l8 51v24l-6 23l4 10l15 17l-23 26l8 27l15 -17l12 19v16l-18 4l-9 19v37zM1667 1307l12 2l4 -37l-18 -8l-8 -9l12 -18l8 -23l6 -51l3 -78l-25 -10l2 -14l16 -33 l-10 -6l-10 2l-19 12h-10l-4 8v23h14v14l-14 17l-4 41l2 22l12 19l-8 20l-2 51l21 6l6 11l-4 10l-19 14l-4 13l19 10zM1663 1470h12l-8 -14l4 -26l12 -33l-20 -4l-10 4l-8 -8l-3 -13l11 -22l10 6v20l12 -6l6 -10l2 -47l-12 4l-24 16l-13 -2l-6 11l-4 28l2 17l14 16l-4 10 l-10 6l-4 11l8 12l19 -4v18zM602 743l6 -10l-10 -2l-16 -12l47 -27l-13 -30l-6 6l-2 10l-18 -6l-4 -10l8 -7h22l-2 -14l7 -25l-15 2l-14 19l-12 2l-11 76l6 26l13 -2zM1626 1016l4 10l15 -22l28 4l13 -2l-5 -13l-14 -16l-37 -12zM612 782l9 -10l-17 -14l-24 -4v16l4 12l18 4 zM1647 1137l-2 -13h16l4 27l-4 14h-12l-7 -8zM1579 285l2 -13l23 4l-7 27l-10 8zM598 600l10 2l4 -10l-4 -8l-10 2l-8 8zM1634 446h-16l4 -10l8 -4l10 4zM588 1321l10 -4l4 14l-16 4zM1567 225l10 -6v21h-12zM872 -100l-2 -13h15l-2 13h-11zM1655 557h-10l4 -10l12 -2z M1634 772l-4 14l10 -4l5 -10h-11zM1337 -18l13 -5l-2 11l-9 6zM1634 365l2 10l13 -4l-7 -9zM1522 121l-6 -6l10 -4l6 10h-10zM575 928l5 -8h6l4 10zM588 1391l-6 -11l10 2l6 7zM1640 1055v-6h9v6h-9zM1657 1233v-10l8 4zM1509 147v-6h7v6h-7z" />
<glyph unicode="v" d="M1505 748l8 -9l-22 -43l-35 -94l-24 -43l4 -27l-6 -10l-11 -6l-14 -2l2 -16l8 -9l-26 -59l-27 -4l6 -12l10 -6l-22 -50l-8 -8l2 -14l-4 -25l-13 -16l-8 -4l-14 4l-4 10v27l-15 -4l-8 -11l8 -22l29 -16l-10 -35l-8 -6l4 -13l-9 -22l-12 -19l-14 2l-25 -6l-10 -8l6 -8 l10 -4l27 2l-6 -25l-17 -31l-8 -6l4 -10l-12 -18l-12 2l-10 8l-7 -10l11 -31v-12l-23 -15v-34l4 -11l-39 -63l-28 -17h-13l-18 -8h-143l-21 8l-22 -4l-7 9l-73 -9h-47l-19 11l-14 16l-2 12l43 15l41 6l24 -6l25 6l158 -4l30 8l19 -6l53 80l27 24l-13 35l23 -4l-6 45l22 4 l4 8l-6 27l4 12l13 6l10 53l8 25l20 29v24l11 25l30 37l9 -4l2 -11l8 -4l4 15l-2 22l-16 31l40 96l25 43l16 17l-6 22l13 23l10 8v14l8 25l23 41v24l6 8l20 11l12 2zM1782 1470l8 -12l-14 -74l-17 -30l-22 -13l4 -26l-6 -19l-9 -6l-12 -2l4 -10l8 -6l3 -10l-7 -13l-22 -10 l2 -31l-10 -10l-25 4l-8 6l-2 13l-19 -17l7 -8l-7 -33l9 -8l14 31l27 -4l-7 -23l-16 -10l-2 -29l-6 -24l-15 -15l-12 -2l21 -6l-27 -43l4 -14l-8 -10l-23 6h-16l2 -13l6 -6l15 8l4 -8l-6 -35l-27 9l-4 24l-8 10l-15 5l21 34l12 7l-14 4l-2 10l14 16l4 31l21 29l10 49l28 76 l21 -15l10 6l-18 23l-4 12l14 23l12 8v-19l13 5l2 14l-9 10l19 27l-6 22l8 19l10 4v31l10 4l5 22l20 19l23 2zM1466 815l2 12h13l-2 -14l-6 -8l10 -8l26 -9l-6 19v12h33v-10l-18 -43l-27 6l-31 16zM1538 967h14l4 -15l23 -16l2 -10l-10 4l-4 10l-11 -4h-16l-2 10l-8 2v15z M1602 1042l2 -12l12 2l8 37l-16 2l-9 -6zM1753 1401l-16 -2v-17l4 -10l8 -6l10 2l4 31zM1614 1096l10 -4l8 8l2 26l-12 -2l-12 -18zM1264 248l-11 -6l2 -15l7 -10l14 -2v16l-4 13zM1550 903l2 10h11l8 -24l-4 -12l-13 4zM1473 848l8 10l10 -4l-2 -12l-6 -6l-10 -2v14z M1147 -12l-4 -15l12 -6l8 6l-2 9zM1323 414l12 -6v18l-14 4zM1522 834l4 12l10 -6l-4 -13zM1442 668l-8 -11l20 -4l-4 11zM1233 53l-6 10l14 -4zM1360 451l10 -7v9zM1518 899l4 4l4 -8l-8 -4v8z" />
<glyph unicode="w" horiz-adv-x="2349" d="M1202 647l10 -10l-6 -74l-14 -43l-6 4v13l-12 -5l-11 -18l23 -16l-4 -13l-17 -18l-10 -23l4 -14l-18 -53l-21 -15l2 -30l-12 -72h-16v-12l8 -19l-27 -22l2 -14l6 -9l-16 -61l-14 -14v-23l-4 -12l-19 -29l4 -20l-14 -45l-12 -23l-11 4l-12 19l-4 -11l12 -18l11 -4l-15 -29 v-14l-10 4l-12 18l-17 -6l8 -31l-12 -6l-12 2l-21 15l-22 -9l-47 -8l-37 2l2 15l-6 8l-6 -8l2 -15h-76l-37 9l-20 -7l-64 -2l-4 23l-12 -4h-17l-8 12l17 18l22 7l78 6l16 -21l49 21l52 -6l34 6l7 -8l12 -5l4 -26l12 4v31h45l11 -23l12 4l6 8l-2 25l18 59l19 17l-6 22l10 19 l2 26l25 64v29l22 26h12l-6 21l4 36l8 11l9 4l4 -12l8 -9l6 11l-22 28v15h26l-6 12l-8 6l6 8h16v51l13 45l28 52l-8 22l23 19l-2 14l-9 10l23 39l-4 25l45 22zM2435 1479l12 -6l7 -23l-7 -49l-26 -64l-15 2l-18 13l-12 -11l16 -18l23 -12l-29 -121l-21 -41l-28 4l-10 -8 l4 -15l24 -2l10 -6l-38 -143l-13 2l-18 16l-10 -12l2 -14l20 -35v-27l-22 -71v-11l-13 2l-14 13l-12 -6l-6 -13l6 -12l8 -4l22 -2l-18 -39l-27 4l-18 -10l6 -6l27 2l12 -4l-12 -52l-17 -32l-10 -6l2 -27l-4 -27l-27 6l-8 -4v-10l27 -12v-13l-6 -8l-13 -2l-12 31l-10 -6 l-12 -25v-14l12 -19l-8 -8l-27 -6l-8 -8l31 -35l8 6l14 2v-14l-12 -16l-2 -13l-13 4l-4 27l-10 -6v-21l-12 -2l-19 -28l-10 2v12l12 33l17 14l-6 19l24 102l25 39l-12 18l30 95l4 26l19 14l2 29l8 21l-2 22l18 45l23 96l14 33l-4 27l27 31l4 24l-4 12l12 21l-2 27l8 22l4 27 l15 -4l12 4l-12 24v23l16 43v37l18 12l13 72l10 22l12 17l21 6zM2097 330l10 -6l-18 -45l33 -27l-8 -12l-21 -19l16 -12l2 -14l-10 -2l-20 10l-10 -8l-5 -15l19 -22l-23 -35l15 -23l-9 -22l-18 -15l12 -26l-10 -6h-20l-9 -8l2 -15l23 -20l-4 -13l-16 -14l-23 -4l27 -18 l-2 -13l-23 -28l-35 -11l-20 11l-10 -4l-7 -9l-10 -4l-4 6l-2 37l-12 -4l-6 -8l-7 -23l-6 -8l-121 6l-22 -6l-23 17l-8 -7l-24 -8h-48l-24 11l-19 16v18l7 9l20 8l55 2l52 -8l22 4h98l-6 -23l15 4l4 10l10 9l25 -6l26 6l23 14l14 18l18 -10l9 8l-6 11l-13 4l2 12l23 25l12 4 l-18 22l10 21l8 6h14l-2 12l-12 19l23 38l2 13l-6 24l20 11l2 16l-10 18l22 41l6 25l3 33l12 4zM2101 399l6 9l13 -5l-11 -49l-6 -8l-12 6l-4 10l6 25zM2148 403l4 15l7 -21l-7 -45l-14 -16v12l-8 21l18 8v26zM2187 674l-4 -10l21 -11l14 4l-4 19zM2265 922l-2 -13l12 -6h15 l4 19l-10 6h-11zM1022 174l-4 -8l8 -4h12l2 31h-10l-2 -13zM2118 303l12 2v-10l-6 -10l-13 -6l-6 8l2 10zM2181 532l6 11l8 -8l3 -15l-13 -4l-10 8zM2359 1239l-10 -8l12 -8l15 -2l8 10zM2312 1071l10 -6l9 18l-19 4v-16zM1960 -72l-4 -12h22l4 8l-10 6zM2079 250l-2 -12 l18 10l2 12h-14zM1774 -86l4 -10l12 2l4 8l-4 8l-12 2zM999 78l-4 -15l13 -4l10 4l-6 11zM2212 700l12 -6l2 11l-6 12h-10zM1018 129l8 -8l6 6l2 12l-12 4zM2130 418l4 16l14 -8l-6 -8h-12zM989 18l10 -4l2 15l-6 8l-6 -8v-11zM2255 899l-4 -4l4 -10l12 -2l-2 12zM2327 1114 v-10h12l-4 8zM1737 -92v-10h8l4 10h-12zM2195 551l3 8h8z" />
<glyph unicode="x" horiz-adv-x="1572" d="M1653 1487l10 -8l-6 -27l-47 -76l-21 15l-14 2l18 -31l2 -12l-4 -15l-16 17l-6 -13l-4 -26l-19 -45l-12 -19l-18 -12l-9 -23l-61 -79l-29 -50l-4 -14l-20 -14l-31 -37l-10 -6v-17l-9 -24l-20 -27l-16 4l-9 -6v-35l-67 -102l-31 2l-10 -6l8 -6l14 6v-23l-4 -8l-18 4 l-12 -26l-27 8v16l-14 17l8 30l22 -4l7 8l-5 27l2 14l31 37l23 47l16 17l29 43l18 16v14l49 58l13 22l2 15l26 24l8 25l19 4l8 20v15l60 82l20 16v22h27l10 9l-10 10l14 39h22l-2 22l9 23l16 20l23 7l12 -5l16 17l10 4zM780 152l-6 -13l-12 41v15l-12 -5l-7 -12l11 -12 l2 -10l-6 -9l-11 -2l-2 -24l-8 -19l10 -22l-28 -43l-19 -17l-22 -8h-13l7 -12l12 -6l-4 -10l-29 -19l2 -10l-18 -4l8 -23l-31 -16l-4 -10l-14 2l-25 -10h-10l-8 6l-21 -13l-22 -6l-13 2l-2 13l-10 18l10 -2l4 -6l11 6l4 20l6 9l6 -4l-2 -13l6 -6l10 8l13 23l12 6l10 -2 l4 -10l13 -2l4 12l-2 14l12 4l-10 19l6 10l39 33l4 14l18 -4l-6 23l4 24l25 39l14 2l10 6l7 27l10 22l22 9l-2 14l11 20l45 21l16 18l2 13l14 -5l17 -30l-23 -43l-14 -39l-14 -4zM176 -59l8 8l15 -8l43 8l22 -8l68 4l26 -6l33 -2l23 4l12 -11l8 11l10 -15l7 11l10 6h10 l12 -6l-8 -11l-14 -4v-22l-23 -13l-12 15l-27 -15l-18 9l-23 -11l-22 -2l-72 8l-8 11l-20 -11l-25 -4l-53 4l-13 5v22zM1239 -59l4 -13l8 13l39 4l39 -11l8 -8l11 19l10 -4l6 -19l20 17l13 4l12 -2l12 -9l-4 -10h-20l4 -22l-15 -13l-40 -2l-37 13l-6 8l-25 -8l-66 -2l-4 8 l-8 2v14l12 21l19 4zM1485 -72l4 17l33 -11l39 11l10 -8l-10 -46l-11 -6l-16 -2l-14 27l-21 -16l-24 -5l-13 7l6 10l13 4l-6 10l-23 -4l-8 -6l2 -23l-10 2l-2 11l6 37l35 -3zM1595 -68l7 9l22 -11l10 2l13 9l18 -31l2 -14l-12 -9l-25 9l-45 -9l-10 4l12 33zM666 82l-2 -12 l38 -21l11 31l-15 2l-18 14zM1219 870l6 -8l2 15l16 14l6 10l-8 6l-8 -2l-14 -22v-13zM610 -16l-6 -9l8 -10l15 -2v21l-9 6zM780 195l13 -5l-9 23h-18l4 -12zM1399 1112l6 -6l6 8l6 25l-10 -4l-8 -11v-12zM1599 1434l3 -11h10l6 19l-16 4zM1303 999v-12l14 2l6 10l-12 7z M1505 1241l6 8l-18 4l4 -12h8zM264 -68v-6h6v6h-6zM430 -78l4 -4l2 -10l-2 14h-4z" />
<glyph unicode="y" horiz-adv-x="1671" d="M1696 1470l4 13l39 -6l8 -7l6 -22h-51l-6 -6l-4 -12l4 -11l8 -4l18 23l15 -6l2 -11l-8 -24l-23 -6l-8 -11l12 -26l-47 -4l2 -13l10 -16l-4 -21l-49 -28l-8 -51l-25 -52l-20 19l-12 -4l-11 -23l19 -18l-19 -45l-18 -17l-12 -4l-5 -26l-8 -23l-12 -18l-18 -15l-25 -12 l6 -14v-13l-37 -63h-24l10 -23l-12 -6l-7 -24l-10 6v12l-8 8l-12 -10l2 -14l16 -25l-10 -6l-14 -18l-21 -45l-12 -19l-19 -16l-10 -4v-15l-10 -20l-16 -15l-11 -18l2 -25l-30 -34l-49 -82l-23 -45l8 -23l-10 -31l2 -24l-12 -35v-12l12 -23l-25 2l-8 6l-8 -8l8 -22l31 4 l2 -72l-12 -2l-6 -6l4 -12l18 -11v-12l-4 -6l-27 10l-6 -14l31 -17l-8 -8l-23 -6l2 -12l-6 -23l-10 6l-4 11l4 51l-2 12l20 19l-4 10v20l10 4l7 11l6 24l-41 -16l-4 12l6 23l-4 10l4 22l6 11l2 20l-8 60l4 12h27l-31 26l-2 21l8 76l20 43l9 8l16 2v20l12 21l35 37v26l17 19 l6 12l20 -16l8 20l-4 23l19 41l32 37l2 14l29 39l8 22l19 9v26l53 82l37 47l10 23l21 28v17l45 41v26l30 37l23 47l22 29l23 -2l-4 27l12 -5l12 3l7 6v14h14l10 -4h15l4 12v25l-11 -2l-22 -21h-15l3 27l12 20zM1135 -4l10 4l-6 -29l6 -8l-21 -10l-6 -8l6 -13l27 -10l-10 -24 l-19 12l-8 -4l-12 -23l-23 6l-32 -6l-11 4l-16 17l-4 10h-23l-2 -20l-14 -3l8 19l-18 18l-4 -22l-17 -17h-22l-11 9l2 16l7 10l14 -10l4 23l25 -3l55 7l6 -19l8 2l13 23h22l2 -15l12 -4l-10 -18v-14l23 8l6 6l-15 22l11 5l4 10l-4 14l8 21zM885 -55h14l10 -21l-2 -24 l-14 -17l-10 -4h-15l-14 19l-31 16l-10 -6l-12 -17l-43 5l-6 10v12l10 23l10 -4l33 4l10 -9l21 -2zM1143 82l12 2l-22 -53h-31v12l-6 6l12 19zM1458 1040l-4 -14l8 -6l27 -2v18l-6 13l-8 4zM1393 952l-2 -14l8 -4h14l6 12l-2 10l-16 5zM1292 754l-4 -13l15 -4l8 8l4 13 l-4 12l-8 6zM1141 125l4 12l10 -4l8 -22l-6 -11l-12 -2zM1212 616l11 -4l-15 19l-18 12l10 -20zM1575 1206l12 -4v21l-12 2l-4 -11zM1419 979l8 8l-14 12l-4 -12zM1225 672l2 -10l10 6l2 14h-12zM1313 815l-10 -2l8 -12l10 8zM864 -78h-10l4 -12l10 -4zM1333 866l-4 -14 l10 2l7 8zM1118 66v-17l8 4l2 8zM1624 1366l4 10h8l-4 -10h-8zM1636 1309l6 4l-10 4z" />
<glyph unicode="z" horiz-adv-x="1492" d="M1505 272l17 2l6 -10l6 -74l6 -10l-12 -2l-10 10l-17 -16l2 -14l15 -19l10 -6l12 -20l-12 -78l-6 -6l14 -31l-2 -14l-6 -11l6 -10l2 -22l-27 -56h-135l-20 15l-21 -11l-47 -6l-41 2l-4 11v14l-4 10l-16 -2l-15 -33l-28 15l-33 -15l-49 -2l-70 11v22l-20 -12l-25 -23 l-31 4h-49l-18 13l-23 -13l-53 9l-19 -9l-98 4l-49 -2l-35 -10l-6 23l-6 8l-8 -6l-6 -21l-50 10l-22 -6l-8 -8l-8 6l-56 17l-43 -17l-22 -2l-47 8l-52 -4l-24 2l-21 11l-14 -4l-23 6l7 22l18 15l23 6h26l25 -9l22 9l8 -13l13 4l16 13l23 -8l4 -9l20 9h13l20 -9l23 13l12 -4 h51l23 -7l8 -6l26 21h58l18 -29l12 -2l-2 10l-10 13l8 4l11 -9l22 7l57 -7l70 13l68 -13l18 7l49 2l2 -17l9 -10l10 4l6 23l33 -4l47 4l22 -27l11 6l2 15l6 10l49 -6l18 -11l23 11l24 4l25 -6l8 -9l19 9l26 -27l13 6l14 25l76 -4l34 8l19 -8l18 10v-8l2 12l19 27l10 4 l-12 49l-6 51l2 49l8 37l-8 51l20 12l6 11l-6 10l-12 2zM1489 1470h33l8 -20l4 -27l-2 -26l-10 -23l6 -10l12 -8l-8 -27l8 -18l-6 -27v-51l-4 -23l-6 -10l-11 -6l9 -23l-29 -41l-27 -26l-24 -8l4 -23l-21 -16l-14 -23l-10 4l-4 11l-8 6l-21 -8l-6 -9l4 -10l8 -6l23 -6 l-41 -41l-2 -12l-19 -5l-20 -43l-10 -6l-15 -2l8 25l-8 12h-16l-33 -8l4 -14l23 8l22 -31l-14 -20l-21 -15l-4 -22l-18 -11l-23 11l-2 -13l15 -20l-17 -18l-2 -17l-39 -26l-22 -25l-4 -12l-13 6l-6 12l-14 -12l2 -12l16 -15l-30 -37l-19 -12l-49 -18l6 -11l12 -4l9 -8 l-33 -37l-21 -4l-4 -31l-14 2l-8 9l-4 -11l4 -26l-15 4l-20 14l-2 -14l6 -23l-22 -26h-11l-2 8l4 10l-26 6l-11 8l9 35l49 23l10 8l-2 25l10 16l11 4l8 23l12 18l27 -10l12 35l-2 14l18 6l2 14l13 21l30 35l4 10h15l8 6l8 33l8 6l19 -18l14 -5l10 5l7 22l-5 12l-20 -6l-10 2 l4 15l12 8l27 -8l-8 22l4 21l77 92l21 12l2 14l6 11l10 6l11 -23l26 6l8 9l4 12l-8 8l-14 -2l-12 4l4 12l14 11l12 -2v20l39 51l17 -2l20 8l-14 17l33 39l45 63l-2 13l10 34v17l-10 14l4 12l-4 70l2 29l22 12l-4 6l-10 4zM274 1137l2 12l23 -6l61 2l11 -4l22 6l25 -2l18 -12 l23 8l37 2l12 6l29 -10l24 2l17 -15l10 -4l6 11l20 10h13l20 -15l-16 -24l-43 -14l-53 -7h-52l-55 13l-10 -6l-21 -3l-37 7l-12 -2l-4 12l-14 6h-15l-8 -23l-26 -6l-11 4l-8 11zM971 592l-6 -10l10 -7l29 -2v31h-15zM221 1137l6 8l11 -6l4 -11l-6 -22l-15 2l-8 6zM1219 909 l-9 -10l4 -12l13 -17l10 -6l2 13l-10 24zM1401 -84v-12l26 4l-4 16h-14zM1051 690l-7 -14l9 -10l10 -4v32zM1473 1208l10 -6l6 10v13l-10 6l-6 -10v-13zM1452 1163l-6 -8l6 -4l25 -2l-4 12l-11 4zM1501 102l-6 -8l18 -12l9 18l-13 4zM244 -92l6 -8l16 12l-18 8zM905 504 l6 -6l4 16h-14zM1499 1323l-8 -12l8 -4l6 8zM375 1133l-4 -11h12v11h-8zM481 -90l8 -6l3 10l-7 6zM1487 1266l4 -4h8l-6 8zM803 -92v-10h10zM473 1126v-12l8 6zM526 1102l9 4l-13 4zM698 -98l7 2l-9 8z" />
<glyph unicode="{" horiz-adv-x="765" d="M705 543l2 12l12 -6l22 -29l-2 -20l9 -72l-3 -29l-8 -18l2 -25l-8 -22l-16 -21l-21 -73l-6 -11l-12 -2l-10 11l-23 -13l6 -12l17 -18l-19 -43l-16 -17l-10 -4l4 -8v-23l-15 -18l-20 -51l-12 -19l-9 -6l-24 4l6 8l22 11l5 12l-11 8l-24 -8h-11l-4 22l17 37l22 -14l11 14 l-7 11l-12 6l-8 10l16 45l39 8l6 10v15l-8 16l43 92l2 27l27 37l22 -6l9 2l-11 10l-22 2l6 10l10 64l6 12l-8 25zM745 1896l3 13l32 -8l11 8l6 -11l4 -24l-8 -102l2 -23l-13 4l-6 -22l-12 -17l10 -8l27 2l-2 -27l-15 -4l-12 4l-6 -10l2 -14l6 -6l17 14l8 -2l2 -53l-23 -17 l4 -26l-14 -4l-37 2l-12 -9h-14l-17 9l-16 -15l-60 -16v-16l-20 -15l-12 -37l-9 -12l-24 10l-29 43l27 54l10 -7l10 -18l10 -2l7 10l-9 10l-14 7l4 12l15 16l18 13l22 6l70 6l-12 -21l8 -14h12l6 12l-8 8l-2 17l39 16l17 19l-7 24v115l27 -2l-4 22l-16 -4l-11 4l33 37l2 11 l-4 16l-12 -8l-8 6zM745 -287l11 -10l24 6l15 -2l4 -33l-23 -8h-12l4 -12h27l6 -25v-28l-13 -9l-4 -22l17 -51l-2 -13l-41 5l-10 -5l14 -20l12 -4l12 2l-4 -23l-10 -18l-43 -4l-10 4l-2 10l8 25l-12 4l-17 -2v-12l6 -9v-12l-10 -2l-22 6l-8 6l-23 -10l-23 10l-26 -6l-58 19 l9 18l8 8l10 -6l8 -20l8 6l5 10l10 6v-18l6 -9l12 -4l4 13v26l27 -6l31 -20l8 6l2 12h14l21 10l18 -14l6 10l-2 25l27 49l-23 -8l-2 12l6 14l11 2l18 15l6 10l2 14l-10 9h-14l-10 -9l2 -12l6 -8l-4 -10l-9 2l-6 8l-2 24l10 50l7 8l-7 12v8zM702 864l13 4l30 -4l-22 -22 l-12 -6l-15 -21l11 -20l12 -7l-4 -12l-35 -33l-6 -12h-15l-18 12l-2 13l41 14l-8 10l-33 13l2 22l6 8l23 -8l6 4l-2 15l-6 10l2 10l18 -12l10 8zM694 1036l4 11h13l2 -25l16 -10l-4 -23l-27 4l7 -14l10 -8l14 10l6 -10v-37l10 -21l-8 -12l-2 -14l-6 -10l-6 4v-9l-33 15 l-8 10l-2 10l4 15l33 -9l12 5l-41 57l6 37l11 8zM799 -256l-4 -14l-23 -11l-12 5l2 24l-10 23l14 20h8l14 -10l11 -23v-14zM739 1622l-6 -12l23 -8l22 4l-6 12l-24 14zM713 436l-2 -14l28 6l-20 31l-12 2zM666 299l-9 -2l-2 -10l7 -6l14 -2l-2 12zM674 879l14 -2l-6 -13 l-12 -4l-4 8zM625 1563l10 -7l4 13l-12 6zM684 309h12l-4 10h-12zM596 131l-10 -4l18 -8zM725 1595l8 2l-10 9zM748 -281l-3 -6z" />
<glyph unicode="|" horiz-adv-x="628" d="M621 129l4 -10l-35 2l-10 -15l16 -20l29 -16l4 -54l-8 -28l-23 -11v-16l27 -27l4 -10l-4 -14l-13 4l-8 -2l-10 -10l4 -11l27 7l8 -11l-17 -43l-2 -24l15 -8v-25l-13 -20l11 -33l2 -27l-6 -53l-7 -21l17 -30l-4 -13l-15 -14l13 -22l-2 -15l-27 8l-8 -4l2 -12l8 -10l-2 -8 l-23 2l-14 -7l-6 15l-10 8l-10 -4l-13 -19l-10 -4l-4 13l4 10l-4 12l-21 -31l-10 -6l-10 2l-16 13l-11 -9l-22 -4l-49 2l-13 -4l-12 25l-10 -4l-8 -19l-33 13v12l6 6l-18 23l18 4l23 -8l26 -3l10 9l23 2l8 -6l4 -13v-18l15 4l2 37l36 -8l-6 -27l37 14l8 13l29 2l25 6l18 10 l10 21h17v14l-13 31v14l27 4l4 12l-6 11l-29 18v53l4 23l13 20l-9 33l15 2l8 10l-4 11l-19 -5l9 21l-13 10l9 17l-13 14l4 33l-4 12l2 12l6 6l-8 23l2 14l6 10l-4 23l9 10l-11 47v41l13 31l16 8l23 -6l8 -6v-12l-13 -15zM623 1313l10 -4l-12 -13l-19 2v-12l23 -4l4 -12 l-2 -49l6 -11l-6 -12l2 -20l-4 -9l8 -47l-12 -96l2 -25l6 -20l-4 -12h-13l-14 14l-18 -29l-9 9l-4 12l11 53l-3 12l-8 9l4 12l-2 51l4 35l7 10l-7 27l7 12l-9 23l2 20l7 10l10 6l-23 37v17l27 6zM573 1761l15 4l8 -6l6 -12l16 10l11 2l-6 -94l2 -23l-11 -12l4 -14l-2 -39 l-6 -10l17 -15l4 -24l-10 -37l-9 6l-2 8l4 27l-14 -2l-8 -31l-12 -4l-9 47l2 25l11 32l-11 23l-4 23l2 12l11 -4l6 -11l14 7l8 12l-8 18l-10 -10l-12 -4l-7 8v25l7 8l14 -2l8 -6l8 4l4 10v17l-10 2l-20 -7l-17 23zM578 748l6 10l43 -41l2 -12l-39 -21l4 -8l22 -2l9 -23 l-9 -2l-18 10l23 -32v-15l-23 -2l-10 6l10 17l-12 6h-11l-2 37l7 22l8 11l-10 24v15zM598 1442l4 10l14 -6l-4 -31l-10 -18l12 -2l9 -9l6 -38l-4 -13l-23 2l-18 11l-9 18l5 14l-13 27l21 39zM614 494l15 2l-2 -13l-11 -8l-26 -4l-10 -6l4 -27l12 6l14 25l19 -4v-49l-4 -15 l-23 2l-8 -6l8 -12v-10h-18l-9 41l-8 8l8 27l-2 26l7 10h24zM614 592l15 2l4 -8l-10 -21l2 -47l-4 -10l-19 8l4 10l-10 -6l-6 -10l-2 -14l-13 6l-2 10l17 29l-19 16l33 31zM610 930l4 12l11 -4l4 -47l-2 -45l-6 -37l-11 6l-8 25l14 22l-22 15l-19 20l29 23zM610 315l11 2 l-11 -20l-14 -8l-2 -17l12 -2l6 9l13 6l4 -56l4 -12h-12l-21 14l-14 23l-11 8l5 45h14zM602 1849l8 9l4 -19l15 -24v-52l-33 21l-16 2l2 14l-7 27zM588 193l2 16l24 -6l11 -6l-7 -9l-10 -4l-12 2zM580 791l8 8l10 -8l-4 -27l-14 2l-5 12zM612 1481l13 2l-2 -15l-7 -8l-18 13 l-4 10l10 2zM592 944l10 -2l-14 -22l-13 -5l9 23zM610 782v17l13 -4l4 -11l-2 -8l-11 -4zM580 344l8 8l6 -6v-12l-10 -4l-9 4zM606 -291l10 -4l-2 14l-12 7l-2 -9zM616 84v18h13l-2 -14zM590 39l-10 -8l14 -4v8zM590 1196l4 -4h8l-4 8zM590 1108l4 -10l4 4zM590 848l-6 14 l6 -6v-8z" />
<glyph unicode="}" horiz-adv-x="765" d="M752 68v14l14 -2l16 -12l-14 -48l6 -6h21l4 -28l2 -74l-15 -23l7 -8l2 -57l-13 4l-6 8h-12l-2 -12l20 -14v-29l-6 -10l-12 -7v-24l-16 -14v-27l-7 -18l-8 -7l-18 15l-2 -15l6 -26l-10 -23l-35 -35l-25 7l-18 14l-6 10l-17 -6l-8 -10l6 -8h35l8 -7l-6 -22l-16 -17l-11 -18 l-26 -4l-23 -10l-14 -15l-2 -8l-72 -20l-26 2l-19 -25l-28 2l-25 -6l-10 -6l-103 -6l-32 6l-21 14l2 15l14 18l23 8l78 2l74 23l36 2l99 57l12 -4l8 -8l10 2l-4 27l31 34l18 13l15 2l35 63l22 -20l10 -2l4 12l-14 23l6 6h21l-4 18l-13 -8l-10 -2v12l14 23l23 14l-10 31 l14 18l16 45l11 8l-19 19v14l4 10l27 21l-27 27l7 26zM793 1524l4 -13l-4 -10l-15 -14v-14l23 -5l-6 -127l-15 -55l-16 -29v-14l-8 -26l-27 -50l-10 23l-23 -16l-4 -15l8 -8l29 12v-16l-14 -19l-19 -14l2 -22h-12l-33 -19l6 -22l-2 -9l-10 -6l-16 2l-19 49l19 -8l8 8v11 l-8 24l35 15l-17 22l15 21l36 96l23 27l-4 12l2 24l14 37l2 15l23 -9l8 19l-8 8l-19 8l9 49l-9 11l9 8l2 24l-7 35l5 10l10 7l-12 22l-3 14l9 9l10 2l10 -6l10 -23v-12l-6 -11zM760 711l12 -4l21 -29l-19 -10l-6 -11l6 -14l-2 -12l-24 -31l8 -10l16 2l-20 -53l-17 -15 l-24 -8v62l10 6l2 26l10 -2l8 6l11 23l8 8l-6 14l-2 23l-13 -2l-6 -8l-10 26l25 13h12zM688 580l14 2l-10 -47l6 -23l-12 -2l-18 -12l-15 -19l-4 -12l-26 6l-11 19v51l21 12h29l14 18zM727 817l-2 17h35l10 -23l2 -14l-10 -9l-14 -20l-11 -8l-14 -2l-2 12l10 10l14 4l-4 13z M670 -375h18l-6 13l-10 8l-15 4l-6 -10l6 -9zM702 1237v-16l23 -9l-4 29l-10 6zM752 754l12 2l10 -21l-2 -10l-12 4l-6 12l-9 7zM745 1329l-8 -10l15 -4l12 4l4 8l-12 10zM725 565l4 -10l16 4l7 10l-9 6l-12 -2zM729 733l12 6l-2 -12l-16 -6zM733 1268l12 -2v14h-12v-12z M719 623v8h14l-8 -8h-6z" />
<glyph unicode="~" horiz-adv-x="1060" d="M1044 639l-6 -10l9 -25l-5 -29l-26 -8l6 -10l12 -4l-12 -51l-10 -23l-19 -14l-4 -25l-18 -12l-4 -12l-17 -19l-39 -30l-8 -11l-26 -2l-23 -8l-8 -8h-129l-23 10l-22 27l39 18l51 -2l24 4l50 17l43 26l36 35l25 39l14 -4l9 -8l4 10l-11 6l-4 10l9 4l22 -4l10 4l-4 11 l-20 12l-6 8l4 12l18 15l23 6l-7 6h-12l-10 6l2 29l18 47l25 41l12 -6l19 -29v-26zM1004 643l8 -6l12 20v11l-8 6l-10 -6l-5 -13zM952 440l-4 -12l10 -2l17 14l-12 4zM434 375l-12 8l-23 -10l-22 -4h-51l-78 14l4 27l16 18l11 4l26 -8l39 8l14 -2l19 -14l20 12l37 8l23 -4 l10 8l12 -4l10 -10l5 -23l-13 -20l-35 -12z" />
<glyph unicode="&#xa1;" horiz-adv-x="661" d="M666 -86v-12l-9 -8l-45 -13l-73 6l-35 -4l-17 15l-18 -15l-55 -2l-37 4l-10 6l-76 -8l-51 8l-7 13v12l9 25l24 -4l72 4l14 -17l-4 8l21 11l37 -4l8 -7l24 9l68 -2l39 6l4 -17l20 13l45 6l48 -15zM668 1358h16l10 -21l11 -59l6 -10l-9 -23l3 -18l-5 -27l-26 -4l14 -22 l-10 -23v-16l-35 -15v-35l-16 -16l-25 -10h-16v-23l-27 -4l-22 8l-15 15l6 26l11 21l63 67l23 -8l8 10l-4 13l-8 8l18 63l23 9l-15 8l-4 24l8 25l27 14l-6 11l-13 4zM555 870l2 15h14l13 -21l6 -24l-2 -11l-13 -8l11 -22l10 -39l-2 -12l-8 -11l12 -30l8 -7l-6 -10l10 -61 l-8 -23l16 -49l3 -29l-5 -20l-6 6v25l-24 -4v-23l18 -14l12 -4l9 -9l6 -51l-6 -24l-9 6l-10 20l10 27l-10 18l-10 -4l-6 -8l-12 16l-7 25l4 12l9 8l-13 33l4 10l11 7l-2 14l-21 12l-2 15l10 4l13 -9l8 11v14l-12 25l-13 -15l-10 8l-4 15l6 8l14 59l7 9l-7 8h-20l4 10v16 l-12 35zM649 160l6 -8l-2 -13l-10 -20l12 -23l2 -26l-4 -11l-10 -6l8 -6l11 2l8 -6l-8 -27v-57l-11 -2l-26 6l-9 8v99l-6 14l2 22l-8 76l2 6l23 13zM625 334l4 8l6 -4l4 -10l-4 -25l4 -10l-14 -12l6 -23l-6 -12l4 -10l10 -9l4 -10l-8 -8l-6 4l-4 10l-11 -2l-2 -12l-6 6 l-6 23l6 43zM584 401l2 15h12l10 -60l-2 -24l-8 -21l-10 6l-2 13l4 24zM604 -74l-6 -4l8 -8l6 -23l13 5l-4 22l-9 10zM598 1124l-4 -12l10 -4l4 10zM575 1094v-15l11 6zM584 612v-10l8 4z" />
<glyph unicode="&#xa2;" horiz-adv-x="1251" d="M1247 315l-4 13h12l7 -27l-5 -25l-18 -16l-22 4l6 -10l16 -2l8 -6l-35 -31l-2 25l-12 6l-6 -10l10 -37l-35 -33l-14 -19l-23 7l-12 -4l12 -23l-18 -16l-80 -43l-16 18l-10 -4l4 -23l-21 -16l-24 -29l-4 -77l-5 -11l7 -10l-2 -27l-13 -18l6 -14l-2 -11l-8 -10l-14 17 l-10 -9l-5 -12h-192l-51 4l-23 -8l-26 4l-25 12l-8 9l14 20l4 12l15 -8l24 10l47 2l49 -12l21 12l18 -8l23 8l78 7l20 12l-2 12l14 37l-10 47l2 49l19 41l26 6l21 13l53 43l37 14h14l8 16l9 7h18l-4 14l4 10l10 8l6 -26l7 -11l10 15l-19 35l19 8l4 -15l22 -6l15 39l8 10 l-4 15l16 30l15 -4l8 -8l14 -6l8 6zM1268 834l-2 -15l-64 -33l-22 -16l-35 -8l-31 -23l-39 -6l-22 -10l-25 -21l-45 -10l-8 -8h-29l-8 -8l-43 22l4 15l19 30l26 9l64 32l39 9l20 14l45 16l62 33l49 14l28 2l15 -16zM702 700l-10 -6l-8 4l-4 9l-18 -17v-14h-31l6 -10v-13 l-10 -20l-19 -15v27l-35 4v29l35 55l10 -8l5 -12l12 6l27 -2l4 12l-9 8l-12 2l-6 13l6 12l12 2l15 -4l26 14l25 -4l16 -16v-23l-6 -10zM1241 836l2 -13l10 4l2 13l-8 6zM606 680l6 -4l9 26h-13zM1141 172l16 -2l-4 10l-10 4l-8 -4zM1118 772l12 -2l11 16h-27zM1153 248l4 12 l10 -4v-10zM1184 815l-8 -6l14 -4zM993 733v-8h8v8h-8z" />
<glyph unicode="&#xa3;" horiz-adv-x="1255" d="M1260 268l6 -10l-4 -133l-25 -23l14 -18l13 -25l2 -24l-4 -12l-11 -11l9 -10l4 -27l-7 -24l-6 -10l11 -13l-19 -30l-22 -11l-11 2l-8 9l-31 -19l-26 8l-10 -6l-25 -2l-23 6l-18 13l-8 -7l-6 -12l-25 6l-39 -2l-8 27l-10 -4l-8 -19l-56 -4l-35 6l-16 17l-6 -6l-2 -13 l-29 -6l-55 10l-25 11l7 -15l-21 -6h-27l-53 10l2 23l-10 4l-8 -8l8 -19l-10 -6l-25 -2l-22 8l-21 -8l-45 -6l-24 2l-19 8l-125 -8l-72 8l-20 -8l-25 12l-16 15l12 8l6 12l19 17h16l23 -9l12 7l6 -7l-4 -10l8 6l4 11h50l14 -13l20 11l25 6l20 -6l7 -11l24 2l15 13l24 -6 l76 6l24 -6h68l23 -17l38 23l23 -15l4 9l10 4l13 -4l10 -21l8 -4l14 2l-4 10l-10 6l-4 13l90 -4l12 4l7 -21l-11 -20l8 -4l23 8v31l10 6h17l6 -23l14 2l21 15l10 -3l16 -10l-4 19l21 -11l10 2l10 9l12 -2l11 -9l34 9l19 -9l10 9l23 2l22 -9l17 -14l4 -10l10 8v8l-8 11 l-23 10h-10l2 12l18 27l11 -2l12 -15l14 13l-20 30l-21 6l8 93l-4 49l23 10l-31 31l10 22l13 4l-2 13l-13 18l4 10l23 8zM1237 1174l2 10l21 -4l6 -6l22 -58l-10 -26l-14 -13l-9 -22l27 -19l-2 -14l-12 -18l-21 -9l-22 4l2 11l10 4l-12 35l-11 -5l-4 -22l-16 -2l-45 12 l-8 -10l4 -12l-6 -4l-9 4l-4 -23h-14l-16 12l-39 -10l-25 4l-12 6l4 15l12 16v14l64 7l12 -7l18 7l50 -7l24 11l15 16l20 72l16 -21l9 2l2 23l-9 6l-12 2l-8 6v13zM1067 707l-8 -11l10 -18l-4 -47l6 -80l-2 -49l-4 -10l-25 -5l-2 11l4 10l-14 16l-18 13l2 51l12 18l-10 21 v12l10 23l-10 18l-2 27l4 12l26 -4l-4 10l-18 8l10 15l10 4l13 -2l14 -19v-24zM983 1047l14 4l13 -29l-13 -6v-25l-53 2l-24 6l-17 19l23 6l-4 25zM657 1147l9 10l18 -8h14l4 -27l-4 -10h-18v-12l8 -19l-22 -8l-25 2l-10 -4l-8 19l-2 22l12 6zM635 1044v15l18 -12l23 2 l-17 -19l-6 -12l-14 14zM1198 1008l14 14l9 -6v-10l-11 -2l-4 -11l-8 -6l-10 2l-4 8v13zM1225 45l-4 -14l10 -4h14l10 4l-22 26zM1130 -84l5 -10h14v22h-14zM1266 1055v16l12 -4v-8zM1044 580h15l-4 8l-15 2zM524 -86v-12h8l5 8zM1255 1108l-4 -10h11v10h-7zM1036 553v-12 l8 6zM330 -88l10 -6v8zM1241 223l10 -8v8h-10zM643 1104l4 -14l2 8z" />
<glyph unicode="&#xa5;" horiz-adv-x="1785" d="M1561 408l4 -13l-6 -12l-21 -12l-4 -13l8 -8l27 4l4 -24l-2 -23l-6 -10l2 -49l-11 -19l17 -39l-2 -14l-12 -4l-7 -22l-45 -9l-84 -4l-34 4l-17 13l-45 -13l-57 9l-23 -9l-14 -16l-10 -21l-9 -55l3 -16l-19 -19l19 -57l-13 -23v-22l-4 -10l-8 -6l-16 -2l-9 10v14l-8 8 l-14 -6v-35h-17l-18 13l-14 2l8 24l14 19l35 12l14 -2l2 14l-14 21l-4 14l10 6l15 -2v8l-17 19l2 26l-4 27v37l10 22l-2 27l11 18l18 9l25 2l92 -6l14 -33l10 4l-2 24l21 7l53 4l53 -2l43 -11l10 9l3 10l-5 10l17 55l-2 13l-15 16l5 23l-5 69l9 37l22 10l6 -4l-4 -10z M1782 1489h16l23 -35l-35 -61l-6 -25l-19 -8l-35 -70l-30 -37l-10 -6v-16l-21 -25l-2 -12l-27 -16l4 -23l-30 4v-12l14 -14l-10 -27l-8 -10l-15 -2l-8 6l6 10l13 2l4 12l-4 9l-15 -5l-8 -8l-8 -37l-10 -8l8 -10l2 -12l-4 -13l-11 -8l-12 -2v-24l-6 -9l-12 -2l-19 17l-4 -8 l-20 24v21l8 20l78 113l10 30l14 2l9 9l4 24l49 80l37 47l6 25l6 10l18 12l13 2l-6 21l2 10l12 4zM993 -70l8 -8l17 15l37 10l20 -10l4 -13v-16l13 -19l-13 -6l-8 2l-27 41l-10 4l-8 -10l-6 -26l-8 -13h-13l-28 15l-8 -9l-33 -6l-12 19l-23 -11v15l-18 -17l-17 -2l-4 19 l-22 -10l-13 2l-10 8l6 24l6 11l51 4l21 -9l-8 -4l10 -8l16 -2v10l-6 7l25 8h26l25 -6zM600 158v-13l-106 -6l-13 6l-28 27l6 10l18 11l23 4l53 -2l35 8l10 -8l4 -11zM1536 811h16l-14 -23l6 -8l25 -2l-2 -28l8 -64l-10 -18l-25 10l-24 39v71l10 19zM1516 657l4 15h16l6 -10 l29 -21v-33l-12 2l-11 -6l8 -10l19 -12l-6 -25l-6 -10l-11 -4l-4 26l-6 13h-22l2 12l-4 31l8 8zM1432 184l-11 -4l4 -12l9 -6l22 8l6 10l-8 6zM1194 117l14 -4l2 22l-10 19l-8 -27zM1532 303l12 2v19h-10l-4 -11zM1671 1255l-12 -2l6 -12l12 2zM1530 731v-14l12 2l6 10z M1524 1044l-8 -2l4 -12l14 12zM1188 57l10 6l-16 5zM1696 1374v-10h12l-4 8zM1257 172v-10l13 14zM1686 1346l10 -9v11z" />
<glyph unicode="&#xa6;" horiz-adv-x="653" d="M600 522l8 15l13 -5l14 -12l4 -10l-2 -12l-16 -25l18 -18l2 -21l-6 -49l8 -18l-6 -25l2 -12l-23 -17l11 -24l4 -35l-23 2l-8 -6l16 -23l27 4l-2 -26l-10 -21l-8 9l-5 12l-14 4l-4 -12l8 -23l-8 -4h-14l-6 14l6 78l-2 57l6 11l-8 32l4 13h22l8 6l-8 4h-14l-12 47l2 47 l6 25l26 -4l-4 8l-8 4zM598 1069l-12 25l30 -4l17 -29l2 -14h-23l-6 -7l-2 -12l10 -4h17l10 -23l-4 -24l-6 -8l6 -13v-24l-10 -47l-23 -8l10 -21l-2 -25l-34 -8l-7 13v14l-8 8l-8 -8l4 -12l-4 -15l-12 4l-11 19l-14 4l2 -10l8 -2l4 -11h-106l4 15l12 8l-6 12v10l8 9l13 4 l4 -8v-15l10 8l21 9l57 6l22 -15l15 -4l4 8l-4 23h12l8 6l6 19v39l9 22l10 8l-27 10l-8 -10l-2 -22l-8 6l-2 53l-6 12l4 13zM618 1417l5 13h12l-2 -13l4 -22l-2 -11l-8 -8l8 -22l2 -27l-4 -10l-10 -8l6 -11l10 -4l4 -8l-6 -8l-10 -4l16 -33l-6 -27l-21 -30h11l12 8l2 -12 l-6 -25v-16h-14l14 -21l-31 -14l-4 10l-6 4l-12 -2l2 12l16 15l-14 18l2 13l-10 49l12 20l8 -10l6 6l-14 16v23l-8 4l12 18l-8 9l-2 10l4 20l-6 11l12 4l27 -4l-3 12l-10 4l-8 -4l-6 12v12zM502 -440l8 -6l18 12l41 -4l13 4l2 -15l12 -18l2 -12l-35 -8l-22 4l-17 -11l-10 -2 l-10 23l-8 8l-13 4l-22 -26l-10 -5l-43 15l-11 -15l-10 17l-12 2l-4 -19l-31 5l-8 8l22 14l-2 23l10 6l27 -2l8 -8l52 10zM356 877l11 -7l8 19l28 -4l5 -25l-5 -20l5 -13l-27 2l-43 13l-25 -6l-10 36l-27 -18l5 -8l18 -10l-10 -7l-25 7l-14 18l2 12l8 11l47 6l10 -6l9 8 l10 2zM633 111l6 -13l-14 -8l-9 -10l23 -12l-6 -9l-33 -10l2 39l-12 23l8 6l12 47l13 18l10 -8l4 -10l-6 -39zM623 -18l12 -9l-6 -32l10 -35l-10 -10l-25 -7l-12 2l-8 9l-6 14l2 10l6 6l12 2l-4 13l6 18l4 -26l14 2l5 8v22l-19 13l-6 -9l-2 11l10 2zM596 1679l8 11l19 -7 l-5 -10l13 -2l-2 -14l-8 -8l10 -21l-4 -24l-23 2l-10 -7l-8 31l14 6l-10 31zM598 -360h27l14 4l-6 -33l2 -27l-12 6l-15 21l-6 -12l-2 -23l-10 -4l-17 16l9 23l-4 14l12 2l6 6zM627 -270l-11 -6v38l-4 11l-10 -6l-4 -23l-8 -8l-6 24l2 29l37 2l4 8l6 -8l6 -24l-6 -27z M594 1841l6 8l27 -2l14 -35v-12l-10 -18l2 -10l6 -7l-12 -2l-11 11l-4 14l15 31h-11l-14 6l-12 -2l-4 10zM578 1524l8 14l26 -20l11 -21l10 6l10 -6l-4 -10h-16v-25l-25 -10l2 14l8 9l-2 12zM309 -436l13 -6l-27 -15l-8 2l-2 -8l6 -14h18v-10l-6 -7l-12 -2l-8 27l-13 -2 l-6 -6l-10 8l4 12l8 8l13 -2l20 13zM618 -160l5 13l12 -5l4 -10l-29 -18l-10 2l-6 -27l-10 4l-6 23l8 10zM596 -322l4 13l18 -21l-28 -14l-4 12zM631 1739l8 -10l-43 -3l12 7l-4 10zM592 1716h12l-2 -14l-8 -8l-10 6l-2 12zM438 -467l13 -2l2 14l-19 4l-2 -10zM616 1217 l11 4l-2 10l-21 2l2 -12zM586 1573l-4 12l10 -4l8 -10l-2 -12l-10 4zM469 846l10 -6l8 10l-8 6l-14 2zM604 436l12 -2v17h-16zM623 -322v15h12l4 -10zM600 -453v15h4l8 -13l-4 -6zM629 10l6 8l6 -10l-10 -8zM618 -469l-2 12l13 -4l-2 -10zM614 1251h13l-9 11l-6 2zM627 23 v14l10 -6zM594 1747l-4 4l6 4l4 -8h-6zM549 -457l6 6h-10zM600 -356l-2 -4h-2z" />
<glyph unicode="&#xa7;" horiz-adv-x="1181" d="M1102 295v12l22 -18l-6 -23l6 -8h13l8 -47l-2 -49l-15 -33l2 -12l11 -17l-27 -4l10 -30l-63 -99l-14 -4l-50 -41l-22 -4l-25 -22l-20 -7l-12 2l-17 -12l-51 -6l-43 -14l-29 2l6 8l-6 8l-10 -4l4 -8l-2 -10l-27 2l-26 -4l-23 2l-12 6v22l-10 -4v-18l-51 2l-50 10l-22 8 l-17 15l5 10l20 4l12 -4l23 8h12l23 -8l-9 -19l5 -6l22 2l-6 13l2 10l6 6l23 2l24 -8l11 6l49 6l26 8l8 -4l5 -8l12 8l6 10l29 2l22 7l60 30l6 -12l30 37l70 63l6 11l10 -2l17 -11l8 4l-14 35l2 10l12 3l14 -7l-10 23v16l14 2l11 9l8 26l-19 17l-4 14l23 4l-14 41l2 22z M1124 1241v12l31 -20v-33l6 -10l4 -27l-2 -26l-4 -11l-8 -6h-10l-4 -12l-82 -6l-35 6v27l-14 -5l-7 -24l-24 -2l-27 8l-18 14l-4 11l4 12l10 12l25 -2l45 4l51 -2l4 -8v-14h12l10 30l23 23v27l18 12zM1120 457l-2 16l-10 -4l-8 -18l8 -9l16 4v-12l-14 -14l-27 12l-18 19 l6 26l10 23l15 18l12 -2l16 -18l13 2l-11 18l-6 35l4 12l27 -8l-4 14l4 25l20 29l-8 10l-12 6l12 33l8 12h50l-4 -22l-9 -11l-14 -2v-26l18 -11l-4 -14l-18 -16l6 -11l4 -30l-16 -17l-37 -63l-19 -17zM1169 741l2 17l13 -2l24 -21l-6 -10l2 -20l-10 -7h-14l-11 7l-2 14l13 2 l14 -6l-6 10zM1137 1192l-13 -4l4 -10l19 -9l-2 15zM907 -86l15 -4l-2 12l-19 10l-4 -10zM987 -23l10 -2l-2 25l-10 2zM1049 14l12 -2l-2 21l-10 2v-21zM1165 549l9 -10l4 10h-13z" />
<glyph unicode="&#xa8;" horiz-adv-x="911" d="M983 1860l4 14l12 -4l17 -17l6 -22l2 -78h-12l-15 8l-10 -16l14 -25l3 -14l-25 -35l-8 -22l-29 -29l-16 -2l-15 -19l-14 -2l-14 13h-13l-4 -19l-71 -2l-25 6l-16 15l-4 26l10 9h49l63 22l13 -22l8 8l-4 28l18 -8l35 58l14 -5l9 9l-19 14l15 20l6 25l-2 16l26 11z M451 1784l28 8l19 -33l8 -22l-2 -17l-25 -30l-6 -23l-33 -37l-20 -16l-25 -12l-47 -11l-80 -4l-18 17l-12 24l8 12l22 -8l21 13l71 24l19 14l6 11l21 -8l6 8l-4 14l16 16zM944 1661l12 -2l-8 20v15h-10v-25zM1001 1726l13 17l8 -10l-8 -9zM455 1726v-14l12 2l2 12h-14z M907 1647l-4 -11h10l7 9z" />
<glyph unicode="&#xa9;" horiz-adv-x="1818" d="M1804 893v12l27 -31l-2 -26l14 -35l-8 -33l4 -12l14 -14l5 -80l-3 -51l-12 -72l-18 -39l-13 -16l9 -23l2 -27l-11 -8l-14 -2v-14l6 -12l-22 -19l8 -31l-6 -12l-21 -18v-15l-14 -26l-14 6l-13 -2l4 -10l19 -7l-16 -26v-14l-21 -13l-6 -10l-2 -14l-35 -31l-4 -18l-39 -33 l-16 -21l-4 -12l-33 -23l-6 -10l-43 -26l-37 -33l-23 -12l-26 -9l-15 -18h-14l-12 -6l-19 -19h-18l-53 -22l-9 12l-4 -10l-18 -19l-12 -4l-27 2l-14 -10l-27 10l-8 -22l-99 -4l-100 -11l-18 9l-78 2l-8 10l-21 12h-26l10 27l22 2l58 -6l18 8l25 2l59 -12l37 14l16 -8l21 14 l20 6l47 7l21 12l20 -4l13 4l10 10l14 4l12 -4l25 -27l-10 23l16 18l94 43l19 17l6 10l27 8l20 15l23 26l22 10l55 52l13 6l12 22l14 4l9 23l14 20l4 15l37 26l2 15l6 10l27 20l2 27l10 16l20 11l-4 12l2 22l27 56l12 -2l13 -11l8 9v8l-17 33l2 16l15 23l-4 26h12l8 4l-8 8 l-8 19l4 24l22 5l9 8l-9 6l-18 2l-2 8l10 33l-4 12l6 12l12 7l-10 22l-6 49l2 37l14 4l-18 13zM1305 909l8 11l12 -7l18 -16l-4 -8l-22 -2l2 -23l-12 -30h-15l-6 -9l-26 13l-9 -25l-22 -27l-15 -2l-18 15l-4 -11l4 -16l-72 -12l-12 -6l-14 18l-2 25l10 24l24 6l21 15l27 6 l20 12l49 17l29 20l27 -10l4 10zM1067 -102l-4 -11l16 -14h15l-2 12l-9 9v12h-12zM1749 406l-8 -9l26 -8l7 12zM1552 96v-16l15 2l4 10zM1339 862l9 17l14 -5l-6 -10zM1128 -86v-14l15 4l-2 8zM1247 -90l10 -4v16l-10 -4v-8zM807 -106l4 10l6 -6l-2 -11zM1282 866v-10h8 l4 10h-12zM1012 -121v-10l8 4zM1188 -68v-6h8v6h-8z" />
<glyph unicode="&#xaa;" horiz-adv-x="1079" d="M1053 1477l14 -2l-6 -37l10 -8l-12 -19l10 -20l6 -45l-4 -125l-12 -15l6 -10l2 -27l-4 -10l-12 -6l10 -4l12 4v-178l-29 -4l5 -13l22 -2l-2 -24l6 -51l-2 -23l-14 -18l8 -9l-2 -12l-14 -2l12 -47l14 -18l-6 -54l-6 -20l-21 -29l-45 8l-75 -10l-23 2l-22 8l-9 9l-10 -7 l-6 -10l-10 4l-53 -4l-39 6l-25 -12l-27 6l-10 -4l-6 -10l-72 -2l-10 -6l-16 8l-11 -6l-49 2l-8 8l-47 20l-6 11l18 16l23 4l74 -10l24 4l49 18l60 3l10 6l76 -13l51 13l22 -9h25l10 -14l11 2l6 8l26 -2l8 6l3 9h22l8 -4l23 38l18 -16l19 8l-7 19l-26 -4v110h10l4 8l-2 15 l-10 20l2 17l12 -4l10 -11l9 11v12l-6 12l-11 4l-14 -2l-6 76l6 18l10 9l-4 12l-10 8l2 14l8 11l-14 69v49l10 27v25l-6 24v21l6 8l-6 22l2 52l8 45l-6 18v14l18 -6l4 10zM569 1247l6 -10l-6 -12l-18 -15l-14 -4l-29 -24l-12 -2v-27l-21 -14l-24 -11h-15l-12 7l-2 26l4 21 l8 6l4 20l11 21l18 12l14 2l17 19l20 8l33 -6zM1047 1290l12 2l-4 11l-11 2zM1051 1354l-4 -17l10 2l6 11zM907 702v9l13 -9h-13zM461 1190l-4 -6l12 6h-8z" />
<glyph unicode="&#xab;" horiz-adv-x="1433" d="M1389 1268v10h10l10 -21l4 -26l2 -78l-22 -10l-4 -13l8 -12l14 -6l4 -10l-2 -33l-6 -10l6 -12l2 -25l-12 -23l16 -34l-4 -15l-20 -4l-6 -12l4 -10l20 -9l6 -8v-14l-10 -2l-10 6l-6 -12l4 -11l6 -4l12 4v-34l-10 -11l-14 -32l-11 -11l-18 9l-23 -41l-18 -6l-12 6l-17 -13 l-14 -32l-23 -7l-32 7v14l-9 22l21 11l16 28l17 -8l14 8l-2 17l4 14l10 2l6 -22l15 2l10 6l-20 18l4 10l18 11l23 6l-2 26l6 19l12 4l-8 53l22 8l17 -2l-8 9l-25 6l-10 6l12 27l-6 10l-2 22l4 39l8 -8l6 -27l-2 -26l10 -6l13 6l-8 22l4 23l10 4l-6 10l-35 6l-4 13l4 26 l10 25l4 22l-4 11l-10 8l6 10l12 4l4 12l-26 9v14l12 20zM756 449l16 2l14 -41l13 -74l-4 -51l-4 -13l8 -18v-14l-8 -7l-15 -2v-26l15 -15l4 -22l-4 -12l-21 -2l-10 -7l8 -6h12l11 -20l8 -6l-8 -23v-57l-11 -10v-25l-14 -4l-10 4l-15 20l7 13l2 22l-7 13l-10 8l4 18l-2 99 l10 34l-6 23l-2 98l-4 35l6 8l21 6l-12 35v10zM1411 418v-12l-20 18l-15 4l-2 -10l6 -21h17l10 4l4 -22v-35l-8 -27l8 -4l8 -14l-8 -12l-12 -6l12 -19l6 -24l-4 -23l-6 -10l8 -23l-2 -12l-10 -18l8 -19l-22 -6l-9 -6l11 -6l28 -43l-22 4l-11 -6l-2 -27l9 -4h14l8 -4l-6 -29 l-6 -10l-10 6l-27 2l-6 27l10 8l-16 27l6 10l4 24l-6 70h22l9 8l4 12l-4 11l-19 -6h-12l-4 14l8 20l31 25l-9 2l-18 -6l-2 26l10 23l-18 33l-2 12l14 -4l10 4l8 18l-12 19l-12 2l-6 37l10 20l14 15l15 -4l10 -9zM641 766l6 -12l-10 -21l2 -33h-14l-21 11l-14 16l6 25l18 18 l19 2zM793 1100l-2 -15l-13 5l-14 18l16 53l-26 2l-11 6l-6 15l27 12l8 -2l23 -33zM762 1262l2 10l14 -2l8 -6l5 -23l-9 -22l-20 10v33zM741 1053v14h27l-2 -12l-10 -4zM1378 840h-12l4 -13l14 -2zM772 289l-8 -4l6 -11l12 -6l-2 13zM741 1112l4 4h9l4 -4v-8l-13 -2z M1393 215l10 -2l-2 10l-8 4v-12zM1331 809v-6h8v6h-8z" />
<glyph unicode="&#xad;" horiz-adv-x="854" d="M838 414l-7 -13l11 -4l14 2l-29 -24l-12 -4l-24 2l-19 -21l-12 6l-6 11l-49 -13l-23 4l-16 17l-13 -6h-12l-16 16l-21 -10l-14 2l-10 -23l-13 4l-6 23l-10 -4l2 -23l-12 2l-6 19l-13 -8l-4 -13h-22l-4 17l-19 -13l-24 -2l-21 11l-27 -13l-16 17l-10 4l-10 -19l-9 -6 l-24 6l-47 -2l-9 19v12l-10 -4l-8 -23l-10 5l-6 22l16 16l21 9l96 2l4 -27l35 31l192 -4h139l11 -23l8 -8l39 35l-8 22l12 4l2 23l20 -16l7 8l-7 10l-20 12l6 15v12l-6 12l10 -2l8 6l4 11l13 -3l10 -10l4 -12l-2 -27l-8 -8l-6 -51zM805 715l12 16l21 -10l8 -8l4 -23l-6 -76 l-8 4l-7 23l-20 27l-6 26zM842 588l2 14l12 -4l-6 -10l-2 -39l-14 4l-5 12zM813 600l12 -4l-2 -14l-6 -9l-10 -4l-4 13l2 10zM424 401l-4 -14l26 -4l3 10l-11 8h-14zM330 397l-8 -2l2 -12l8 -6h12l-4 22z" />
<glyph unicode="&#xae;" horiz-adv-x="1150" d="M1182 1124v-16l-23 -6l12 -23l11 -4v-45l-11 4l11 -8l-11 -27l9 -20l-4 -23l6 -24l-11 -12l3 -25l-5 -25l-18 -45l-41 -80h-18l-19 -47l-12 -18l-19 -14l-22 -11l-21 -30l-18 -15l-78 -35l-14 -14l-12 -4l-15 -14l-20 -6h-23l-26 -7l-23 -10l-20 -2l-23 4l-51 -6l-21 2 l-24 8l-27 -4l-47 19l-14 16l-2 14l71 9l15 -13l63 8l10 -4l11 -10l4 19l135 41l12 -15l8 6l-2 21l23 10l133 107l4 22l16 16l25 43l18 48l23 10l-6 26l8 7h25l8 6l-6 10l-21 4l8 51l11 21l16 16l-23 10l7 25l-4 78l24 6l19 -6zM1083 772l4 -10l11 2l6 8l-17 19l-6 -9z M1133 877l4 6h-11z" />
<glyph unicode="&#xaf;" horiz-adv-x="733" d="M829 1872l11 -10l-19 -17l6 -10l13 -6l8 -10l-4 -21l4 -61l-6 -11l-11 -6l9 -10l6 -24l-2 -15l-8 -10l12 -23l-4 -12l-15 2l-8 10l-12 -8l8 -37l-22 -4l-9 -8l-22 14l-23 -10l-32 4l-84 -4l-9 23l-18 -19l-47 -2l-25 -6l-100 2l-37 10l-12 -6l-31 2l-12 -4l-47 6l-101 -6 l-22 2l-31 12l-8 9l12 22l10 6l21 4h51l12 5l25 -7l47 7l19 -3l2 -10l10 -10l20 12h23l8 -8l21 12l28 4l25 -2l10 -6l51 11l25 -5l8 -6l22 11l11 -5l41 2l22 -6l8 -10l21 8l49 6l23 -6l41 31l18 18l-2 11l-16 12l4 10l22 23l4 26l-26 13l-4 12v47l14 35l14 6zM774 1622l8 -6 l4 10l-4 12h-10zM821 1823l-8 -8l14 -7zM793 1729l-2 12l10 -4v-13zM825 1792v-10l11 10h-11z" />
<glyph unicode="&#xb0;" horiz-adv-x="909" d="M915 1225l5 14l41 -27l-7 -32l-8 -9l4 -12l15 -4v-16l6 -9l-19 -20l17 -6l-8 -51l-15 -37l4 -15l-14 -34l-2 -15l-14 -2l-13 6l-8 -4l4 -14l10 -4l7 -8l-39 -2l-11 -11l4 -12l15 -16l-15 -23l-18 -18l-6 -13l-23 7l-14 -31l-14 -16l-21 -11l-14 -2l-8 -6l-4 -12l-68 -21 l-27 -2l-14 -20l-10 6l-2 14l-15 -20l-24 6l-47 -6l-13 4l-22 -8l-47 24l-12 2l6 35h16l6 -26l13 22l12 -2l6 -20l27 6l10 6l6 10h16l45 18l13 -2l39 23l28 -6l8 -6l9 34l43 23l37 31l36 45l17 -15l14 -2l8 9l-4 10l-18 4l4 12l16 19l13 4l-5 35l25 41l8 26l2 37l-4 12l10 4 l21 -4l8 8l-35 15v16l23 29l-12 22zM475 1278l8 6l13 -8l10 -21l2 -12l-8 -22l-15 -21l-20 -16l-35 -17l-16 17l-6 20l8 49zM825 893l-8 -6l4 -13l23 -14l14 25l-18 22zM920 1071l-5 -14l15 -13l12 -2l6 9l4 22l-10 6h-14zM891 973l6 -10l10 6l4 14l-18 2zM440 1214l-10 -2 l4 -10l21 2l-2 10l-7 7z" />
<glyph unicode="&#xb1;" horiz-adv-x="1159" d="M1149 68l-6 -9l10 -8v21l14 -2l11 -7l-9 -45l9 -18l-2 -27l-11 -22l-26 -25v13l-4 8l-11 -6l-8 -21l-10 4l-21 -12l-8 6l-43 2l-8 6l-20 -14l-25 6l-51 -4l-25 2l-20 10l-45 -14l-54 4l-14 8l-18 -8h-43l-15 8l-69 -12l-37 6l-10 8l-19 -10l-24 -2l-56 6l-4 8v15l-10 -9 l-4 -14h-70l-33 14l-10 -6l-6 -12l-53 4l-45 8l-19 11l4 22l72 12l10 -10l4 -12l31 29l27 -23l35 12l10 11l26 -7l13 7l30 -19l13 4l20 15l13 -5l6 -10l20 12l78 -2l12 5l15 -3l8 -8l35 11l12 -5l24 -24l11 6l-2 18l10 5h27l34 -7l17 11h14l6 -9l-4 -24l10 6l15 18l98 -2 l49 7l10 -5l13 -18l10 -6l18 6l-2 27l21 10l12 2l12 -27h15l22 -8l-14 53l-12 -2l-7 -6l-12 -4l6 57l-4 25l-6 10l14 6h13l-9 9l-6 20l-2 25l-6 12l27 -4l-8 12l-15 6l-2 64l8 18l9 8l22 -10l4 -12l-18 -15l-4 -10l4 -12l12 6l2 14l12 7l7 -41l-5 -23l-6 -8l-12 -4l8 -10 l6 -25l-2 -25zM1133 1004l14 2l2 -25l20 -10l-2 -17l-6 -10l8 -8l7 -21v-22l-11 -76l4 -80l-4 -12l9 -18v-13l-11 -20l2 -17l-45 -22l-10 2l-4 10l-8 6l-17 -18l-75 4l-23 6l-22 -8l-48 -4l-24 -10v-15l-8 -16l4 -23l-6 -39l6 -10l-2 -12l-13 -19v-14l-12 -2l-24 10l-5 11 l15 16l-19 18l4 95l11 16l-6 23l10 6l12 16l18 14l13 2l51 -16l12 2l27 12l22 2l52 -4l22 2l21 9l14 14l12 41l-4 12l12 8l11 2l8 13l-27 4l8 22l-12 35l8 37l-8 23l4 8l-4 51l6 20zM848 1288l14 4l8 -12l2 -10l-6 -47l4 -15l-8 -6l-12 -2l-21 10l-4 23l15 14l-6 25l2 12z M242 682l4 8l49 -6l12 4l6 -10l-6 -37l-31 6l-8 -8l-12 2l-6 10l-10 6zM866 674l-4 -12l19 -11l12 -2l4 15l-4 10l-8 6h-11zM244 -53l-4 -13l22 3l4 10l-10 6zM420 -43l-4 -4l4 -6l12 -4l-2 12zM1044 684v-12l9 6z" />
<glyph unicode="&#xb2;" horiz-adv-x="897" d="M944 575l6 -6l-4 -10l-10 -6l4 -10l8 -6v-9l-14 -4l-8 11l-8 -7l-9 -24l4 -10l13 -5l10 23l10 -8v-25l-6 -12l-22 4l-9 -6l-2 -12l-6 -9l-39 2l-12 -6l-6 9h-39l-8 6l-11 -6l-43 -7l-38 2l-7 15l-8 -8l-22 -7h-52l-10 -4l-6 11l-2 14l-6 10l-10 -4v-18l-27 -7l-49 -2 l-31 15l-8 -6v-13h-12l-19 13l-20 -9l-10 2l-25 -6l-8 15l-15 -15l-147 6l-35 7l-6 8l-2 28l8 7l23 6l82 -4l34 4l23 -13l20 11l56 4l8 -23l8 -6h12l11 6l-4 8l-9 5l9 8l24 2l25 -6l20 4l70 -4l39 4l18 -19l4 -12l19 12l12 21l12 -4l60 4l22 -10l10 6l39 2l15 -4l45 18 l16 19l-2 12l16 41l-10 4l-8 22l4 15l19 -11l22 23l-12 4l-10 -6l-13 2l6 4l2 10l-6 -4l-12 4v45l18 17h13l12 -19l6 -26l6 -8v-52zM913 1272h15l16 -12l-16 -25l26 -43l2 -27l-8 -96l-22 -45l-4 -29l-37 -30l-13 -7l5 -26l-35 -8l-13 -19h-16l-25 8l3 41l16 19l31 -4l8 8 l-8 10l-15 -2l27 43l22 47l11 -8l6 -12l12 -6l8 10l-8 20l-22 8l12 46v34l10 19l-6 18l14 4l-10 27l8 4v23zM272 1157l11 -6l-31 -53l-12 -4l-35 6l-17 20l-4 13l27 6l18 16l11 -6zM471 1266l8 -4v-13l-8 -18v-12l-22 -11l-27 -6l-12 2l6 27l10 22l35 13h10zM874 1014 l-2 -15l23 -6l10 21l-2 8l-8 8zM928 1171l-6 -12l8 -6l14 -2l2 16l-6 11zM856 487l-4 -12l20 -8l7 12l-15 19zM535 489l-11 -4l2 -10l21 4l-2 10h-10zM328 1122l4 11l10 -7l-2 -12l-12 -4v12zM301 1143l14 4l-6 -23l-12 4zM690 485l-4 -14h14l5 10zM913 1114v-12h13v12h-13z M430 494v8h6v-8h-6z" />
<glyph unicode="&#xb3;" horiz-adv-x="868" d="M774 569l8 6l2 -8l-6 -10l29 -18l8 -11l2 -16l-37 -31l-39 -10v23h-12l-14 -39l-66 -21l-24 -4l-23 2l6 8l10 2l7 9h-13l-10 -11l-16 23l-6 -10l18 -21l-20 -10l-27 -2l-41 6v18l-27 7l-10 -2l14 -27l-75 8l-15 -2l-4 27l-18 -19l-47 23l-6 12l38 10l13 -2l10 -8l33 10 l39 -22l57 18h25l12 -33l12 2l10 9l-18 26l10 4l19 -8l12 8l10 2l12 -6l21 19l6 12l29 2l55 25h14l19 30h14zM893 829l6 9l21 -13l6 -10v-33l-6 -10l10 -2l6 -8l6 -41l-12 -25v-22l-6 -27l-21 -14l4 -10l-4 -13l-14 -14l-10 2l-7 8l-10 4l-10 -6l-4 -12l6 -12l16 -19l-6 -8 l-16 -10l-12 8l-11 2l-14 16l-12 4l2 13l6 8l2 12l27 4l-9 21l21 31l26 24l-6 6l-2 13l6 8l9 39l6 10l10 4l-20 33zM887 1296l6 -10l-12 -6l-7 -12l9 -6h14l14 -31l-4 -12l-10 -7l-4 -12l10 -26l-8 -27l-14 -23l4 -12l-2 -25l-13 -22l-20 -14l-23 -2l-22 16v29l14 45l12 16 l23 -4l4 12l-10 25l-12 4l14 31v51l4 22l16 15zM885 698l4 -12l-2 12l18 7l6 12l-10 10l-8 -4l-6 -10zM827 1110l-2 -12h25l-2 14l-12 4zM791 512l4 -8l6 12zM874 655l-4 -8l7 -2l4 6z" />
<glyph unicode="&#xb4;" horiz-adv-x="731" d="M817 1876l8 -8l-14 -33v-16l-39 -21h-10l-12 6l-19 -18l-22 -12l-19 16v-12l6 -9l-12 -4l-66 -41h-26l-10 -6l-7 -12l-14 6h-12l-37 -24h-12l-15 -19l-69 -33l-19 -14l-12 2l-8 8l-12 2l-9 -18l-14 -19l-12 -4l-19 15l-18 -27l-19 -8l-26 4l-15 33l3 24l86 43l45 19l24 6 l23 18h26l33 21l8 10l72 25l43 22l18 14l23 -12l6 10v13l39 16h14l19 16l24 9l23 -6l10 -9l4 11l-12 16l10 10l10 4l13 -2zM387 1665v-8h8v8h-8zM500 1716v-6h8v6h-8z" />
<glyph unicode="&#xb6;" horiz-adv-x="1718" d="M1663 1442l6 -10l10 6l4 14l-8 2l-10 -4l-8 2l8 16l10 7h11l8 -7l8 -20v-111l-16 -14l-3 -12l23 8l-4 -94l4 -27l-8 -6l-15 -2l19 -23v-14l-4 -8l-29 -15l6 -10l25 -2l6 -24l-6 -25l6 -61l-10 -19l6 -22l-10 -17v-12l10 -20v-29l-14 2l-9 8l-14 4l-4 -10l6 -10l23 -9 l10 3l6 -50l-4 -32l-6 -9l8 -59l-12 -33l-15 6l-12 -2l39 -34l4 -13l-12 -28l10 -23l-4 -27v-51l-4 -30l-25 -27l27 -37l6 -22l-6 -25l-8 -10l2 -17l-11 -18l17 -27l-6 -37l8 -12l-2 -27l4 -47l-4 -34l-8 8l-2 14l-7 10l-24 2l-8 7l-4 20l4 10l10 -2l4 -10l12 6l2 12l-4 27 h-16l-12 4l2 14l20 13l-22 39v14l26 8l-4 23l-18 26l6 15l-10 20l-2 25l4 49l-2 12l32 14l4 13l-8 4h-22l-11 6l7 27l10 6l14 2l-8 8l-14 2l-6 78l2 20l14 27l-14 23l2 14l8 8l-6 8l6 4l-2 13l-13 18l9 31l-9 78l5 24l6 10l-11 54l19 -4l8 14l-20 10l-7 23l5 67l-5 10l9 9 l4 26l-4 11l14 45l-4 10l-10 4v16l10 4h18l-6 11l-22 4l-4 14l2 27l6 22l-2 21l-6 10l6 12l8 6l-14 31l-5 27l11 8zM1063 -59l12 2l19 -27l12 2l22 29l25 -6l47 2l10 -41l-22 -11l-154 -12l-47 10l-41 -8l-14 8h-80l-10 19l-2 22l18 11l23 4l100 -6l23 8zM1688 -41l12 -4 v-47l-19 -14l-22 -9l-51 -4v13l-56 -7l-12 2l-8 7l-6 12l-29 -19h-14l-15 17l-20 -12l-10 8l-19 -17l-26 -2l-37 11l2 12l-10 6l-17 -18l-10 4l-6 10l-2 16l39 19l75 -2l7 -7l8 3l8 10l70 -19l20 -12v27l27 4l-2 -15l-9 -8l-4 -12l7 -6l34 6l-4 22l35 23l6 -45l12 -4l17 20 l10 6l-31 15l-8 8l12 23zM621 1130l12 5v-48l4 -14l-25 -43l-18 -14l6 -10v-15l-10 -24l-21 -13l-12 2l2 11l10 4l-4 12l-30 29l4 24l16 45l20 27l11 -8l-6 -27l6 -6l20 2l-2 14l-14 23l-10 8l6 12l10 4h25zM1657 166h16l6 -23l13 2l8 -6l6 -22h-23l-10 -4l2 -13l19 -43 l2 -12l-23 -4l-20 4l-8 23l4 69l-2 25zM1663 -14l-12 -6l-4 14l10 39l20 -6l23 2l6 -25l-6 -27h-17zM563 1030l2 -10l10 4l5 14l-2 13h-9v-11zM1030 -92v-10l23 4l-4 12l-15 2zM924 -88v-18h12l-2 12zM1665 831l-12 -4l8 -12l8 6zM1669 1077l19 23h-13zM1483 -84v-8l8 -6v14 h-8z" />
<glyph unicode="&#xb7;" horiz-adv-x="688" d="M569 453l-8 10l27 39l10 22h8l12 -18h17l12 6l-2 10l-14 15l-2 14l12 2l23 -6l10 -8l6 -19l-2 -12l-8 -10l-47 -15l-21 -12l-22 -22l10 -9h14l10 -4l-8 -10l-35 -16l-18 -19h-14l-31 -14l-19 10l-16 -14l-74 10l-22 8l-8 8l28 33l27 -2l35 4l8 6l14 -8l-4 -18l19 -27 l10 6l14 39l25 -14l8 12l16 -4l6 4v10zM664 700v13l28 -2l10 -4l15 -17l-6 -12l-21 -14l2 -15l23 -41l-2 -16l-17 -4l-10 -8l4 -25l-20 16l-15 7l4 24l19 45v39zM643 475l12 4l-4 -16l-8 -10l-8 6l-2 12zM700 614h-14l2 -10h21zM637 573l14 7l-4 -11z" />
<glyph unicode="&#xb8;" horiz-adv-x="661" d="M672 -348l8 8l31 -33l10 -20l-6 -10l-4 -25l8 -76l-2 -14l-19 -17l-2 -24l-43 -62l-22 -4l-13 -8v-22l-8 -9l-22 -6l-19 -10l-6 -12h-24l-19 -13l-12 3l-62 -11l-16 2l-18 15l-33 -11l-25 2l-22 13l-51 6l-11 4l-6 20l45 11l51 4l62 -8l37 8l45 20l51 15l35 37l14 4 l39 63l8 49l11 23l-7 20l2 10h13l24 -18l4 8v15l-6 8l-30 10l-3 16zM670 -463l-4 -10l6 -14l14 4l8 10l4 14l-10 4zM647 -600l10 2l-6 35l-8 4l-6 -25zM594 -616v-9h6v9h-6z" />
<glyph unicode="&#xb9;" horiz-adv-x="542" d="M543 1464l4 11l33 -27l-9 -23l2 -18l11 -8l-6 -150l-9 -6l15 -22l-11 -31l-10 6l-10 -2l-10 -23l10 -2l20 11l7 -9l4 -49l-27 -14l14 -43l-6 -23l8 -6l7 -20l-2 -25l-15 -2l-8 -6l25 -4l2 -45l-7 -82l5 -39l-19 8l-10 -8v-14l8 -8l21 -9l-7 -102v-62l11 -36l-2 -15 l-13 -22l15 -4l-4 -54l-7 -22l-8 -8h-16l-6 8l-2 -8l6 -11l-23 -8l-22 13l-29 -7l-20 -10l-47 10l-76 7l-25 16l-4 10l6 8l19 11l49 8l51 -8l-12 -25l8 -10l8 26l33 13l4 -25l12 -18l6 16v14l-14 15l25 8l20 18l4 13l2 39l8 10l-10 100l8 180l7 2l4 -10l8 8v33l-27 8l8 19 l27 -4l-10 24l-25 11l8 69l-4 62l19 20l-15 47l-2 23l13 20l-19 19l4 14v45l4 12h23v35h-10l-21 -12l8 35l23 -4l8 10v12l-14 18l-21 9l-4 10l15 16l-3 13l5 20zM565 1251l-14 -4v-22l-4 -15l10 7zM555 760v-12l10 6l4 10l-12 4zM539 508l12 -2l-2 10l-14 2zM557 1026l8 10 h-14z" />
<glyph unicode="&#xba;" horiz-adv-x="1005" d="M1016 1174l-4 12l10 -6l6 -11l10 -6l11 15l6 -7l6 -36l6 -7l-4 -12l4 -41l-18 -4v-49l8 4v12l6 -12l-8 -20l-21 -15l6 -6l13 -4l2 -12l-17 -21l-20 -12l8 -12l14 -6l-2 -21l-20 10l-14 2l-5 -24l15 -21l-15 -26l-26 10l2 -27l-8 -22l-25 -41h-18l-33 -37l-21 -16l-10 18 l-12 -2l12 -25l-18 9h-13l-6 -7l-10 -30h-14l-2 10l4 12l-6 10l-9 -8l-2 -14h-12l-16 -14l-2 -17h-39l-19 -14l-10 4l-8 10l-8 -6l-2 -12l-15 2l-63 -6l-21 8l-8 8l-39 -4l-49 20l-6 9l2 10l12 10l47 -6l82 10l31 -16v20l49 8l45 13l41 22l19 17l12 -9l14 -2l10 7l3 22l49 2 l8 6v15l-31 -11l2 13l15 18l24 10l17 35l10 8l18 -16l-10 -33v-10l6 -10l10 4l4 8l5 37l8 8l-11 25l-8 10l-2 10l6 12l15 -22l10 8v10l-10 27l26 22l4 9v12l-8 10l13 19l8 22l-4 27l22 -4l-22 24l-2 25l8 14l24 -2v10l-20 6l-6 7zM553 1260l12 -7l-6 -26l-43 -39l-16 2 l-11 6l-12 -4l-6 -10l10 -8h17l-11 -11l-14 2l-2 -32l-25 -11l-10 2l8 29l-22 43l41 49l14 2l33 23l12 2zM901 780v-10l14 2l5 12l-15 4zM793 729l-5 -8l15 6z" />
<glyph unicode="&#xbb;" horiz-adv-x="1433" d="M1413 803l8 6l23 -29l6 -22v-137l-2 -11l-18 -8l2 -12l16 -27l-10 -6l-4 -12l6 -25l8 -8l-10 -49l-45 -21l2 -26h-9l-92 -82l-24 4l-6 -31l-21 -14l-55 -53l-23 -13l-14 -20l-27 -25l-32 -18l-2 -12l-33 -15h-8l-5 -22l-51 -47l-20 -11l-12 -22l-54 -37l-30 -2l-15 27 l4 24l33 41l4 10l43 27l33 37l37 33l35 18l4 8v15l75 61l115 109l23 -5l4 11l-2 16l24 8l74 78l21 -6l4 10v33l10 10l-6 21l-4 100l6 43l-6 35l6 24zM672 420l12 4l-2 -14l14 -13v-16l-10 -25l-31 -37l-4 -12l-33 -20l-12 -2l-8 -23l-41 -26l-18 -17l-21 -29l-43 -28 l-86 -70l-4 -18l-18 -17l-45 -26l-37 -35h-21l-14 8l-4 14l2 27l8 23l33 34l39 31l78 76l12 2l16 12l12 4l5 15l14 18l22 12l9 -10l10 4l2 29l51 49l33 -4l10 4l-12 31l39 26l14 19l12 -6zM776 717l6 14l-10 21v28l10 23l23 4l24 -39l2 -27l-10 -18l-4 -23l-12 -8h-10 l-17 15zM1415 729v-14l29 2l-19 22l-10 6l-4 -8zM471 246l-2 -15l12 -4l13 6l2 13l-13 4zM1417 659l8 -8l7 8l2 23l-13 4zM1206 295v-14l13 6l2 16l-11 4zM596 289l10 4l-6 2l-10 12l-2 -10zM643 387l-4 -12h12v12h-8zM616 356l15 -8l-4 12zM991 111v-13h10l-2 8z" />
</font>
</defs>
</svg>
